<svg xmlns="http://www.w3.org/2000/svg" fill="none" viewBox="0 0 1173 487"><mask id="a" width="1173" height="487" x="0" y="0" maskUnits="userSpaceOnUse"><path fill="#FFF8E2" d="M0 0h1173v487H0z" transform="matrix(-1 0 0 1 1173 0)"/></mask><g mask="url(#a)"><path fill="#FFFCF3" d="M1173 1H0v486h1173z"/><g filter="url(#filter0_f)"><path fill="#FFE39C" fill-opacity=".2" d="M1174 611c-102 0-185-57-185-128 0-70 83-127 185-127s184 57 184 127c0 71-82 128-184 128z"/></g><g filter="url(#filter1_f)"><path fill="#FFE39C" fill-opacity=".2" d="M13 141c-102 0-185-57-185-127 0-71 83-128 185-128S197-57 197 14c0 70-82 127-184 127z"/></g><path stroke="#FFEF9C" stroke-miterlimit="10" stroke-width="2" d="M-135 567l-3-4c2 4 5 8 9 11 35 33 109 25 166-20 51-39 70-94 49-129l1 1 1 3 1 7v6l-1 7a67 67 0 01-3 13 114 114 0 01-17 31l-7 8-7 8-8 9-8 8-10 8-10 7-10 7a217 217 0 01-100 31h-8l-9-1-10-2a53 53 0 01-12-6l-4-3v0z"/><path stroke="#FFEF9C" stroke-miterlimit="10" stroke-width="2" d="M-203 572c27-21 60-20 74 2 34 33 109 25 166-20-14-22-12-27 5-12-84 66-194 79-245 30z"/><path stroke="#FFEF9C" stroke-miterlimit="10" stroke-width="2" d="M42 542c-17-15-19-10-5 12 56-44 74-107 40-140-14-22-3-58 24-79 51 49 24 142-59 207zM28 538c61-47 80-114 43-150M106 471c-28-3-40 12-26 35M127 396c-32 11-46 37-32 59"/><path stroke="#FFEF9C" stroke-miterlimit="10" stroke-width="2" d="M37 554c13 23 38 53 54 69 84-65 111-158 60-207-27 21-60 20-74-2 35 33 17 96-40 140zM94 455c14 22 51 32 83 22"/><path stroke="#FFEF9C" stroke-miterlimit="10" stroke-width="2" d="M-135 567l-3-4c2 4 5 8 9 11 35 33 109 25 166-20 51-39 70-94 49-129l1 1 1 3 1 7v6l-1 7a67 67 0 01-3 13 114 114 0 01-17 31l-7 8-7 8-8 9-8 8-10 8-10 7-10 7a217 217 0 01-100 31h-8l-9-1-10-2a53 53 0 01-12-6l-4-3v0z"/><path stroke="#FFEF9C" stroke-miterlimit="10" stroke-width="2" d="M-138 563c-14-22-49-26-78-8 3 6 8 12 13 17 51 49 161 36 245-30 75-58 104-139 72-190-29 18-42 51-28 73l1 3 1 1 1 4a38 38 0 010 14l-2 9-3 8a93 93 0 01-7 14 152 152 0 01-16 24l-7 8a164 164 0 01-26 24l-10 7-10 7a218 218 0 01-101 31h-9a85 85 0 01-21-5l-6-3a31 31 0 01-9-8z"/><path stroke="#FFEF9C" stroke-miterlimit="10" stroke-width="2" d="M-203 572c27-21 60-20 74 2 34 33 109 25 166-20-14-22-12-27 5-12-84 66-194 79-245 30z"/><path stroke="#FFEF9C" stroke-miterlimit="10" stroke-width="2" d="M42 542c-17-15-19-10-5 12 56-44 74-107 40-140-14-22-3-58 24-79 51 49 24 142-59 207zM28 538c61-47 80-114 43-150M106 471c-28-3-40 12-26 35M127 396c-32 11-46 37-32 59"/><path stroke="#FFEF9C" stroke-miterlimit="10" stroke-width="2" d="M37 554c13 23 38 53 54 69 84-65 111-158 60-207-27 21-60 20-74-2 35 33 17 96-40 140zM94 455c14 22 51 32 83 22M-138 563c-22-35-2-90 49-129 57-45 131-53 166-20-14-22-3-58 24-79-51-49-161-36-245 30-75 58-104 139-72 190 29-18 64-14 78 8z"/><path stroke="#FFEF9C" stroke-miterlimit="10" stroke-width="2" d="M101 335c-27 21-38 57-24 79-35-33-109-25-166 20-14-23-38-54-55-69 84-66 194-79 245-30zM80 360c-43-41-135-30-205 25M71 388c-37-35-116-26-177 21M33 307c-15 26-16 65-2 87"/><path stroke="#FFEF9C" stroke-miterlimit="10" stroke-width="2" d="M77 414c14 22 47 23 74 2-52-49-161-36-245 29 16 16 19 11 5-11 57-45 131-53 166-20zM31 394c14 23 37 20 52-7"/><path stroke="#FFEF9C" stroke-miterlimit="10" stroke-width="2" d="M-138 563c-22-35-2-90 49-129 57-45 131-53 166-20-14-22-3-58 24-79-51-49-161-36-245 30-75 58-104 139-72 190 29-18 64-14 78 8z"/><path stroke="#FFEF9C" stroke-miterlimit="10" stroke-width="2" d="M114 352l-13-17c-27 21-38 57-24 79l9 11c-14-22-1-55 28-73z"/><path stroke="#FFEF9C" stroke-miterlimit="10" stroke-width="2" d="M42 542c-17-15-19-10-5 12 56-44 74-107 40-140-14-22-3-58 24-79 51 49 24 142-59 207zM28 538c61-47 80-114 43-150"/><path stroke="#FFEF9C" stroke-miterlimit="10" stroke-width="2" d="M37 554c13 23 38 53 54 69 84-65 111-158 60-207-27 21-60 20-74-2 35 33 17 96-40 140z"/><path stroke="#FFEF9C" stroke-miterlimit="10" stroke-width="2" d="M114 352l-13-17c-27 21-38 57-24 79l9 11c-14-22-1-55 28-73zM82 421l-5-7c-35-33-109-25-166 20-51 39-71 94-49 129l-2-3v-1l-1-4-1-5v-3l1-6 2-9 2-8a93 93 0 017-14 152 152 0 0116-24l7-8 8-8 9-8 9-8 11-7 10-7a202 202 0 0153-24 241 241 0 0140-7h17l14 2 4 2a61 61 0 0111 5l3 3v0z"/><path stroke="#FFEF9C" stroke-miterlimit="10" stroke-width="2" d="M101 335c-27 21-38 57-24 79-35-33-109-25-166 20-14-23-38-54-55-69 84-66 194-79 245-30zM33 307c-15 26-16 65-2 87"/><path stroke="#FFEF9C" stroke-miterlimit="10" stroke-width="2" d="M77 414c14 22 47 23 74 2-52-49-161-36-245 29 16 16 19 11 5-11 57-45 131-53 166-20zM96 429c-37-35-116-26-177 21M31 394c14 23 37 20 52-7"/><path stroke="#FFEF9C" stroke-miterlimit="10" stroke-width="2" d="M82 421l-5-7c-35-33-109-25-166 20-51 39-71 94-49 129l-2-3v-1l-1-4-1-5v-3l1-6 2-9 2-8a93 93 0 017-14 152 152 0 0116-24l7-8 8-8 9-8 9-8 11-7 10-7a202 202 0 0153-24 241 241 0 0140-7h17l14 2 4 2a61 61 0 0111 5l3 3v0z"/><path stroke="#FFEF9C" stroke-miterlimit="10" stroke-width="2" d="M-81 454a305 305 0 0142-26l11-4 10-5 11-3 10-3 10-2 19-2 9-1a134 134 0 0120 3l5 1a52 52 0 0111 5l2 1 3 3c16 15 45 14 69-5-52-49-161-36-245 29-75 59-104 140-73 191 30-18 42-51 29-73l-1-1a26 26 0 01-3-10v-6l1-7a67 67 0 014-13 112 112 0 0117-31l6-8 7-8 8-9 9-8 9-8z"/><path stroke="#FFEF9C" stroke-miterlimit="10" stroke-width="2" d="M101 335c-27 21-38 57-24 79-35-33-109-25-166 20-14-23-38-54-55-69 84-66 194-79 245-30zM33 307c-15 26-16 65-2 87"/><path stroke="#FFEF9C" stroke-miterlimit="10" stroke-width="2" d="M77 414c14 22 47 23 74 2-52-49-161-36-245 29 16 16 19 11 5-11 57-45 131-53 166-20zM96 429c-37-35-116-26-177 21M31 394c14 23 37 20 52-7"/><path stroke="#FFEF9C" stroke-miterlimit="10" stroke-width="2" d="M151 416c27-21 37-56 24-78-68-65-213-48-324 39 14 22 39 53 55 68 84-65 193-78 245-29zM83 387c15-26 16-65 2-87M-5 398c0-24-12-62-26-84M-138 563c13 22 1 55-29 73l14 17c51 49 161 35 244-30 76-58 105-139 73-190-29 18-64 14-78-8 21 35 2 90-49 129-57 45-131 53-166 20-4-3-7-7-9-11z"/><path stroke="#FFEF9C" stroke-miterlimit="10" stroke-width="2" d="M-203 572c27-21 60-20 74 2 34 33 109 25 166-20-14-22-12-27 5-12-84 66-194 79-245 30z"/><path stroke="#FFEF9C" stroke-miterlimit="10" stroke-width="2" d="M42 542c-17-15-19-10-5 12 56-44 74-107 40-140-14-22-3-58 24-79 51 49 24 142-59 207zM106 471c-28-3-40 12-26 35M127 396c-32 11-46 37-32 59"/><path stroke="#FFEF9C" stroke-miterlimit="10" stroke-width="2" d="M37 554c13 23 38 53 54 69 84-65 111-158 60-207-27 21-60 20-74-2 35 33 17 96-40 140zM53 579c61-48 80-115 43-150M73 603c70-54 92-132 50-173M94 455c14 22 51 32 83 22"/><path stroke="#FFEF9C" stroke-miterlimit="10" stroke-width="2" d="M91 623c17 16 19 11 5-12 111-86 146-208 79-273 13 22 3 57-24 78 51 49 24 142-60 207zM177 477c31-10 46-36 32-59"/><path stroke="#FFEF9C" stroke-miterlimit="10" stroke-width="2" d="M-138 563c13 22 1 55-29 73l14 17c51 49 161 35 244-30 76-58 105-139 73-190-29 18-64 14-78-8 21 35 2 90-49 129-57 45-131 53-166 20-4-3-7-7-9-11zM86 425l-9-11 5 7a21 21 0 014 4z"/><path stroke="#FFEF9C" stroke-miterlimit="10" stroke-width="2" d="M42 542c-17-15-19-10-5 12 56-44 74-107 40-140-14-22-3-58 24-79 51 49 24 142-59 207z"/><path stroke="#FFEF9C" stroke-miterlimit="10" stroke-width="2" d="M86 425l-9-11 5 7a21 21 0 014 4z"/><path stroke="#FFEF9C" stroke-miterlimit="10" stroke-width="2" d="M82 421l3 2 1 2c14 22 49 26 78 8l-13-17c-24 19-53 20-69 5z"/><path stroke="#FFEF9C" stroke-miterlimit="10" stroke-width="2" d="M42 542c-17-15-19-10-5 12 56-44 74-107 40-140-14-22-3-58 24-79 51 49 24 142-59 207zM73 603c70-54 92-132 50-173"/><path stroke="#FFEF9C" stroke-miterlimit="10" stroke-width="2" d="M91 623c17 16 19 11 5-12 111-86 146-208 79-273 13 22 3 57-24 78 51 49 24 142-60 207z"/><path stroke="#FFEF9C" stroke-miterlimit="10" stroke-width="2" d="M82 421l3 2 1 2c14 22 49 26 78 8l-13-17c-24 19-53 20-69 5z"/><path stroke="#FFEF9C" stroke-miterlimit="10" stroke-width="2" d="M-221 657a142 142 0 0036 26l12 6a182 182 0 0063 15 358 358 0 0067-4 234 234 0 0051-14 244 244 0 0033-14l32-18 16-10 16-12 15-12a252 252 0 0038-39 400 400 0 0030-45 243 243 0 0023-65 177 177 0 00-1-69 123 123 0 00-12-32 122 122 0 00-21-31l-8-8c-16-15-44-14-68 4 5 5 10 11 13 17 32 51 3 132-72 190-84 66-194 79-245 30-5-5-10-11-13-17-32-51-3-132 72-190 84-66 194-79 245-30 24-18 52-19 68-4l-18-15-10-7-20-10-12-4a204 204 0 00-52-11H42a253 253 0 00-69 8l-33 10-17 7a215 215 0 00-33 16 313 313 0 00-62 43l-14 13-13 13-13 15a475 475 0 00-35 57 301 301 0 00-17 51 161 161 0 002 69l3 11a152 152 0 0038 60v0z"/><path stroke="#FFEF9C" stroke-miterlimit="10" stroke-width="2" d="M151 416c27-21 37-56 24-78-68-65-213-48-324 39 14 22 39 53 55 68 84-65 193-78 245-29zM180 363c-65-62-205-46-312 38M83 387c15-26 16-65 2-87M-5 398c0-24-12-62-26-84"/><path stroke="#FFEF9C" stroke-miterlimit="10" stroke-width="2" d="M91 623c17 16 19 11 5-12 111-86 146-208 79-273 13 22 3 57-24 78 51 49 24 142-60 207zM177 477c31-10 46-36 32-59M155 323c-65-63-205-46-312 37M85 300c-13-22-37-19-52 7"/><path stroke="#FFEF9C" stroke-miterlimit="10" stroke-width="2" d="M-227 650c-14-22-3-57 24-78 51 49 161 36 245-30 16 16 41 47 54 69-111 87-255 104-323 39zM80 587c107-83 141-202 75-264M60 562c98-75 128-183 69-240M181 517c-14-23-48-43-75-46M209 418c-14-22-51-32-82-22"/><path stroke="#FFEF9C" stroke-miterlimit="10" stroke-width="2" d="M77 414c14 22 47 23 74 2-52-49-161-36-245 29 16 16 19 11 5-11 57-45 131-53 166-20zM31 394c14 23 37 20 52-7M94 455c14 22 51 32 83 22M172 391c-60-57-187-41-284 35M180 363c-65-62-205-46-312 38M83 387c15-26 16-65 2-87M85 300c-13-22-37-19-52 7M80 587c107-83 141-202 75-264M181 517c-14-23-48-43-75-46M209 418c-14-22-51-32-82-22M1057-150l-17 8a229 229 0 00-47 35 172 172 0 00-30 38l-7 13a234 234 0 00-18 58l-2 15-1 12 1 12v11l2 11 2 10a193 193 0 0016 47l5 9 5 9 6 9 7 8a169 169 0 0025 26 257 257 0 0035 24c21 11 48 12 78-1 77-31 145-134 153-230-8 96-76 199-153 231-30 12-57 12-78 0a197 197 0 00269-85l6-13 6-17 4-13 3-16 2-26V23a315 315 0 00-4-33l-3-10a210 210 0 00-44-80l-9-10-9-8a165 165 0 00-35-23l-14-8a200 200 0 00-125-11l-29 10v0z"/><path stroke="#FFEF9C" stroke-miterlimit="10" stroke-width="2" d="M1270-26c-8 96-76 199-153 231-77-42-132-153-124-248 76-32 200-24 277 17zM1244 69c-39-21-67-77-63-125M1189 152c-66-36-115-132-108-214M1270-26a623 623 0 01-221 169M1270-26c-70 13-189 48-266 80"/><path stroke="#FFEF9C" stroke-miterlimit="10" stroke-width="2" d="M1270-26c-77-41-201-49-277-17 8-96 77-139 154-98 76-31 132 20 123 115z"/><path stroke="#FFEF9C" stroke-miterlimit="10" stroke-width="2" d="M1270-26c9-95-47-146-123-115 77 42 133 153 125 248 76-32 75-91-2-133zM1215-146c66 36 114 131 107 214"/><path stroke="#FFEF9C" stroke-miterlimit="10" stroke-width="2" d="M1270-26c77 42 78 101 2 133-8 95-78 139-155 98 77-32 145-135 153-231zM1117 205c-76 31-131-21-123-116-77-41-77-101-1-132-8 95 47 206 124 248zM1050 210C983 174 935 78 942-4M1049 143c-76 32-101 8-55-54M1004 54c-76 32-80 48-10 35"/><path stroke="#FFEF9C" stroke-miterlimit="10" stroke-width="2" d="M993-43c-76 31-76 91 1 132 8-95 77-198 153-230-77-41-146 2-154 98zM942-4c7-82 67-120 133-84M1019-120C943-89 932 5 994 89M1075-155c-77 32-113 141-81 244"/><path stroke="#FFEF9C" stroke-miterlimit="10" stroke-width="2" d="M1147-141c-76 32-145 135-153 230 77 42 202 50 278 18 8-95-48-206-125-248zM1075-88c67 36 115 131 108 214M1215-79A623 623 0 00994 89M1260 10c-76 31-195 67-266 79"/><path stroke="#FFEF9C" stroke-miterlimit="10" stroke-width="2" d="M1272 107c-76 32-201 24-278-18-8 95 47 147 123 116 77 41 147-3 155-98zM1183 126c-7 82-67 120-133 84M1245 184c-76 32-189-11-251-95M1190 219c-76 32-164-27-196-130"/><path stroke="#FFEF9C" stroke-miterlimit="10" stroke-width="2" d="M1057-150l-17 8a229 229 0 00-47 35 172 172 0 00-30 38l-7 13a234 234 0 00-18 58l-2 15-1 12 1 12v11l2 11 2 10a193 193 0 0016 47l5 9 5 9 6 9 7 8a169 169 0 0025 26 257 257 0 0035 24c21 11 48 12 78-1 77-31 145-134 153-230-8 96-76 199-153 231-30 12-57 12-78 0a197 197 0 00269-85l6-13 6-17 4-13 3-16 2-26V23a315 315 0 00-4-33l-3-10a210 210 0 00-44-80l-9-10-9-8a165 165 0 00-35-23l-14-8a200 200 0 00-125-11l-29 10v0z"/><path stroke="#FFEF9C" stroke-miterlimit="10" stroke-width="2" d="M1226-141a227 227 0 00-56-20 186 186 0 00-84 1 213 213 0 00-57 24 195 195 0 00-83 105l-4 13a220 220 0 00-6 57l2 24 2 10a240 240 0 0012 38 173 173 0 0027 44 371 371 0 0024 25l11 9 10 7 15 9c-32-17-50-59-45-116-5 58 13 99 45 116a270 270 0 0056 20 186 186 0 0084-2 211 211 0 0057-24 197 197 0 0083-104l4-13a229 229 0 006-57l-2-24-2-11a279 279 0 00-13-38 179 179 0 00-26-43 349 349 0 00-35-34l-11-8-14-8v0z"/><path stroke="#FFEF9C" stroke-miterlimit="10" stroke-width="2" d="M1270-26c-8 96-76 199-153 231-77-42-132-153-124-248 76-32 200-24 277 17zM1189 152c-66-36-115-132-108-214M1270-26a623 623 0 01-221 169M1270-26c-70 13-189 48-266 80"/><path stroke="#FFEF9C" stroke-miterlimit="10" stroke-width="2" d="M1270-26c-77-41-201-49-277-17 8-96 77-139 154-98 76-31 132 20 123 115z"/><path stroke="#FFEF9C" stroke-miterlimit="10" stroke-width="2" d="M1270-26c9-95-47-146-123-115 77 42 133 153 125 248 76-32 75-91-2-133zM1215-146c66 36 114 131 107 214"/><path stroke="#FFEF9C" stroke-miterlimit="10" stroke-width="2" d="M1270-26c77 42 78 101 2 133-8 95-78 139-155 98 77-32 145-135 153-231zM1117 205c-76 31-131-21-123-116-77-41-77-101-1-132-8 95 47 206 124 248zM1050 210C983 174 935 78 942-4M1006 169c-39-21-68-77-63-125M1049 143c-76 32-101 8-55-54M1004 54c-76 32-80 48-10 35"/><path stroke="#FFEF9C" stroke-miterlimit="10" stroke-width="2" d="M993-43c-76 31-76 91 1 132 8-95 77-198 153-230-77-41-146 2-154 98zM942-4c7-82 67-120 133-84M943 44c4-49 39-71 77-50M1019-120C943-89 932 5 994 89M1075-155c-77 32-113 141-81 244"/><path stroke="#FFEF9C" stroke-miterlimit="10" stroke-width="2" d="M1147-141c-76 32-145 135-153 230 77 42 202 50 278 18 8-95-48-206-125-248zM1075-88c67 36 115 131 108 214M1020-6c39 21 67 77 63 125M1215-79A623 623 0 00994 89M1260 10c-76 31-195 67-266 79"/><path stroke="#FFEF9C" stroke-miterlimit="10" stroke-width="2" d="M1272 107c-76 32-201 24-278-18-8 95 47 147 123 116 77 41 147-3 155-98zM1183 126c-7 82-67 120-133 84M1083 119c-4 48-39 70-77 50M1245 184c-76 32-189-11-251-95M1190 219c-76 32-164-27-196-130M1075-89c67 36 115 132 108 215M993 90c71-13 191-49 268-81M1190 153c-67-36-116-133-109-216M1004 54c76-32 196-68 267-80M1075-89c67 36 115 132 108 215M993 90c71-13 191-49 268-81M1004 54c76-32 196-68 267-80"/></g><defs><filter id="filter0_f" width="497.4" height="383" x="925" y="292" color-interpolation-filters="sRGB" filterUnits="userSpaceOnUse"><feFlood flood-opacity="0" result="BackgroundImageFix"/><feBlend in="SourceGraphic" in2="BackgroundImageFix" result="shape"/><feGaussianBlur result="effect1_foregroundBlur" stdDeviation="32"/></filter><filter id="filter1_f" width="497.4" height="383" x="-236" y="-178" color-interpolation-filters="sRGB" filterUnits="userSpaceOnUse"><feFlood flood-opacity="0" result="BackgroundImageFix"/><feBlend in="SourceGraphic" in2="BackgroundImageFix" result="shape"/><feGaussianBlur result="effect1_foregroundBlur" stdDeviation="32"/></filter></defs></svg>