<?xml version="1.0" encoding="UTF-8"?>
<!DOCTYPE svg PUBLIC "-//W3C//DTD SVG 1.1//EN" "http://www.w3.org/Graphics/SVG/1.1/DTD/svg11.dtd">
<!-- Creator: CorelDRAW 2019 (64-Bit) -->
<svg xmlns="http://www.w3.org/2000/svg" xml:space="preserve" width="579px" height="353px" version="1.1" style="shape-rendering:geometricPrecision; text-rendering:geometricPrecision; image-rendering:optimizeQuality; fill-rule:evenodd; clip-rule:evenodd"
viewBox="0 0 66.74 40.66"
 xmlns:xlink="http://www.w3.org/1999/xlink"
 xmlns:xodm="http://www.corel.com/coreldraw/odm/2003">
 <defs>
  <style type="text/css">
   <![CDATA[
    .fil0 {fill:#1C202B}
    .fil1 {fill:#E62875;fill-rule:nonzero}
    .fil3 {fill:#C03B88;fill-rule:nonzero}
    .fil5 {fill:#A53B89;fill-rule:nonzero}
    .fil15 {fill:#9C398A;fill-rule:nonzero}
    .fil14 {fill:#8F539B;fill-rule:nonzero}
    .fil7 {fill:#782961;fill-rule:nonzero}
    .fil10 {fill:#873D87;fill-rule:nonzero}
    .fil8 {fill:#7D77B4;fill-rule:nonzero}
    .fil13 {fill:#8162A1;fill-rule:nonzero}
    .fil11 {fill:#834084;fill-rule:nonzero}
    .fil12 {fill:#5F2753;fill-rule:nonzero}
    .fil6 {fill:#72457D;fill-rule:nonzero}
    .fil4 {fill:#14B3E3;fill-rule:nonzero}
    .fil16 {fill:#3B2848;fill-rule:nonzero}
    .fil9 {fill:#3D2C51;fill-rule:nonzero}
    .fil2 {fill:white;fill-rule:nonzero}
   ]]>
  </style>
 </defs>
 <g id="Слой_x0020_1">
  <metadata id="CorelCorpID_0Corel-Layer"/>
  <rect class="fil0" width="66.74" height="40.66"/>
  <g id="_2372420294224">
   <polygon class="fil1" points="41.67,21.04 40.5,21.71 40.26,21.85 40.26,19.62 40.5,19.75 41.68,20.44 42.19,20.73 "/>
   <path class="fil2" d="M42.7 18.34c0.65,0 1.14,0.2 1.48,0.6 0.33,0.41 0.5,0.94 0.5,1.62l0 2.35 -1.41 0 0 -2.27c0,-0.63 -0.26,-0.94 -0.79,-0.94 -0.4,0 -0.65,0.17 -0.75,0.52l-1.47 -0.85 0 -2.77 1.41 0 0 2.04c0.26,-0.2 0.61,-0.3 1.03,-0.3zm-1.03 2.94l0 1.63 -1.41 0 0 -0.82 1.41 -0.81zm5.69 -3.4c-0.15,0.14 -0.34,0.21 -0.57,0.21 -0.23,0 -0.42,-0.07 -0.58,-0.21 -0.16,-0.14 -0.23,-0.31 -0.23,-0.51 0,-0.2 0.08,-0.37 0.24,-0.51 0.15,-0.14 0.34,-0.22 0.57,-0.22 0.22,0 0.41,0.08 0.57,0.22 0.16,0.14 0.24,0.31 0.24,0.51 0,0.2 -0.08,0.37 -0.24,0.51zm-1.28 5.03l0 -4.51 1.41 0 0 4.51 -1.41 0zm4.68 -3.15l0 3.15 -1.41 0 0 -3.15 -0.55 0 0 -1.36 0.55 0 0 -1.51 1.41 0 0 1.51 0.55 0 0 1.36 -0.55 0z"/>
   <path class="fil2" d="M26.88 19.64l-1.55 0c-0.02,-0.01 -0.05,-0.02 -0.07,-0.03 -0.12,-0.05 -0.25,-0.07 -0.38,-0.07 -0.13,0 -0.26,0.02 -0.38,0.07 -0.02,0.01 -0.05,0.02 -0.07,0.03l-1.54 0c0.1,-0.22 0.25,-0.42 0.43,-0.61 0.22,-0.21 0.46,-0.37 0.71,-0.48 0.26,-0.11 0.55,-0.16 0.85,-0.16 0.31,0 0.59,0.05 0.85,0.16 0.26,0.11 0.5,0.27 0.71,0.49 0.19,0.18 0.33,0.39 0.44,0.6zm-4.23 0l-0.03 0c-0.66,0 -0.99,0.46 -0.99,1.12l0 2.09 -1.41 0 0 -2.91c-0.57,1.47 -1.92,1.58 -3.26,1.58l0 1.33 -1.54 0 0 -6.31c1.81,0 4.29,-0.36 4.87,1.81l0.86 0 0.16 0.84c0.37,-0.6 0.92,-0.91 1.64,-0.91l1.2 0c-0.07,0.02 -0.13,0.05 -0.2,0.07 -0.28,0.12 -0.54,0.3 -0.78,0.53 -0.23,0.23 -0.4,0.49 -0.52,0.76zm2.96 -1.36l2.31 0 0.15 0.61c0.64,-0.83 2.25,-0.84 2.95,0.09 0.65,-1.01 2.97,-1.12 3.39,0.83 0.85,-2.4 4.49,-1.83 4.49,0.79 0,2.5 -3.41,3.19 -4.42,0.95l0 1.3 -1.41 0 0 -2.27c0,-0.6 -0.21,-0.94 -0.8,-0.94 -0.54,0 -0.81,0.33 -0.81,0.97l0 2.24 -1.41 0 0 -2.27c0,-0.62 -0.26,-0.94 -0.79,-0.94 -0.54,0 -0.81,0.33 -0.81,0.97l0 2.24 -1.41 0 0 -1.15c0.03,-0.06 0.06,-0.11 0.08,-0.17 0.12,-0.29 0.18,-0.6 0.18,-0.93 0,-0.33 -0.06,-0.64 -0.17,-0.93 -0.12,-0.28 -0.3,-0.54 -0.53,-0.78 -0.24,-0.24 -0.5,-0.42 -0.79,-0.53 -0.06,-0.03 -0.13,-0.06 -0.2,-0.08zm1.43 2.79l0 -0.94c0.03,0.15 0.05,0.31 0.05,0.47 0,0.16 -0.02,0.32 -0.05,0.47zm-10.08 -1c0.7,0 1.97,0.11 1.97,-1.04 0,-1.15 -1.31,-1.04 -1.97,-1.04l0 2.08zm20.26 -0.16c-0.92,-0.9 -2.11,0.57 -1.26,1.38 0.91,0.87 2.11,-0.56 1.26,-1.38z"/>
   <g>
    <path class="fil3" d="M26.98 23.01c-0.03,0.01 -0.06,0.03 -0.09,0.03l0 0.05c0,0.02 -0.01,0.04 -0.01,0.05l0 0 0.01 0.01c0.04,0.01 0.06,0 0.08,-0.01 0.01,-0.02 0.03,-0.04 0.02,-0.07l-0.01 -0.06z"/>
    <path class="fil1" d="M25.75 17.14c-0.09,-0.05 -0.19,-0.07 -0.3,-0.08 -0.2,0 -0.38,0.08 -0.52,0.23l-1.06 1.2 0.6 -0.37 1.03 -0.85c0.07,-0.07 0.16,-0.11 0.25,-0.13z"/>
    <path class="fil1" d="M22 20.98l-0.19 0.15c-0.04,0.03 -0.03,0.08 -0.01,0.11 0.01,0.01 0.02,0.01 0.04,0.02l0.26 0.1c-0.01,-0.01 -0.01,-0.02 -0.02,-0.02 -0.09,-0.11 -0.11,-0.24 -0.08,-0.36z"/>
    <polygon class="fil3" points="26.58,22.99 25.12,22.48 25.16,22.5 26.58,23.03 "/>
    <polygon class="fil1" points="23.54,19.81 23.39,19.88 22.37,20.77 22.58,20.9 "/>
    <path class="fil1" d="M22.37 21.13l-0.2 -0.12c-0.01,-0.01 -0.01,-0.01 -0.02,-0.02 -0.03,0.09 0,0.19 0.05,0.25 0.01,0.01 0.03,0.03 0.04,0.04l0.13 -0.15z"/>
    <polygon class="fil3" points="27.15,20.58 27.28,21.27 27.26,20.9 "/>
    <polygon class="fil3" points="24.74,23 24.65,22.96 24.57,22.92 "/>
    <path class="fil1" d="M24.45 22.95l-0.93 -0.42 -1.89 -0.7c-0.11,-0.04 -0.21,-0.12 -0.29,-0.21 -0.02,-0.02 -0.04,-0.05 -0.06,-0.08 -0.06,0.21 -0.01,0.44 0.14,0.62 0.1,0.12 0.24,0.2 0.39,0.24l2.64 0.55z"/>
    <polygon class="fil3" points="26.58,22.78 26.25,22.71 26.58,22.83 "/>
    <path class="fil1" d="M26.04 17.89c-0.04,-0.03 -0.09,-0.06 -0.15,-0.06 -0.05,-0.01 -0.11,0.01 -0.16,0.04l-0.08 0.07 -0.04 0.03 0.11 0.32 0.36 -0.19 -0.04 -0.21z"/>
    <path class="fil3" d="M26.93 22.86l-0.04 -0.01 0 0.03 0 0c0.02,-0.01 0.03,-0.01 0.04,-0.02z"/>
    <path class="fil1" d="M27.35 21.15l0.03 0.69 0.21 1.13c0.04,0.18 0,0.36 -0.1,0.5l0 0c0.09,-0.03 0.17,-0.09 0.24,-0.17 0.16,-0.19 0.21,-0.44 0.13,-0.67l-0.51 -1.48z"/>
    <polygon class="fil1" points="26.14,18.43 25.82,18.59 26.56,20.73 "/>
    <polygon class="fil3" points="24.03,18.48 23.7,18.7 23.57,18.84 23.85,18.63 "/>
    <polygon class="fil4" points="24.66,22.31 25.06,22.46 25.11,22.47 "/>
    <polygon class="fil4" points="22.37,21.13 23.15,21.61 24.51,22.1 22.58,20.9 "/>
    <polygon class="fil4" points="26.89,22.85 26.9,22.55 26.62,21.02 26.58,22.78 "/>
    <path class="fil4" d="M26.69 18c0,-0.01 -0.01,-0.01 -0.02,-0.01l0.05 0.25 -0.03 -0.24z"/>
    <polygon class="fil4" points="25.82,18.59 25.72,18.29 24.47,18.96 23.71,19.61 23.54,19.81 "/>
    <path class="fil3" d="M26.89 23.04c-0.07,0.02 -0.15,0.01 -0.22,-0.01l-0.09 -0.04 0 0.04 0.3 0.11c0,-0.01 0.01,-0.03 0.01,-0.05l0 -0.05 0 0z"/>
    <path class="fil4" d="M26.89 23.09l0 -0.05c-0.07,0.02 -0.15,0.01 -0.22,-0.01l-0.09 -0.04 0 0.04 0.3 0.11c0,-0.01 0.01,-0.03 0.01,-0.05z"/>
    <path class="fil3" d="M22.58 20.9l0 0 -0.21 -0.13 -0.15 0.12c-0.03,0.03 -0.05,0.07 -0.07,0.1l0 0c0.01,0.01 0.01,0.01 0.02,0.02l0.2 0.12 0.21 -0.23z"/>
    <path class="fil4" d="M22.37 21.13l0.21 -0.23 -0.21 -0.13 -0.15 0.12c-0.03,0.03 -0.05,0.07 -0.07,0.1 0.01,0.01 0.01,0.01 0.02,0.02l0.2 0.12z"/>
    <polygon class="fil3" points="25.16,22.5 25.12,22.48 25.11,22.47 25.06,22.46 "/>
    <polygon class="fil4" points="25.11,22.47 25.06,22.46 25.16,22.5 25.12,22.48 "/>
    <polygon class="fil3" points="23.71,19.61 23.39,19.88 23.54,19.81 "/>
    <polygon class="fil4" points="23.71,19.61 23.39,19.88 23.54,19.81 "/>
    <path class="fil3" d="M26.89 22.85l0 0 -0.31 -0.07 0 0.05 0.14 0.05c0.06,0.02 0.12,0.02 0.17,0l0 -0.03z"/>
    <path class="fil4" d="M26.58 22.78l0 0.05 0.14 0.05c0.06,0.02 0.12,0.02 0.17,0l0 -0.03 -0.31 -0.07z"/>
    <polygon class="fil3" points="26.08,18.1 26.08,18.1 25.72,18.29 25.82,18.59 26.14,18.43 "/>
    <polygon class="fil4" points="26.14,18.43 26.08,18.1 25.72,18.29 25.82,18.59 "/>
    <path class="fil4" d="M26.54 17.25c0.05,0.06 0.08,0.13 0.09,0.21l0.06 0.54c0.03,0.01 0.06,0.03 0.08,0.05l-0.06 -0.59c-0.01,-0.1 -0.05,-0.18 -0.11,-0.26 -0.07,-0.08 -0.16,-0.13 -0.26,-0.16l-0.1 0.07c0.12,0 0.23,0.06 0.3,0.14z"/>
    <path class="fil4" d="M21.18 21.39c-0.06,-0.03 -0.11,-0.06 -0.15,-0.11 -0.07,-0.08 -0.1,-0.19 -0.09,-0.3 0,-0.02 0.01,-0.03 0.01,-0.05 -0.02,-0.03 -0.04,-0.06 -0.05,-0.09 -0.02,0.04 -0.03,0.08 -0.03,0.13 -0.02,0.13 0.02,0.26 0.11,0.36 0.04,0.05 0.1,0.1 0.17,0.13l0.11 0.05c-0.01,-0.03 -0.03,-0.07 -0.04,-0.1l-0.04 -0.02z"/>
    <polygon class="fil4" points="24.45,22.95 25.8,23.56 24.78,23.02 "/>
    <path class="fil4" d="M21.1 20.71l1.91 -1.37 0.46 -0.38 0.1 -0.12 -2.52 1.81c-0.04,0.03 -0.07,0.07 -0.1,0.11 0.01,0.03 0.02,0.06 0.03,0.08 0.03,-0.05 0.07,-0.09 0.12,-0.13z"/>
    <path class="fil4" d="M26.07 17.12l0.14 -0.09c-0.08,0.01 -0.17,0.03 -0.24,0.08 0.03,0 0.06,0.01 0.1,0.01z"/>
    <path class="fil4" d="M27.4 23.58c-0.01,0.01 -0.02,0.02 -0.04,0.03 -0.01,0.01 -0.02,0.02 -0.03,0.03 -0.02,0.1 -0.07,0.19 -0.16,0.25 -0.11,0.08 -0.26,0.09 -0.39,0.04l-0.95 -0.43 0.97 0.51c0.01,0 0.01,0.01 0.02,0.01 0.13,0.04 0.28,0.01 0.4,-0.07 0.1,-0.07 0.16,-0.18 0.18,-0.29 0,-0.01 0,-0.02 0,-0.02l0 -0.06z"/>
    <polygon class="fil3" points="24.78,23.02 24.74,23 24.57,22.92 23.52,22.53 24.45,22.95 "/>
    <polygon class="fil4" points="24.74,23 24.57,22.92 23.52,22.53 24.45,22.95 24.78,23.02 "/>
    <polygon class="fil3" points="23.85,18.63 23.85,18.63 23.57,18.84 23.47,18.96 "/>
    <polygon class="fil4" points="23.57,18.84 23.47,18.96 23.85,18.63 "/>
    <path class="fil4" d="M26.92 19.34l-0.15 -1.29c-0.02,-0.02 -0.05,-0.04 -0.08,-0.05l0.03 0.24 0.2 1.1z"/>
    <path class="fil4" d="M26.92 19.34l-0.15 -1.29c-0.02,-0.02 -0.05,-0.04 -0.08,-0.05l0.03 0.24 0.2 1.1z"/>
    <path class="fil5" d="M21.29 21.52l-0.03 -0.01c0.01,0.01 0.01,0.02 0.02,0.03 0,-0.01 0,-0.01 0.01,-0.02z"/>
    <path class="fil6" d="M26.63 18.33c-0.05,-0.06 -0.14,-0.09 -0.22,-0.05l-0.04 0.02 0.28 0.83 0.02 -0.69c0,-0.05 -0.03,-0.09 -0.04,-0.11z"/>
    <path class="fil6" d="M25.51 17.7c-0.01,-0.02 -0.04,-0.03 -0.06,-0.03 -0.02,0 -0.04,0.01 -0.04,0.02 -0.01,0 -0.01,0 -0.01,0.01l-0.93 1.05 1.09 -0.94 -0.04 -0.09c0,-0.01 0,-0.01 -0.01,-0.02z"/>
    <path class="fil6" d="M22.84 21.99l-0.84 -0.44 -0.11 0.13c-0.01,0.01 -0.02,0.02 -0.02,0.02l0 0 0.36 0.17 0.61 0.12z"/>
    <path class="fil6" d="M27.19 22.55l0.01 0.02c0.02,0.12 -0.01,0.24 -0.08,0.33l0 0 0.08 0.01c0.02,0.01 0.04,0 0.06,-0.01l-0.03 -0.25 -0.04 -0.1z"/>
    <path class="fil6" d="M24.23 22.29l-0.47 -0.3 -1.5 -0.53c-0.04,-0.01 -0.09,-0.04 -0.12,-0.07l-0.09 0.1 1.06 0.56 1.12 0.24z"/>
    <path class="fil6" d="M23.34 19.1l-0.33 0.24 -1.59 1.32c-0.12,0.1 -0.2,0.23 -0.23,0.37l0 0 0.3 0.16 0.46 -0.51c-0.02,-0.06 -0.02,-0.12 -0.01,-0.18 0.02,-0.11 0.08,-0.21 0.16,-0.28l0 0c0.03,-0.02 0.06,-0.04 0.09,-0.05l0.39 -0.21 0.76 -0.86z"/>
    <path class="fil6" d="M27.33 23.52c-0.08,0.01 -0.16,0.01 -0.24,-0.01l-0.36 -0.08c0,0.01 -0.01,0.01 -0.01,0.02l0 0c-0.03,0.02 -0.05,0.03 -0.08,0.05 -0.16,0.08 -0.34,0.07 -0.49,-0.02l-0.41 -0.25 -0.7 -0.15 0.15 0.08 1.5 0.56c0.22,0.08 0.45,0.05 0.64,-0.08 0,-0.04 0,-0.07 0,-0.11l0 -0.01z"/>
    <path class="fil6" d="M25.97 17.11c-0.07,0 -0.15,0.01 -0.22,0.03 0.03,0.01 0.07,0.03 0.1,0.06l0 0 0.11 -0.08c0,0 0.01,-0.01 0.01,-0.01z"/>
    <path class="fil6" d="M26.91 21.93l-0.01 0.62 0.05 0.29 0 0c0.01,0 0.01,0 0.01,0 0,0 0,0 0,0 0.07,-0.06 0.1,-0.15 0.08,-0.24l-0.13 -0.67z"/>
    <path class="fil6" d="M21.44 21.25l-0.26 -0.14c-0.01,0.1 0,0.2 0.04,0.3l0 0 0.09 0.04c0.03,-0.06 0.07,-0.12 0.11,-0.18l0.02 -0.02z"/>
    <polygon class="fil7" points="24.65,22.96 22.84,21.99 22.23,21.87 24.57,22.92 "/>
    <polygon class="fil7" points="24.25,18.35 24.03,18.48 23.85,18.63 "/>
    <path class="fil5" d="M21.95 20.68l-0.46 0.51 0.56 0.3 0.09 -0.1 0 0c-0.02,-0.01 -0.03,-0.02 -0.04,-0.03l0 0 -0.26 -0.1c-0.02,-0.01 -0.03,-0.01 -0.04,-0.02 -0.02,-0.03 -0.03,-0.08 0.01,-0.11l0.19 -0.15c0,-0.04 0.02,-0.07 0.03,-0.1 -0.04,-0.06 -0.07,-0.13 -0.08,-0.2z"/>
    <path class="fil5" d="M22 21.55l-0.56 -0.3 -0.02 0.02c-0.04,0.06 -0.08,0.12 -0.11,0.18l0 0 0.56 0.25c0,0 0.01,-0.01 0.02,-0.02l0.11 -0.13z"/>
    <polygon class="fil7" points="25.74,23.23 24.23,22.29 23.11,22.05 25.04,23.08 "/>
    <polygon class="fil5" points="26.94,20.18 26.92,21.22 27.19,22.55 27.23,22.65 "/>
    <path class="fil5" d="M25.97 17.31c0,-0.01 -0.01,-0.01 -0.02,-0.02l0 0 -0.7 0.43 -1.91 1.38 -0.76 0.86 1.26 -0.67 0.63 -0.54 0.93 -1.05c0,-0.01 0,-0.01 0.01,-0.01l0 0c0,-0.01 0.02,-0.02 0.04,-0.02 0.02,0 0.05,0.01 0.06,0.03 0.01,0.01 0.01,0.01 0.01,0.02l0.04 0.09 0.05 -0.04c0,0 0,0 0,0l0 0c0.08,-0.07 0.19,-0.1 0.29,-0.1 0.11,0.01 0.22,0.07 0.29,0.15 0,0.01 0.01,0.02 0.02,0.03l-0.11 -0.31c-0.03,-0.09 -0.07,-0.16 -0.13,-0.23z"/>
    <path class="fil5" d="M27.38 21.84l0.09 1.64 0 0c0,0 0.01,0 0.02,-0.01 0.1,-0.14 0.14,-0.32 0.1,-0.5l-0.21 -1.13z"/>
    <path class="fil5" d="M25.85 17.2c-0.03,-0.03 -0.07,-0.05 -0.1,-0.06l0 0c-0.09,0.02 -0.18,0.06 -0.25,0.13l-1.03 0.85 0.74 -0.46 0.64 -0.46z"/>
    <polygon class="fil5" points="27.02,20.2 27.39,23.38 27.28,21.27 27.15,20.58 "/>
    <path class="fil5" d="M27.26 22.9l0 0c-0.02,0.01 -0.04,0.02 -0.06,0.01l-0.08 -0.01c-0.02,0.02 -0.03,0.04 -0.05,0.05 -0.01,0.01 -0.01,0.01 -0.01,0.01l0 0c-0.02,0.02 -0.05,0.04 -0.08,0.05l0.01 0.06c0.01,0.03 -0.01,0.05 -0.02,0.07l0 0c-0.02,0.01 -0.04,0.02 -0.08,0.01l-0.01 -0.01c-0.01,0.12 -0.07,0.22 -0.15,0.29l0 0 0.36 0.08c0.08,0.02 0.16,0.02 0.24,0.01l-0.07 -0.62z"/>
    <path class="fil5" d="M23.52 22.53l-2.23 -1.01c-0.01,0.01 -0.01,0.01 -0.01,0.02 0.02,0.03 0.04,0.06 0.06,0.08 0.08,0.09 0.18,0.17 0.29,0.21l1.89 0.7z"/>
    <path class="fil5" d="M26.07 17.92c-0.01,-0.01 -0.02,-0.02 -0.03,-0.03l0.04 0.21 0.05 -0.03 -0.01 -0.04c-0.01,-0.04 -0.03,-0.08 -0.05,-0.11z"/>
    <polygon class="fil5" points="26.62,20.89 26.62,20.53 26.19,18.4 26.14,18.43 26.56,20.73 26.62,21.02 "/>
    <polygon class="fil5" points="26.37,18.3 26.34,18.32 26.64,19.81 26.65,19.13 "/>
    <path class="fil5" d="M22.77 20.22l-0.43 0.22c-0.01,0.01 -0.02,0.02 -0.03,0.02 -0.04,0.04 -0.06,0.08 -0.06,0.1 -0.01,0.03 0,0.06 0.01,0.09l0.51 -0.43z"/>
    <path class="fil7" d="M25.73 17.87c0,0.01 -0.01,0.01 -0.02,0.02 0,0 0,0 0,0l-0.06 0.05 0.08 -0.07z"/>
    <path class="fil5" d="M26.58 23.03l0 0 -1.42 -0.53 1.15 0.72c0.08,0.05 0.15,0.02 0.18,0.01 0,-0.01 0.01,-0.02 0.03,-0.02 0.02,-0.03 0.05,-0.07 0.06,-0.13l0 -0.05z"/>
    <polygon class="fil4" points="26.95,19.61 26.96,19.52 26.92,19.34 "/>
    <path class="fil4" d="M26.96 19.52l0.02 -1.07c0,-0.11 -0.04,-0.23 -0.12,-0.32 -0.02,-0.03 -0.05,-0.06 -0.09,-0.08l0.15 1.29 0.03 0.27 0.01 -0.09z"/>
    <path class="fil4" d="M26.27 18l0 0.01 0.02 0.08 0.08 0.21 0.04 -0.02c0.08,-0.04 0.17,-0.01 0.22,0.05 0.01,0.02 0.04,0.06 0.04,0.11l-0.02 0.69 0.26 0.74 -0.19 -1.63 -0.05 -0.25c-0.12,-0.05 -0.27,-0.05 -0.4,0.01z"/>
    <polygon class="fil4" points="26.62,21.02 26.9,22.55 26.91,21.93 26.81,21.45 26.62,20.89 "/>
    <polygon class="fil8" points="26.62,20.89 26.62,21.02 26.9,22.55 26.91,21.93 26.81,21.45 "/>
    <polygon class="fil4" points="23.76,21.99 24.23,22.29 25.06,22.46 24.66,22.31 "/>
    <path class="fil4" d="M26.15 23.48c0.15,0.09 0.33,0.1 0.49,0.02 0.03,-0.02 0.06,-0.04 0.09,-0.07l-0.99 -0.2 0.41 0.25z"/>
    <path class="fil4" d="M22.19 20.17c-0.13,0.07 -0.22,0.19 -0.25,0.33 -0.01,0.06 -0.01,0.12 0.01,0.18l0.63 -0.72 -0.39 0.21z"/>
    <polygon class="fil4" points="26.37,18.3 26.29,18.09 26.34,18.32 "/>
    <path class="fil4" d="M26.58 23.03l0 0.05c-0.01,0.09 -0.07,0.13 -0.09,0.15 -0.03,0.01 -0.1,0.04 -0.18,-0.01l-1.15 -0.72 -0.1 -0.04 -0.83 -0.17 1.51 0.94 0.99 0.2c0.08,-0.07 0.14,-0.17 0.15,-0.29l-0.3 -0.11z"/>
    <path class="fil8" d="M26.73 23.43c0.08,-0.07 0.14,-0.17 0.15,-0.29l-0.3 -0.11 0 0.05c-0.01,0.06 -0.04,0.1 -0.06,0.13 -0.02,0 -0.03,0.01 -0.03,0.02 -0.03,0.01 -0.1,0.04 -0.18,-0.01l-1.15 -0.72 -0.1 -0.04 -0.83 -0.17 1.51 0.94 0.41 0.25c0.15,0.09 0.33,0.1 0.49,0.02 0.03,-0.02 0.05,-0.03 0.08,-0.05 0,-0.01 0.01,-0.01 0.01,-0.02z"/>
    <polygon class="fil4" points="26.65,19.13 26.64,19.81 26.92,21.22 26.94,20.18 26.91,19.87 "/>
    <path class="fil4" d="M22.12 20.77l0.14 -0.12c-0.01,-0.03 -0.02,-0.06 -0.01,-0.09 0.01,-0.03 0.02,-0.08 0.09,-0.12l0.43 -0.22 1.07 -0.93 -1.26 0.67 -0.63 0.72c0.01,0.07 0.04,0.14 0.08,0.2 0.03,-0.04 0.05,-0.08 0.09,-0.11z"/>
    <path class="fil4" d="M22.12 20.77l0.14 -0.12c-0.01,-0.03 -0.02,-0.06 -0.01,-0.09 0,-0.02 0.02,-0.06 0.06,-0.1 0.01,0 0.02,-0.01 0.03,-0.02l0.43 -0.22 1.07 -0.93 -1.26 0.67 -0.39 0.21c-0.03,0.01 -0.06,0.03 -0.09,0.05 -0.08,0.07 -0.14,0.17 -0.16,0.28 -0.01,0.06 -0.01,0.12 0.01,0.18 0.01,0.07 0.04,0.14 0.08,0.2 0.03,-0.04 0.05,-0.08 0.09,-0.11z"/>
    <polygon class="fil4" points="26.81,21.45 26.62,20.53 26.62,20.89 "/>
    <polygon class="fil8" points="26.62,20.53 26.62,20.89 26.81,21.45 "/>
    <polygon class="fil4" points="26.14,18.43 26.19,18.4 26.13,18.07 26.08,18.1 "/>
    <polygon class="fil8" points="26.13,18.07 26.13,18.07 26.08,18.1 26.14,18.43 26.19,18.4 "/>
    <polygon class="fil4" points="26.95,19.99 27.02,20.2 26.95,19.61 "/>
    <path class="fil4" d="M25.85 17.2c0.01,0.01 0.03,0.02 0.04,0.03l0.18 -0.11c-0.04,0 -0.07,-0.01 -0.1,-0.01 0,0 -0.01,0.01 -0.01,0.01l-0.11 0.08z"/>
    <path class="fil8" d="M26.07 17.12c-0.04,0 -0.07,-0.01 -0.1,-0.01l0 0c0,0 -0.01,0.01 -0.01,0.01l-0.11 0.08c0.01,0.01 0.03,0.02 0.04,0.03l0 0 0.18 -0.11z"/>
    <path class="fil4" d="M21.31 21.45l-0.09 -0.04c0.01,0.03 0.03,0.07 0.04,0.1l0.03 0.01c0,-0.02 0.01,-0.05 0.02,-0.07z"/>
    <path class="fil8" d="M21.31 21.45l0 0 -0.09 -0.04c0.01,0.03 0.03,0.07 0.04,0.1l0.03 0.01c0,-0.02 0.01,-0.05 0.02,-0.07z"/>
    <path class="fil4" d="M27.33 23.53c0,0.04 0,0.07 0,0.11 0.01,-0.01 0.02,-0.02 0.03,-0.03 0.02,-0.01 0.03,-0.02 0.04,-0.03l-0.01 -0.08c-0.02,0.01 -0.04,0.01 -0.06,0.02l0 0.01z"/>
    <path class="fil8" d="M27.39 23.5c-0.02,0.01 -0.04,0.01 -0.06,0.02l0 0.01c0,0.04 0,0.07 0,0.11 0.01,-0.01 0.02,-0.02 0.03,-0.03 0.02,-0.01 0.03,-0.02 0.04,-0.03l0 0 -0.01 -0.08z"/>
    <path class="fil4" d="M27.27 22.89c0.01,-0.01 0.03,-0.04 0.01,-0.07l-0.05 -0.17 0.03 0.25c0,0 0.01,0 0.01,-0.01z"/>
    <polygon class="fil4" points="23.47,18.96 23.01,19.34 23.34,19.1 "/>
    <path class="fil4" d="M21.89 21.78c0.01,0.01 0.02,0.02 0.04,0.02l0.3 0.07 -0.36 -0.17c-0.01,0.03 0,0.06 0.02,0.08z"/>
    <path class="fil8" d="M22.23 21.87l-0.36 -0.17c-0.01,0.03 0,0.06 0.02,0.08 0.01,0.01 0.02,0.02 0.04,0.02l0.3 0.07z"/>
    <path class="fil4" d="M27.02 20.2l-0.07 -0.21 -0.01 0.19 0.29 2.47 0.05 0.17c0.02,0.03 0,0.06 -0.01,0.07 0,0.01 -0.01,0.01 -0.01,0.01l0.07 0.62c0.02,-0.01 0.04,-0.01 0.06,-0.02l0 -0.12 -0.37 -3.18z"/>
    <path class="fil4" d="M21.93 21.8c-0.02,0 -0.03,-0.01 -0.04,-0.02 -0.02,-0.02 -0.03,-0.05 -0.02,-0.08l-0.56 -0.25c-0.01,0.02 -0.02,0.05 -0.02,0.07l2.23 1.01 1.05 0.39 -2.34 -1.05 -0.3 -0.07z"/>
    <path class="fil4" d="M24.57 22.92l-2.34 -1.05 -0.3 -0.07c-0.02,0 -0.03,-0.01 -0.04,-0.02 -0.02,-0.02 -0.03,-0.05 -0.02,-0.08l0 0 -0.56 -0.25c-0.01,0.02 -0.02,0.05 -0.02,0.07l2.23 1.01 1.05 0.39z"/>
    <path class="fil4" d="M25.85 17.2l-0.64 0.46 0.68 -0.43c-0.01,-0.01 -0.03,-0.02 -0.04,-0.03z"/>
    <path class="fil8" d="M25.89 17.23c-0.01,-0.01 -0.03,-0.02 -0.04,-0.03l0 0 -0.64 0.46 0.68 -0.43z"/>
    <polygon class="fil4" points="25.25,17.72 24.25,18.35 23.85,18.63 23.47,18.96 23.34,19.1 "/>
    <polygon class="fil8" points="24.25,18.35 23.85,18.63 23.01,19.34 23.34,19.1 25.25,17.72 "/>
    <polygon class="fil4" points="26.92,19.34 26.72,18.24 26.91,19.87 26.95,19.99 26.95,19.61 "/>
    <polygon class="fil4" points="26.92,19.34 26.72,18.24 26.91,19.87 26.95,19.99 26.95,19.61 "/>
    <polygon class="fil8" points="26.72,18.24 26.91,19.87 26.95,19.99 26.95,19.61 26.92,19.34 "/>
    <polygon class="fil4" points="26.94,20.18 26.95,19.99 26.91,19.87 "/>
    <polygon class="fil4" points="26.94,20.18 26.95,19.99 26.91,19.87 "/>
    <path class="fil8" d="M27.39 23.38l-0.37 -3.18 0.13 0.38 -0.19 -1.06 -0.01 0.09 0 0.38 -0.04 -0.12 -0.26 -0.74 -0.01 0.68 0.28 1.41 0.02 -1.04 0.29 2.47 0.03 0.25 0.07 0.62c0.02,-0.01 0.04,-0.01 0.06,-0.02l0 -0.12z"/>
    <path class="fil6" d="M21.19 21.03l0 0 -0.03 -0.01c-0.05,-0.03 -0.1,-0.06 -0.13,-0.11 -0.02,-0.02 -0.03,-0.04 -0.05,-0.07 -0.01,0.03 -0.02,0.06 -0.03,0.09l0 0c0.01,0.01 0.01,0.02 0.02,0.03 0.04,0.05 0.09,0.09 0.15,0.12l0.06 0.03c0,-0.02 0.01,-0.05 0.01,-0.08z"/>
    <path class="fil6" d="M26.24 17.11c-0.05,0 -0.1,0 -0.14,0.02 0.02,0.01 0.04,0.01 0.07,0.02l0 0 0.07 -0.04z"/>
    <path class="fil6" d="M27.04 17.02c-0.16,-0.19 -0.43,-0.24 -0.63,-0.11l-0.2 0.12c0.04,0 0.09,0 0.13,0.01l0 0 0.11 -0.06c0.2,-0.13 0.42,-0.05 0.53,0.08 0.06,0.07 0.1,0.16 0.1,0.25l0.18 3.59 0.09 0.25 -0.19 -3.84c-0.01,-0.11 -0.05,-0.21 -0.12,-0.29z"/>
    <path class="fil6" d="M23.87 18.49l0 0 -2.79 1.75c-0.12,0.08 -0.2,0.19 -0.22,0.33 -0.01,0.1 0,0.19 0.04,0.27 0.01,-0.03 0.03,-0.06 0.05,-0.08l0 0c-0.02,-0.06 -0.02,-0.12 -0.01,-0.17 0.01,-0.12 0.08,-0.22 0.18,-0.28l2.58 -1.61 0.17 -0.21z"/>
    <polygon class="fil6" points="27.26,20.9 27.28,21.27 27.38,21.84 27.35,21.15 "/>
    <polygon class="fil7" points="24.9,23.05 24.65,22.96 24.74,23 24.79,23.02 "/>
    <path class="fil4" d="M26.1 17.13c0.04,-0.02 0.09,-0.02 0.14,-0.02l0.1 -0.07c-0.04,-0.01 -0.09,-0.01 -0.13,-0.01l-0.14 0.09c0.01,0.01 0.02,0.01 0.03,0.01z"/>
    <path class="fil8" d="M26.34 17.04c-0.04,-0.01 -0.09,-0.01 -0.13,-0.01l0 0 -0.14 0.09c0.01,0.01 0.02,0.01 0.03,0.01l0 0c0.04,-0.02 0.09,-0.02 0.14,-0.02l0.1 -0.07z"/>
    <path class="fil4" d="M26.82 24.02c-0.01,0 -0.01,-0.01 -0.02,-0.01l-0.97 -0.51 -1.04 -0.48 -0.01 0 1.02 0.54 0.95 0.43c0.02,0.02 0.04,0.02 0.07,0.03z"/>
    <path class="fil4" d="M27.4 23.64c0,0 0,0.01 0,0.02 0,-0.03 0.01,-0.06 0.01,-0.09 -0.01,0 -0.01,0.01 -0.01,0.01l0 0.06z"/>
    <path class="fil4" d="M20.98 20.84c-0.01,-0.02 -0.02,-0.05 -0.03,-0.08 -0.02,0.02 -0.04,0.05 -0.05,0.08 0.01,0.03 0.03,0.06 0.05,0.09 0.01,-0.03 0.02,-0.06 0.03,-0.09z"/>
    <path class="fil8" d="M20.95 20.76c-0.02,0.02 -0.04,0.05 -0.05,0.08 0.01,0.03 0.03,0.06 0.05,0.09 0.01,-0.03 0.02,-0.06 0.03,-0.09l0 0c-0.01,-0.02 -0.02,-0.05 -0.03,-0.08z"/>
    <polygon class="fil4" points="24.78,23.02 24.79,23.02 24.74,23 "/>
    <polygon class="fil9" points="24.79,23.02 24.74,23 24.78,23.02 "/>
    <path class="fil6" d="M27.48 23.64l-0.01 -0.14c-0.02,0.02 -0.04,0.05 -0.06,0.07 -0.01,0 -0.01,0.01 -0.01,0.01l0 0.06c0,0 0,0.01 0,0.02 0,0.14 -0.07,0.26 -0.19,0.34 -0.12,0.07 -0.26,0.08 -0.39,0.02 -0.01,0 -0.01,-0.01 -0.02,-0.01l-0.97 -0.51 -0.64 -0.34 -0.15 -0.08 -0.14 -0.03 -0.11 -0.03 -0.01 0 1.02 0.54 0.97 0.52c0.15,0.08 0.34,0.08 0.48,-0.02 0.15,-0.09 0.23,-0.25 0.23,-0.42z"/>
    <path class="fil10" d="M21.49 21.19l0 0 -0.3 -0.16c0,0.03 -0.01,0.06 -0.01,0.08l0.26 0.14 0.05 -0.06z"/>
    <polygon class="fil10" points="23.11,22.05 22.05,21.49 22,21.55 22.84,21.99 "/>
    <path class="fil11" d="M26.17 17.15c-0.03,-0.01 -0.05,-0.01 -0.07,-0.02l0 0c-0.03,0.01 -0.06,0.03 -0.09,0.05l-0.1 0.07c0.01,0.01 0.03,0.02 0.04,0.04l0 0 0.22 -0.14z"/>
    <polygon class="fil12" points="25.04,23.08 23.11,22.05 22.84,21.99 24.65,22.96 24.9,23.05 "/>
    <polygon class="fil5" points="24.47,18.12 23.87,18.49 23.7,18.7 24.03,18.48 24.25,18.35 25.21,17.66 "/>
    <polygon class="fil10" points="22.05,21.49 22.05,21.49 21.49,21.19 21.44,21.25 22,21.55 "/>
    <path class="fil10" d="M25.95 17.29c-0.01,-0.02 -0.03,-0.03 -0.04,-0.04l0 0 -0.66 0.47 0.7 -0.43z"/>
    <path class="fil4" d="M27.4 23.5l-0.01 0 0.01 0.08c0,0 0,-0.01 0.01,-0.01 0,-0.02 -0.01,-0.03 -0.01,-0.05l0 -0.02z"/>
    <path class="fil5" d="M27.41 23.57c0.02,-0.02 0.04,-0.05 0.06,-0.07 0,-0.01 0.01,-0.02 0.02,-0.03 -0.01,0.01 -0.02,0.01 -0.02,0.01 -0.02,0.01 -0.05,0.02 -0.07,0.02l-0.01 0 0.01 0.08c0,0 0,-0.01 0.01,-0.01z"/>
    <path class="fil4" d="M26.01 17.18c0.03,-0.02 0.06,-0.04 0.09,-0.05 -0.01,0 -0.02,0 -0.03,-0.01l-0.18 0.11c0.01,0.01 0.01,0.01 0.02,0.02l0.1 -0.07z"/>
    <path class="fil13" d="M26.1 17.13c-0.01,0 -0.02,0 -0.03,-0.01l0 0 -0.18 0.11c0.01,0.01 0.01,0.01 0.02,0.02l0 0 0.1 -0.07c0.03,-0.02 0.06,-0.04 0.09,-0.05z"/>
    <path class="fil4" d="M25.25 17.72l0.66 -0.47c-0.01,-0.01 -0.01,-0.01 -0.02,-0.02l-0.68 0.43 -0.96 0.69 1 -0.63z"/>
    <path class="fil14" d="M25.91 17.25c-0.01,-0.01 -0.01,-0.01 -0.02,-0.02l0 0 -0.68 0.43 -0.96 0.69 1 -0.63 0.66 -0.47z"/>
    <polygon class="fil4" points="27.39,23.5 27.4,23.5 27.39,23.38 "/>
    <path class="fil10" d="M27.38 21.84l-0.1 -0.57 0.11 2.11 0 0.12 0.01 0c0.02,0 0.05,-0.01 0.07,-0.02l-0.09 -1.64z"/>
    <polygon class="fil6" points="26.25,22.71 24.51,22.1 25.12,22.47 "/>
    <path class="fil15" d="M26.95 22.84l0 0c0,0.01 -0.01,0.01 -0.02,0.02l0.03 0 -0.01 -0.02z"/>
    <polygon class="fil10" points="25.61,17.97 24.35,19.02 24.47,18.96 25.61,17.97 "/>
    <path class="fil6" d="M23.69 21.95l-0.54 -0.34 -0.84 -0.29c-0.03,-0.01 -0.05,-0.03 -0.07,-0.04l-0.09 0.1 1.54 0.57z"/>
    <path class="fil5" d="M26 17.75c-0.02,-0.03 -0.07,-0.05 -0.1,-0.01l-0.17 0.13c0.05,-0.03 0.11,-0.05 0.16,-0.04 0.06,0 0.11,0.03 0.15,0.06l-0.02 -0.11c0,-0.01 -0.01,-0.02 -0.02,-0.03z"/>
    <polygon class="fil7" points="25.65,17.94 25.61,17.97 25.61,17.97 "/>
    <path class="fil10" d="M26.96 22.86l0 0 -0.03 0 0 0c-0.01,0.01 -0.02,0.01 -0.04,0.02l0 0.16 0 0c0.03,0 0.06,-0.02 0.09,-0.03l-0.02 -0.15z"/>
    <polygon class="fil5" points="26.58,22.83 26.58,22.83 26.25,22.71 25.12,22.47 25.12,22.48 26.58,22.99 "/>
    <path class="fil7" d="M22.15 20.99c-0.03,-0.02 -0.06,-0.04 -0.08,-0.07l-0.07 0.06c-0.03,0.12 -0.01,0.25 0.08,0.36 0.01,0 0.01,0.01 0.02,0.02l0 0 0.05 0.02 0.09 -0.1 0 0c-0.01,-0.01 -0.03,-0.03 -0.04,-0.04 -0.05,-0.06 -0.08,-0.16 -0.05,-0.25l0 0z"/>
    <path class="fil7" d="M23.39 19.88l0 0 -0.22 0.12 -0.87 0.72c0.01,0.01 0.02,0.02 0.03,0.02l0.04 0.03 1.02 -0.89z"/>
    <polygon class="fil4" points="24.47,18.96 24.35,19.02 23.9,19.4 23.71,19.61 "/>
    <polygon class="fil4" points="24.51,22.1 23.15,21.61 23.69,21.95 24.66,22.31 25.11,22.47 25.12,22.47 "/>
    <polygon class="fil4" points="23.71,19.61 23.9,19.4 23.17,20 23.39,19.88 "/>
    <polygon class="fil8" points="23.71,19.61 24.47,18.96 24.35,19.02 23.17,20 23.39,19.88 "/>
    <polygon class="fil4" points="25.11,22.47 25.12,22.48 25.12,22.47 "/>
    <polygon class="fil9" points="25.12,22.48 25.12,22.47 25.11,22.47 "/>
    <path class="fil4" d="M22.37 20.77l-0.04 -0.03c-0.01,0 -0.02,-0.01 -0.03,-0.02l-0.23 0.2c0.02,0.03 0.05,0.05 0.08,0.07 0.02,-0.03 0.04,-0.07 0.07,-0.1l0.15 -0.12z"/>
    <path class="fil8" d="M22.37 20.77l-0.04 -0.03c-0.01,0 -0.02,-0.01 -0.03,-0.02l-0.23 0.2c0.02,0.03 0.05,0.05 0.08,0.07 0.02,-0.03 0.04,-0.07 0.07,-0.1l0.15 -0.12z"/>
    <path class="fil4" d="M26.72 22.88l-0.14 -0.05 0 0.16 0.09 0.04c0.07,0.02 0.15,0.03 0.22,0.01l0 -0.16c-0.05,0.02 -0.11,0.02 -0.17,0z"/>
    <path class="fil8" d="M26.89 22.88l0 0c-0.05,0.02 -0.11,0.02 -0.17,0l-0.14 -0.05 0 0.16 0.09 0.04c0.07,0.02 0.15,0.03 0.22,0.01l0 -0.16z"/>
    <path class="fil10" d="M26.91 21.74l0 0.19 0.13 0.67c0.02,0.09 -0.01,0.18 -0.08,0.24 0,0 0,0 0,0l0 0c0,0 0,0 -0.01,0l0.01 0.02 0.16 0.04c0.07,-0.09 0.1,-0.21 0.08,-0.33l-0.01 -0.02 -0.28 -0.81z"/>
    <path class="fil7" d="M23.76 21.99l-0.07 -0.04 -1.54 -0.57 -0.01 0.01 0 0c0.03,0.03 0.08,0.06 0.12,0.07l1.5 0.53z"/>
    <polygon class="fil10" points="25.56,17.81 24.47,18.75 24.12,19.14 24.35,19.02 25.61,17.97 "/>
    <path class="fil6" d="M26.62 17.68c-0.02,-0.12 -0.08,-0.23 -0.15,-0.32 -0.09,-0.1 -0.19,-0.17 -0.3,-0.21l-0.22 0.14c0.01,0.01 0.02,0.01 0.02,0.02 0.06,0.07 0.1,0.14 0.13,0.23l0.11 0.31 0.05 0.16c0.01,-0.01 0.01,-0.01 0.01,-0.01 0.13,-0.06 0.28,-0.06 0.4,-0.01l-0.05 -0.31z"/>
    <path class="fil12" d="M22.15 21.38l0 0 -0.05 -0.02c0.01,0.01 0.02,0.02 0.04,0.03l0.01 -0.01z"/>
    <path class="fil7" d="M22.03 20.88c-0.01,0.03 -0.03,0.06 -0.03,0.1l0.07 -0.06c-0.01,-0.01 -0.01,-0.01 -0.02,-0.02 -0.01,0 -0.01,-0.01 -0.02,-0.02z"/>
    <polygon class="fil5" points="24.47,18.75 23.84,19.29 24.12,19.14 "/>
    <path class="fil15" d="M23.17 20l-0.4 0.22 -0.51 0.43 0 0c0,0 0,0 0,0.01 0,0 0,0 0,0 0,0 0,0 0,0 0.01,0.01 0.02,0.03 0.03,0.05 0,0 0,0 0,0 0,0 0,0 0,0 0,0 0.01,0.01 0.01,0.01 0,0 0,0 0,0 0,0 0,0 0,0l0.87 -0.72z"/>
    <path class="fil15" d="M26.19 17.82c-0.07,-0.08 -0.18,-0.14 -0.29,-0.15 -0.1,0 -0.21,0.03 -0.29,0.1 0,0 0,0 0,0l-0.05 0.04 0.05 0.16 0.04 -0.03 0.06 -0.05c0,0 0,0 0,0l0 0c0.01,-0.01 0.02,-0.01 0.02,-0.02l0.17 -0.13c0.03,-0.04 0.08,-0.02 0.1,0.01 0.01,0.01 0.02,0.02 0.02,0.03l0.02 0.11c0.01,0.01 0.02,0.02 0.03,0.03 0.02,0.03 0.04,0.07 0.05,0.11l0.01 0.04 0.13 -0.06 0 0 -0.05 -0.16 0 0c-0.01,-0.01 -0.02,-0.02 -0.02,-0.03z"/>
    <path class="fil15" d="M27.12 22.9l-0.16 -0.04 0.02 0.15c0.03,-0.01 0.06,-0.03 0.08,-0.05 0,0 0,0 0.01,-0.01 0.02,-0.01 0.03,-0.03 0.05,-0.05l0 0z"/>
    <polygon class="fil15" points="26.34,18.32 26.34,18.32 26.19,18.4 26.62,20.53 26.64,19.81 "/>
    <polygon class="fil15" points="26.92,21.22 26.91,21.74 27.19,22.55 "/>
    <path class="fil4" d="M26.29 18.09l-0.02 -0.08 0 -0.01c0,0 0,0 -0.01,0.01l0.03 0.08z"/>
    <path class="fil8" d="M26.72 18.24l-0.05 -0.25c-0.12,-0.05 -0.27,-0.05 -0.4,0.01 0,0 0,0 -0.01,0.01l0.03 0.08 0.05 0.23 0.03 -0.02 0.04 -0.02c0.08,-0.04 0.17,-0.01 0.22,0.05 0.01,0.02 0.04,0.06 0.04,0.11l-0.02 0.69 0.26 0.74 -0.19 -1.63z"/>
    <polygon class="fil4" points="23.69,21.95 23.76,21.99 24.66,22.31 "/>
    <polygon class="fil8" points="25.12,22.47 24.51,22.1 23.15,21.61 23.69,21.95 23.76,21.99 24.23,22.29 25.06,22.46 24.66,22.31 25.11,22.47 "/>
    <polygon class="fil4" points="24.12,19.14 23.9,19.4 24.35,19.02 "/>
    <polygon class="fil4" points="26.91,21.74 26.81,21.45 26.91,21.93 "/>
    <polygon class="fil6" points="26.81,21.45 26.91,21.93 26.91,21.74 "/>
    <polygon class="fil4" points="23.17,20 23.9,19.4 24.12,19.14 23.84,19.29 22.77,20.22 "/>
    <polygon class="fil14" points="24.12,19.14 23.84,19.29 22.77,20.22 23.17,20 24.35,19.02 "/>
    <path class="fil4" d="M22.07 20.92l0.23 -0.2c-0.02,-0.02 -0.03,-0.04 -0.04,-0.07l-0.14 0.12c-0.04,0.03 -0.06,0.07 -0.09,0.11 0.01,0.01 0.01,0.02 0.02,0.02 0.01,0.01 0.01,0.01 0.02,0.02z"/>
    <path class="fil14" d="M22.26 20.65l-0.14 0.12c-0.04,0.03 -0.06,0.07 -0.09,0.11 0.01,0.01 0.01,0.02 0.02,0.02 0.01,0.01 0.01,0.01 0.02,0.02l0.23 -0.2c0,0 0,0 0,0 0,0 0,0 0,0 0,0 -0.01,-0.01 -0.01,-0.01 0,0 0,0 0,0l0 0c0,0 0,0 0,0 -0.01,-0.02 -0.02,-0.04 -0.03,-0.05 0,0 0,0 0,0 0,0 0,0 0,0 0,-0.01 0,-0.01 0,-0.01z"/>
    <path class="fil16" d="M22.29 20.71c0,0 0,0 0,0l0 0c0,0 0,0 0,0zm0.01 0.01c0,0 -0.01,-0.01 -0.01,-0.01 0,0 0.01,0.01 0.01,0.01zm0 0c0,0 0,0 0,0 0,0 0,0 0,0l0 0zm-0.04 -0.06c0,0 0,0 0,0 0,0 0,0 0,0zm0 -0.01l0 0c0,0 0,0 0,0.01 0,-0.01 0,-0.01 0,-0.01z"/>
    <polygon class="fil4" points="26.26,18.01 26.13,18.07 26.19,18.4 26.34,18.32 26.29,18.09 26.26,18.01 "/>
    <polygon class="fil14" points="26.26,18.01 26.26,18.01 26.26,18.01 26.13,18.07 26.19,18.4 26.34,18.32 26.29,18.09 "/>
    <polygon class="fil4" points="26.81,21.45 26.91,21.74 26.92,21.22 26.64,19.81 26.62,20.53 "/>
    <polygon class="fil14" points="26.64,19.81 26.62,20.53 26.81,21.45 26.91,21.74 26.92,21.22 "/>
   </g>
   <path class="fil2" d="M24.88 18.28c0.64,0 1.19,0.23 1.64,0.68 0.45,0.46 0.68,1 0.68,1.64 0,0.64 -0.23,1.18 -0.68,1.63 -0.45,0.45 -1,0.68 -1.64,0.68 -0.64,0 -1.19,-0.23 -1.64,-0.68 -0.44,-0.45 -0.67,-0.99 -0.67,-1.63 0,-0.64 0.23,-1.19 0.68,-1.64 0.45,-0.45 0.99,-0.68 1.63,-0.68zm0.63 1.63c-0.18,-0.18 -0.39,-0.27 -0.63,-0.27 -0.24,0 -0.45,0.09 -0.63,0.27 -0.18,0.17 -0.27,0.4 -0.27,0.69 0,0.29 0.09,0.52 0.27,0.69 0.18,0.17 0.39,0.26 0.63,0.26 0.24,0 0.45,-0.09 0.63,-0.26 0.18,-0.17 0.27,-0.4 0.27,-0.69 0,-0.29 -0.09,-0.52 -0.27,-0.69z"/>
  </g>
 </g>
</svg>
