<svg xmlns="http://www.w3.org/2000/svg" fill="none" viewBox="0 0 81 81">
  <defs/>
  <path fill="#0A0A0A" d="M73.9348 10.5336h-1.0624c2.0252-2.98258 1.2774-6.98679-1.9729-9.16822-3.5022-2.350227-8.479-1.593712-10.9231 1.71015l-5.517 7.45817H7.06499C3.16934 10.5337 0 13.4006 0 16.9246v40.859c0 3.5239 3.16934 6.3908 7.06499 6.3908H34.5075l-2.0735 7.8779h-4.4752c-2.9166 0-5.2895 2.1464-5.2895 4.7847v.999h-5.5169c-.9659 0-1.7489.7084-1.7489 1.582S16.1865 81 17.1524 81h46.6952c.9659 0 1.7489-.7084 1.7489-1.582s-.783-1.582-1.7489-1.582h-5.5169v-.999c0-2.6383-2.3729-4.7847-5.2895-4.7847H48.566l-2.0735-7.8779H73.935c3.8957 0 7.065-2.8669 7.065-6.3908V16.9244c0-3.5239-3.1693-6.3908-7.0652-6.3908zM48.8764 38.3451c-2.7344 1.7315-7.8571-.6221-12.7491 1.7392-1.1936-5.609-.441-10.8842 5.7719-12.0485.8029-.1514 1.6674-.2199 2.4033-.2066 2.1029 1.4113 4.2299 2.8387 6.3268 4.2462.918 2.4154.5735 4.7966-1.7529 6.2697zm1.7625-16.9572l4.9506 3.3225-3.8071 4.1988c-1.5674-1.0519-2.9147-1.9562-4.4821-3.0082.3255-.4399 3.0411-4.1111 3.3386-4.5131zM62.8836 4.83519c1.3246-1.79099 4.0261-2.20769 5.9317-.92864 1.9063 1.27921 2.2477 3.7386.7372 5.40461-2.6802 2.95564-9.0521 9.98304-11.7424 12.95014l-5.224-3.5061L62.8836 4.83519zM54.8328 76.837v.999H26.1671v-.999c0-.8936.8038-1.6206 1.7917-1.6206H53.041c.988 0 1.7918.727 1.7918 1.6206zm-9.8625-4.7847h-8.9407l2.0735-7.8779h4.7937l2.0735 7.8779zm32.5319-14.2687c0 1.7793-1.6002 3.2268-3.5672 3.2268H7.06517c-1.96698 0-3.56722-1.4475-3.56722-3.2268v-7.4085h4.99763c.96591 0 1.74892-.7084 1.74892-1.582s-.78301-1.582-1.74892-1.582H3.4976V16.9244c0-1.7793 1.60024-3.2268 3.56721-3.2268H52.1188c-1.6754 2.2649-6.5634 8.8727-8.1117 10.9655-3.4273.028-6.849 1.108-9.0889 3.4734-3.0482 3.2186-3.5837 8.276-1.5917 15.0314.3405 1.1552 1.9339 1.5691 2.8981.736 4.5221-3.9087 10.1542.3548 15.1978-3.3379 3.0788-2.2543 3.8074-5.8382 2.6465-9.1895 1.5692-1.7307 14.457-15.9441 16.0299-17.6789h3.8359c1.9669 0 3.5672 1.4475 3.5672 3.2268v30.2865H22.4863c-.9659 0-1.7488.7084-1.7488 1.582s.7829 1.582 1.7488 1.582h55.0159v7.4087z"/>
  <path fill="#0A0A0A" d="M15.1532 47.2416c-.8419.1557-1.4061.814-1.4061 1.5522 0 .9895 1.0002 1.7473 2.09 1.5504.9683-.1778 1.5583-1.022 1.3729-1.8605-.1947-.8654-1.1227-1.4121-2.0568-1.2421z"/>
</svg>
