<svg xmlns="http://www.w3.org/2000/svg" fill-rule="evenodd" clip-rule="evenodd" image-rendering="optimizeQuality" shape-rendering="geometricPrecision" text-rendering="geometricPrecision" viewBox="0 0 113.63 31.63"><defs/><defs><linearGradient id="id0" x1="10.37" x2="10.37" y1="31.23" y2="4.4" gradientUnits="userSpaceOnUse"><stop offset="0" stop-color="#bf2020"/><stop offset="1" stop-color="#e41d37"/></linearGradient></defs><g id="Слой_x0020_1"><path d="M107.68 15.79h1.99v3.29l2.2-3.29h1.76v6.25h-1.99v-3.46l-2.21 3.46h-1.75v-6.25zm-2.44 6.24h-2v-4.69h-1.5V15.8h5.02v1.54h-1.52v4.69zm-6.01-2.36h1.92c-.24.78-.64 1.4-1.2 1.85-.57.47-1.26.72-2.07.72-.94 0-1.73-.33-2.38-.96-.65-.64-.98-1.42-.98-2.37 0-.95.31-1.74.93-2.37.62-.64 1.41-.95 2.36-.95.81 0 1.52.23 2.13.71.6.47 1 1.11 1.18 1.9h-1.89c-.17-.32-.37-.55-.58-.67-.2-.13-.49-.19-.86-.19-.41 0-.74.16-1 .48-.26.32-.39.69-.39 1.1 0 .45.14.82.41 1.12.27.3.62.46 1.06.46.39 0 .7-.09.92-.28.21-.19.36-.37.43-.55h.01zm-7.31-.75c0-.43-.15-.8-.44-1.11-.28-.3-.64-.46-1.07-.46-.43 0-.78.16-1.06.46-.28.31-.43.68-.43 1.11 0 .42.15.78.43 1.09.28.3.64.46 1.06.46.42 0 .77-.16 1.07-.46.29-.3.44-.67.44-1.09zm1.88-.01c0 .96-.33 1.75-.98 2.37-.65.62-1.46.93-2.41.93-.96 0-1.75-.31-2.4-.93-.64-.63-.96-1.42-.96-2.37 0-.95.32-1.75.96-2.37.65-.62 1.44-.93 2.4-.93s1.77.31 2.41.93c.65.62.97 1.41.97 2.37h.01zm-7.79 3.12h-2v-2.5h-1.78v2.5h-1.99v-6.24h1.99v2.32h1.78v-2.32h2v6.24zm-8.69-2.36h1.91c-.24.78-.64 1.4-1.19 1.85-.58.47-1.27.72-2.07.72-.95 0-1.74-.33-2.39-.96-.65-.64-.97-1.42-.97-2.37 0-.95.31-1.74.93-2.37.62-.64 1.41-.95 2.36-.95.81 0 1.52.23 2.12.71.61.47 1 1.11 1.19 1.9h-1.89c-.18-.32-.37-.55-.58-.67-.21-.13-.49-.19-.86-.19-.41 0-.74.16-1 .48-.26.32-.39.69-.39 1.1 0 .45.14.82.41 1.12.27.3.62.46 1.06.46.39 0 .7-.09.91-.28.22-.19.37-.37.44-.55h.01zm-7.74-.73c0-.45-.15-.84-.43-1.14-.29-.31-.66-.46-1.11-.46-.43 0-.79.15-1.05.46-.26.31-.4.68-.4 1.11 0 .42.14.79.41 1.11.28.31.62.47 1.05.47.43 0 .79-.15 1.08-.45.3-.31.45-.67.45-1.1zm-.04 2.42c-.33.58-.92.88-1.77.88-.94 0-1.68-.33-2.25-.99-.54-.62-.81-1.4-.81-2.34s.28-1.72.85-2.37c.57-.64 1.32-.96 2.25-.96.8 0 1.38.27 1.73.81v-.61h2v6.25h-2v-.67zm-5.89.67h-2v-4.7h-1.78v4.7h-1.99v-6.25h5.78v6.25h-.01zm-8.68-3.12c0-.42-.15-.79-.43-1.1-.29-.31-.65-.46-1.08-.46-.42 0-.78.15-1.06.46-.28.3-.42.67-.42 1.1 0 .42.14.78.42 1.09.28.31.64.46 1.06.46.42 0 .78-.15 1.07-.46.29-.3.44-.67.44-1.09zm1.88 0c0 .95-.32 1.74-.97 2.37-.65.62-1.46.93-2.41.93-.96 0-1.76-.31-2.4-.94-.65-.63-.96-1.41-.96-2.36 0-.96.32-1.75.96-2.37.64-.62 1.44-.93 2.4-.93s1.77.31 2.41.93c.65.62.97 1.41.97 2.37zm-11.08-1.33h-1.81c.15-1.32.99-1.97 2.52-1.97 1.71 0 2.57.6 2.57 1.81 0 .56-.25.99-.76 1.3.32.11.57.3.75.58.18.28.26.6.26.95 0 .7-.32 1.23-.96 1.56-.5.26-1.13.4-1.92.4-1.67 0-2.6-.7-2.79-2.1h1.86c.05.36.36.54.93.54.64 0 .97-.17.97-.54 0-.29-.19-.48-.58-.56-.15-.03-.44-.05-.88-.05v-1.3c.42 0 .68-.01.79-.02.33-.07.5-.23.5-.49 0-.39-.24-.59-.72-.59-.49 0-.73.16-.73.48zm-7.4.63h2.83c-.2-.71-.67-1.06-1.41-1.06-.74 0-1.2.35-1.41 1.06h-.01zm4.49 1.86c-.25.64-.65 1.15-1.21 1.55-.56.4-1.17.6-1.84.6-.91 0-1.69-.32-2.34-.98-.65-.65-.98-1.44-.98-2.35 0-.9.33-1.67.96-2.34.65-.65 1.41-.98 2.3-.98.7 0 1.33.18 1.87.54.54.36.94.87 1.19 1.51.17.42.26.81.26 1.18 0 .01-.02.23-.05.65h-4.69c.21.79.7 1.19 1.49 1.19.47 0 .84-.19 1.12-.58h1.91l.01.01zm-8.96-1.05c0-.42-.13-.76-.39-1.03s-.6-.4-1.01-.4c-.41 0-.74.14-1 .41-.26.27-.39.61-.39 1.02 0 .41.12.75.38 1.02.25.27.59.41 1.01.41.42 0 .76-.13 1.02-.39.25-.27.38-.62.38-1.04zm1.64-5.59v1.48h-2.69c-.37 0-.71.09-1.02.27-.33.18-.57.43-.71.76-.07.18-.11.41-.11.72.5-.56 1.17-.85 2-.85.92 0 1.62.3 2.12.92.46.57.69 1.33.69 2.26 0 .97-.31 1.75-.92 2.34-.62.58-1.42.88-2.4.88-.68 0-1.28-.16-1.82-.49a2.96 2.96 0 01-1.18-1.4c-.13-.31-.21-.67-.25-1.06 0-.14-.01-.5-.01-1.1 0-1.64.31-2.82.92-3.54.68-.79 1.81-1.19 3.42-1.19h1.96zM85.34 10.69h-2v-4.7h-1.5V4.45h5.02v1.54h-1.52v4.7zm-8.96-3.13c0 .47.13.85.4 1.15.26.29.63.44 1.09.44.42 0 .76-.16 1.04-.48.29-.31.42-.69.42-1.11 0-.42-.13-.78-.42-1.1-.27-.31-.62-.47-1.04-.47-.45 0-.81.15-1.08.45-.27.3-.41.67-.41 1.12zm.03 2.56v3.23h-1.99v-8.9h1.9v.74c.46-.63 1.1-.94 1.93-.94.91 0 1.64.34 2.19 1.02.51.64.76 1.43.76 2.36 0 .86-.27 1.61-.81 2.26-.57.68-1.28 1.01-2.12 1.01-.79 0-1.4-.25-1.85-.77l-.01-.01zM71.1 7.59c0-.45-.15-.83-.44-1.14-.28-.31-.65-.46-1.11-.46-.43 0-.77.16-1.04.46-.27.31-.4.69-.4 1.12 0 .42.13.79.41 1.1.28.32.62.48 1.05.48.43 0 .79-.15 1.08-.45.3-.31.45-.68.45-1.1v-.01zm-.04 2.43c-.33.58-.93.87-1.78.87-.93 0-1.68-.33-2.25-.98-.53-.62-.81-1.4-.81-2.35 0-.93.29-1.72.86-2.36.57-.64 1.31-.96 2.24-.96.8 0 1.38.27 1.73.81v-.61h2v6.25h-2v-.67h.01zm-11.94-.88h.72l1.52-4.69h2.15l1.54 4.69h.72V12h-1.54v-1.31h-3.58V12h-1.53V9.14zm3.32-2.5l-.73 2.5h1.46l-.73-2.5zm-4.06 4.05h-1.99V8.18H54.6v2.51h-1.99V4.44h1.99v2.32h1.79V4.44h1.99v6.25zm-9.1-3.1c0-.45-.14-.84-.43-1.14-.29-.31-.66-.46-1.11-.46-.43 0-.78.15-1.05.46-.26.31-.4.68-.4 1.11 0 .42.14.79.42 1.11.27.31.62.47 1.04.47.43 0 .8-.14 1.09-.45.29-.3.44-.67.44-1.1zm-.03 2.42c-.34.58-.93.88-1.77.88-.94 0-1.69-.33-2.26-.99-.53-.62-.8-1.4-.8-2.34 0-.93.28-1.72.85-2.37.57-.64 1.31-.96 2.24-.96.8 0 1.39.27 1.74.81v-.6h1.99v6.24h-1.99v-.67zm-7 .67h-2v-4.7h-1.5V4.44h5.02v1.54h-1.52v4.7zM31.44 6.34c0 .69.21 1.29.63 1.78.45.53 1.01.79 1.7.79.94 0 1.63-.49 2.07-1.46h2.29c-.3 1-.83 1.81-1.58 2.43-.78.64-1.68.96-2.7.96-1.28 0-2.38-.43-3.27-1.29-.9-.85-1.35-1.92-1.35-3.21 0-1.25.44-2.3 1.32-3.16.88-.85 1.94-1.29 3.19-1.29 1.07 0 2.01.31 2.8.94.79.62 1.32 1.45 1.58 2.5h-2.29c-.26-.58-.57-.97-.94-1.18-.37-.21-.75-.32-1.13-.32-.7 0-1.26.24-1.68.73-.43.48-.64 1.07-.64 1.77v.01z" class="fil0"/><path fill="#333" fill-rule="nonzero" d="M29.98 29.09v-3.97h2.2v.56h-1.61v1.01h.37c.43 0 .77.09 1.02.26.28.21.42.52.42.94 0 .41-.15.72-.43.94-.24.17-.58.26-1.01.26h-.96zm.59-1.84v1.28h.37c.28 0 .47-.04.6-.11.15-.1.23-.28.23-.53s-.08-.42-.23-.52c-.13-.07-.32-.11-.6-.11h-.37v-.01zm3.57-.56c-.21 0-.4.06-.56.2-.16.12-.27.29-.33.51h1.76c-.14-.47-.43-.7-.87-.7v-.01zm.78 1.5h.59c-.28.66-.73.99-1.37.99-.4 0-.75-.15-1.04-.45-.29-.3-.43-.65-.43-1.06 0-.4.14-.75.43-1.05.28-.3.62-.44 1.03-.44.32 0 .59.09.83.26s.41.41.52.71c.07.19.11.44.11.74h-2.36c.05.22.15.41.32.56.17.15.36.22.59.22.34 0 .6-.16.78-.48zm.96 0h.56c0 .15.06.28.19.37.11.09.24.13.39.13.42 0 .64-.13.64-.4 0-.2-.1-.33-.32-.38-.1-.03-.29-.05-.55-.05v-.44c.25 0 .42-.01.51-.04.19-.05.29-.18.29-.37 0-.12-.06-.22-.18-.29a.687.687 0 00-.34-.07c-.38 0-.56.14-.56.42h-.55c0-.3.12-.52.35-.69.2-.14.45-.21.76-.21.28 0 .52.07.72.21.22.16.33.37.33.64 0 .29-.16.48-.46.58.16.06.29.15.39.28.09.12.14.26.14.43 0 .12-.02.23-.09.33-.11.17-.26.31-.46.41-.2.09-.4.13-.61.13-.31 0-.57-.08-.79-.25-.24-.19-.36-.42-.36-.72v-.02zm3.16-.52c0 .27.09.5.27.7.18.18.4.28.66.28.27 0 .48-.1.66-.29.18-.19.27-.42.27-.69 0-.27-.09-.5-.27-.69-.18-.2-.4-.29-.67-.29s-.49.09-.67.29c-.17.19-.25.42-.25.69zm2.4-.02c0 .4-.14.76-.43 1.07-.29.3-.63.46-1.04.46-.41 0-.76-.15-1.04-.44-.29-.29-.43-.65-.43-1.06 0-.4.14-.75.42-1.06.28-.31.63-.46 1.02-.46.4 0 .75.15 1.05.44.3.29.45.64.45 1.04v.01zm.95-.9v2.35h-.52v-2.83h2.28v2.83h-.52v-2.35h-1.24zm2.77.92c0 .27.09.5.28.7.19.19.42.29.68.29.25 0 .46-.1.65-.3a.968.968 0 000-1.36c-.18-.2-.4-.3-.66-.3s-.49.1-.68.28c-.18.19-.27.42-.27.69zm2.4 1.42h-.51v-.35c-.28.28-.59.41-.96.41-.42 0-.77-.14-1.05-.43-.28-.28-.42-.64-.42-1.06 0-.41.14-.76.42-1.04.28-.29.62-.43 1.03-.43.4 0 .72.13.97.4v-.33h.53v2.83h-.01zm2.71-.98h.57c-.24.71-.7 1.07-1.38 1.07-.42 0-.77-.15-1.05-.44-.27-.28-.41-.63-.41-1.06 0-.42.14-.78.42-1.06.28-.29.64-.43 1.06-.43.69 0 1.14.34 1.36 1.03h-.57c-.16-.35-.44-.53-.83-.53-.26 0-.48.1-.65.29-.16.2-.25.43-.25.7 0 .27.09.5.26.7.17.2.39.3.65.3.4 0 .68-.19.81-.57h.01zm1.52-.2v1.19h-.53v-2.83h.53v1.16h1.3v-1.16h.53v2.83h-.53v-1.19h-1.3zm2.8-.23c0 .27.09.5.27.69.17.19.4.29.66.29.27 0 .48-.1.66-.29.18-.2.27-.42.27-.69 0-.27-.09-.5-.27-.7a.891.891 0 00-.68-.29c-.26 0-.49.1-.66.29-.17.2-.26.43-.26.7h.01zm2.4-.03c0 .41-.14.77-.43 1.07-.29.31-.63.46-1.04.46-.41 0-.76-.15-1.04-.44a1.41 1.41 0 01-.43-1.05c0-.4.14-.75.42-1.06.28-.31.62-.46 1.02-.46s.75.14 1.05.43c.3.3.45.64.45 1.05zm2.55.47h.58c-.25.71-.71 1.06-1.39 1.06-.42 0-.77-.14-1.04-.43-.28-.28-.42-.64-.42-1.06 0-.42.14-.78.42-1.06.29-.29.64-.43 1.07-.43.68 0 1.13.34 1.36 1.03h-.58c-.16-.35-.43-.53-.83-.53-.26 0-.47.1-.64.29-.17.19-.26.42-.26.7 0 .27.09.5.26.7.17.2.4.3.66.3.4 0 .67-.19.81-.57zm2.03.98h-.53v-2.33h-.75v-.5h2.03v.5h-.75v2.33zm1.61-2.83v1.11h.59c.37 0 .64.07.8.23.15.15.23.36.23.62 0 .3-.11.52-.31.67-.19.13-.43.2-.73.2h-1.11v-2.83h.53zm0 1.6v.76h.55c.36 0 .54-.13.54-.39 0-.25-.18-.37-.54-.37h-.55zm4.18-1.12v2.36h-.53v-2.83h2.29v2.83h-.53v-2.36h-1.24.01zm2.86.93c0 .26.09.49.27.69.19.2.4.3.66.3.27 0 .49-.1.68-.28a.92.92 0 00.27-.68c0-.27-.08-.5-.27-.7a.922.922 0 00-.68-.29c-.26 0-.47.1-.66.3-.18.19-.27.42-.27.67v-.01zm.99 1.5c-.38 0-.71-.13-.98-.39v1.54h-.53v-4.05h.53v.33c.27-.26.58-.38.94-.38.42 0 .78.14 1.06.42.28.28.42.64.42 1.06 0 .29-.08.57-.23.82-.16.26-.37.44-.64.54-.17.07-.36.11-.57.11zm3.22-2.47c-.21 0-.41.06-.56.19-.16.13-.27.3-.34.51h1.77c-.14-.46-.43-.69-.87-.69v-.01zm.77 1.49h.6c-.28.66-.74.99-1.38.99-.4 0-.74-.15-1.03-.45-.29-.29-.43-.64-.43-1.05 0-.41.14-.76.42-1.06.29-.29.63-.43 1.04-.43.32 0 .59.09.83.26s.41.4.52.7c.07.2.1.44.1.75h-2.35c.04.22.15.4.32.55.17.15.36.23.58.23.35 0 .61-.17.78-.49zm1.11.92v-2.83h1.06c.66 0 .98.26.98.78 0 .25-.11.43-.34.55.14.05.25.14.34.27.09.13.13.26.13.4 0 .29-.1.5-.32.64-.18.12-.42.19-.72.19H76.31zm1.03-2.37h-.52v.7h.52c.34 0 .52-.12.52-.38 0-.22-.18-.32-.52-.32zm-.52 1.14v.76h.57c.36 0 .54-.12.54-.37 0-.26-.18-.39-.54-.39h-.57zm2.63-1.61v1.1c.54 0 .89.03 1.04.08.36.11.53.37.53.78 0 .29-.1.51-.31.67-.18.13-.42.2-.72.2h-1.06v-2.83h.52zm0 1.6v.75h.51c.36 0 .53-.12.53-.38 0-.25-.17-.37-.53-.37h-.51zm2.34 1.23h-.52v-2.83h.52v2.83zm2.72-2.83v2.35h1.07v-2.35h.51v2.83H82.4v-2.83h.51v2.35h1.06v-2.35h.54zm3.51.43c-.22 0-.41.06-.57.19-.16.13-.27.3-.33.51h1.76c-.14-.46-.43-.69-.86-.69v-.01zm.77 1.49h.59c-.29.66-.74.99-1.38.99-.4 0-.74-.15-1.03-.45-.29-.29-.43-.64-.43-1.05 0-.41.14-.76.42-1.06.28-.29.62-.43 1.03-.43.32 0 .6.09.84.26.23.17.4.4.52.7.06.2.1.44.1.75h-2.36c.05.22.15.4.32.55.17.15.37.23.59.23.34 0 .6-.17.78-.49h.01zm2.69.92v-2.83h1.05c.67 0 .99.26.99.78 0 .25-.11.43-.34.55.13.05.25.14.33.27.09.13.13.26.13.4 0 .29-.1.5-.32.64-.18.12-.42.19-.72.19h-1.12zm1.02-2.37h-.51v.7h.51c.35 0 .52-.12.52-.38 0-.22-.17-.32-.52-.32zm-.51 1.14v.76h.57c.36 0 .55-.12.55-.37 0-.26-.18-.39-.55-.39h-.57zm4.22.24h.57c-.24.7-.7 1.06-1.39 1.06-.42 0-.77-.14-1.04-.43-.28-.28-.42-.64-.42-1.06 0-.43.14-.78.42-1.07.29-.29.64-.43 1.07-.43.68 0 1.13.35 1.36 1.04h-.57c-.16-.35-.44-.53-.83-.53-.26 0-.48.1-.65.29-.17.19-.25.42-.25.7 0 .26.09.49.26.7.18.2.39.29.65.29.41 0 .68-.18.81-.56h.01zm2.32-1.42c-.22 0-.41.06-.56.19-.17.13-.28.3-.34.51h1.77c-.14-.46-.43-.69-.87-.69v-.01zm.77 1.49h.59c-.28.66-.74.99-1.37.99-.41 0-.75-.15-1.04-.45-.29-.29-.43-.64-.43-1.05 0-.41.14-.76.42-1.06.29-.29.63-.43 1.04-.43.32 0 .59.09.83.26s.42.4.52.7c.07.2.1.44.1.75h-2.35c.04.22.15.4.32.55.16.15.36.23.59.23.34 0 .6-.17.78-.49zm1.62-1.42v2.33h-.52v-2.83h1.62v.5h-1.1zm1.85.91c0 .27.09.5.27.69.18.19.4.28.66.28.27 0 .49-.09.66-.29.18-.19.27-.41.27-.68 0-.28-.09-.51-.27-.7a.87.87 0 00-.67-.29c-.27 0-.49.1-.66.29-.17.19-.26.42-.26.7zm2.4-.03c0 .41-.14.77-.43 1.07-.29.3-.63.46-1.04.46-.41 0-.76-.15-1.04-.44-.29-.29-.43-.64-.43-1.05 0-.4.14-.75.42-1.07.29-.3.63-.46 1.02-.46.4 0 .75.15 1.05.44.31.3.45.64.45 1.04v.01z"/><path fill="#0075db" fill-rule="nonzero" d="M13.09 0s4.4 3.91 13.09 3.87c0 0-.58 7.37-1.61 13.08-1.03 5.71-1.72 7.41-3.74 9.29-.48.44-1.17.98-1.94 1.54 2.1-3.92.42-8.91-1.96-12.56-2.19-3.36-3.09-6.64-.41-9.97l1.76-2.2-2.64.98c-2.61.98-4.57 2.31-5.94 3.9l.52-1.43L8 8.36c-3.91 3.3-6.23 7.29-5.3 12.01l-.53-.58c-.19-.82-.37-1.76-.56-2.84C.58 11.23 0 3.87 0 3.87 8.68 3.91 13.09 0 13.09 0z"/><path fill="url(#id0)" d="M12.4 19.13c-.73.9-1.28 2.29-1.67 4.17C5.62 14.88 7.81 7.79 15.9 4.76c-2.58 3.22-2.37 6.66.38 10.89 3.63 5.57 3.59 10.61.56 13.56-1 .68-1.96 1.3-2.66 1.74l-.18.08c2.21-3.57 1.68-7.54-1.6-11.89v-.01zm.76 12.46l-.07.04s-5.72-3.52-7.74-5.39c-1.36-1.28-2.13-2.46-2.79-4.88.41.45.94.82 1.58 1.1-2-4.87-.55-9.37 4.36-13.5-2.76 7.59-1.72 13.54 3.12 17.83.55-1.88.81-3.29.78-4.26 1.7 2.88 1.88 4.59.75 9.05l.01.01z"/></g></svg>