<svg xmlns="http://www.w3.org/2000/svg" fill="#1E1E1E" viewBox="0 0 203 38"><defs/><path d="M6.40811 6.47916V31.5229h2.65072c1.81597 0 2.67567-1.1998 2.67567-2.9695V9.4497c0-1.76964-.8612-2.96898-2.67567-2.96898H6.40811v-.00156zM199.216 32.8559h-1.798V21.714h1.56v7.051l.636-2.4512 1.432-4.5998h1.926v11.1419h-1.576v-7.8475l-.716 2.7382-1.464 5.1093zm-9.452-1.5758c.201 0 .369-.0109.501-.0322.133-.0213.241-.0717.326-.1513.085-.0795.146-.196.183-.3498.037-.1539.061-.3582.072-.613l.286-8.4198h4.949v11.1419h-1.782v-9.5506h-1.528l-.19 6.7329c-.033 1.0189-.247 1.7457-.645 2.1808-.398.4352-1.032.6525-1.902.6525h-.27v-1.5914zm-3.613-4.8706h2.403v1.5913h-2.403v3.2632h3.024v1.5919h-4.774V21.714h4.774v1.5913h-3.024v3.1042zm-8.338 6.4464V21.714h4.901v1.5913h-3.151v2.8494h1.019c.881 0 1.541.2335 1.981.7003.44.4668.661 1.1515.661 2.0535v1.1936c0 .902-.221 1.5861-.661 2.053-.44.4673-1.1.7008-1.981.7008h-2.769zm2.769-1.5919c.276 0 .493-.0743.652-.223.159-.1487.239-.4242.239-.8276v-1.4167c0-.4029-.08-.6789-.239-.8276-.159-.1487-.376-.2225-.652-.2225h-1.019v3.5174h1.019zm-6.891-4.8545h2.403v1.5913h-2.403v3.2632h3.024v1.5919h-4.774V21.714h4.774v1.5913h-3.024v3.1042zm-6.651 3.2149l1.193-7.9104h2.435v11.1419h-1.655v-7.9905l-1.209 7.9905h-1.655l-1.305-7.8792v7.8792h-1.528V21.714h2.435l1.289 7.9104zm-11.203 3.2315h-1.798V21.714h1.559v7.051l.637-2.4512 1.432-4.5998h1.926v11.1419h-1.576v-7.8475l-.716 2.7382-1.464 5.1093zm2.864-13.6253c0 .5411-.154.9711-.461 1.2892-.308.3187-.775.4778-1.4.4778-.616 0-1.069-.1591-1.361-.4778-.292-.3181-.448-.7481-.47-1.2892h1.083c.021.2973.093.4938.214.589.122.0956.3.1435.534.1435.243 0 .432-.0479.564-.1435.133-.0952.21-.2917.231-.589h1.066zm-9.357 11.0623c0 .4034.083.6873.247.8516.164.1648.385.2469.661.2469.275 0 .496-.0821.66-.2469.165-.1643.247-.4482.247-.8516v-6.0165c0-.4034-.082-.6872-.247-.8515-.164-.1643-.385-.2464-.66-.2464-.276 0-.497.0821-.661.2464-.164.1643-.247.4481-.247.8515v6.0165zm-1.75-5.9052c0-.902.228-1.5939.684-2.0769.457-.483 1.114-.7242 1.974-.7242.859 0 1.516.2412 1.973.7242.456.483.684 1.1749.684 2.0769v5.794c0 .9019-.228 1.5944-.684 2.0768-.457.483-1.114.7247-1.973.7247-.86 0-1.517-.2417-1.974-.7247-.456-.4824-.684-1.1749-.684-2.0768v-5.794zm-4.902 8.4682h-1.75V21.714h1.75v4.775h1.99v-4.775h1.782v11.1419h-1.782v-4.775h-1.99v4.775zm-2.816-4.1548v1.4806c0 .9019-.22 1.5944-.66 2.0768-.44.483-1.091.7247-1.95.7247s-1.509-.2417-1.949-.7247c-.44-.4824-.66-1.1749-.66-2.0768v-5.794c0-.902.22-1.5939.66-2.0769.44-.483 1.09-.7242 1.949-.7242s1.51.2412 1.95.7242c.44.483.66 1.1749.66 2.0769v1.0824h-1.655v-1.1937c0-.4034-.082-.6872-.246-.8515-.165-.1643-.385-.2464-.661-.2464s-.496.0821-.66.2464c-.165.1643-.247.4481-.247.8515v6.0165c0 .4034.082.6847.247.8438.164.159.384.2386.66.2386s.496-.0796.661-.2386c.164-.1591.246-.4404.246-.8438v-1.5918h1.655zm-7.686 1.3215c-.106.4985-.236.9363-.39 1.3132-.154.3764-.361.6841-.62.9227-.26.2392-.595.4113-1.003.5173-.409.1066-.915.1383-1.52.0957v-1.5596c.446.0317.796-.011 1.051-.1274.254-.117.418-.3769.493-.7803l.016-.0952-2.419-8.595h1.734l.955 3.8039.541 2.6103.414-2.5942.796-3.82h1.83l-1.878 8.3086zm-8.927 2.8333h-1.751V21.714h5.522v11.1419h-1.782v-9.5506h-1.989v9.5506zm-5.172-11.1419c.881 0 1.536.2334 1.965.7003.43.4668.645 1.151.645 2.0529v1.4489c0 .902-.215 1.5861-.645 2.053-.429.4668-1.084.7002-1.965.7002h-.827v4.1866h-1.751V21.714h2.578zm-.827 1.5913v3.7727h.827c.276 0 .488-.0743.636-.223.149-.1487.223-.4242.223-.8276V24.356c0-.4034-.074-.679-.223-.8277-.148-.1486-.36-.223-.636-.223h-.827zm-6.445 6.9876c0 .4034.082.6873.246.8516.165.1648.385.2469.661.2469s.496-.0821.66-.2469c.165-.1643.247-.4482.247-.8516v-6.0165c0-.4034-.082-.6872-.247-.8515-.164-.1643-.384-.2464-.66-.2464s-.496.0821-.661.2464c-.164.1643-.246.4481-.246.8515v6.0165zm-1.751-5.9052c0-.902.229-1.5939.684-2.0769.457-.483 1.115-.7242 1.974-.7242s1.517.2412 1.973.7242c.456.483.684 1.1749.684 2.0769v5.794c0 .9019-.228 1.5944-.684 2.0768-.456.483-1.114.7247-1.973.7247s-1.517-.2417-1.974-.7247c-.455-.4824-.684-1.1749-.684-2.0768v-5.794zm-4.153 4.0269l-.541 1.019v3.4223h-1.751V21.714h1.751v4.8545l2.292-4.8545h1.75l-2.435 4.9658 2.435 6.1761h-1.798l-1.703-4.4413zm86.137-12.1286c.086-.2121.139-.4216.16-.6285.021-.2069.032-.4481.032-.7242v-1.7192c0-.5833.082-1.0793.246-1.4879.165-.4086.469-.7034.915-.8838-.764-.3608-1.146-1.11405-1.146-2.25984v-.87547c0-.85934.205-1.50139.613-1.92612.409-.42422 1.069-.63632 1.981-.63632h2.642V16.286h-1.751v-4.5359h-.604c-.404 0-.695.1061-.875.3182-.181.2121-.271.5781-.271 1.0985v1.7504c0 .223-.003.4086-.008.5573s-.016.2703-.032.366c-.016.0956-.034.1752-.055.2386-.022.0639-.043.1331-.064.2069h-1.783zm2.849-9.55003c-.307 0-.533.09046-.676.27086-.143.18039-.215.47204-.215.87546v1.09797c0 .44605.093.75329.278.92329.186.16995.443.25475.772.25475h.684V6.73597h-.843zm-7.527 9.55003h-1.798V5.14465h1.56v7.05105l.636-2.45123 1.432-4.59982h1.926V16.286h-1.576V8.43907l-.716 2.73763-1.464 5.1093zm-4.503 1.4962V16.286h-3.74v1.4962h-1.703v-3.0558h.685c.148-.1908.252-.3977.31-.6207.058-.2231.098-.4986.119-.8277l.398-8.13335h4.902v9.58175h.764v3.0558h-1.735zm-2.61-4.5359c-.021.4242-.072.7424-.151.955-.08.2121-.194.3873-.342.5251h2.291V6.73597h-1.48l-.318 6.51033zm-5.06.2069c-.106.4986-.236.9363-.39 1.3127-.154.3769-.361.6847-.621.9233-.26.2391-.594.4112-1.002.5173-.409.106-.916.1383-1.52.0956v-1.5596c.445.0317.796-.0109 1.05-.1274.255-.1169.419-.3769.494-.7803l.015-.0951-2.418-8.59505h1.734l.955 3.8039.541 2.61025.414-2.59414.795-3.82001h1.831l-1.878 8.30855zm-10.057-8.30855h5.41v1.59132h-1.83V16.286h-1.75V6.73597h-1.83V5.14465zm-.558 6.98705v1.4806c0 .902-.219 1.5945-.66 2.0769-.44.483-1.09.7242-1.949.7242s-1.509-.2412-1.949-.7242c-.441-.4824-.661-1.1749-.661-2.0769V7.81835c0-.90198.22-1.59445.661-2.07689.44-.48296 1.09-.72418 1.949-.72418s1.509.24122 1.949.72418c.441.48244.66 1.17491.66 2.07689v1.08237h-1.655V7.70709c0-.40342-.082-.68727-.246-.85155-.165-.1648-.384-.24694-.66-.24694s-.496.08214-.661.24694c-.164.16428-.246.44813-.246.85155v6.01651c0 .4034.082.6846.246.8437.165.1591.385.2386.661.2386s.495-.0795.66-.2386c.164-.1591.246-.4403.246-.8437v-1.5919h1.655zm-14.257 4.1543c.084-.2121.137-.4216.159-.6285.021-.2069.031-.4481.031-.7242v-1.7192c0-.5833.082-1.0793.247-1.4879.164-.4086.47-.7034.915-.8838-.764-.3608-1.146-1.11405-1.146-2.25984v-.87547c0-.85934.205-1.50139.613-1.92612.408-.42422 1.069-.63632 1.981-.63632h2.642V16.286h-1.751v-4.5359h-.605c-.402 0-.694.1061-.875.3182-.18.2121-.27.5781-.27 1.0985v1.7504c0 .223-.003.4086-.008.5573-.006.1487-.016.2703-.032.366-.016.0956-.034.1752-.056.2386-.021.0639-.042.1331-.063.2069h-1.782zm2.848-9.55003c-.308 0-.533.09046-.676.27086-.144.18039-.216.47204-.216.87546v1.09797c0 .44605.094.75329.279.92329.186.16995.443.25475.772.25475h.684V6.73597h-.843zm-3.342 9.55003h-1.766l-.303-2.0212h-2.148l-.302 2.0212h-1.607l1.782-11.14135h2.562l1.782 11.14135zm-3.994-3.5336h1.687l-.844-5.63432-.843 5.63432zm-5.968-.9071l-.541 1.0189v3.4218h-1.75V5.14465h1.75v4.85456l2.292-4.85456h1.75l-2.434 4.96585 2.434 6.1755h-1.798l-1.703-4.4407zm-9.531-6.70065h1.75v9.55005h1.989V5.14465h1.782v9.58175h.765v3.0558h-1.703V16.286h-4.583V5.14465zm-4.106 4.69548h2.403v1.59137h-2.403v3.2632h3.024v1.5913h-4.774V5.14465h4.774v1.59132h-3.024v3.10416zm-6.795 6.44587h-1.751V5.14465h1.751v4.77502h1.989V5.14465h1.782V16.286h-1.782v-4.775h-1.989v4.775zm-6.445-2.5624c0 .4034.083.6872.247.8515.164.1643.385.247.661.247.275 0 .495-.0827.66-.247.164-.1643.247-.4481.247-.8515V7.70709c0-.40342-.083-.68727-.247-.85155-.165-.1648-.385-.24694-.66-.24694-.276 0-.497.08214-.661.24694-.164.16428-.247.44813-.247.85155v6.01651zm-1.75-5.90525c0-.90198.228-1.59445.684-2.07689.456-.48296 1.114-.72418 1.974-.72418.859 0 1.516.24122 1.973.72418.456.48244.684 1.17491.684 2.07689v5.79395c0 .902-.228 1.5945-.684 2.0769-.457.483-1.114.7242-1.973.7242-.86 0-1.518-.2412-1.974-.7242-.456-.4824-.684-1.1749-.684-2.0769V7.81835zm-2.562 9.96385V16.286h-3.74v1.4962h-1.703v-3.0558h.685c.149-.1908.252-.3977.31-.6207.058-.2231.098-.4986.119-.8277l.398-8.13335h4.902v9.58175h.763v3.0558h-1.734zm-2.61-4.5359c-.021.4242-.072.7424-.151.955-.08.2121-.194.3873-.342.5251h2.291V6.73597h-1.48l-.318 6.51033zM25.5738 36.9124c-3.0737-1.5851-4.3471-4.6024-4.3471-8.1063v-1.9958l6.3555-.051c0 1.5882-.2235 3.1796.7962 4.2115 1.3025 1.3158 5.1201 1.3517 5.1201-2.1632v-3.2512c0-2.5802-2.8722-3.4369-4.7454-4.5078l-.528-.2558c-1.3898-.7003-2.5733-1.4302-3.5509-2.1892-2.315-1.7977-3.421-4.4522-3.421-7.6182 0-2.54477-.104-4.56811 1.0935-6.79836C23.9611 1.18219 27.052 0 30.5411 0c5.8113 0 9.1346 3.38592 9.1346 9.16793v2.09977l-6.355.0759c0-1.58873.2183-3.31783-.7328-4.36537-1.2474-1.37298-4.9533-1.2165-4.9533 1.93236v2.48391c0 2.6004 2.7126 3.5502 4.8493 4.6612 1.5556.8074 3.0073 1.5991 4.2328 2.4964.8753.64 1.6201 1.5404 2.2386 2.7013 1.1434 2.1491.9262 4.9928.9262 7.5527 0 5.8267-3.422 9.1939-9.2614 9.1939-1.9553 0-3.6377-.3624-5.0426-1.0876h-.0037zM85.6209.384185h5.9678V37.6174h-5.6845V14.5278l-5.0426 16.507h-3.1902l-4.9142-15.6237v22.2063h-5.8145V.384185h6.1242L79.2654 20.6134 85.6209.384185zM56.4911 15.5306l8.1881 22.0868h-6.9979l-4.5888-14.7399-2.7687 5.9873v8.7526h-6.3815V.385745h6.3815V16.8028L56.2915.385745h7.2043L56.4901 15.5322l.001-.0016zM.0297546.384185H9.70332c5.32798 0 8.48858 3.034485 8.48858 8.346535V29.2677c0 5.3323-3.1825 8.3497-8.51509 8.3497H.0297546V.384185z"/></svg>