<svg xmlns="http://www.w3.org/2000/svg" fill-rule="evenodd" clip-rule="evenodd" image-rendering="optimizeQuality" shape-rendering="geometricPrecision" text-rendering="geometricPrecision" viewBox="0 0 3319.82 607.52"><defs/><defs><linearGradient id="id0" x1="0" x2="114.24" y1="89.1" y2="172.38" gradientUnits="userSpaceOnUse"><stop offset="0" stop-color="#a10603"/><stop offset="1" stop-color="#cc6a14" stop-opacity=".62"/></linearGradient><linearGradient id="id1" x1="0" x2="114.24" y1="89.1" y2="207.38" gradientUnits="userSpaceOnUse"><stop offset="0" stop-color="#c72026"/><stop offset="1" stop-color="#d47420" stop-opacity=".169"/></linearGradient><linearGradient id="id2" x1="313.83" x2="457.22" y1="310.7" y2="371.92" gradientUnits="userSpaceOnUse"><stop offset="0" stop-color="#e32124"/><stop offset="1" stop-color="#c72026"/></linearGradient><linearGradient id="id3" x1=".003%" x2="91.78%" y1="10.266%" y2="59.067%" gradientUnits="objectBoundingBox"><stop offset="0" stop-color="#ef7f1a"/><stop offset="1" stop-color="#e31e24"/></linearGradient><linearGradient id="id4" x1=".02" x2="471.88" y1="62.37" y2="358.84" gradientUnits="userSpaceOnUse"><stop offset="0" stop-color="#e31e24"/><stop offset="1" stop-color="#ef7f1a"/></linearGradient><linearGradient id="id5" x1="339.86" x2="457.22" y1="304.97" y2="371.92" gradientUnits="userSpaceOnUse"><stop offset="0" stop-color="#bd151a"/><stop offset="1" stop-color="#a31217"/></linearGradient><style>.fil0{fill:url(#id3)}</style></defs><g id="Слой_x0020_1"><path d="M57.12 400.29c31.45 0 57.12-25.67 57.12-57.12V159.76L349 304.98l-150.2 94.15c-26.65 16.65-34.69 52.12-18.03 78.77 16.65 26.65 52.12 34.69 78.77 18.02l227.91-142.96c35.66-22.34 35.57-74.76-.3-97.01L87.19 8.55C49.28-14.86-.01 12.56-.01 57.15v285.91c0 31.45 25.66 57.12 57.12 57.12v.11zM57.12 493.28c31.54 0 57.12 25.58 57.12 57.12s-25.58 57.12-57.12 57.12S0 581.94 0 550.4s25.58-57.12 57.12-57.12z" class="fil0"/><path fill="url(#id4)" d="M457.22 371.92l-108.23-66.95h.01L114.24 159.75v.01L0 89.1V57.15c0-44.59 49.29-72.01 87.2-48.6l399.96 247.4c35.87 22.25 35.96 74.67.3 97.01l-30.23 18.96z"/><path d="M3319.82 382.55v46.54h-194.2V178.26h189.5v46.64h-131.89v54.48h116.51v45.17h-116.51v58H3319.83zm-340.39 50.85c-19.78 0-38.99-2.64-57.52-8.03-18.52-5.39-33.41-12.34-44.59-20.97l19.7-43.71c10.77 7.83 23.52 14.21 38.3 19.01 14.8 4.81 29.59 7.15 44.39 7.15 16.46 0 28.71-2.45 36.54-7.34 7.83-4.9 11.86-11.37 11.86-19.5 0-5.99-2.36-10.97-6.95-14.89-4.61-3.93-10.68-7.06-17.94-9.51-7.25-2.36-17.15-5-29.59-7.83-19.1-4.51-34.78-9.12-46.93-13.62-12.15-4.51-22.64-11.87-31.35-21.85-8.71-10-13.03-23.41-13.03-40.17 0-14.59 3.93-27.72 11.87-39.59 7.83-11.86 19.78-21.16 35.66-28.13 15.88-6.95 35.27-10.39 58.19-10.39 15.97 0 31.65 1.86 46.93 5.77 15.28 3.82 28.71 9.31 40.17 16.46l-17.94 44.09c-23.13-13.13-46.35-19.7-69.48-19.7-16.26 0-28.21 2.64-36.05 7.83-7.74 5.3-11.65 12.14-11.65 20.77 0 8.62 4.51 15 13.43 19.2 8.92 4.21 22.64 8.33 41.05 12.34 19.1 4.51 34.78 9.12 46.93 13.62 12.14 4.51 22.64 11.65 31.35 21.46 8.71 9.8 13.03 23.02 13.03 39.78 0 14.31-4.01 27.44-12.06 39.2-8.03 11.86-20 21.16-36.05 28.13-15.97 6.95-35.47 10.39-58.4 10.39h.12zm-297.37-255.14h58v203.51h125.8v47.33h-183.82V178.27l.02-.02zM2511.18 433.4c-35.86 0-63.68-9.89-83.68-29.69-19.99-19.79-29.89-48.11-29.89-84.95v-140.5h58v138.35c0 44.87 18.62 67.42 55.94 67.42 18.13 0 32.04-5.49 41.54-16.27 9.61-10.88 14.31-27.92 14.31-51.05V178.36h57.31v140.5c0 36.74-10 65.06-29.89 84.95-20 19.79-47.81 29.69-83.68 29.69l.03-.1zm-263.77-120.7c17.44 0 30.66-3.73 39.78-11.27 9.12-7.55 13.62-18.22 13.62-32.04 0-14.11-4.51-24.89-13.62-32.44-9.12-7.55-22.34-11.27-39.78-11.27h-47.33v87.11h47.33v-.1zm3.22-134.34c22.25 0 41.54 3.73 57.81 11.07 16.37 7.45 29.01 17.94 37.83 31.54 8.82 13.62 13.22 29.69 13.22 48.41 0 18.43-4.4 34.48-13.22 48.21-8.82 13.71-21.46 24.2-37.83 31.54-16.37 7.25-35.66 10.97-57.81 10.97h-50.55v69.18h-58V178.45h108.57l-.02-.09z" class="fil0"/><path fill-rule="nonzero" d="M1961.1 384.03c14.8 0 28.22-3.43 40.17-10.19 11.95-6.86 21.35-16.26 28.13-28.52 6.76-12.14 10.19-26.07 10.19-41.54 0-15.49-3.43-29.4-10.19-41.54-6.87-12.15-16.16-21.65-28.13-28.52-11.95-6.87-25.38-10.19-40.17-10.19-14.8 0-28.22 3.43-40.17 10.19-11.95 6.86-21.35 16.37-28.13 28.52-6.87 12.15-10.19 26.07-10.19 41.54 0 15.49 3.43 29.4 10.19 41.54 6.76 12.15 16.16 21.65 28.13 28.52 11.95 6.87 25.28 10.19 40.17 10.19zm0 49.48c-26.07 0-49.48-5.58-70.44-16.84-20.88-11.27-37.23-26.75-49.09-46.45-11.86-19.7-17.74-41.84-17.74-66.43 0-24.59 5.88-46.74 17.74-66.43 11.87-19.7 28.22-35.17 49.09-46.45 20.87-11.26 44.39-16.84 70.44-16.84 26.07 0 49.48 5.58 70.25 16.84 20.77 11.18 37.14 26.65 49.09 46.45 11.95 19.7 17.94 41.84 17.94 66.43 0 24.59-5.98 46.73-17.94 66.43-11.95 19.7-28.32 35.17-49.09 46.45-20.77 11.18-44.18 16.84-70.25 16.84zm-235.45-4.31l-.39-150.5-73.79 123.96h-26.15l-73.49-120.8v147.26h-54.48V178.29h48.02l93.87 155.89 92.39-155.89h47.61l.69 250.83h-54.48l.19.09zm-409.18-45.17c14.8 0 28.22-3.43 40.17-10.19 11.95-6.86 21.35-16.26 28.13-28.52 6.76-12.14 10.19-26.07 10.19-41.54 0-15.49-3.43-29.4-10.19-41.54-6.87-12.15-16.16-21.65-28.13-28.52-11.95-6.87-25.38-10.19-40.17-10.19-14.8 0-28.22 3.43-40.17 10.19-11.95 6.86-21.35 16.37-28.13 28.52-6.87 12.15-10.19 26.07-10.19 41.54 0 15.49 3.43 29.4 10.19 41.54 6.76 12.15 16.16 21.65 28.13 28.52 11.95 6.87 25.28 10.19 40.17 10.19zm0 49.48c-26.07 0-49.48-5.58-70.44-16.84-20.88-11.27-37.23-26.75-49.09-46.45-11.86-19.7-17.74-41.84-17.74-66.43 0-24.59 5.88-46.74 17.74-66.43 11.86-19.7 28.22-35.17 49.09-46.45 20.87-11.26 44.39-16.84 70.44-16.84 26.07 0 49.48 5.58 70.25 16.84 20.77 11.18 37.14 26.65 49.09 46.45 11.95 19.7 17.94 41.84 17.94 66.43 0 24.59-5.98 46.73-17.94 66.43-11.95 19.7-28.32 35.17-49.09 46.45-20.77 11.18-44.18 16.84-70.25 16.84zm-226.13-164.12c0-14.12-4.51-24.89-13.62-32.44-9.12-7.55-22.34-11.27-39.78-11.27h-47.33v87.39h47.33c17.44 0 30.66-3.82 39.78-11.46 9.12-7.64 13.62-18.43 13.62-32.23zm1.07 159.81L1043 359.34H989.62v69.86h-58V178.37h108.57c22.25 0 41.54 3.73 57.81 11.07 16.37 7.45 29.01 17.94 37.83 31.54 8.82 13.62 13.22 29.69 13.22 48.41 0 18.62-4.51 34.69-13.43 48.21-8.92 13.52-21.65 23.82-38.11 30.96l56.24 80.64H1091.42zM778.27 312.71c17.44 0 30.66-3.73 39.78-11.27 9.12-7.55 13.62-18.22 13.62-32.04 0-14.11-4.51-24.89-13.62-32.44-9.12-7.55-22.34-11.27-39.78-11.27h-47.33v87.11h47.33v-.1zm3.22-134.34c22.25 0 41.54 3.73 57.8 11.07 16.37 7.45 29.01 17.94 37.83 31.54 8.82 13.62 13.22 29.69 13.22 48.41 0 18.43-4.4 34.48-13.22 48.21-8.82 13.71-21.46 24.2-37.83 31.54-16.37 7.25-35.66 10.97-57.8 10.97h-50.55v69.18h-58V178.46h108.57l-.02-.09z"/><path fill="url(#id0)" d="M0 89.1l114.24 83.28v-12.62z"/><path fill="url(#id1)" d="M0 89.1l114.24 118.28v-35z"/><path fill="url(#id5)" fill-opacity=".788" d="M457.22 371.92L349 304.97l-9.14 5.73z"/><path fill="url(#id2)" d="M457.22 371.92l-143.39-44.9 26.03-16.32z"/></g></svg>