<svg xmlns="http://www.w3.org/2000/svg" fill="none" viewBox="0 0 234 64"><defs/><path fill="#3c1405" d="M232.659 30.8419c-.227-.8559-.71-1.5407-1.506-1.9971l-.057-.0286-20.456-.0285v5.4779l1.194-.0285c.539 0 .795-.5136.795-1.5407 0-1.1412.455-1.7404 1.392-1.7118h2.984c1.562.1141 2.443.8844 2.557 2.3395l.028 25.5066c-.483 1.0557-1.449 1.8545-2.898 2.4252v1.6262h10.597v-.9986c0-.2282-.056-.3994-.227-.542-.142-.1427-.597-.3424-1.335-.5421-.739-.2283-1.222-.4851-1.449-.7704-.228-.2853-.341-.5991-.341-.97V34.2371c0-1.1127.17-1.9116.54-2.4537.369-.5421.767-.7988 1.25-.7988h2.443c.272.1364.527.2728.767.4007.212.1128.41.2189.597.3125.426.1998.653.6848.767 1.4266.114.7418.227 1.2268.398 1.4551.17.2282.625.3709 1.363.4279.625-.1712.938-.7703.938-1.7404 0-.7418-.114-1.5406-.341-2.4251zM48.7744 37.3019c.1197-.3158.2404-.6344.2917-.9821-.8808.8274-.9944 1.2839-.5966 2.1684.0155-.4227.1594-.8024.3049-1.1863zM50.0321 46.5339c.5966-.3424.7671-1.0842.2557-1.7689v.0285c-.0284.5706-.1989 1.0271-.483 1.4266-.0041.0081-.0099.018-.0165.0293-.0398.0679-.1093.1867-.0119.2845.0852.0856.1704.0571.2557 0zM48.7476 47.0759c.078-.2515.1555-.5014.0628-.8273h-.0284l-.0425.0379c-.2385.2127-.4516.4028-.6394.6183-.1829.1837-.145.4043-.1084.6173.0088.0517.0176.1029.0232.1531.0284.1141.1704.1141.2557.0855.2841-.057.3693-.2853.4261-.5135.0157-.0578.0333-.1146.0509-.1713zM46.225 49.7864c.5398-.2282 1.1648-1.3124 1.2785-2.2824-.0149.013-.0297.026-.0444.039-.4382.3859-.8577.7552-1.4898.6172.2841.2282.3409.485.3125.7988-.0146.1316-.0217.2707-.0289.4134-.007.1358-.0141.2749-.0279.414zM47.2677 45.8715c-.2576.0868-.5139.1732-.7586.2915 1.3069.8559 1.9035.5706 2.3297-1.1698-.4644.5052-1.0209.6928-1.5711.8783zM46.5304 50.965c.0471-.185.0942-.3702.1492-.5509-.2518.7223-.8108 1.1246-1.3673 1.5251-.3229.2324-.6449.4641-.9056.7574-.1705.1997-.1705.2568 0 .3424.1988.1141.3977.1711.6534.057 1.0301-.3997 1.25-1.2643 1.4703-2.131zM43.3531 49.7732c.031-.0769.0649-.1608-.0545-.3006v.0285c-.5114.6848-1.2217.856-2.0456.7989-.1241-.0089-.249-.0123-.3728-.0156-.6695-.0179-1.3087-.035-1.6444-.9259-.0658.1212-.119.2254-.1659.3176-.0746.1463-.1337.2621-.2034.3671-.3978.6277-.9944.8559-1.7331.8274-.455-.0208-.5487-.3288-.6427-.6379-.0351-.1156-.0703-.2312-.1244-.3321l-.0284-.0286c-.3062.2563-.1999.5355-.0928.8171.0122.0319.0244.0639.036.0959.0921.2546.1096.5091.128.7789.0043.0629.0087.1265.014.1912.1344-.0482.2525-.1192.3665-.1876.2235-.1343.4309-.2589.7131-.1833.4679.1265.8902-.0218 1.3103-.1692.2431-.0853.4854-.1704.7353-.2017.0719-.0107.1435-.0217.2149-.0326.6909-.1055 1.3628-.2082 2.058-.053 1.2501.2853 1.3354.2568 1.5058-1.0557 0-.0342.0128-.0658.0261-.0988zM40.0942 53.8742c.3105.0328.621.0655.9315-.0078.5398-.1142.966-.0571 1.3922.3709l.0568-.0286c.0149-.09.026-.1781.0367-.2637.03-.2398.0575-.46.1622-.6493l.4261-.7703c.0853-.1712.1705-.3709.1421-.5991-.0284-.1427-.1136-.1998-.2273-.2283-.1605-.0201-.151.0593-.1415.1379.0039.0327.0078.0652-.0005.0904-.2273.485-.483.9415-.9092 1.1983-.4262.2567-2.1593-.1998-2.415-.6563-.2841-.5135-.4545-.3423-.7102 0-.5683.7704-1.5911 1.1413-2.3013.8845-.0569.3138 0 .6562.3125.7133.0717.009.1449.0201.2187.0314.3944.06.81.1233 1.145-.117.3147-.2173.6294-.1884.9441-.1596.1399.0129.2798.0257.4197.0169.1725 0 .345.0182.5174.0364zM43.4079 48.7394c.0014.0066.0029.0133.0044.0199h-.0284c.0081-.0065.0161-.0131.024-.0199z"/><path fill="#3c1405" d="M41.7644 47.3898c.8743.0284 1.4407.4503 1.6435 1.3496.1468-.1253.2491-.2813.3477-.4318.1731-.264.3351-.5112.7079-.5469.0052-.001.0105-.0021.0158-.0031.1386-.0276.2967-.0592.2967-.1966 0-.1426-.1136-.2568-.2841-.3138-.1153-.0421-.2345-.0687-.3547-.0955-.2055-.0458-.4141-.0923-.6113-.2184-.7671-.485-1.5626-.7988-2.5286-.6562-.1299.0227-.2622.0556-.3955.0887-.5371.1335-1.0925.2715-1.5933-.2313-.1136.5421-.4545.7418-.8807.6847-.7103-.1141-1.0512.2853-1.3637.8274-.0236.0415-.0469.0832-.0702.125-.2011.3608-.4032.7231-.8106.9021.483.5136.5114.5136.8523-.0856.5683-.97 1.7899-1.2268 2.6991-.542.3409-.6563.3409-.6563 1.0512-.6563h1.2785zM25.7192 40.4014c.2796-.1313.5776-.2712.76-.6578-.1311.0292-.2604.0435-.3845.0572-.3597.0396-.6755.0745-.8656.4563-.0071.0214-.0177.0428-.0284.0642-.032.0642-.0639.1284 0 .1926.0284.0571.1705.0856.1989.0571.0977-.0655.2072-.1169.3196-.1696zM59.1521 22.4253c.5966-.428.6534-.913.1704-1.7119-.0486.2687-.0504.5216-.0522.7656-.0023.3261-.0045.6362-.1182.9463zM40.7984 30.6993c.2557.2282.5114.485.7387.7418 0-.3385-.1405-.5515-.2827-.7669-.0496-.0751-.0994-.1506-.1434-.2317-.009-.0136-.018-.03-.0275-.0472-.0502-.0916-.1132-.2065-.2566-.0384-.1137.1141-.1705.1997-.0285.3424zM40.7416 31.6408c-.5398.1997-.9944.3424-1.449.485.1137-.6562.483-.7989 1.449-.485zM39.978 32.7111c.434-.0672.8798-.1363.9341-.8991h-.0284c-.1142.0644-.2193.1325-.3196.1974-.2991.1936-.5545.3589-.8737.3161-.483-.057-.5114.1712-.3693.6277.1651-.1659.4091-.2037.6569-.2421zM42.9577 30.7278c.3977.6562.3125 1.2268.0852 1.826.2537-.4864.6198-.8412.9918-1.2017.0862-.0836.1728-.1675.2583-.2534.2273-.2283.1705-.5706 0-.8559-.0167.0195-.0333.0391-.0499.0587-.3225.3807-.6369.7519-1.2854.4263zM41.8665 29.3994c.0821.0032.1621.0063.2389.016.0238-.0024.0474-.0048.0709-.0072.2563-.026.4927-.0499.753-.0499.1136 0 .1704-.0285.1989-.1426-.2012-.0539-.2757-.2221-.3492-.3878-.0821-.1854-.1629-.3675-.4179-.3826-.341-.0285-.6819.0286-1.0228.1141-.2557.0856-.3126.3139-.341.5136-.0447.2248.1397.237.2756.2461.0366.0024.0697.0046.0938.0107.1693.0567.3387.0633.4998.0696zM39.0258 60.0149c-.0625.0051-.1251.0098-.1877.0141l.1136-.057c.0247.0148.0494.0291.0741.0429z"/><path fill="#3c1405" fill-rule="evenodd" d="M70.1472 52.126l2.3581-6.6763v.0286c4.8015 2.1113 9.3189 4.7932 13.5805 8.0457l1.307 3.7375c.4545 2.1969-.4262 3.652-2.7275 4.3082-.7103 0-1.4206 0-2.1593.0571v1.3409h13.2396l-.0568-1.3409c-1.7331-.3995-2.9547-1.1983-3.6366-2.4537L78.3864 20.3996l-.9944-.1997-5.114 14.5222-2.1308 6.02c-3.6366-1.1127-7.4437-1.9401-11.3929-2.5107.1345-.4245.4379-.7185.7433-1.0144.1462-.1416.2928-.2837.4216-.4407 1.25-1.5121 2.2444-3.1669 2.7274-5.0785.0853-.3709.3694-.542.6535-.7132.1288-.0792.2723-.1657.4272-.259 2.1339-1.2857 6.425-3.8714 4.147-6.5314-.2877-.3414-.0939-.5862.0939-.8232.0162-.0205.0323-.0409.0481-.0612.0358-.06.1017-.0947.164-.1276.086-.0453.165-.087.1486-.1863-.1099-.6434.1342-1.1802.3748-1.7097.1329-.2922.2647-.5822.3354-.8866.0853-.2568.2273-.485.3693-.7132l.0248-.0451c.4461-.8114.8793-1.5993.6003-2.5798-.0568-.2283-.142-.3994-.3125-.5421-.2557-.2282-.3978-.5136-.4262-.913-.0284-.4565-.3125-.8274-.7102-1.0842-.5399-.3138-.9092-.7418-1.0513-1.3694-.142-.5421-.5114-.8274-1.108-.7989-.0106 0-.0251-.0079-.0406-.0164-.0262-.0142-.0552-.0301-.073-.0121-.091.0782-.1745.158-.2564.2362-.2762.2638-.5335.5096-.9937.6197-.3855.0774-.4456.6684-.4956 1.1606-.0052.0519-.0104.1028-.0158.1518-.1137 1.0556-.4262 2.0828-1.5342 2.5963-.2273.1141-.3694.0856-.5967-.057-.9375-.5992-1.5626-1.4266-2.0172-2.4252-.0798-.1764-.1777-.3529-.2783-.5345-.0784-.1413-.1584-.2857-.2331-.4355-.1136-.3139-.3409-.485-.6534-.5136-.7955-.057-1.591-.057-2.3866.1141-.1988.0571-.4261.1712-.5114.3709-.2409.5746-.5855 1.0931-.9324 1.615-.3077.4628-.6171.9283-.8575 1.4379-.2841.5991-.2841.6562.341.9415.2557.1141.5398.2568.6534.5421.3407.8552.8689 1.543 1.4062 2.2427.0901.1172.1804.2348.2701.3536.142.1997.1989.3709.0852.6277-.0908.2188-.1584.4494-.225.6767-.0376.1282-.0749.2554-.1159.3789-.1705.5706-.3409 1.1412-.1137 1.7404.1137.2853 0 .4279-.1704.5991-.4546.4565-.9092.913-1.3353 1.398-1.2501 1.4266-1.7615 3.167-2.2161 4.9644-.0852.3139-.1705.428-.5114.485-.9944.1142-1.9036.428-2.8411.7704-.5346.1952-.8821.5782-1.2382.9706-.0602.0664-.1207.1331-.1824.1991-.0653.0656-.1305.1373-.1968.2101-.1357.149-.2755.3026-.4282.4176-.0385.0309-.0728.0828-.1086.1368-.0963.1456-.2033.3073-.4312.12-.0317-.0282-.0651-.0565-.099-.0851-.2395-.2027-.5015-.4244-.3272-.7994.6031-1.2388.5185-2.5839.4352-3.907-.003-.0482-.0061-.0963-.009-.1443-.0238-.4781-.3268-.8359-.6416-1.2079-.061-.072-.1224-.1446-.1824-.2187.3978-.1141.6535-.3709.8808-.6847.1704-.2568.5114-.3709.8239-.3709.618 0 1.1715-.2592 1.7166-.5145.0814-.0381.1626-.0762.2438-.1132.483-.2283.5966-.9415.2557-1.3695-.1989-.2568-.3126-.5135-.3126-.8559 0-.2853-.1883-.4687-.3788-.6541-.0762-.0742-.1528-.1488-.2178-.2304-.5966-.7418-.966-1.5406-1.0512-2.5678-.0321-.3863-.0438-.7817-.0555-1.1791-.03-1.0114-.0603-2.0361-.4275-2.9578-.4262-1.0557-.7387-2.0543-.7955-3.167-.0226-.4092-.3159-.7279-.5923-1.0282-.0704-.0765-.1398-.1518-.2032-.2271-.8808-.9986-1.932-1.7119-3.2673-1.8831-.1136 0-.2273-.057-.3125-.1141-.2771-.23183-.5541-.19993-.8616-.16452-.0709.00812-.1435.01652-.218.02182-1.1649.1142-2.1593.5707-3.1253 1.2269-.3125.1997-.7387.1997-1.0796-.1141-.1136-.0856-.2273-.2283-.3125-.3424-.7387-1.05566-.8239-1.11272-2.0456-.7704-.6251.1712-1.0512 0-1.4206-.45645-.3693-.45649-.483-.91298-.1989-1.4836.2642-.53046.2036-1.10167.1442-1.66197-.0109-.1027-.0217-.20502-.0305-.30666-.0324-.3898-.0893-.77138-.1459-1.15099-.0925-.62063-.1843-1.23598-.1666-1.87329.0284-1.05565.6818-1.99717 1.6762-2.396598.2557-.114124.5398-.31384.5682-.684742h-1.6478c-.6395.467042-1.108 1.09087-1.5766 1.7149-.4475.59584-.8951 1.19186-1.4918 1.65175-.1222.092-.2188.2133-.3147.33372-.1718.21568-.3414.42853-.6513.46514l.0284-.02853c.2557-.28531.483-.59915.6251-.94152.0125-.03149.0292-.06159.0455-.09091.0574-.10352.1094-.19736-.0455-.30852-.1705-.11412-.341-.11412-.483 0-.0853.08559-.1634.18545-.2415.2853-.0782.09986-.1563.19972-.2415.28532-.0149.01871-.0303.03693-.0456.05505-.1014.12-.1989.23541-.1249.4585.0683.22846.2276.2374.3905.24654.0405.00227.0813.00456.1209.01024-.4262.25678-.8807.3709-1.3637.34237-.0791 0-.1581-.00365-.2362-.00725-.2308-.01066-.4535-.02095-.6446.06431-.2129.09929-.4198.21494-.6265.33052-.5655.31618-1.1302.6319-1.8168.611-.42.73801-1.0572.77475-1.7167.81278-.2328.01343-.4685.02701-.6983.07168-.8711.16664-1.6211.62219-2.3716 1.07803-.2775.16855-.5551.33714-.8388.49117-.5398.28531-.7103.79887-.7956 1.28389-.0852.4565-.1988.82742-.4545 1.16982-.2841.3994-.1705 1.6547.1988 1.9686.2906.2122.311.4737.3353.7846.0018.0235.0037.0473.0057.0713.0069.1603-.0082.3274-.0234.4955-.047.5201-.0948 1.0495.5064 1.4161.0284 0 .0568.0856.0568.1426.0568 1.0271.1705 1.0271 1.108.5992.966-.4565 2.0172-.428 3.0684-.1997.2936.0665.584.149.8745.2314.5808.1648 1.1617.3297 1.7678.3677.0296.005.0626.0082.0964.0115.1608.0158.3384.0331.2445.2453-.0608.1465-.0851.3034-.1087.4551-.0315.2029-.0616.3966-.1754.5435-.5682.7418-1.2785 1.4265-2.074 1.8545-.7671.3994-1.7047.5706-2.6707.2282-.5966-.2282-1.7046.1427-1.8183.5421-.142.5421-.4546.8845-.9944 1.0557-.1136.0285-.1989.1141-.2841.1997-.3125.3424-.7103.3994-1.1648.3994-.6251-.0285-.7671.1712-.5114.7989.2339.5127.4839 1.0093.7378 1.514.0852.1693.1709.3396.2565.5117.0569.1141.1705.2282.2842.2853.3693.1712.5966.5135.6534.8559.0584.2636.1766.5047.2932.7425.1106.2255.2197.448.275.6841.0245.1351.1122.2332.1973.3284.1125.126.2206.2469.1721.4419-.1137.5136.1989.7418.5682.97.1128.063.22.1425.3266.2216.1351.1002.2692.1997.4121.2635.5114.2567.5398.6562.4262 1.1697-.1137.4565-.2273.5136-.6535.2853-3.5514-1.8259-6.7903-4.0799-9.7734-6.7047-2.24452-1.9686-4.26171-4.137-6.0232-6.5336-1.73308-2.3681-3.2957-4.8217-4.432143-7.5607-.089761-.22534-.197245-.41509-.3084541-.61141C.0597111 9.40775.0298556 9.35504 0 9.30108c.454579 1.45512 1.0228 2.85312 1.70467 4.19402 1.70467 3.3096 3.75027 6.3909 6.22205 9.187 2.44338 2.7675 5.17078 5.1926 8.23928 7.2468 1.3353.913 2.7274 1.7404 4.148 2.4822.2841.1712.4262.3139.3125.7418-.0768.2766-.1566.5516-.2363.8266-.2738.9448-.5472 1.8879-.7013 2.8824-.0083.0621-.0166.124-.025.1858-.1914 1.4172-.3762 2.7852.1955 4.1795.2557.5991.483 1.2553.483 1.9115 0 .5992.2557.8274.8239.9701 1.3638.3424 2.7275.7133 4.0344 1.2268 1.5342.6277 3.1252 1.0557 4.8015.8845.2831-.019.5788-.0128.8786-.0064.1515.0032.3041.0064.4567.0064.2841-.0286.483.0856.5682.3709.3204 1.1258 1.0921 1.9242 1.8676 2.7266.0499.0516.0998.1032.1496.155.078.0843.1636.1674.2504.2517.3242.3146.6648.6452.6872 1.1178.0053.1663.0137.3327.0221.4989.036.7172.0719 1.431-.1357 2.1259-.0485.1731-.096.3462-.1434.5191-.2026.7391-.4043 1.4746-.6806 2.1914-.1704.4565-.1704.8274-.0284 1.2839.0306.1149.0754.2381.1209.3629.1238.3398.2519.6914.1064.9209-.2366.3802-.3506.7955-.4635 1.2069-.0905.3297-.1803.6569-.332.9615-.2414.4647-.4116.958-.5812 1.4495-.0699.2026-.1397.4049-.2143.6047h17.2456c.0549-.4968-.0792-.958-.2118-1.4142-.073-.2512-.1456-.5009-.186-.7541-.0334-.2127-.0275-.4253-.0217-.6345.009-.3241.0178-.64-.1203-.9347-.4663-.9104-.4366-1.8445-.4062-2.8023.0029-.0928.0059-.1858.0084-.2791.0568-1.8259.7103-3.4522 1.9888-4.7646 1.3637-1.4265 2.7842-2.7675 4.2047-4.1084.6373-.5926.9414-1.3625 1.2378-2.1132.0603-.1529.1204-.305.1829-.4547.2287-.5512.441-1.1188.6546-1.6896.1843-.4929.3696-.9881.5671-1.4773l.1704-.5136c3.8071.6563 7.5006 1.6548 11.052 2.9673l-1.8183 5.107-2.6707 7.7604c-.966 2.7104-2.4718 4.2796-4.5174 4.7361v1.341l11.2509.0285v-1.3409c-.9944.0285-1.7899-.2568-2.3866-.856-.5966-.5991-.7955-1.6548-.5966-3.1669l1.9888-5.4779zm13.5521-5.5065c-3.1536-1.8545-6.4777-3.4237-9.9723-4.7076l4.2333-11.6977 3.3809 9.7291.0284-.0286 2.3297 6.7048zm-36.087-10.6226c.1413-.2243.3274-.5198.0048-.7898l-.0297.0299c-.0028.0003-.0056.0005-.0084.0009.9045-1.2724 1.9247-2.3429 3.5895-2.5129.1533-.0119.2918-.063.4319-.1147.1977-.0729.3984-.147.6477-.1136-.1988.6847-.4545 1.341-.8523 1.9116-.0923.1355-.1811.2728-.2699.4101-.2664.4119-.5327.8238-.895 1.1876-.3977.3994-.5398.913-.6534 1.4551-.0852.3994-.2273.7703-.7103.8844-.127.0255-.1631.1194-.21.2409-.0055.0145-.0112.0293-.0173.0445-.5682 1.7118-1.6194 3.0242-3.2389 3.8231-1.0512.5421-2.1592.913-3.3809.8559-.9375-.0285-1.4205-.6277-1.4774-1.5121-.0568-.8274-.0284-1.6833.1421-2.5107-.1705.4279-.3409.8559-.483 1.2839-.1806.6164-.5332 1.1407-.883 1.6607-.2006.2983-.4003.5951-.566.907-.0284.0856-.142.1427-.2273.1712-.2886.0748-.5742.168-.8607.2615-.5878.1918-1.1796.3849-1.8099.4233-.483.0285-.8239-.1712-1.108-.6277-.6819-1.1127-.6819-2.2254-.3126-3.3952.2841-.8845 1.1081-1.2268 1.8468-1.4551 1.0512-.3138 2.1592-.3709 3.2672-.3994.4262-.0285.7956.2282 1.0513.5421.1988.2282.3409.2568.5682.057 1.449-1.2268 3.1536-1.9401 4.9719-2.3966.3909-.0923.6329-.3528.8766-.6151.0575-.0619.115-.1238.1747-.1837.0406-.0327.0767-.0701.112-.1067.08-.0829.1565-.1624.276-.1764-.0063.0087-.0125.0175-.0187.0263l.0271-.0272c.0096-.0009.0195-.0013.0297-.0013-.1136.1426-.2273.2853-.3409.4565-.015.0226-.038.0432-.0605.0635-.0627.0562-.1217.1093.0037.1932.02.0101.0426.0228.0666.0362.1126.0632.2559.1435.3027.0494.0077-.0123.0156-.0248.0236-.0376zM35.0321 49.3084c.036.0943.0719.1887.1125.2783l.0568.0285c.1989-.5706.3126-1.1412.0569-1.6547-.1671-.3541-.1038-.6961-.0398-1.0417.034-.1835.0682-.3681.0682-.5561 0-.1997.2556-.2853.4261-.3423.1046-.0413.2093-.0836.3141-.1259.6922-.2796 1.3928-.5626 2.1577-.5874.0568 0 .1421 0 .1705-.0285.7169-.6565 1.4808-.4643 2.2335-.2749.2615.0658.5217.1313.7781.1607.5029.0561.9936.1613 1.488.2673.2598.0557.5207.1116.7849.1607.2624.0565.4878-.0361.7168-.1302.1181-.0485.2372-.0975.3628-.1266.3092-.0833.6164-.1746.9237-.266.8505-.2529 1.7019-.5061 2.5993-.5899.2557-.0285.5114-.0571.625.2853.0284.1427.1705.1712.3125.0571.0127-.0098.0255-.0195.0382-.0293.4713-.3614.9547-.7321.8994-1.4543-.0284-.428-.0284-.856-.0284-1.2839-.0284-1.2269.9092-2.6249 2.5002-2.6534.4261 0 .7671.4565.625.913-.1892.6045-.4721 1.1567-.7541 1.7073-.1839.359-.3674.7172-.5244 1.0887-.0058.0118-.0153.0247-.0257.0389-.0399.0546-.0929.1273-.0027.2179.4656-.7247 1.0265-1.3727 1.589-2.0226.1241-.1433.2482-.2867.3714-.4311.0135-.0135.0277-.0292.0426-.0457.0793-.0876.1787-.1975.2983-.1255.1262.0634.0811.1581.0377.2493-.0153.0319-.0303.0635-.0377.0931-.7387 2.5393-1.8751 4.8217-4.1764 6.3624-.1989.1141-.3978.2568-.5967.5706-.0142-.1426-.0284-.2639-.0426-.3851-.0142-.1213-.0284-.2426-.0426-.3852-.625 1.1127-1.1364 2.1113-1.1364 3.281 0 .4565-.1137.8845-.2558 1.3125-.1557.4822-.2522.9823-.3489 1.484-.115.5964-.2305 1.1951-.4466 1.7685-.2969.8447-.8954 1.4082-1.4954 1.9731-.089.0837-.178.1675-.2661.2523-.2841.2282-.5966.0285-.5966-.3709 0-.1937-.0073-.3889-.0146-.5849-.0249-.67-.0503-1.3492.2135-2.0114.0363-.0913.0262-.1942.0142-.3162-.0068-.0688-.0142-.1436-.0142-.2259-.5398.5421-.9944 1.0271-.966 1.826.0284.485-.3693.913-.7387 1.2553-.3977.3424-.8239.1142-.8807-.4565-.0189-.2462-.0127-.5051-.0064-.7681.0032-.1332.0064-.2674.0064-.4016 0-.2283-.0568-.428-.2557-.5992-.1137.3139-.2273.5992-.341.8845-.3693.9986-1.4773 1.5977-2.5001 1.3695-.1845-.0436-.2985-.0705-.3816-.1364-.1346-.1067-.1882-.3155-.3287-.8622-.0442.0685-.0867.1394-.1289.2099-.257.4285-.5073.846-1.0928.6745-.5682-.1711-.7671-.7132-.9092-1.3124-.1744.239-.1807.4868-.1867.7286-.0048.1913-.0095.3789-.0974.5553-.0284.0571-.0426.1213-.0568.1855-.0142.0642-.0284.1284-.0568.1854-.1421.428-.483.8274-.8524.7704-.3125-.0286-.3125-.5992-.3125-.913.0109-.2072-.0239-.406-.0583-.6029-.0557-.3183-.1105-.6314.0299-.9663.1607-.392.2472-.8026.3345-1.2168.0207-.0983.0415-.1968.0633-.2954.1939.03.2704.1622.3486.2976.0707.1224.1429.2474.3048.3016.0403-.6261-.1188-1.2235-.2756-1.8126-.0648-.2432-.1291-.4849-.179-.7267-.0852-.4279-.1704-.856-.2272-1.3124-.0648-.3904-.3266-.7148-.5857-1.0359-.0818-.1014-.1633-.2024-.2383-.3051-.4041-.5411-.7039-1.1476-1.0055-1.7576-.1436-.2905-.2876-.5818-.4434-.8672-.0963-.1933-.0092-.2229.106-.2621.0209-.0071.0427-.0145.0644-.0232.0207-.0052.0414-.0123.0616-.0192.0907-.0311.1709-.0585.1941.1048.1421.913.7103 1.5407 1.2785 2.1683.1624.1631.2523.3989.3421.6347zM22.3203 27.6518c.0107.0787.0243.1793.1245.28l.1705-.0286c.3125-1.4836 1.3353-1.5692 2.4718-1.5406.706 0 1.3224.2022 2.0083.4272.087.0285.175.0574.2646.0863-.4642.2136-.9019.2025-1.3313.1917-.2015-.0051-.4011-.0102-.6007.008-.0417.0084-.0908.0045-.1401.0005-.1184-.0094-.2376-.019-.2577.1422-.0284.1997.0853.3424.2842.3994.0426.0072.0852.0161.1278.025.1278.0267.2557.0535.3836.0321.7601-.0954 1.3216.2878 1.9003.6828.1135.0774.2277.1553.3441.2302h-1.8751c.3418.3603.7349.3904 1.1114.4192.2495.0191.4918.0377.7069.1514-.483.2853-1.449.1712-1.9319-.1997-.1137-.0856-.2273-.1783-.341-.2711-.1136-.0927-.2273-.1854-.3409-.271-.7387-.5706-.8808-.5136-1.449.1997-.5114.6562-.6819 1.398-.7387 2.1684-.142 1.5406-.2273 3.0813-.2557 4.622-.0284 1.1697.1989 2.2824.7103 3.3381.1421.3138.1136.3423-.2557.3138.5114.8274.9376.9701 1.7615.5992 1.0228-.428 2.0456-.856 3.0684-1.3125.5114-.2282 1.0228-.2567 1.5342-.1426.8808.1997 1.7615.5421 2.5286 1.0842.483.3138.4546.6276-.0284.97-.5398.3994-1.1649.485-1.8183.3424-.5682-.1141-1.1081-.0856-1.6479.1141-.5971.2249-1.2065.1913-1.812.1579-.3164-.0174-.6318-.0348-.9439-.0152.2557.5135.1137.8844-.5398 1.3124-.9091.5991-1.9035.913-2.9831 1.0556-.483.0571-.5967-.0285-.966-.7703-.1045 0-.1249.0964-.1441.1868-.0225.1062-.0433.2041-.1969.127-.3409-.1712-.2272-.5421-.1136-.7703.1708-.3431.2184-.7068.2662-1.0726.0318-.2425.0636-.486.1316-.7248.0182-.1101.013-.232.0069-.3733-.0033-.0784-.0069-.1628-.0069-.2544-.1447.1331-.2382.2868-.3283.4349-.1223.201-.2382.3916-.4673.5066-.3693-.9415-.6818-1.8545-.5398-2.9387.021-.1508.0415-.3016.062-.4523.1464-1.0757.2925-2.1486.5915-3.1996.3125-1.1128.625-2.254.8239-3.4238.0858-.4951.123-1.0064.1605-1.5217.0122-.1677.0244-.3358.0384-.5039.0069-.0624.0104-.123.0139-.1819.0107-.184.0206-.3516.1281-.5029.0146-.0293.0255-.0643.0364-.0995.0317-.1021.0642-.207.1909-.1858.0846.0142.0923.0705.1028.148zm31.5085 4.376c1.193-2.6925 2.9456-4.9634 4.6982-7.2344-.0568.2853-.142.5706-.2557.8274-.4357 1.0627-.9482 2.0825-1.458 3.0971-.4209.8377-.84 1.6718-1.2126 2.5234-.5114 1.1413-.824 2.311-.6251 3.5664 2.9548-1.8545 4.9436-4.3652 5.5402-7.9031-.3978.0727-.738.2493-1.1086.4417-.2118.1099-.4334.2249-.6813.3287.7387-1.0557 1.3069-2.0542 1.8467-3.0814.1705-.3423.3694-.6847.6819-.9415.2606-.2243.509-.1424.7612-.0593.1327.0438.2665.0879.4036.0879-.025-.0855-.0482-.1718-.0714-.2578-.1086-.4028-.2159-.8011-.4968-1.0832-.3693-.3424-.8807-.2853-1.3921-.1141.5682-.4565.7103-.9986.4545-1.6263-.7102-1.7118-1.0796-3.5093-1.2785-5.3353-.1136-.8844-.6534-1.5406-1.3069-1.6833-.7671-.1712-1.4489.1427-1.9603.913-.1153.1684-.2345.3368-.3547.5067-.2056.2905-.4141.5852-.6113.8913-.0261.0379-.0525.0757-.079.1137-.2329.3341-.4724.6776-.5745 1.1131.3125-.0285.4546-.1711.5967-.3994.4829-.7703 1.1932-1.2553 1.9887-1.6262.3694-.1712.483 0 .5114.2567.0309.211.0632.4205.0953.6294.1156.7515.2296 1.4931.2741 2.2523.0568 1.2553-.1421 2.5107-.5114 3.7375-.1705.5706.0568 1.2554.4261 1.2839.5361.0256.3612.2585.2171.4504-.0163.0217-.0321.0429-.0466.0631-.2557.3424-.5114.6848-.8239.9701-1.3922 1.2554-2.415 2.739-3.04 4.5079-.0688.1947-.15.388-.2318.5827-.2849.6785-.5768 1.3735-.3752 2.2009zm-14.6809-1.7513c-.0118.0211-.0307.0422-.0496.0633-.0307.0342-.0614.0684-.0614.1027-.0977.9326-.0693 1.8864-.0414 2.8249.0045.1525.0091.3046.013.4561 0 .2283.2273.3995.4546.2283.3303-.2433.6265-.1437.9149-.0468.0838.0281.1669.0561.25.0753.0568.0095.1136.0285.1704.0476.1137.038.2273.0761.341.038.483-.2282.966-.428 1.5058-.428.7671-.0285 1.3637-.485 1.7899-1.1412-.2273 1.3124-.6535 2.5393-1.3354 3.709-.3766-.5884-.5992-.3255-.8379-.0435-.0853.1008-.1728.2041-.2701.2718.1705-.5706-.1136-.7418-.5114-.8274-.4262-.0856-.6534.1141-.7671.5135-.0568.1712-.1421.2568-.3693.3139-.2692.0772-.2912.2982-.3125.5126-.0101.1024-.0202.2032-.0569.2862-.0568.1427-.0568.2283.1137.2568.1552.0173.3078.0583.4593.099.3479.0934.6903.1853 1.0465-.0134.7386-.3994 1.5057-.7989 2.3013-1.0556.1988-.0571.3125-.1712.3693-.4565.025-.1506.0378-.3037.0505-.4563.0307-.3679.0612-.7332.262-1.0559-.0142.1855.0284.3567.0711.5279.0426.1711.0852.3423.071.5278 0 .0296-.001.0612-.002.0936-.0066.2169-.0142.4696.2577.4199.0329-.0066.0676-.0124.1034-.0184.2732-.0459.6036-.1014.5784-.5807-.0561-.7898-.029-1.5796-.0009-2.3969l.0009-.0282c0-.2568 0-.4565-.3409-.5136-.3409-.0571-.4546-.2853-.3125-.6277l.1705.0856c.4261.2853.5682-.057.6534-.3424.1137-.3709.1989-.7703-.1989-1.0556-.1179-.0711-.1771-.0045-.2425.0692-.0134.015-.0271.0304-.0416.0449-.2841.3139-.4261.1997-.483-.1426-.0086-.0576-.0177-.1151-.0269-.1726-.0817-.5128-.1631-1.0233.169-1.5108.142-.1997.1136-.4564.0284-.6847-.1989-.5706-.4262-.6277-.8239-.1712-.1705.1712-.341.3424-.3978.5706-.0568.2283-.2273.1998-.3693.1427-.1421-.0571-.2841-.1427-.1989-.3424.0654-.1478.1215-.3052.1789-.4665.0423-.1188.0854-.2399.1336-.3609.0037-.0147.0083-.0303.0131-.0465.0321-.1094.0713-.2425-.1267-.2673-.6535-.1141-1.3069-.2283-1.9604.0285-.1851.0664-.3518.1637-.5172.2603-.19.1109-.3782.2208-.5908.2818-.2841.0856-.5114.5421-.5967.8845-.0451.1359.0691.1519.2033.1707.1194.0167.2547.0357.3081.1431-.0852.2282-.2557.3994-.4261.485-.4546.2853-.2841.428.0568.5992.142.057.2841.1426.3977.2282.0147.0098.0309.0196.0474.0295.0799.048.1653.0993.0947.1702-.0089.0119-.0178.024-.0269.0362-.1645.2212-.3573.4804-.6265.5345-.2273.057-.483-.0856-.6535-.2854-.0821-.0961-.0456-.1923-.0079-.2916.0367-.0968.0746-.1966.0052-.3023zm2.4393 29.3783c-.8466.1443-1.6969.2894-2.5614.3601.8208.4569 1.6424.2972 2.4902.1324l.0211-.0041c.3694-.0856.7387-.1427 1.1365-.1712.2876-.0107.5753-.0094.863-.008.4794.0022.9588.0044 1.4383-.0491-.3855.1371-.7732.2582-1.1593.3789-.9801.3062-1.9499.6092-2.8467 1.1618.3965-.052.7931-.1249 1.1912-.1982.914-.1681 1.8364-.3378 2.7864-.2583-.1913.1006-.3796.2012-.5696.3027-.403.2152-.8138.4347-1.2772.6673.3999.0335.7313-.0606 1.046-.1499.2219-.063.4354-.1236.6587-.1354.082 0 .1705-.0132.2624-.0269.0993-.0147.2026-.0301.3058-.0301.0287 0 .062-.0047.0967-.0095.1371-.0192.2954-.0413.2727.2092-.0284.1997-.1137.3709-.3694.3709h-1.4773c-.7766 0-1.5532-.0032-2.3298-.0064-1.5531-.0063-3.1062-.0126-4.6594.0064-.3646 0-.7246-.0092-1.0837-.0183-.5364-.0137-1.0708-.0273-1.6154-.0102-.0335 0-.0749.0063-.1187.013-.1416.0218-.3074.0472-.3074-.1272 0-.2282.1136-.4279.4546-.485.8523-.1141 1.7046-.1712 2.557-.0285.0852 0 .142-.0286.1704-.1427-.4961-.189-1.0231-.2435-1.5748-.3005-.3646-.0377-.7399-.0765-1.1242-.156 1.1668-.2493 2.2469-.1936 3.3349-.1375.1572.0081.3144.0162.4722.0234-1.0512-.5992-2.2161-.5706-3.523-.5136.5432-.2898 1.0864-.3758 1.6114-.4591.3537-.056.6992-.1108 1.0308-.2256h-1.7615c0-.0118-.0048-.0285-.0106-.0481-.008-.0277-.0178-.0611-.0178-.0946 1.7326-.3422 3.4935-.713 5.2545-1.0838l.0016-.0003c-2.0456-.1142-4.0344.1712-6.0232.6277 1.1649-.5707 2.415-.8274 3.6935-1.0272 1.6478-.2567 3.3241-.3423 5.0003-.2567 1.0512.057 2.0456.2282 2.9832.6847.0343.0258.0789.0413.123.0565.1019.0353.2008.0694.1611.2288-.0568.1997-.2273.1997-.4261.1712-.1591-.0287-.3181-.0585-.4776-.0884-.9515-.1786-1.918-.3599-2.9886-.311.372.1937.7573.2867 1.1301.3768.396.0956.7778.1878 1.1144.3935-1.1291.0157-2.241.2054-3.3593.3961zm-3.3482-22.225c-1.0729-.0815-2.1262-.1852-3.1796-.3111-3.6651-.485-7.2449-1.398-10.7679-2.796.483 1.3409 1.0513 2.5107 1.6479 3.6805.2273.4279.3978.5421.8523.2853.278-.1523.601-.2594.9089-.3616.0383-.0126.0763-.0252.1139-.0379.7955-.2853 1.5626-.542 2.415-.2567.4582.1593.9274.2856 1.4008.4131.2897.078.5809.1564.8721.2431.3977.1141.7387.057 1.108-.1427.0266-.0154.0531-.0309.0797-.0464.5135-.2999 1.0321-.6028 1.6534-.4671.5996.1354 1.1834.0327 1.7638-.0695.3775-.0665.7536-.1327 1.1317-.133zm1.2792-1.7411c.0182.0478.0368.0969.0586.1461h-.0569c-.3481-.0225-.6917-.0362-1.0327-.0497-.5218-.0207-1.0372-.0412-1.5527-.0929h-.0284c-.5966-.0571-1.1933-.1427-1.7899-.2283h-.1705c-.3267-.0428-.6605-.0927-.9943-.1426-.3338-.05-.6677-.0999-.9944-.1427-.3514-.0392-.6893-.1053-1.023-.1706-.152-.0298-.3032-.0594-.4544-.0862-.3694-.0856-.5967-.3423-.7387-.6562-.0241-.0563-.0594-.1149-.0946-.1732-.0895-.1485-.1779-.295-.0759-.3974.1421-.1427.4546-.1427.6535 0 .7671.5706 1.6194.7133 2.5286.6562.2841 0 .5682.1141.8239.2568.3234.1719.6595.2159.9998.2605.168.022.337.0442.506.0819.5325.1188 1.065.1448 1.5935.1707.4866.0237.9698.0474 1.4465.1431.2527.0461.3196.2228.396.4245zm18.1565 3.5984c.0497-.0928.0994-.1855.142-.2853v.0285c.0853.3424.0569.6847-.1136.97-.7833 1.2673-1.2833 2.6684-1.7808 4.0625-.1521.4263-.304.8519-.4637 1.2728-.3978.9701-1.0228 1.7119-1.7615 2.3966-1.4205 1.2839-2.8127 2.6249-4.0628 4.1085-.1348.1354-.2174.3101-.3186.5242-.0481.1017-.1003.2123-.1644.3317.0568-.7133.3125-1.1983.6535-1.5977 1.2785-1.4837 2.5854-2.9387 4.148-4.137.3694-.2853.6535-.6562.8523-1.1413.1557-.4019.3152-.8019.4746-1.2015.4514-1.132.9015-2.2606 1.2585-3.4205.1043-.329.3101-.5953.515-.8606.186-.2407.3713-.4806.4794-.7656.0426-.0999.0924-.1926.1421-.2853zm-27.843 2.8245c.5967.1141 1.2217.2568 1.7899.3995-1.591 1.6547-3.4093 1.2553-5.256.485.5114-.485 1.1364-.913 1.8183-1.0557.4383-.0978.9393.014 1.4134.1198.079.0177.1573.0351.2344.0514zm32.6444-16.0868c-.1952.2355-.2533.4699-.3057.6813l-.0068.0274c-.146.8555-.3129 1.69-.4828 2.5395-.0284.1421-.0569.2846-.0854.4277-.3693 1.9686-.9944 3.7946-2.1308 5.4494-.0714.1076-.1483.2134-.2264.321-.2327.3204-.4771.657-.626 1.1055 1.1649-1.0841 2.1309-2.1113 2.6139-3.5949.7636-2.2436 1.2456-4.5438 1.25-6.9569zM25.4564 44.8791c.0284-.0285.0284-.057.0284-.0856l-.0568-.0285c.5225.0414 1.045.0762 1.5643.1107.5537.0368 1.1037.0734 1.6462.1175.674.0598 1.3342.0223 1.9998-.0156.2884-.0164.5777-.0328.8697-.0414.0522 0 .1141-.0138.1777-.0279.1786-.0396.3696-.082.3905.1705.053.3196-.29.3657-.4976.3937-.0148.002-.029.0039-.0422.0058-1.5058.1997-3.0116.2853-4.489-.1427-.5398-.1712-1.0512-.3138-1.591-.4565zM47.582 62.2477c-.1414.0033-.2894.0067-.4479.0067h-.0284c.8239-.9415.8239-.97.1421-1.3694.0285-.0225.0571-.0447.0856-.0668.3687-.2856.7057-.5468.2837-1.103-.0827-.1108-.0115-.2082.0642-.3116.0803-.1097.1656-.2263.0779-.3731 0-.0286.1136-.0286.1988 0 .2842.057.4546.3138.3978.5135-.1337.518.028.9716.1915 1.43.0797.2232.1597.4477.2063.6813.0852.3709.1136.6562-.4262.5991-.2406-.0185-.4812-.0129-.7454-.0067zM23.6097 34.5795c-.1989-.913-.0568-1.8545.1704-2.7961v.0286c-.2043 1.8926.4443 3.6031 1.0901 5.306.1622.4278.3243.855.4726 1.2846.0107.0269.0254.0548.0404.0831.0645.1221.1333.2523-.0973.3449-.1956.0736-.2439-.064-.2898-.1947-.0074-.0212-.0148-.0422-.0227-.0621-.5966-1.2839-1.0796-2.6249-1.3637-3.9943zM61.4165 18.614c.2157 1.0215.6083 1.9748 1.0326 3.0053.0933.2264.188.4565.2828.6919l.0026-.0167c.0837-.5325.1371-.8716-.0879-1.2387-.3243-.5903-.6197-1.1952-.9172-1.8043-.1036-.2121-.2075-.4248-.3129-.6375zm-4.1961-1.5805c.1216.6858.2429 1.3695-.1424 2.0822v-.0285c-.2032-.3061-.1884-.6268-.1738-.9412.0057-.1252.0115-.2494.0034-.3712-.0084-.1342-.0045-.2708-.0005-.4078.0094-.3289.0189-.6595-.1416-.9617-.0794-.1329-.0108-.1668.0908-.2169.0075-.0037.0151-.0075.0229-.0114.0852-.057.2273-.0856.2273.0286.0162.2776.0651.5529.1139.8279zm-32.5311 15.777c-.3693 0-.483-.2853-.3978-.6562v.0286c.0397-.0299.024-.0944.0073-.1633-.0312-.1289-.0662-.2733.2485-.2362.0155.0016.0309.0031.0461.0045.262.0252.4621.0444.4084.395-.005.0457-.0074.0941-.0098.1429-.011.2257-.0224.4613-.3027.4847zm10.1515 5.8242c-.3274.2209-.6795.4584-1.0315-.0038h.0284c.1808-.1614.3899-.2515.5973-.3408.086-.037.1718-.0739.255-.1157.1989-.1142.4262.0285.483.1426.0605.1215-.0508.1712-.1611.2204-.0451.0201-.09.0401-.123.0649-.016.0107-.032.0215-.0481.0324zm11.7251-8.5916c0 .0285-.1989 0-.3125-.0286.0119.1194.0536.2188.0939.3149.0561.1336.1096.261.0766.4269-.3978-.5421-.6819-1.0556-.2557-1.7118.05.1306.1247.2435.1967.3525.1326.2004.2562.3873.201.6461z" clip-rule="evenodd"/><path fill="#3c1405" d="M187.968 59.3728V34.8933h.086l12.614 22.2826c.057 1.826-.085 3.0243-.454 3.5379-.569.8844-1.563 1.3124-2.984 1.3124h-1.193v.9415h12.899v-.9415c-1.25 0-2.188-.3424-2.785-1.0556-.454-.5136-.681-1.7975-.681-3.9088l.028-22.7391c0-2.311.767-3.7376 2.301-4.2796h1.137v-1.1413h-8.296v22.0829l-12.558-22.0829h-9.404v.9415c1.364 0 2.358.1712 2.955.4851.596.3138 1.022.7132 1.25 1.1983.312.6847.483 1.7689.483 3.281v22.2541c0 1.9116-.171 3.1384-.54 3.652-.568.8844-1.563 1.3124-2.983 1.3124h-1.194v.9415h12.643v-.9415h-1.193c-1.307 0-2.017-.8845-2.131-2.6534z"/><path fill="#3c1405" fill-rule="evenodd" d="M165.779 62.9677h10.455l.029-.057-.057-1.0557c-1.364-.3138-2.33-.97-2.869-1.9401l-10.825-30.6707-.796-.1712-6.023 17.0615c-1.704-.5421-3.239-.6277-4.688-.3139-1.79.8274-2.415 2.6819-1.903 5.6492l.596.0285c-.056-1.7689.455-2.739 1.478-2.8246 1.108-.0856 2.244.0856 3.409.5136l-3.097 8.9302c-.767 2.1398-1.96 3.3666-3.579 3.7375v1.0557l8.892.0285v-1.0557c-.767 0-1.392-.1997-1.875-.6847-.454-.4565-.625-1.2839-.454-2.4822l3.125-8.7019c4.915 1.1412 8.608 2.9672 11.023 5.4494l1.023 2.9672c.369 1.7689-.341 2.9102-2.159 3.4237-.514 0-1.054.0259-1.619.053l-.086.0041v1.0556zm-3.608-25.9061l4.546 13.0102h-.029c-1.733-1.1413-4.403-2.2825-8.012-3.3952l3.495-9.615z" clip-rule="evenodd"/><path fill="#3c1405" d="M117.48 63.0818h25.741v.0286c1.079-1.2269 1.676-2.5963 1.704-4.0799-.625-1.9972-1.818-2.9958-3.551-3.0529-1.279.0571-1.932.6277-1.989 1.6834l.284.8559c.711.5136.881 1.3695.54 2.5678h-12.274c-.653-.6562-.965-1.7975-.909-3.4808l-.028-25.5352c.54-1.1127 1.676-1.8545 3.466-2.1968v-.9416H118.02v.9416h1.25c.909 0 1.676.3709 2.301 1.1127.455.5135.682 1.8545.682 3.9943v22.0259c0 1.9686-.17 3.1954-.511 3.7375-.597.9415-1.591 1.398-3.012 1.398h-1.25v.9415zM115.776 30.899c-.228-.856-.711-1.5407-1.506-1.9972l-.057-.0285-20.4561-.0285v5.4779l1.1932-.0285c.5398 0 .7955-.5136.7955-1.5407 0-1.1413.4546-1.7404 1.3922-1.7119h2.9832c1.563.1142 2.443.8845 2.557 2.3396l.028 25.5066c-.483 1.0556-1.449 1.8545-2.8976 2.4251v1.6263h10.5976v-.9986c0-.2282-.057-.3994-.227-.5421-.143-.1426-.597-.3424-1.336-.5421-.739-.2282-1.221-.485-1.449-.7703-.227-.2853-.341-.5992-.341-.9701V34.2942c0-1.1128.171-1.9116.54-2.4537.341-.5421.767-.7989 1.25-.7989h2.444c.271.1365.527.2729.767.4008.211.1128.41.2189.596.3125.426.1997.654.6847.767 1.4265.114.7419.228 1.2269.398 1.4551.171.2283.625.3709 1.364.428.625-.1712.937-.7703.937-1.7404 0-.7418-.113-1.5407-.34-2.4251zM7.3869 16.5194c-.31252-.3994-.82392-.5421-1.42055-.3994l-.02842.0285c.05123.1338.08399.2823.11559.4257.05603.2542.10844.492.25376.6014.27361.1759.52192.3898.77092.6043.3974.3425.79655.6864 1.3031.8793.59663.2283 1.22167.3424 1.8467.3994.0659.0074.1356.0318.2052.0562.2003.0702.3997.14.5051-.1988.1065-.385-.1383-.4172-.3513-.4453-.0711-.0094-.1387-.0183-.1885-.0397-.1858-.0884-.3732-.1725-.56028-.2565-.90032-.4041-1.79267-.8047-2.45132-1.6551zM148.164 24.7076h.767V20.913h-.767v1.5407h-2.443V20.913h-.767v3.7946h.767v-1.7118h2.443v1.7118z"/><path fill="#3c1405" fill-rule="evenodd" d="M153.676 24.7076h.767l.029-.0285v-2.4536c0-.9416-.569-1.4266-1.705-1.4266-.625 0-1.165.1141-1.648.3424v.6277c.455-.3139.994-.4565 1.563-.4565.653 0 .994.3138.994.97l-1.449.1712c-1.051.1141-1.591.5136-1.591 1.2268 0 .3424.114.5992.398.7989.284.1997.653.3138 1.136.3138.654 0 1.137-.2282 1.478-.6847h.028v.5991zm-1.165-1.7974l1.165-.1141v.3709c0 .3138-.114.5991-.369.7988-.228.1998-.569.3139-.938.3139-.284 0-.511-.0571-.682-.1712-.17-.1141-.255-.2853-.255-.4565 0-.2568.113-.428.284-.5421.17-.0856.426-.1712.795-.1997z" clip-rule="evenodd"/><path fill="#3c1405" d="M157.966 21.4266h1.449v-.5136h-3.665v.5136h1.449v3.281h.767v-3.281z"/><path fill="#3c1405" fill-rule="evenodd" d="M163.364 24.7076h.767v-3.766h-1.676c-.568 0-.994.0856-1.307.2853-.312.1997-.454.4565-.454.7988 0 .2568.085.4851.284.6562.199.1712.483.2854.852.3139-.256.0856-.483.2853-.682.5421l-.795 1.1697h.88l.625-.97c.256-.3994.54-.5992.853-.5992h.653v1.5692zm-.909-3.281h.909v1.1983h-.937c-.625 0-.938-.2283-.938-.6277 0-.3709.313-.5706.966-.5706z" clip-rule="evenodd"/><path fill="#3c1405" d="M171.518 24.7076h1.051l-2.386-1.9401 2.244-1.8259h-.994l-2.046 1.7689h-.028v-1.7689h-.739v1.7689h-.028l-2.074-1.7689h-.995l2.245 1.8259-2.387 1.9401h1.023l2.159-1.883h.029v1.883h.739v-1.883h.028l2.159 1.883zM177.087 24.7076h.767V20.913h-.767v1.5407h-2.444V20.913h-.767v3.7946h.767v-1.7118h2.444v1.7118zM184.417 24.7076h.767V20.913h-.767v3.7946z"/><path fill="#3c1405" fill-rule="evenodd" d="M179.928 20.913v3.7946h2.131c.454 0 .824-.1141 1.108-.3138.284-.1997.426-.485.426-.8559s-.142-.6562-.426-.856c-.284-.1997-.682-.3138-1.165-.3138h-1.307V20.913h-.767zm.767 3.2526v-1.2839h1.165c.653 0 .966.1997.966.6276 0 .428-.313.6563-.966.6563h-1.165zM187.713 22.9387h3.409v-.3423c0-.5707-.171-1.0272-.511-1.341-.37-.3138-.853-.485-1.478-.485s-1.165.1997-1.591.5706c-.398.3709-.625.8559-.625 1.4551 0 .6277.199 1.1127.597 1.455.369.3424.909.5136 1.591.5136.682 0 1.25-.1427 1.676-.3709v-.5706c-.455.2853-.966.4279-1.506.4279-.483 0-.852-.1141-1.136-.3423-.256-.2283-.426-.5421-.426-.9701zm2.301-1.3409c.199.1997.312.485.312.8274h-2.613c.056-.3139.227-.5992.483-.7989.255-.1997.568-.3138.937-.3138.37 0 .682.0856.881.2853z" clip-rule="evenodd"/><path fill="#3c1405" d="M198.651 24.6791h.795v-3.7946h-4.006v3.7946h.768v-3.281h2.443v3.281z"/><path fill="#3c1405" fill-rule="evenodd" d="M201.776 24.2226c.423.3685.987.5399 1.691.5421h-.015.029-.014c.732-.0022 1.324-.1736 1.747-.5421.426-.3709.653-.8559.653-1.4551 0-.6276-.199-1.1127-.596-1.455-.398-.3424-.966-.5136-1.677-.5136-.738 0-1.335.1712-1.789.5421-.427.3424-.654.8559-.654 1.4836 0 .5706.199 1.0556.625 1.398zm.597-2.5107c.284-.2568.682-.3994 1.165-.3994.511 0 .909.1426 1.164.3994.256.2568.398.6277.398 1.1127 0 .4565-.142.8274-.398 1.0842-.284.2568-.653.3709-1.164.3709-.483 0-.881-.1427-1.165-.3995-.284-.2567-.426-.5991-.426-1.0556 0-.485.142-.8559.426-1.1127z" clip-rule="evenodd"/><path fill="#3c1405" d="M209.191 21.3981h1.449v-.5136h-3.665v.5136h1.449v3.281h.767v-3.281z"/><path fill="#3c1405" fill-rule="evenodd" d="M212.374 24.2226c.423.3685.986.5399 1.69.5421h-.014.028-.014c.732-.0022 1.324-.1736 1.747-.5421.426-.3709.654-.8559.654-1.4551 0-.6276-.199-1.1127-.597-1.455-.398-.3424-.966-.5136-1.676-.5136-.739 0-1.336.1712-1.79.5421-.426.3424-.654.8559-.654 1.4836 0 .5706.199 1.0556.626 1.398zm.596-2.5107c.284-.2568.682-.3994 1.165-.3994.511 0 .909.1426 1.165.3994s.398.6277.398 1.1127c0 .4565-.142.8274-.398 1.0842-.284.2568-.654.3709-1.165.3709-.483 0-.881-.1427-1.165-.3995-.284-.2567-.426-.5991-.426-1.0556 0-.485.142-.8559.426-1.1127z" clip-rule="evenodd"/><path fill="#3c1405" d="M220.954 24.6791h.795v-3.7946h-2.528c-.199 2.2254-.654 3.3381-1.336 3.3381-.142 0-.255 0-.369-.057v.5135c.018.0036.036.0073.053.0108.119.0245.224.0463.373.0463.511 0 .938-.2568 1.25-.7418.313-.5136.512-1.3695.654-2.5963h1.108v3.281zM226.693 24.6791h1.079l-2.415-1.9686 2.245-1.826h-1.023l-2.017 1.7404h-.029v-1.7404h-.767v3.7946h.767v-1.826h.029l2.131 1.826zM232.375 24.6791h.71v-3.7946h-.795l-2.273 2.6248c-.142.1712-.227.3139-.256.3709v-2.9957h-.71v3.7946h.795l2.216-2.5678c.039-.0535.075-.103.108-.1489.091-.1252.163-.224.205-.3076v3.0243z"/></svg>