<svg xmlns="http://www.w3.org/2000/svg" fill-rule="evenodd" clip-rule="evenodd" image-rendering="optimizeQuality" shape-rendering="geometricPrecision" text-rendering="geometricPrecision" viewBox="0 0 398.75 116.92"><defs/><path fill="#f2994a" d="M0 116.92h152.26L76.12 0z"/><path fill="#1e1e1e" d="M43.05 50.94h66.16l-33.09 65.98zM344.61 101.06h-8.03l-14.69-22.31c-.83-1.24-1.38-2.21-1.66-2.9h-.14c.14 1.24.14 3.18.14 5.68v19.53h-7.48V65.59h8.59l13.98 21.62c.7.96 1.26 1.93 1.81 2.77h.13c-.13-.7-.27-2.36-.27-4.85V65.59h7.62v35.47zm52.42-39.31l-2.53 5.05h-.13l-2.53-5.05h-.13v10.36h-1.73v-18.2h.14l4.25 9.17h.13l4.25-9.17v18.2h-1.59V61.75h-.13zm-10.4 10.36h-1.72V55.77h-2.53v-1.86h6.78v1.86h-2.53v16.34zm-105.6-45.9h-10.12v28.96h-7.89V26.21h-10.11v-6.5h28.12v6.5zm-54.85 27.57v-7.89c1.52 1.1 3.04 2.07 4.71 2.63 2.76.92 7.05 1.65 9.55-.14.84-.6 1.53-.89 1.53-2.49s-.9-2.41-2.22-3.33c-2.08-1.44-3.05-1.67-5.4-2.63-2.77-1.25-4.84-2.63-6.23-4.3-1.39-1.66-2.08-3.6-2.08-5.95 0-3.67 1.36-6.03 4.15-8.03 2.79-2.01 6.31-2.5 9.84-2.5 3.12 0 6.16.19 8.86 1.38v7.35c-.69-.41-1.24-.83-1.94-1.11-2.89-1.06-1.57-.66-4.43-1.24-1.82-.37-5-.05-6.51.83-1.43.83-2 2.87-1.11 4.15 1.85 2.63 7.1 3.98 10.12 5.68 1.1.7 2.07 1.52 2.9 2.35 1.62 1.61 2.5 4.17 2.5 6.65 0 5.78-3.45 8.71-8.73 9.98-3.4.81-7.46.69-10.94 0-1.67-.28-3.19-.83-4.57-1.39zm-2.77 1.39h-8.73l-2.35-7.9h-12.75l-2.49 7.9h-8.59l12.88-35.46h9.42l12.61 35.46zm-13.02-14.13l-3.74-11.78c-.28-.97-.56-1.94-.69-3.18h-.14c-.14.97-.28 2.07-.69 3.04l-3.75 11.92h9.01zm-23.97-14.83h-12.46v8.73h11.49v6.37h-11.49v13.86h-7.89V19.71h20.35v6.5zm102.92 75.4c-10.38 0-17.17-7.65-17.17-17.87 0-10.91 6.67-18.69 17.72-18.69 10.48 0 16.9 7.35 16.9 18 0 5.54-1.52 9.97-4.85 13.44-3.18 3.46-7.34 5.12-12.6 5.12zm.41-29.78c-10.52 0-10.76 14.78-6.78 19.81 1.66 2.08 3.88 3.05 6.51 3.05 10.66 0 10.46-14.8 6.65-19.81-1.47-1.93-3.79-3.05-6.38-3.05zm-21.81 29.78h-7.9V80.42c0-2.22.14-4.85.42-7.62h-.28c-.42 2.21-.83 3.74-1.11 4.71l-8.3 24.1h-6.52l-8.45-23.82c-.13-.7-.55-2.22-1.1-4.99h-.14c.14 3.61.28 6.65.28 9.28v19.53h-7.21V66.29h11.64l7.33 20.92c.56 1.66.97 3.32 1.26 5.12h.14c.41-1.94.83-3.74 1.38-5.12l7.2-20.92h11.36v35.32zm-46.46 0h-21.19V66.29h20.49v6.37h-12.46v7.9h11.49v6.51h-11.49v8.03h13.16v6.51zm-25.64-.55h-9.14l-5.53-9.14c-.96-1.58-1.91-3.33-3.61-4.16-.42-.28-.83-.28-1.39-.28h-2.07v13.58h-8.03V65.59h12.6c8.72 0 13.02 3.2 13.02 9.71 0 1.11-.28 2.35-.69 3.32-.85 2.51-1.8 3.56-4.02 4.98-.97.7-2.08 1.11-3.33 1.53.56.27 1.11.41 1.53.83 1.66 1.44 2.72 2.55 3.88 4.57l6.78 10.53zm-21.74-29.5v9.83c2.53 0 5.88.35 7.61-1.39.97-1.11 1.53-2.35 1.53-3.74 0-5.36-4.88-4.7-9.14-4.7zm203.47.55h-10.11v28.95h-8.03V72.11h-9.98v-6.52h28.12v6.52z"/></svg>