<svg xmlns="http://www.w3.org/2000/svg" fill="none" viewBox="0 0 239 28"><defs/><path fill="#1E1E1E" d="M233.891 2.19017l-1.307 3.02642c-.079-.22567-.171-.47345-.272-.74483-.203-.54275-.44-1.17988-.678-1.9232-.515-1.39374-.792-2.22999-.792-2.5087387V0c-.125.00896559-.244.0179312-.357.0264423-.388.0292916-.704.0532002-.95.0532002-.317.0398215-.634.0398215-.871.0398215h-.832c-.173 0-.338-.009438-.506-.019125-.178-.01021-.36-.0206965-.563-.0206965V.915889H227c.317 0 .515.039821.634.159281.119.11947.159.27875.159.5575 0 .11947 0 .31857-.04.63714-.012.09643-.024.2038-.037.32101-.03.27003-.066.59229-.121.95327l-.159 1.43357c-.04.27875-.079.63714-.119 1.07517-.119.99553-.198 1.55303-.237 1.67249-.04.19911-.159.3584-.278.43804-.158.07964-.356.11946-.594.11946h-.237v.75661h.198c.348-.01751.643-.03501.88-.04914.303-.018.514-.03051.625-.03051h.673c.197 0 .454.02014.786.04609.134.01055.281.02205.442.03356v-.75661h-.08c-.396 0-.673-.07964-.792-.1991-.118-.11947-.198-.3584-.198-.67697 0-.23892.04-.79642.119-1.67249.036-.39391.079-.82807.127-1.30611.059-.58513.125-1.23599.19-1.95923l1.861 5.0573c.1.22581.168.43581.225.61008.034.10232.063.19233.092.26599.079.1991.119.39821.159.59732h1.188c.025-.10288.067-.22236.115-.35845.026-.07463.055-.15425.083-.23887.079-.27875.198-.59732.396-1.03536l2.059-4.81837.277 4.3007v.55749c0 .31857-.039.51768-.198.63714-.119.11947-.396.15929-.792.15929h-.158v.7566l.119-.01c.429-.03622.825-.06964 1.188-.06964.396-.03982.712-.03982.99-.03982.277 0 .633 0 1.069.03982.228.02082.455.03075.694.04118.219.00952.446.01946.692.03846v-.7566h-.238c-.198 0-.356-.03982-.475-.07964s-.237-.11947-.277-.23893c-.079-.23893-.198-.91589-.277-2.15035-.017-.20246-.027-.37633-.035-.5307-.012-.20996-.022-.38383-.045-.54447l-.079-1.115c-.019-.20907-.028-.41815-.038-.61856-.01-.21948-.02-.42857-.041-.6159-.039-.35839-.04-.59732-.04-.67696 0-.31857.04-.51767.198-.637138.119-.119464.436-.159286.911-.159286V.0796425c-.315 0-.58.0129152-.807.0240355-.172.008406-.324.015786-.46.015786h-1.465c-.277 0-.713 0-1.228-.0398215-.039.3583915-.198.9955275-.594 1.8715975-.013.02653-.026.05748-.039.08844-.027.06196-.053.12393-.08.15049zM218.605 8.16336h.317c.277 0 .475-.03982.594-.11946.118-.07965.198-.23893.277-.43804.039-.11942.039-.398.039-.83574V1.39375h-.831c-.713 0-1.188.07964-1.426.27875-.237.1991-.396.55749-.515 1.15481l-.831-.15928c.079-.39822.158-.79643.237-1.23446.079-.438036.119-.87607.159-1.3539255.673.0398215 1.307.0796425 1.94.1194635.634.039822 1.267.039822 1.901.039822 1.426 0 2.574 0 3.406-.039822.214-.010232.412-.017835.594-.024836.527-.020244.923-.03545 1.188-.0946275 0 .4380335 0 .8760675.04 1.3141055.039.43772.079.87635.158 1.27428l-.792.15928c-.119-.5575-.277-.95571-.475-1.15481-.198-.19911-.634-.27875-1.267-.27875h-.397c-.158 0-.356 0-.554.03982v4.14141c0 .71635 0 1.23458.04 1.55303 0 .27875.039.47785.079.59732.079.15928.158.27875.277.35839.119.07964.317.11946.594.11946h.277v.75661c-.515-.03983-1.029-.07965-1.465-.07965-.235 0-.459-.0116-.664-.02228-.176-.0091-.339-.01754-.484-.01754-.238 0-.555 0-.991.03982-.338 0-.734.02905-1.188.06234l-.237.01731v-.79643z"/><path fill="#1E1E1E" fill-rule="evenodd" d="M134.173 11.4685c-2.733 1.8318-4.119 4.1016-4.119 6.8492 0 2.8672 1.267 5.137 3.841 6.8891 2.535 1.7123 5.901 2.5884 10.099 2.5884 4.158 0 7.564-.8761 10.217-2.668 2.654-1.7522 4-4.022 4-6.7696 0-2.8273-1.267-5.137-3.841-6.9289-2.574-1.79199-5.861-2.70788-9.861-2.70788-4.158 0-7.604.91589-10.336 2.74768zm5.267 1.6327c1.109-1.1549 2.732-1.7522 4.792-1.7522 1.98 0 3.485.5973 4.594 1.8318 1.108 1.2345 1.663 2.9866 1.663 5.2564 0 2.1504-.515 3.7432-1.584 4.898-1.07 1.1548-2.614 1.7123-4.594 1.7123-2.139 0-3.802-.5973-4.911-1.7919-1.109-1.1947-1.663-2.9468-1.663-5.2166 0-2.1105.594-3.783 1.703-4.9378z" clip-rule="evenodd"/><path fill="#1E1E1E" d="M95.6792 12.3843c-.1188-.876-.1584-1.7521-.1584-2.66798-1.4653-.31857-2.891-.5575-4.277-.71678-1.4653-.15929-2.9306-.23893-4.4751-.23893-4.6731 0-8.4353.87607-11.2471 2.66799-2.8117 1.792-4.2374 4.1813-4.2374 7.128 0 2.7875 1.3069 5.0175 3.881 6.7298 2.5742 1.7123 6.0196 2.5486 10.2966 2.5486 1.3069 0 2.8514-.0796 4.6731-.2788 1.8217-.1991 3.8414-.4778 6.0591-.876-.0396-.3982-.0792-.8363-.0792-1.3141-.0396-.4381-.0396-.9557-.0396-1.4336l-.0396-1.0752v-.6371c0-1.0354.1584-1.7123.4357-1.9911.2772-.2787.8712-.438 1.7425-.438h.4752v-1.5929c-1.7029.0399-3.0494.0797-4.0394.1195-.9901.0398-1.9009.0398-2.7721.0398-.6732 0-1.4654 0-2.3366-.0398-.9109 0-2.0198-.0398-3.4455-.1195v1.5929c.0962 0 .2117-.0065.3494-.0143.2026-.0114.453-.0255.7595-.0255.9505 0 1.6237.1593 1.9405.5177.3565.3583.5149 1.1548.5149 2.3892v1.9911c-.5941.1593-1.1881.2787-1.7029.3584-.5149.0796-1.0297.1194-1.5445.1194-2.2574 0-4.0791-.5973-5.4256-1.8715-1.3464-1.2345-2.0197-2.9468-2.0197-5.0972 0-2.1901.6733-3.8626 2.0594-4.9776 1.386-1.1548 3.4058-1.7123 6.0987-1.7123 1.8217 0 3.3266.3185 4.4751.9955 1.1484.677 1.9009 1.6327 2.2177 2.8671l2.3365-.3584c-.2376-.8362-.3564-1.7123-.4752-2.5884zM3.60381 9.35796c-.79204 0-1.98011-.03982-3.485003-.11946H.0792046v1.553H.950456c1.069264 0 1.782104.1593 2.178124.4779.39603.3186.59404.9557.59404 1.9114v2.668c-.0396.5177-.0396.9956-.0396 1.4336l-.07921 1.553c0 .2788 0 .677-.0396 1.1947-.07921 2.7476-.23761 4.3405-.47523 4.7785-.15841.3584-.43562.5973-.79205.7168-.31681.1195-.87125.1991-1.544486.1991H0v1.553l.43171-.0146c1.00891-.0344 1.9081-.065 2.77608-.065.87121-.0398 1.58402-.0398 2.13844-.0398.59403 0 1.34661 0 2.25742.0398.91085.0398 1.98011.0796 3.16815.1195v-1.5531h-.1584c-.3564.0398-.594.0398-.75242.0398-.99006 0-1.6633-.1991-2.01972-.6371-.35642-.438-.51483-1.4734-.51483-3.0662v-5.0175c0-.7168 0-1.4734.0396-2.1902L19.3259 25.4458c.5941.5176 1.0297.9158 1.2673 1.1946.2376.2787.4356.5177.594.7566h5.6236c-.0511-.1798-.0692-.3595-.0863-.5286-.0094-.0931-.0185-.183-.0325-.2678-.0396-.239-.0396-.4381-.0396-.5575v-2.8672c0-1.115 0-2.3494.0396-3.6237v-1.6725c.0396-2.3494.0792-3.9025.1188-4.6591.0396-.7566.1188-1.2743.2376-1.553.1584-.3186.396-.5575.7524-.677.3565-.1194 1.0297-.1991 2.0198-.1991V9.19868c-.5808.02654-1.1264.05309-1.672.07963-.2729.01328-.5457.02655-.823.03983-.792.03982-1.6633.03982-2.5345.03982-.9109 0-1.7822 0-2.5742-.03982-.534 0-1.086-.0362-1.6318-.072-.2636-.01729-.526-.03449-.7839-.04746v1.55302h.7524c.9901 0 1.6633.1991 2.0197.5973.3564.3982.5149 1.2743.5149 2.6282v4.3804c-.0396.7167-.0396 1.5131-.0396 2.3095l-9.7422-8.6809c-.8713-.7566-1.4257-1.354-1.7425-1.7123-.3168-.35844-.5149-.71683-.6337-1.0354-1.02962.03982-1.98008.07964-2.89093.11946-.91085.03982-1.7029.03982-2.41574.03982-.55443 0-1.22767 0-2.01972-.03982zM37.1866 25.7245l.0396 1.553c1.3033-.0672 2.4093-.106 3.3892-.1405l.5314-.0188c1.1089-.0398 1.9801-.0398 2.6533-.0398.9109 0 1.9802 0 3.1682.0398l.4459.0148.0013.0001c1.0746.0354 2.2634.0746 3.5131.1444v-1.553h-.7525c-.7128 0-1.2277-.0796-1.5841-.1991-.3564-.1593-.6336-.3982-.792-.7168-.1188-.2389-.198-.6371-.2376-1.2344-.0396-.5974-.0792-1.6725-.0792-3.1459v-4.3007c0-.9557 0-2.3495.0396-4.1016.32 0 .617-.0116.891-.0222.2347-.0092.4525-.0176.6534-.0176h1.0693c1.7029 0 2.8514.1991 3.4058.5973.594.3982 1.0297 1.1548 1.3069 2.3096l2.2177-.2787c-.1584-.8761-.3168-1.7522-.396-2.6282-.0792-.9159-.1188-1.792-.1188-2.70788-.9901.07964-2.6138.15929-4.9107.19911-2.2573.03982-5.3463.07964-9.2669.07964-1.7047 0-3.3714-.03811-5.0744-.07705l-.1135-.00259c-1.6667-.03809-3.3696-.11261-5.1087-.18871l-.2377-.0104c-.1188.95568-.2376 1.87158-.4356 2.74768-.198.8761-.4356 1.7123-.6732 2.5087l2.3365.3982c.2772-1.1548.7525-1.9114 1.3861-2.3096.6336-.3982 1.9405-.5973 3.9206-.5973h2.2574v6.4112c0 2.1105 0 3.5839-.0396 4.46-.0396.8761-.0792 1.4336-.1585 1.6725-.1584.438-.396.7566-.7524.9159-.3168.1593-.8712.2389-1.6633.2389h-.8316zM55.9977 22.499c.2376-.5177.4752-1.0751.7128-1.6326.1835-.4305.367-.9085.5687-1.4339.0595-.1551.1206-.3143.1838-.4776.3813 0 .7524.0102 1.1185.0203.3563.0098.7081.0195 1.0596.0195h2.6138c.8712 0 2.3366 0 4.475-.0398h.7921c-.2772.5973-.5545 1.2344-.7921 1.8318-.1759.4423-.3302.8846-.4788 1.3107l-.0004.0012-.0009.0028c-.0516.148-.1026.294-.1535.4374-.2948 0-.6353-.0076-1.0179-.0162-.4911-.011-1.0519-.0236-1.6751-.0236-1.1088-.0398-1.7821-.0398-2.0593-.0398h-2.2573c-.429 0-.8843.0088-1.3659.0181-.541.0105-1.1156.0217-1.7231.0217z"/><path fill="#1E1E1E" fill-rule="evenodd" d="M101.026 25.7245h.633c.634 0 1.109-.0398 1.465-.1195.357-.0796.594-.2389.713-.438.159-.2389.277-.5973.357-1.0752.079-.4778.118-1.3539.118-2.5485V17.362c0-.4778 0-1.115.04-1.8317.04-.7566.04-1.2345.04-1.5133 0-1.3141-.159-2.1901-.515-2.5883-.357-.4381-.99-.6372-1.901-.6372h-.792v-1.553c.987.07633 1.937.11608 2.851.15431l.119.00497c.951.03982 1.901.03982 2.812.03982 1.386 0 3.01-.03982 4.95-.15928.825-.03385 1.521-.0677 2.091-.09543.772-.03752 1.313-.06386 1.632-.06386 2.93 0 5.148.39822 6.693 1.23447 1.544.8362 2.336 1.9911 2.336 3.5441 0 .9557-.396 1.7919-1.148 2.5087-.792.7566-1.98 1.4336-3.604 2.0309l2.693 3.3052c1.267 1.553 2.257 2.5884 3.049 3.106.792.5177 1.584.7965 2.455.7965h.238c.079 0 .238 0 .436-.0399v1.6725c-.198 0-.515 0-.911.0399-.612.0143-1.152.0286-1.622.041-.84.0222-1.457.0386-1.863.0386-2.178 0-3.842-.1991-4.95-.5575-1.109-.3982-1.981-1.0354-2.614-1.9911-.202-.2787-.468-.7026-.818-1.2614-.2-.3193-.428-.6826-.687-1.088-.713-1.115-1.267-1.9114-1.703-2.4689-.396.0398-.752.0398-1.069.0398h-1.545v2.8273c0 1.1946.159 1.9512.476 2.2698.316.3186.95.4779 1.861.4779h.475v1.5928c-1.12-.0512-2.061-.086-2.842-.1148-.434-.016-.819-.0303-1.158-.0445-.911.0398-1.623.0398-2.099.0398-.673 0-1.465 0-2.415.0399-.411.0179-.926.0358-1.545.0574-.755.0263-1.666.0581-2.732.1019v-1.5929zm9.979-7.8448h.119c.911.0398 1.584.0398 2.02.0398h1.109c.362 0 .725-.0334 1.118-.0696l.109-.01c.792-.4779 1.347-.9557 1.703-1.4734.357-.5177.555-1.115.555-1.792 0-.9158-.436-1.6326-1.307-2.1901-.871-.5575-2.06-.7964-3.564-.7964-.159 0-.436 0-.753.0398-.317 0-.713.0398-1.069.0796-.04.4779-.04.9557-.04 1.3938v4.7785z" clip-rule="evenodd"/><path fill="#1E1E1E" d="M173.419 9.19868v1.59282h-.674c-1.029 0-1.742.1991-2.099.5575-.356.3584-.514 1.1947-.514 2.5088v4.6591c0 2.1901.475 3.783 1.465 4.7785.99.9955 2.534 1.4734 4.713 1.4734 1.386 0 2.534-.1991 3.485-.5973.95-.3982 1.623-.9557 2.019-1.7123.238-.4381.396-1.115.515-2.0309.079-.9159.158-2.5884.158-5.0573v-2.1902c0-.9159-.198-1.553-.554-1.9114-.356-.3186-1.069-.4779-2.059-.4779h-.555V9.19868c.896.0643 1.688.10265 2.377.13599l.001.00006c.164.00794.322.01559.474.02323.792.03982 1.465.03982 2.019.03982.634 0 1.386 0 2.179-.03982l.262-.01248c.761-.03606 1.591-.07545 2.549-.1468v1.59282h-.633c-1.545 0-2.337 1.4734-2.337 4.3804v1.8317c-.039 3.3052-.356 5.5352-.95 6.6502-.713 1.2743-1.98 2.3096-3.842 3.0662-1.821.7566-4 1.115-6.455 1.115-1.94 0-3.643-.1593-5.069-.4778-1.465-.3186-2.653-.8363-3.604-1.4734-1.069-.7168-1.822-1.553-2.257-2.4291-.436-.8761-.673-2.1504-.673-3.783 0-.5973 0-1.5531.039-2.8273.04-1.2743.04-2.23.04-2.907 0-1.3937-.159-2.23-.515-2.5884-.317-.3584-.951-.5176-1.901-.5176h-.634V9.2385c1.179.07646 2.248.11622 3.278.15451l.128.00477c1.069.03983 2.02.03983 2.852.03983.712 0 1.584 0 2.653-.03983.75-.02692 1.626-.07206 2.617-.12308.475-.02444.976-.05024 1.502-.07602z"/><path fill="#1E1E1E" fill-rule="evenodd" d="M191.754 25.7245h-.871v1.553c1.21-.0608 2.282-.0984 3.197-.1306.282-.0099.551-.0193.803-.0287 1.069-.0398 1.901-.0398 2.455-.0398.713 0 1.584 0 2.614.0398 1.03 0 2.416.0398 4.198.1195v-1.5132h-.673c-1.03 0-1.703-.1593-2.06-.5575-.356-.3584-.514-1.2345-.514-2.6282v-2.1902c.271.0195.534.0295.791.0393.268.0101.53.0201.793.0403.515.0399.99.0399 1.425.0399 3.367 0 5.941-.5177 7.802-1.5531 1.861-1.0353 2.772-2.4689 2.772-4.3007 0-1.7123-.871-3.0662-2.653-4.0219-1.782-.95571-4.277-1.43357-7.445-1.43357-.753 0-2.06.03982-3.842.11946-1.782.07965-3.168.11947-4.158.11947-.191 0-.398-.00767-.629-.01627-.297-.01101-.634-.02355-1.034-.02355-.713-.03983-1.941-.07965-3.683-.11947v1.55303h.554c1.03 0 1.703.1991 2.099.5177.356.3185.554.9557.554 1.8716v10.1544c0 .9159-.198 1.553-.554 1.8716-.356.3584-.99.5177-1.941.5177zm10.218-7.4466c-.317 0-.673 0-1.069-.0398-.04-1.6321-.04-2.906-.04-3.8616v-.0021c0-.9155 0-1.7913.04-2.667l1.188-.1195c.396-.0398.792-.0398 1.148-.0398 1.426 0 2.535.3186 3.366.8761.832.5575 1.228 1.3141 1.228 2.3096 0 1.1548-.436 1.9911-1.307 2.6282-.871.5973-2.138.9159-3.723.9159h-.831z" clip-rule="evenodd"/></svg>