<svg xmlns="http://www.w3.org/2000/svg" fill-rule="evenodd" clip-rule="evenodd" image-rendering="optimizeQuality" shape-rendering="geometricPrecision" text-rendering="geometricPrecision" viewBox="0 0 37.85 15.51"><defs/><defs/><g id="Слой_x0020_1"><path fill="#090338" fill-rule="nonzero" d="M19.36 10.55h.33c.31 0 .5-.07.56-.2.06-.13.1-.67.1-1.64V6.08c0-.16-.03-.69-.07-1.58-.28-.02-.8-.04-1.53-.04-1.08 0-1.79.02-2.15.04-.03.47-.04.95-.04 1.42v2.89c0 .23.01.5.02.81l.03.52c0 .19.06.3.17.34.11.05.24.07.38.07h.32v.3c-.38-.02-.78-.03-1.21-.03-.4 0-.93.01-1.6.03v-.3h.3c.35 0 .56-.07.61-.2.05-.13.08-.64.08-1.54V5.93c0-.8-.03-1.26-.09-1.39-.05-.13-.23-.19-.54-.19h-.36v-.31c2.04.02 3.38.03 4.01.03.41 0 1.59-.01 3.55-.03v.31h-.37c-.35 0-.54.07-.57.21-.03.14-.04.65-.04 1.53v2.65c0 .94.02 1.47.07 1.61.04.13.22.2.54.2h.37v.3c-.39-.02-.85-.03-1.39-.03-.55 0-1.04.01-1.48.03v-.3zm17.85 2.87v-.07c.11.01.21.01.29.01.09 0 .21 0 .35-.01v.07h-.09c-.08 0-.11.03-.12.07v.91c.01.02.02.03.04.04.02.01.05.01.08.01h.09v.07c-.14 0-.25-.01-.35-.01-.08 0-.18.01-.29.01v-.07h.09c.07 0 .11-.01.11-.05.01-.03.02-.19.02-.47 0-.27-.01-.42-.02-.46 0-.03-.04-.05-.11-.05h-.09zm-.72.5v.28c0 .09 0 .17.01.23.04.01.07.01.09.01.26 0 .39-.09.39-.27 0-.08-.03-.15-.1-.19a.476.476 0 00-.26-.06h-.13zm-.32.6v-.05c.06-.03.09-.05.1-.08.01-.02.01-.17.01-.43 0-.29 0-.46-.01-.49-.01-.03-.05-.05-.11-.05h-.09v-.07c.11.01.21.01.29.01.09 0 .2 0 .34-.01v.07h-.09c-.07 0-.11.03-.11.07-.01.04-.01.14-.01.3v.05h.18c.17 0 .3.02.4.08.09.05.14.13.14.23 0 .12-.06.21-.18.27-.11.06-.26.09-.43.09h-.27l-.06.01h-.1zm-1.18-.26c.05.06.1.1.16.12.05.03.1.04.17.04.13 0 .22-.05.29-.15.07-.09.11-.21.11-.35 0-.09-.02-.16-.05-.23a.4.4 0 00-.14-.15.32.32 0 00-.19-.05c-.05 0-.1 0-.15.02-.05.02-.09.05-.12.09-.04.03-.06.06-.07.09-.01.03-.01.08-.01.18v.39zm0-.68l.17-.15c.04-.04.08-.07.11-.08a.88.88 0 01.17-.02c.15 0 .27.04.36.13.09.09.13.21.13.35a.78.78 0 01-.1.39c-.03.04-.07.08-.1.11-.02.01-.07.04-.15.1l-.05.03c-.07.04-.12.07-.15.09a.59.59 0 01-.14.02c-.03 0-.07-.01-.12-.02a.694.694 0 01-.13-.05v.18c0 .17 0 .3.01.37 0 .03.01.06.03.07.01.02.05.02.11.02h.07v.07H34.56v-.07h.09c.06 0 .1-.01.11-.04.01-.02.02-.17.02-.43v-.76c0-.13-.01-.23-.01-.3 0-.04-.01-.06-.03-.07-.01-.01-.04-.02-.09-.02h-.09v-.07c.11-.02.23-.04.34-.08l.07-.03c.02 0 .02.01.02.04v.22zm-1.39.25c.13.01.27.01.43.01.06 0 .12 0 .18-.01v-.07c0-.07-.02-.14-.05-.2-.01-.04-.05-.08-.09-.1a.293.293 0 00-.16-.04.27.27 0 00-.22.1c-.06.07-.08.17-.09.31zm0 .1c.01.16.05.28.13.36.08.09.18.13.31.13.06 0 .11-.01.17-.03.06-.02.11-.05.17-.08l.02.01-.04.11a.833.833 0 01-.43.12c-.17 0-.31-.06-.41-.16a.609.609 0 01-.15-.43c0-.14.03-.26.08-.36.04-.07.11-.13.21-.19.1-.05.2-.08.3-.08.15 0 .26.04.35.13.08.08.12.2.12.36v.07l-.15.03c-.09 0-.21.01-.37.01h-.31zm-.77-.1c0-.2 0-.32-.01-.35 0-.04-.04-.06-.11-.06h-.09v-.07c.11.01.21.01.29.01.09 0 .2 0 .34-.01v.07h-.08c-.08 0-.12.03-.12.07 0 .04-.01.19-.01.45l.01.29v.17c0 .01.01.02.03.03.02.02.04.02.09.02h.08v.07c-.13 0-.24-.01-.34-.01-.08 0-.18.01-.29.01v-.07h.09c.07 0 .1-.01.11-.04.01-.03.01-.09.01-.18v-.3l-.33-.01-.33.01v.39c0 .05 0 .08.01.09 0 .01.02.02.04.03.02.01.04.01.07.01h.09v.07c-.13 0-.25-.01-.34-.01-.09 0-.19.01-.29.01v-.07h.09c.06 0 .1-.01.11-.04 0-.04.01-.18.01-.45 0-.29-.01-.45-.01-.49-.01-.03-.05-.05-.11-.05h-.09v-.07c.11.01.2.01.29.01.08 0 .2 0 .34-.01v.07h-.09c-.03 0-.05.01-.07.02-.03.01-.04.02-.04.03-.01.02-.01.09-.01.2v.16c.11.01.25.01.42.01.11 0 .19 0 .24-.01zm-2.17.43c.06.06.11.1.16.12.05.03.11.04.17.04.13 0 .23-.05.3-.15.07-.09.1-.21.1-.35 0-.09-.01-.16-.04-.23a.502.502 0 00-.14-.15.351.351 0 00-.2-.05c-.05 0-.1 0-.14.02a.38.38 0 00-.13.09c-.03.03-.05.06-.06.09-.01.03-.02.08-.02.18v.39zm0-.68l.18-.15c.04-.04.08-.07.11-.08.05-.01.1-.02.17-.02.14 0 .26.04.35.13.09.09.14.21.14.35 0 .08-.01.15-.03.22-.02.07-.05.12-.08.17-.03.04-.06.08-.1.11-.01.01-.06.04-.15.1l-.05.03c-.06.04-.11.07-.15.09-.04.01-.08.02-.13.02-.04 0-.08-.01-.12-.02-.04-.01-.09-.03-.14-.05v.18c0 .17.01.3.01.37 0 .03.01.06.03.07.02.02.06.02.12.02h.06v.07h-.65v-.07h.09c.07 0 .11-.01.12-.04.01-.02.01-.17.01-.43v-.76c0-.13 0-.23-.01-.3 0-.04-.01-.06-.02-.07-.01-.01-.04-.02-.09-.02h-.1v-.07c.12-.02.23-.04.34-.08l.08-.03c.01 0 .02.01.02.04v.13l-.01.09zm-.91.28c-.23.05-.38.1-.44.14-.06.04-.09.11-.09.2 0 .06.02.11.05.15.04.03.08.05.14.05.06 0 .12-.02.18-.05.05-.04.11-.09.16-.16l-.01-.27.01-.06zm-.65-.2v-.16l.13-.08c.06-.04.12-.06.16-.07.05-.02.1-.02.15-.02.11 0 .2.02.27.07.07.06.11.12.13.2.01.06.01.21.02.44 0 .22 0 .34.01.37.01.02.03.03.06.03h.1v.08c-.1 0-.16-.01-.2-.01-.04 0-.11.01-.18.01v-.11-.1l-.26.19c-.02.02-.05.03-.07.04-.02 0-.05.01-.09.01-.11 0-.19-.03-.24-.08a.258.258 0 01-.09-.21c0-.08.02-.16.06-.22.04-.06.1-.11.17-.14.08-.03.25-.07.52-.11-.01-.11-.03-.19-.07-.24a.331.331 0 00-.35-.08.3.3 0 00-.1.04c-.02.06-.05.12-.07.17l-.06-.02zm-3.5-.31v.07h-.09c-.07 0-.11.03-.11.07-.01.04-.01.19-.01.45v.29c0 .1.01.15.01.17 0 .01.01.02.03.03.01.02.04.02.08.02h.09v.07c-.13 0-.25-.01-.34-.01-.09 0-.18.01-.29.01v-.07h.09c.05 0 .09-.01.1-.03.01-.02.02-.09.02-.2v-.55c0-.08.01-.14.02-.19-.03.05-.06.09-.09.13-.04.06-.07.11-.1.15l-.28.42c-.11.18-.19.3-.25.35-.03.01-.09.02-.19.03.01-.18.02-.36.02-.52 0-.35-.01-.53-.02-.57 0-.03-.04-.05-.11-.05h-.09v-.07c.11.01.21.01.29.01.09 0 .21 0 .35-.01v.07h-.09c-.03 0-.05.01-.08.02-.02.01-.03.02-.04.03v.74c0 .05-.01.09-.01.14.03-.03.1-.14.22-.32l.18-.28c.04-.05.12-.18.26-.4.07.01.13.01.17.01.02 0 .11 0 .26-.01zm-2.62.51c-.23.05-.37.1-.44.14-.06.04-.09.11-.09.2 0 .06.02.11.06.15.03.03.08.05.13.05.06 0 .12-.02.18-.05.06-.04.11-.09.16-.16v-.33zm-.65-.2v-.16l.14-.08c.06-.04.11-.06.16-.07.04-.02.09-.02.14-.02.12 0 .21.02.28.07.07.06.11.12.12.2.01.06.02.21.02.44 0 .22.01.34.02.37 0 .02.02.03.06.03h.09v.08c-.09 0-.16-.01-.19-.01-.05 0-.11.01-.19.01v-.11-.1l-.26.19c-.02.02-.04.03-.06.04-.02 0-.06.01-.1.01-.1 0-.18-.03-.24-.08a.286.286 0 01-.08-.21c0-.08.02-.16.06-.22.04-.06.09-.11.17-.14.07-.03.24-.07.51-.11 0-.11-.02-.19-.07-.24a.3.3 0 00-.24-.1c-.04 0-.07.01-.11.02-.03.01-.07.02-.1.04-.02.06-.04.12-.06.17l-.07-.02zm-.99.78c.04.01.07.01.09.01.12 0 .22-.02.29-.07.08-.05.11-.12.11-.2 0-.07-.01-.11-.04-.15-.02-.04-.07-.06-.14-.09a.761.761 0 00-.21-.03c-.01 0-.04 0-.1.01v.52zm.01-1c-.01.06-.01.15-.01.26v.14h.09c.1 0 .19-.02.25-.05.06-.04.09-.1.09-.17 0-.13-.09-.2-.28-.2-.02 0-.07.01-.14.02zm-.39-.02v-.07c.05.01.09.01.13.01l.48-.01c.14 0 .25.02.32.06.08.04.12.1.12.18 0 .13-.12.22-.37.27.3.02.44.11.44.29 0 .11-.05.2-.17.27-.12.07-.25.1-.42.1h-.13c-.06 0-.12-.01-.19-.01-.06 0-.11.01-.17.01v-.05l.05-.02c.04-.01.06-.03.07-.06 0-.03.01-.17.01-.42 0-.3-.01-.46-.01-.5-.01-.03-.05-.05-.11-.05h-.05zm-1.1.42c0 .17.03.32.1.44s.17.18.3.18c.1 0 .18-.04.24-.11.06-.08.09-.2.09-.35 0-.12-.01-.23-.05-.32s-.08-.16-.14-.2a.36.36 0 00-.2-.06c-.07 0-.13.01-.18.05-.05.03-.09.07-.11.13a.47.47 0 00-.05.24zm-.24.09c0-.11.03-.22.08-.31a.622.622 0 01.55-.29.6.6 0 01.42.15c.1.11.16.25.16.42 0 .2-.07.37-.21.49-.12.1-.27.16-.44.16-.16 0-.3-.06-.4-.17a.648.648 0 01-.16-.45zm-.55-.1c0-.2 0-.32-.01-.35 0-.04-.04-.06-.11-.06h-.09v-.07c.11.01.21.01.29.01.09 0 .2 0 .34-.01v.07h-.09c-.07 0-.11.03-.11.07-.01.04-.01.19-.01.45l.01.29v.17c0 .01.01.02.03.03.01.02.04.02.08.02h.09v.07c-.13 0-.24-.01-.34-.01-.08 0-.18.01-.29.01v-.07h.09c.06 0 .1-.01.11-.04.01-.03.01-.09.01-.18v-.3l-.33-.01-.33.01v.39c0 .05 0 .08.01.09 0 .01.02.02.04.03.02.01.04.01.07.01h.09v.07c-.13 0-.25-.01-.35-.01-.08 0-.18.01-.28.01v-.07h.08c.07 0 .1-.01.11-.04.01-.04.02-.18.02-.45 0-.29-.01-.45-.01-.49-.01-.03-.05-.05-.12-.05h-.08v-.07c.1.01.2.01.28.01.09 0 .21 0 .35-.01v.07h-.09c-.03 0-.05.01-.07.02-.03.01-.04.02-.04.03-.01.02-.01.09-.01.2v.16c.11.01.25.01.42.01.11 0 .19 0 .24-.01zm-1.57.03c-.22.05-.37.1-.43.14-.06.04-.09.11-.09.2 0 .06.01.11.05.15.03.03.08.05.14.05.06 0 .12-.02.17-.05.06-.04.11-.09.16-.16v-.33zm-.65-.2l.01-.08-.01-.08.14-.08c.06-.04.11-.06.16-.07.05-.02.09-.02.15-.02.11 0 .2.02.27.07.07.06.11.12.13.2.01.06.01.21.01.44.01.22.01.34.02.37.01.02.03.03.06.03h.1v.08c-.1 0-.16-.01-.2-.01-.05 0-.11.01-.19.01l.01-.11c0-.03 0-.07-.01-.1l-.25.19c-.02.02-.05.03-.07.04-.02 0-.05.01-.09.01-.11 0-.19-.03-.24-.08a.258.258 0 01-.09-.21c0-.08.02-.16.06-.22.04-.06.1-.11.17-.14.08-.03.25-.07.51-.11 0-.11-.02-.19-.06-.24a.331.331 0 00-.24-.1c-.04 0-.08.01-.12.02-.03.01-.06.02-.09.04-.03.06-.05.12-.07.17l-.07-.02zm-.97.78h.09c.08 0 .13-.01.14-.05.02-.03.03-.17.03-.42v-.68c0-.04-.01-.17-.02-.4-.07-.01-.21-.01-.4-.01-.27 0-.46 0-.55.01-.01.12-.01.24-.01.36V14c0 .05 0 .12.01.2v.14c0 .05.02.08.05.09.03.01.06.01.09.01h.09v.08c-.1 0-.2-.01-.31-.01-.11 0-.24.01-.42.01v-.08h.08c.09 0 .14-.01.16-.05.01-.03.02-.16.02-.39v-.75c0-.2-.01-.32-.02-.35-.02-.04-.06-.05-.14-.05h-.1v-.08H16.62v.08h-.09c-.09 0-.14.01-.15.05-.01.04-.01.17-.01.39v.69c0 .24.01.38.02.41.01.04.06.05.14.05h.09v.08c-.1 0-.22-.01-.35-.01-.15 0-.27.01-.39.01v-.08zm12.12 0h.08c.08 0 .13-.01.15-.05.01-.03.02-.17.02-.42v-.68c0-.04 0-.17-.02-.4-.07-.01-.2-.01-.39-.01-.28 0-.46 0-.56.01 0 .12-.01.24-.01.36V14c0 .05.01.12.01.2l.01.14c0 .05.01.08.04.09.03.01.06.01.1.01h.08v.08c-.1 0-.2-.01-.31-.01-.1 0-.24.01-.41.01v-.08h.08c.09 0 .14-.01.15-.05.02-.03.02-.16.02-.39v-.75c0-.2-.01-.32-.02-.35-.01-.04-.06-.05-.14-.05h-.09v-.08H28.74v.08h-.1c-.09 0-.14.01-.15.05 0 .04-.01.17-.01.39v.69c0 .24.01.38.02.41.01.04.06.05.14.05h.1v.08c-.11 0-.22-.01-.36-.01-.14 0-.27.01-.38.01v-.08zm6.98-3.89h.33c.31 0 .49-.07.56-.2.06-.13.09-.67.09-1.64V6.08c0-.16-.02-.69-.06-1.58-.29-.02-.8-.04-1.54-.04-1.07 0-1.79.02-2.15.04-.02.47-.03.95-.03 1.42v2.89c0 .23 0 .5.02.81l.02.52c.01.19.06.3.18.34.11.05.24.07.37.07h.33v.3c-.39-.02-.79-.03-1.21-.03-.4 0-.93.01-1.6.03v-.3h.3c.35 0 .55-.07.6-.2.06-.13.08-.64.08-1.54V5.93c0-.8-.03-1.26-.08-1.39-.06-.13-.24-.19-.54-.19h-.36v-.31c2.04.02 3.37.03 4.01.03.41 0 1.59-.01 3.55-.03v.31h-.37c-.35 0-.54.07-.57.21-.03.14-.05.65-.05 1.53v2.65c0 .94.03 1.47.07 1.61.05.13.23.2.55.2h.37v.3c-.4-.02-.86-.03-1.39-.03-.55 0-1.04.01-1.48.03v-.3zm-8.36-3.21l.3-.43c.33.01.58.02.76.02l.61-.02c.59-.01 1.08-.02 1.48-.02-.06.27-.09.5-.11.69-.35-.06-.81-.09-1.39-.11.04.16.06.3.06.42 0 .26-.06.52-.18.79-.12.28-.33.57-.63.88.33.24.64.41.93.52.29.1.56.15.8.15.12 0 .3-.07.55-.23l.07.23c-.4.29-.68.51-.85.66-.12.04-.26.06-.39.06-.49 0-1.06-.27-1.71-.79-.37.3-.7.5-1.01.62-.3.11-.63.17-.98.17-.59 0-1.07-.19-1.44-.56-.38-.37-.56-.83-.56-1.38 0-.46.13-.88.41-1.23.19-.25.55-.54 1.09-.87-.18-.49-.28-.9-.28-1.23 0-.26.04-.49.12-.68.05-.13.15-.26.29-.39.38-.32.62-.5.72-.56.14-.07.31-.11.5-.11.27 0 .49.09.64.25.16.17.23.39.23.67 0 .66-.46 1.31-1.4 1.96.52.97 1.18 1.81 1.98 2.51.19-.22.31-.42.38-.6.07-.19.1-.38.1-.59 0-.22-.03-.41-.11-.56a.293.293 0 00-.16-.13c-.11-.03-.38-.04-.79-.04l-.03-.07zm-1.53-.85c.58-.48.88-.94.88-1.4 0-.2-.05-.36-.15-.48a.49.49 0 00-.37-.18c-.18 0-.33.07-.44.22-.11.14-.17.36-.17.65 0 .33.08.72.25 1.19zm1.53 3.42c-.75-.7-1.43-1.58-2.03-2.65-.3.21-.52.43-.64.65-.13.23-.19.47-.19.74 0 .45.15.85.46 1.2.31.35.7.53 1.16.53.4 0 .82-.16 1.24-.47z"/><path fill="#1b5e1b" d="M10.36 7.77c-.34-.52-.71-.95-1.11-1.29.67.29 1.04.72 1.11 1.29zm-9.34 0c.34-.52.71-.95 1.11-1.29-.67.29-1.03.72-1.11 1.29zm2.78 7.39c-.68.3-1.33.11-1.81-.37-.53-.14-.91-.54-1.11-1.07.44.19.86.5 1.1.79.1-.26-.29-.48-.24-1.2.58.48.32.91.68 1.46.31.05.6.15.82.27-.01-.28-.45-.34-.67-1.03.74.24.63.77 1.23 1.15zm-2.34-1.44c-.65-.1-1.03-.57-1.13-1.18.33.23.63.55.78.83.12-.2-.16-.44 0-1.03.42.51.09.83.35 1.38zm-.62-1.13c-.6-.28-.81-.76-.73-1.36.25.31.4.63.47.94.14-.13-.07-.34.26-.88.25.61-.09.7 0 1.3zm-.3-1.22c-.51-.42-.66-.91-.44-1.48.17.37.25.71.24 1.03.19-.11-.07-.27.45-.8.15.75-.2.65-.25 1.25zm-.12-1.34C.07 9.57.04 9.11.35 8.66c.07.36.07.67-.01.94.19-.05 0-.24.57-.59-.04.68-.31.51-.49 1.02zm.23-1.15C.37 8.33.43 7.85.84 7.45c0 .38-.06.7-.19.97.21-.02.04-.26.69-.51-.15.69-.41.47-.69.97zm6.93 6.28c.68.3 1.33.11 1.81-.37.53-.14.92-.54 1.12-1.07-.44.19-.87.5-1.11.79-.09-.26.29-.48.24-1.2-.58.48-.32.91-.68 1.46-.31.05-.6.15-.82.27.01-.28.45-.34.67-1.03-.73.24-.92 1.15-1.23 1.15zm2.34-1.44c.65-.1 1.03-.57 1.13-1.18-.33.23-.63.55-.78.83-.12-.2.16-.44 0-1.03-.41.51-.34.86-.35 1.38zm.62-1.13c.6-.28.81-.76.74-1.36-.26.31-.41.63-.48.94-.14-.13.07-.34-.26-.88-.25.61.02 1.08 0 1.3zm.3-1.22c.52-.42.66-.91.44-1.48-.17.37-.25.71-.24 1.03-.19-.11.07-.27-.45-.8-.15.75.2.65.25 1.25zm.12-1.34c.35-.46.38-.92.07-1.37-.07.36-.07.67.01.94-.19-.05 0-.24-.56-.59.03.68.31.51.48 1.02zm-.23-1.15c.28-.55.22-1.03-.19-1.43 0 .38.06.7.19.97-.21-.02-.04-.26-.69-.51.15.69.41.47.69.97z"/><path d="M13.22 5.76L12.16 3.4l-.01-.49c.48-.03.42-.66-.04-.7-.38-.04-1.3-.02-1.6-.2 0 0 .13-.25.13-.33 0-.08-.01-.54-.08-.65-.08-.1-.13-.27-.36-.27V.55s.11-.09.11-.25l-.2-.3h-.09c-.05.08-.21.28-.19.38 0 0 .08.17.12.17v.17s-.11-.05-.16.07c-.13.24-.28.28-.21.46.04.09-.07.14.06.26-.07.17.15.3.15.39 0 .07.01.08.01.08s-.62.2-.9.2c-.29 0-.88.04-.99.04-.11 0-.35.19-.35.4 0 0 0 .27.36.29v.49l-.24.54c-.16-.09-.25-.22-.41-.22-.11 0-.13.05-.18 0-.05-.04-.21-.08-.26-.02-.06.05-.26.15-.33.15 0 0-.02 0-.02-.06v-.57c.03-.14.47-.16.47-.37l.03-.55c.31-.15.17-.19.03-.41.08-.13.05-.28-.05-.38-.05-.05.04-.2-.1-.29-.1-.06-.14-.03-.2-.08-.05-.06-.16-.08-.16-.16 0-.27-.1-.31-.44-.31-.07 0-.23.08-.29.08-.29 0-.46-.04-.59.1-.07.06-.11.26-.23.26-.12 0-.21.07-.29.18-.08.11-.15.13-.11.21.03.07.1.1.02.18-.07.07-.11.03-.11.16s.06.24.03.27c-.03.03-.13.05-.1.13.03.07.09.07.09.11 0 .04.05.1.01.1-.14 0-.06.19.05.3.12.12-.11.11-.11.33 0 .11.04.12-.03.19-.06.06-.12.07-.12.15 0 .3-.08.09-.08.3 0 .12.03.21-.04.21-.43 0-.22.22-.33.26-.08.03-.52.06-.61.74-.17 1.29-.27.75-.34 2.06-.03.47-.14.89-.16 1.25-.05.82-.03 1.03-.08 1.61-.2 0-.57.4-.48.55.09.16.19.2.26.2.02.33-.04.37.2.61.11.1.43.33.43.33-.11.12-.25.23-.25.47 0 .21.22.34.22.34l-.07.96c0 .33.2.5.2.68 0 .4-.28.47-.18.66.05.09.21.24.07.44-.05.07-.09.13-.13.2.28.31.31.04.53.15.11.06.38-.01.58.03.22.05.31-.03.6 0 .25.03.78-.05.98.03.09.03.85-.06.86-.03h.65c.19 0 .2-.05.44-.02.13.01.28-.01.4-.01.35-.01.36.09.65-.1.01-.01.02-.02.03-.04 0 0-.01-.01-.02-.01h.01c-.04-.21-.08-.44-.14-.68-.25-1.06-1.11-4.8-1.11-5.3 0-.35-.04-.7-.04-.98 0 0 .06-.57-.15-.57 0 0 .26-.09.36-.31.09-.21.26-.89.28-1.17.58.04 1.15-.15 1.48-.52h-.19l-.17-.36c.24.01.46.03.61.03 0 0 .45.06.55-.3.2-.72.31-2.07.36-2.71 0 0 .67.11 1 .1.32-.02.75-.05.75.09 0 .06-.03.1-.06.11h-.12v.02c-.08.01-.21.02-.21.02l.01.11s.08.03.2.04v.49l-1.06 2.36h-.17c.63.7 1.97.7 2.6 0h-.19.01zM7.99 3.57c.03.07.15.33.29.65-.31-.02-.22-.07-.49-.22.1-.21.17-.38.2-.43zm.98 2.19H7.88c.18-.55-.27-.45.92-.37.08.18.14.32.17.37zm.64-2.75c-.05.15-.25.65-.29.89-.13.77-.07.51-.89.34l-.38-.84v-.49c.05 0 .1-.01.16-.02v-.12s-.09 0-.17-.03v-.02c-.16 0-.24-.27.15-.21.29.04 1 .04 1.32-.06.32-.1.32-.08.32-.08s-.16.49-.22.64zm1.5 2.75c.11-.23.89-1.98.99-2.19.09.21.87 1.96.98 2.19h-1.97z" class="fil2"/><path fill="#fefefe" fill-rule="nonzero" d="M10.15.58c0-.05.08-.11.08-.19 0-.07-.08-.27-.17-.29v.59h.07s.02-.07.02-.11zM2.39 9.69c.16 0 .23-.13.23-.29-.33.06-.25.29-.23.29zm3.67.96c.02-.06.03-.1.03-.14l-.03.14zm-3.04.47c.05.05.04.26.08.32l.2-.11s.02-.22.02-.31.06-.1.11-.2c.07-.12.05-.04.23.13.09.09.1-.07.05-.2-.02-.07-.09-.12-.12-.19s-.08-.13-.23-.28c-.16-.16-.08-.37-.06-.52.03-.15.17-.62.28-.98.21-.69.08-1.22.33-1.92.19-.53.04-1.12.26-1.23.14-1.11-.25-1.23-.25-1.23-.19-.04-.26.09-.4.27-.13.19-.06.41-.11.63-.05.22-.1.44-.19.71-.09.31-.04.96.04 1.25.05.2.02.27.02.38 0 .11-.08.02-.08-.03s-.06-.2-.12-.26c-.07-.07-.04.13-.06.21-.05.3-.07 2.41-.02 2.53.19.39.02.3.02.59 0 .34-.15.28 0 .44zm2.26-7.09c.35-.14.09-.35.09-.43 0-.06-.03-.12-.03-.12-.18.27.07.32-.06.55zm-.68-.09c-.04-.11.14-.24.14-.24.34-.18.23-.49-.04-.66.11.36.05.31-.07.43-.05.06-.16 0-.18.19-.02.19.15.28.15.28zm.27-.14c.01.16.16.22.16.22s-.12-.15-.01-.27c.12-.12.23-.28.27-.31.03-.03.04-.16-.02-.22-.18-.18-.27-.2-.15-.49-.33.23-.15.38-.02.51.03.03.07.15-.04.26-.1.1-.2.15-.19.3zm-.23-1.13v-.29c-.07 0-.18.21 0 .29zm.17-.58c.03.03.14.05.14 0 0-.06-.08-.12-.08-.2 0-.07.03-.27-.03-.21-.11.11-.17.27-.03.41zm.22-.1c.3-.09.09-.14.09-.29 0-.12-.06-.14-.06-.14s-.11.05-.11.11c0 .01-.03.35.08.32zm.16-.79c.11-.03.15-.26.38-.37-.49-.04-.2.29-.58.34l.2.03zm.14.03c-.11.18-.09.43-.03.41.1-.03.02-.24.14-.36.21-.2.2.03.13.1-.14.14-.16.43-.07.35 0-.16.2-.25.24-.41.09-.29.25-.13.35-.24.08-.08.25-.25.36-.22C6.33.69 6 .75 5.86.81c-.12.04-.43.26-.53.42zm.63.13c.04-.07.03-.14.03-.14s-.08 0-.09.05l-.16.3c.11.01.13-.06.22-.21zm.32-.33c-.24.24-.19.08-.28.46l.66-.29c-.13-.1-.26-.29-.38-.17zm.51.9c-.27.27-.84.55-1.21.63-.1.02-.21.06-.21.12 0 .07.09.03.18.11.04.04.14.23.31.22v.04c-.19.15-.15.1-.15.4h-.04l-.2-.25h-.05v.09s.23.37.33.5c.1.12.16.33.27.33.11 0 .09-.05.09-.05h.04c0 .22-.22.15-.36.06-.16-.11-.39-.16-.49-.05-.18.17-.23.04-.36.04-.03 0-.26-.01-.26-.01s.26.32.59.34c.33.01.92-.01.92-.01s.54-.04.54-.32h-.4c0-.33.06-.45.06-.6 0-.14.08-.42-.37-.47L6 2.99s.72-.01.83-.04c.11-.03.1-.2.09-.38h-.24v-.04l.23-.07c.02-.2-.01-.19.1-.25.05-.04.13-.06.1-.09-.08-.07-.14-.38-.32-.19zm1.19 2.3s.02.15.05.18c0 0-.1.33.33.44-.54.03-.45.19.33.33l-.37-.88s-.31-.04-.34-.07zm-.05-1.38v-.09c-.13-.04-.16-.34.16-.34.51 0 1.14.04 1.59-.1.15-.05.28-.06.28-.06s-.13-.04-.11-.22c0 0-.57.22-.99.23-.42.01-1.2-.12-1.2.34 0 .21.25.26.27.24zm4.37-.26s-.02.14-.1.17l.01.07c.27-.01.37-.52-.1-.55-.35-.01-1.09-.03-1.31-.09-.22-.07-.37-.14-.54-.15 0 0-.01.12-.1.21.57.2.89.16 1.48.16.16 0 .62-.03.66.18zM8.74 5.9l-1.09.01s.05.37.82.29c0 0 .52-.15.72-.38H8.8l-.06.08zm4.13-.08l-.05.08-1.09.01s.04.37.82.29c0 0 .51-.15.71-.38h-.39zM9.9 3.06l-.07-.25c-.3.59-.41 1.31-.24 1.99-.39-.4-.56-.29-1.07-.45l.35.86s.21.03.36.03c.14 0 .56-.01.62.01.14.06.23.1.34-.72.05-.35.17-1.1.17-1.5 0-.15.04-.6.04-.6l-.27-.07s-.1.46-.23.7zm-.07-1.99c.03-.02.09-.08.13-.08.03 0 .23-.01.26.02.06.05.08.03-.21.11-.07.02-.25.08-.28.11-.01.01-.14.21.08.14 0 0 .48-.14.53-.14.04 0-.07.06-.07.06l-.52.13c-.04 0-.09.17.14.17l.51-.13c.06 0-.28.18-.52.18-.06 0-.13.22.22.15.16-.03.26-.03.26-.03-.09.02-.09.22-.05.22.16 0 .17.11.28-.27.02-.07 0-.28-.02-.45a.688.688 0 00-.21-.39c-.08-.08-.35-.09-.44-.09 0 .23-.28.27-.25.43l.16-.14z"/><path fill="#d62228" fill-rule="nonzero" d="M7.89 4.14l-.08-.07-.76 1.68h.48s.22-.48.29-.96c.07-.49.07-.65.07-.65zm-2.3 1.01s.68.06 1.11-.65l.07-.13s-.52.23-.76.23h-.66s.15.21.66.21v.03s-.24.04-.47-.02c-.23-.05-1.03-.67-1.03-.67s-.17-.14-.19-.05c-.03.09-.01.17.05.24 0 0 .54.81 1.22.81zM4.03 6.58c.3-.16.41-.94.41-.94 0 .21-.1 1-.1 1 .45.05 1-1.11 1-1.11s-.24.67-.44.97c-.21.31-.47.42-.47.42C5.67 6.66 6.56 5 6.56 5c-1.14.73-2.06-.35-2.06-.35.07.19 0 .74 0 .74h-.06c.08-.6-.28-1.01-.28-1.01s.1.61.1 1.12c0 .51-.23 1.08-.23 1.08zm3.03 1.06s.23.09.4-.19.3-1.17.3-1.17l-.17-.01s-.08 1-.53 1.37zm.13-.26c.24-.29.33-1.13.33-1.13l-.13-.01s-.26.54-.43.94c-.17.41-.45.49-.45.49.1.1.45-.01.68-.29zm-.83-.43c-.39.78-.55.76-.55.76-.03.11.43-.07.43-.07.63-.28 1.08-1.43 1.08-1.43-.22-.06-.48-.3-.48-.3s-.09.26-.48 1.04zm-.43-.09c-.49.3-.67.39-.9.46-.22.07-.44.2-.44.37 0 0-.01.11.25.11s.63-.03.94-.29c.31-.27.56-.63.73-.99.17-.37.27-.63.27-.63l-.02-.01s-.34.69-.83.98zm.8-3.01c.1-.04.15-.01.21.05.06.06 0 .41-.03.56-.03.15-.27.66-.42.9-.14.25-.45.66-.79 1.05-.33.4-.77.58-1.17.68-.41.09-.48.16-.58.32-.09.17.04.24.08.25.05 0 .09-.03.08-.07 0-.02.04-.13.07-.18-.05.13.06.25.12.25s.07-.14.07-.14c.08-.2.38-.24.7-.32.32-.07.54-.23.85-.44.31-.2.6-.57.74-.88.15-.3.32-.81.46-1.26.14-.45.1-.62.1-.7 0-.08-.22-.19-.3-.19-.08 0-.19.12-.19.12zm.23 1.61l.02.07.68-1.52-.06-.06c-.04-.04-.12-.04-.17-.09-.05-.05-.13-.04-.13-.04s.07.11 0 .4c-.06.29-.34 1.24-.34 1.24z"/><path fill="#1d1185" fill-rule="nonzero" d="M4.55 7.98s-.46.51-.78.51l-.11.31s.74-.09.89-.82zm-2.26 2.39c.15 0 .22-.13.22-.27-.31.06-.24.27-.22.27zm1.97 2.04v-.78s-.2-.28-.2-.19l-.01.77s.11.23.11.28l.05.05.05-.13zm.09-.26c.25 0 .16-.02.38.1l.02-.08c-.2-.2-.1-.15-.4-.21v.19zm-.77-.32l.19.23h.25v-.2c-.19 0-.23.02-.28-.04l-.16.01zm2.7 3.46c-.03-.28-.25-.35-.37 0 .23.04.14.04.37 0zm-.48 0c.04-.27.06-.49.04-.54-.06-.09-.15-.16-.18-.01l-.11.55c.18.04.12.04.25 0zm-.35 0c.03-.13.22-.78.13-.87-.07-.07-.17-.08-.21.14-.02.11-.09.42-.17.73.1.05.05.04.25 0zm-.34 0l.05-.15s-.03.06-.07.15h.02zm.21-1.02c-.03-.17-.47.88-.54 1.02h.12c.11-.19.19-.35.22-.42.1-.2.33-.5.2-.6zm-.75 1.02c.2-.27.42-.59.5-.81.12-.34.22-.35.1-.51 0 0-.15-.16-.28.13-.1.22-.35.76-.67 1.19.18.04.11.03.35 0zm-.16-.84c.26-.32.48-.83.48-.83.04-.09-.08-.15-.17-.25-.1-.1-.22.22-.29.34-.2.37-.36.66-.71.95-.29.23-.34.34-.47.63.09.01.24.03.34 0 .2-.08.82-.8.82-.84zm-.84-1.34c.05.12.65.04.65.04-.1.31-.83.86-.88 1.19.72-.11 1.01-.57 1.17-.86.16-.3.08-.42-.08-.59-.22-.22-.52.11-.86.22zm.27-.7l-.15-.18-.51.41.66-.23zm4.53 2.88l-.01-.08v.08h.01zm-.07 0v-.09l-.01.09h.01zm-1.84-3.7s-.43 1.14-.71 1.67l.22.21c.08-.26.49-1.57.49-1.88zm-.4-.94c-.16.52-.84 1.67-.99 1.93l.27.27c.37-.75.63-1.82.72-2.2zm.76-.17c-.07.16-.29 1.01-.29 1.01-.09.67-.46 1.79-.53 2.01l.22.22.6-3.24zm-.66 1.77c.46-1.07.78-2.54 1.03-3.83.13-.67-.19-.63-.19-.63-.2 0-.16.37-.2.59-.36 1.94-.67 2.73-1.41 4.52l.32.32c.1-.21.34-.72.45-.97zm.81-2.21l-.15.59-.57 3.12.36.36c.06-.76.36-4.07.36-4.07zm-2.15 2.12c.03.24-.02.15.22.38.17-.27.76-1.28.76-1.64 0 0-.58.98-.98 1.26zm3.72 3.13c-.04-.25-.08-.51-.14-.77L7.21 9.28c.04.66.21 3.04.21 3.98 0 .52-.01 1.3-.01 1.68l.33.35c.1.05.38.01.49 0l.06-.39h.07l.06.39h.12zm-1.19-.42c.02-1.3.01-3.09-.14-4.36-.06-.48-.15-.86-.15-.69l-.4 4.34.69.71zm-2.82-3.03c.94-.63 1.77-2.12 1.77-2.12.46-.88.51-1.86.51-1.86 0-.08-.17-.09-.21-.05-.04.04-.11.34-.17.56-.06.22-.3.96-.45 1.29-.33.75-1.14 1.57-1.63 2l.18.18zm1.21-1.96c.3-.3.5-1.17.5-1.17-.62 1.43-1.81 1.64-1.81 1.64.15.02 1-.16 1.31-.47zm-2.22-.23s-.24.66.42.66c0 0 .6.08 1.36-.68 0 0 .97-.66 1.2-1.83 0 0-.31-.09-.4 0-.09.1-.55.14-.71.05 0 0-.61 1.52-.91 1.82-.29.3-.42.28-.55.28-.12 0-.34.01-.37-.34l-.04.04zm.44-.11c.31 0 .64-.47.87-.87.22-.4.38-.7.38-.7l.01-.12h-.1L4.45 8.9s-.32.56-.82.24c0 0 .02.4.33.4z"/><path d="M3.99 10.98c0 .04.01.07.02.1l-.73.63a.21.21 0 00-.11-.04l.82-.69z" class="fil2"/><path fill="#eaeceb" fill-rule="nonzero" d="M7.63 15.29c-.1-.11-.17-.19-.17-.19l-1.27-1.29-.07.01-.02-.12-1.32-1.34s-.22-.16-.31-.11l2.72 3.04h.44zm-4.22-3.34c0-.06-.01-.11-.04-.16l.7-.61c.06.05.13.08.2.08.16 0 .29-.13.29-.28 0-.16-.13-.28-.29-.28-.04 0-.09.01-.13.03a.55.55 0 00-.09.07l-1.07.91a.12.12 0 00-.05.05c-.05.05-.08.11-.08.19 0 .15.13.28.28.28.16 0 .28-.13.28-.28zm.86-.86c-.06 0-.11-.05-.11-.11 0-.03.01-.06.03-.08l.02-.01c.02-.02.04-.02.06-.02.07 0 .12.05.12.11s-.05.11-.12.11zm-.16-.23c.01-.02.07-.07.08-.07.01-.01.03-.01.04-.01.02-.01.03-.01.04-.01.06 0 .11.03.15.06.04.04.06.09.06.15 0 .05-.02.11-.06.14a.204.204 0 01-.29 0c-.04-.03-.06-.09-.06-.14 0-.02 0-.04.01-.06 0-.02.01-.04.02-.06h.01zm.1-.04l-.08.07c-.01.01-.02.02-.02.04 0 .01-.01.03-.01.05 0 .04.02.09.05.12.03.03.08.05.12.05.05 0 .09-.02.12-.05.04-.03.05-.08.05-.12 0-.05-.01-.09-.05-.12a.166.166 0 00-.12-.05h-.03c-.01 0-.02.01-.03.01zm-1.08 1.24c-.06 0-.11-.05-.11-.11 0-.03.01-.06.03-.08l.02-.01c.02-.02.04-.02.06-.02.06 0 .11.05.11.11s-.05.11-.11.11zm0 .09c-.05 0-.11-.02-.14-.06-.04-.03-.06-.09-.06-.14 0-.03 0-.06.01-.08.01-.02.03-.05.05-.07 0 0 .02-.02.03-.02.01-.01.03-.02.05-.03.02-.01.04-.01.06-.01a.204.204 0 01.21.21c0 .05-.02.11-.06.14-.04.04-.09.06-.15.06zm-.12-.08c.03.03.08.05.12.05.05 0 .09-.02.12-.05.03-.03.05-.08.05-.12 0-.05-.02-.09-.05-.12a.166.166 0 00-.12-.05h-.05c-.01.01-.03.02-.04.03l-.03.02c-.02.01-.03.03-.04.05 0 .02-.01.04-.01.07 0 .04.02.09.05.12zm1-.69s-.18-.06-.25.12l.25.26v-.38zm.28.53h.17l-.17-.14v.14zm2.81 3.38l-.03-.04-2.68-3-.08-.01v.39l.92 1.04h.12l.01.18 1.25 1.44h.49z"/></g></svg>