<?xml version="1.0" encoding="UTF-8"?><!DOCTYPE svg PUBLIC "-//W3C//DTD SVG 1.1//EN" "http://www.w3.org/Graphics/SVG/1.1/DTD/svg11.dtd"><!--Creator: CorelDRAW 2021 (64-Bit)--><svg xmlns="http://www.w3.org/2000/svg" xml:space="preserve" width="350px" height="71px" version="1.1" style="shape-rendering:geometricPrecision;text-rendering:geometricPrecision;image-rendering:optimizeQuality;fill-rule:evenodd;clip-rule:evenodd" viewBox="0 0 93.34 19.01" xmlns:xlink="http://www.w3.org/1999/xlink" xmlns:xodm="http://www.corel.com/coreldraw/odm/2003"><defs><style type="text/css"><![CDATA[
    .fil2 {fill:#FEFEFE}
    .fil0 {fill:black}
    .fil1 {fill:yellow}
    .fil4 {fill:#04045E;fill-rule:nonzero}
    .fil3 {fill:red;fill-rule:nonzero}
    .fil5 {fill:red;fill-rule:nonzero}
   ]]></style></defs><g id="Слой_x0020_1"><metadata id="CorelCorpID_0Corel-Layer"/><path class="fil0" d="M19.17 0.08l-2.63 2.71 -2.71 -1.15c-0.03,-0.01 -0.06,0 -0.08,0.02 -0.02,0.02 -0.02,0.05 0,0.08l2.61 4.66c1.87,0 4.11,0 5.99,0l2.61 -4.66c0.02,-0.03 0.01,-0.06 -0.01,-0.08 -0.01,-0.02 -0.04,-0.03 -0.07,-0.02l-2.71 1.15 -2.63 -2.71c-0.05,-0.05 -0.11,-0.08 -0.19,-0.08 -0.07,0 -0.13,0.03 -0.18,0.08zm13.83 17.74l-0.45 0c-0.03,0 -0.06,0.03 -0.06,0.06l0 0.45c0,0.04 0.03,0.07 0.06,0.07l0.45 0c0.04,0 0.06,-0.03 0.06,-0.07l0 -0.45c0,-0.03 -0.02,-0.06 -0.06,-0.06zm-0.89 0l-0.45 0c-0.03,0 -0.06,0.03 -0.06,0.06l0 0.45c0,0.04 0.03,0.07 0.06,0.07l0.45 0c0.04,0 0.07,-0.03 0.07,-0.07l0 -0.45c0,-0.03 -0.03,-0.06 -0.07,-0.06zm-1.78 0l-0.45 0c-0.03,0 -0.06,0.03 -0.06,0.06l0 0.45c0,0.04 0.03,0.07 0.06,0.07l0.45 0c0.04,0 0.07,-0.03 0.07,-0.07l0 -0.45c0,-0.03 -0.03,-0.06 -0.07,-0.06zm-0.89 0l-0.45 0c-0.03,0 -0.06,0.03 -0.06,0.06l0 0.45c0,0.04 0.03,0.07 0.06,0.07l0.45 0c0.04,0 0.07,-0.03 0.07,-0.07l0 -0.45c0,-0.03 -0.03,-0.06 -0.07,-0.06zm-4.45 -2.67l-0.44 0c-0.04,0 -0.07,0.03 -0.07,0.07l0 0.44c0,0.04 0.03,0.07 0.07,0.07l0.44 0c0.04,0 0.07,-0.03 0.07,-0.07l0 -0.44c0,-0.04 -0.03,-0.07 -0.07,-0.07zm-0.89 -1.78l-0.44 0c-0.04,0 -0.07,0.03 -0.07,0.07l0 0.44c0,0.04 0.03,0.07 0.07,0.07l0.44 0c0.04,0 0.07,-0.03 0.07,-0.07l0 -0.44c0,-0.04 -0.03,-0.07 -0.07,-0.07zm0.89 -5.34l-0.44 0c-0.04,0 -0.07,0.03 -0.07,0.07l0 0.44c0,0.04 0.03,0.07 0.07,0.07l0.44 0c0.04,0 0.07,-0.03 0.07,-0.07l0 -0.44c0,-0.04 -0.03,-0.07 -0.07,-0.07zm-4.53 9.79l0.45 0c0.04,0 0.07,0.03 0.07,0.06l0 0.45c0,0.04 -0.03,0.07 -0.07,0.07l-0.45 0c-0.03,0 -0.06,-0.03 -0.06,-0.07l0 -0.45c0,-0.03 0.03,-0.06 0.06,-0.06zm-2.66 0l0.44 0c0.04,0 0.07,0.03 0.07,0.06l0 0.45c0,0.04 -0.03,0.07 -0.07,0.07l-0.44 0c-0.04,0 -0.07,-0.03 -0.07,-0.07l0 -0.45c0,-0.03 0.03,-0.06 0.07,-0.06zm2.66 -0.89l0.45 0c0.04,0 0.07,0.03 0.07,0.06l0 0.45c0,0.04 -0.03,0.07 -0.07,0.07l-0.45 0c-0.03,0 -0.06,-0.03 -0.06,-0.07l0 -0.45c0,-0.03 0.03,-0.06 0.06,-0.06zm-0.88 0l0.44 0c0.04,0 0.07,0.03 0.07,0.06l0 0.45c0,0.04 -0.03,0.07 -0.07,0.07l-0.44 0c-0.04,0 -0.07,-0.03 -0.07,-0.07l0 -0.45c0,-0.03 0.03,-0.06 0.07,-0.06zm-0.89 0l0.44 0c0.04,0 0.07,0.03 0.07,0.06l0 0.45c0,0.04 -0.03,0.07 -0.07,0.07l-0.44 0c-0.04,0 -0.07,-0.03 -0.07,-0.07l0 -0.45c0,-0.03 0.03,-0.06 0.07,-0.06zm-0.89 0l0.44 0c0.04,0 0.07,0.03 0.07,0.06l0 0.45c0,0.04 -0.03,0.07 -0.07,0.07l-0.44 0c-0.04,0 -0.07,-0.03 -0.07,-0.07l0 -0.45c0,-0.03 0.03,-0.06 0.07,-0.06zm2.66 -0.89l0.45 0c0.04,0 0.07,0.03 0.07,0.07l0 0.44c0,0.04 -0.03,0.07 -0.07,0.07l-0.45 0c-0.03,0 -0.06,-0.03 -0.06,-0.07l0 -0.44c0,-0.04 0.03,-0.07 0.06,-0.07zm0 -0.89l0.45 0c0.04,0 0.07,0.03 0.07,0.07l0 0.44c0,0.04 -0.03,0.07 -0.07,0.07l-0.45 0c-0.03,0 -0.06,-0.03 -0.06,-0.07l0 -0.44c0,-0.04 0.03,-0.07 0.06,-0.07zm-0.88 0l0.44 0c0.04,0 0.07,0.03 0.07,0.07l0 0.44c0,0.04 -0.03,0.07 -0.07,0.07l-0.44 0c-0.04,0 -0.07,-0.03 -0.07,-0.07l0 -0.44c0,-0.04 0.03,-0.07 0.07,-0.07zm-0.89 0l0.44 0c0.04,0 0.07,0.03 0.07,0.07l0 0.44c0,0.04 -0.03,0.07 -0.07,0.07l-0.44 0c-0.04,0 -0.07,-0.03 -0.07,-0.07l0 -0.44c0,-0.04 0.03,-0.07 0.07,-0.07zm-0.89 0l0.44 0c0.04,0 0.07,0.03 0.07,0.07l0 0.44c0,0.04 -0.03,0.07 -0.07,0.07l-0.44 0c-0.04,0 -0.07,-0.03 -0.07,-0.07l0 -0.44c0,-0.04 0.03,-0.07 0.07,-0.07zm1.78 -0.89l0.44 0c0.04,0 0.07,0.03 0.07,0.07l0 0.44c0,0.04 -0.03,0.07 -0.07,0.07l-0.44 0c-0.04,0 -0.07,-0.03 -0.07,-0.07l0 -0.44c0,-0.04 0.03,-0.07 0.07,-0.07zm-0.89 0l0.44 0c0.04,0 0.07,0.03 0.07,0.07l0 0.44c0,0.04 -0.03,0.07 -0.07,0.07l-0.44 0c-0.04,0 -0.07,-0.03 -0.07,-0.07l0 -0.44c0,-0.04 0.03,-0.07 0.07,-0.07zm-0.89 0l0.44 0c0.04,0 0.07,0.03 0.07,0.07l0 0.44c0,0.04 -0.03,0.07 -0.07,0.07l-0.44 0c-0.04,0 -0.07,-0.03 -0.07,-0.07l0 -0.44c0,-0.04 0.03,-0.07 0.07,-0.07zm2.66 -0.89l0.45 0c0.04,0 0.07,0.03 0.07,0.07l0 0.44c0,0.04 -0.03,0.07 -0.07,0.07l-0.45 0c-0.03,0 -0.06,-0.03 -0.06,-0.07l0 -0.44c0,-0.04 0.03,-0.07 0.06,-0.07zm-2.66 0l0.44 0c0.04,0 0.07,0.03 0.07,0.07l0 0.44c0,0.04 -0.03,0.07 -0.07,0.07l-0.44 0c-0.04,0 -0.07,-0.03 -0.07,-0.07l0 -0.44c0,-0.04 0.03,-0.07 0.07,-0.07zm2.66 -0.89l0.45 0c0.04,0 0.07,0.03 0.07,0.07l0 0.44c0,0.04 -0.03,0.07 -0.07,0.07l-0.45 0c-0.03,0 -0.06,-0.03 -0.06,-0.07l0 -0.44c0,-0.04 0.03,-0.07 0.06,-0.07zm-0.88 0l0.44 0c0.04,0 0.07,0.03 0.07,0.07l0 0.44c0,0.04 -0.03,0.07 -0.07,0.07l-0.44 0c-0.04,0 -0.07,-0.03 -0.07,-0.07l0 -0.44c0,-0.04 0.03,-0.07 0.07,-0.07zm-0.89 0l0.44 0c0.04,0 0.07,0.03 0.07,0.07l0 0.44c0,0.04 -0.03,0.07 -0.07,0.07l-0.44 0c-0.04,0 -0.07,-0.03 -0.07,-0.07l0 -0.44c0,-0.04 0.03,-0.07 0.07,-0.07zm-0.89 0l0.44 0c0.04,0 0.07,0.03 0.07,0.07l0 0.44c0,0.04 -0.03,0.07 -0.07,0.07l-0.44 0c-0.04,0 -0.07,-0.03 -0.07,-0.07l0 -0.44c0,-0.04 0.03,-0.07 0.07,-0.07zm1.78 -0.89l0.44 0c0.04,0 0.07,0.03 0.07,0.07l0 0.44c0,0.04 -0.03,0.07 -0.07,0.07l-0.44 0c-0.04,0 -0.07,-0.03 -0.07,-0.07l0 -0.44c0,-0.04 0.03,-0.07 0.07,-0.07zm-1.78 0l0.44 0c0.04,0 0.07,0.03 0.07,0.07l0 0.44c0,0.04 -0.03,0.07 -0.07,0.07l-0.44 0c-0.04,0 -0.07,-0.03 -0.07,-0.07l0 -0.44c0,-0.04 0.03,-0.07 0.07,-0.07zm2.66 -0.89l0.45 0c0.04,0 0.07,0.03 0.07,0.07l0 0.44c0,0.04 -0.03,0.07 -0.07,0.07l-0.45 0c-0.03,0 -0.06,-0.03 -0.06,-0.07l0 -0.44c0,-0.04 0.03,-0.07 0.06,-0.07zm-0.88 0l0.44 0c0.04,0 0.07,0.03 0.07,0.07l0 0.44c0,0.04 -0.03,0.07 -0.07,0.07l-0.44 0c-0.04,0 -0.07,-0.03 -0.07,-0.07l0 -0.44c0,-0.04 0.03,-0.07 0.07,-0.07zm-0.89 0l0.44 0c0.04,0 0.07,0.03 0.07,0.07l0 0.44c0,0.04 -0.03,0.07 -0.07,0.07l-0.44 0c-0.04,0 -0.07,-0.03 -0.07,-0.07l0 -0.44c0,-0.04 0.03,-0.07 0.07,-0.07zm-0.89 0l0.44 0c0.04,0 0.07,0.03 0.07,0.07l0 0.44c0,0.04 -0.03,0.07 -0.07,0.07l-0.44 0c-0.04,0 -0.07,-0.03 -0.07,-0.07l0 -0.44c0,-0.04 0.03,-0.07 0.07,-0.07zm2.66 -0.89l0.45 0c0.04,0 0.07,0.03 0.07,0.07l0 0.44c0,0.04 -0.03,0.07 -0.07,0.07l-0.45 0c-0.03,0 -0.06,-0.03 -0.06,-0.07l0 -0.44c0,-0.04 0.03,-0.07 0.06,-0.07zm-0.88 0l0.44 0c0.04,0 0.07,0.03 0.07,0.07l0 0.44c0,0.04 -0.03,0.07 -0.07,0.07l-0.44 0c-0.04,0 -0.07,-0.03 -0.07,-0.07l0 -0.44c0,-0.04 0.03,-0.07 0.07,-0.07zm-1.78 0l0.44 0c0.04,0 0.07,0.03 0.07,0.07l0 0.44c0,0.04 -0.03,0.07 -0.07,0.07l-0.44 0c-0.04,0 -0.07,-0.03 -0.07,-0.07l0 -0.44c0,-0.04 0.03,-0.07 0.07,-0.07zm2.66 -0.89l0.45 0c0.04,0 0.07,0.03 0.07,0.07l0 0.44c0,0.04 -0.03,0.07 -0.07,0.07l-0.45 0c-0.03,0 -0.06,-0.03 -0.06,-0.07l0 -0.44c0,-0.04 0.03,-0.07 0.06,-0.07zm-0.88 0l0.44 0c0.04,0 0.07,0.03 0.07,0.07l0 0.44c0,0.04 -0.03,0.07 -0.07,0.07l-0.44 0c-0.04,0 -0.07,-0.03 -0.07,-0.07l0 -0.44c0,-0.04 0.03,-0.07 0.07,-0.07zm-0.89 0l0.44 0c0.04,0 0.07,0.03 0.07,0.07l0 0.44c0,0.04 -0.03,0.07 -0.07,0.07l-0.44 0c-0.04,0 -0.07,-0.03 -0.07,-0.07l0 -0.44c0,-0.04 0.03,-0.07 0.07,-0.07zm0.89 -0.89l0.44 0c0.04,0 0.07,0.03 0.07,0.07l0 0.44c0,0.04 -0.03,0.07 -0.07,0.07l-0.44 0c-0.04,0 -0.07,-0.03 -0.07,-0.07l0 -0.44c0,-0.04 0.03,-0.07 0.07,-0.07zm-0.89 0l0.44 0c0.04,0 0.07,0.03 0.07,0.07l0 0.44c0,0.04 -0.03,0.07 -0.07,0.07l-0.44 0c-0.04,0 -0.07,-0.03 -0.07,-0.07l0 -0.44c0,-0.04 0.03,-0.07 0.07,-0.07zm-0.89 0l0.44 0c0.04,0 0.07,0.03 0.07,0.07l0 0.44c0,0.04 -0.03,0.07 -0.07,0.07l-0.44 0c-0.04,0 -0.07,-0.03 -0.07,-0.07l0 -0.44c0,-0.04 0.03,-0.07 0.07,-0.07zm5.41 0l-0.44 0c-0.04,0 -0.07,0.03 -0.07,0.07l0 0.44c0,0.04 0.03,0.07 0.07,0.07l0.44 0c0.04,0 0.07,-0.03 0.07,-0.07l0 -0.44c0,-0.04 -0.03,-0.07 -0.07,-0.07zm0.89 0l-0.44 0c-0.04,0 -0.07,0.03 -0.07,0.07l0 0.44c0,0.04 0.03,0.07 0.07,0.07l0.44 0c0.04,0 0.07,-0.03 0.07,-0.07l0 -0.44c0,-0.04 -0.03,-0.07 -0.07,-0.07zm-0.89 0.89l-0.44 0c-0.04,0 -0.07,0.03 -0.07,0.07l0 0.44c0,0.04 0.03,0.07 0.07,0.07l0.44 0c0.04,0 0.07,-0.03 0.07,-0.07l0 -0.44c0,-0.04 -0.03,-0.07 -0.07,-0.07zm0 8.9l-0.44 0c-0.04,0 -0.07,0.03 -0.07,0.06l0 0.45c0,0.04 0.03,0.07 0.07,0.07l0.44 0c0.04,0 0.07,-0.03 0.07,-0.07l0 -0.45c0,-0.03 -0.03,-0.06 -0.07,-0.06zm3.56 0l-0.44 0c-0.04,0 -0.07,0.03 -0.07,0.06l0 0.45c0,0.04 0.03,0.07 0.07,0.07l0.44 0c0.04,0 0.07,-0.03 0.07,-0.07l0 -0.45c0,-0.03 -0.03,-0.06 -0.07,-0.06zm-3.56 -0.89l-0.44 0c-0.04,0 -0.07,0.03 -0.07,0.06l0 0.45c0,0.04 0.03,0.07 0.07,0.07l0.44 0c0.04,0 0.07,-0.03 0.07,-0.07l0 -0.45c0,-0.03 -0.03,-0.06 -0.07,-0.06zm0.89 0l-0.44 0c-0.04,0 -0.07,0.03 -0.07,0.06l0 0.45c0,0.04 0.03,0.07 0.07,0.07l0.44 0c0.04,0 0.07,-0.03 0.07,-0.07l0 -0.45c0,-0.03 -0.03,-0.06 -0.07,-0.06zm0.89 0l-0.44 0c-0.04,0 -0.07,0.03 -0.07,0.06l0 0.45c0,0.04 0.03,0.07 0.07,0.07l0.44 0c0.04,0 0.07,-0.03 0.07,-0.07l0 -0.45c0,-0.03 -0.03,-0.06 -0.07,-0.06zm-1.78 -0.89l-0.44 0c-0.04,0 -0.07,0.03 -0.07,0.07l0 0.44c0,0.04 0.03,0.07 0.07,0.07l0.44 0c0.04,0 0.07,-0.03 0.07,-0.07l0 -0.44c0,-0.04 -0.03,-0.07 -0.07,-0.07zm1.78 0l-0.44 0c-0.04,0 -0.07,0.03 -0.07,0.07l0 0.44c0,0.04 0.03,0.07 0.07,0.07l0.44 0c0.04,0 0.07,-0.03 0.07,-0.07l0 -0.44c0,-0.04 -0.03,-0.07 -0.07,-0.07zm-1.78 -1.78l-0.44 0c-0.04,0 -0.07,0.03 -0.07,0.07l0 0.44c0,0.04 0.03,0.07 0.07,0.07l0.44 0c0.04,0 0.07,-0.03 0.07,-0.07l0 -0.44c0,-0.04 -0.03,-0.07 -0.07,-0.07zm0 -0.89l-0.44 0c-0.04,0 -0.07,0.03 -0.07,0.07l0 0.44c0,0.04 0.03,0.07 0.07,0.07l0.44 0c0.04,0 0.07,-0.03 0.07,-0.07l0 -0.44c0,-0.04 -0.03,-0.07 -0.07,-0.07zm0 -0.89l-0.44 0c-0.04,0 -0.07,0.03 -0.07,0.07l0 0.44c0,0.04 0.03,0.07 0.07,0.07l0.44 0c0.04,0 0.07,-0.03 0.07,-0.07l0 -0.44c0,-0.04 -0.03,-0.07 -0.07,-0.07zm0.89 0l-0.44 0c-0.04,0 -0.07,0.03 -0.07,0.07l0 0.44c0,0.04 0.03,0.07 0.07,0.07l0.44 0c0.04,0 0.07,-0.03 0.07,-0.07l0 -0.44c0,-0.04 -0.03,-0.07 -0.07,-0.07zm-0.89 -0.89l-0.44 0c-0.04,0 -0.07,0.03 -0.07,0.07l0 0.44c0,0.04 0.03,0.07 0.07,0.07l0.44 0c0.04,0 0.07,-0.03 0.07,-0.07l0 -0.44c0,-0.04 -0.03,-0.07 -0.07,-0.07zm0 -0.89l-0.44 0c-0.04,0 -0.07,0.03 -0.07,0.07l0 0.44c0,0.04 0.03,0.07 0.07,0.07l0.44 0c0.04,0 0.07,-0.03 0.07,-0.07l0 -0.44c0,-0.04 -0.03,-0.07 -0.07,-0.07zm0.89 0l-0.44 0c-0.04,0 -0.07,0.03 -0.07,0.07l0 0.44c0,0.04 0.03,0.07 0.07,0.07l0.44 0c0.04,0 0.07,-0.03 0.07,-0.07l0 -0.44c0,-0.04 -0.03,-0.07 -0.07,-0.07zm-0.89 -0.89l-0.44 0c-0.04,0 -0.07,0.03 -0.07,0.07l0 0.44c0,0.04 0.03,0.07 0.07,0.07l0.44 0c0.04,0 0.07,-0.03 0.07,-0.07l0 -0.44c0,-0.04 -0.03,-0.07 -0.07,-0.07zm0.89 0l-0.44 0c-0.04,0 -0.07,0.03 -0.07,0.07l0 0.44c0,0.04 0.03,0.07 0.07,0.07l0.44 0c0.04,0 0.07,-0.03 0.07,-0.07l0 -0.44c0,-0.04 -0.03,-0.07 -0.07,-0.07zm0.89 0l-0.44 0c-0.04,0 -0.07,0.03 -0.07,0.07l0 0.44c0,0.04 0.03,0.07 0.07,0.07l0.44 0c0.04,0 0.07,-0.03 0.07,-0.07l0 -0.44c0,-0.04 -0.03,-0.07 -0.07,-0.07zm0.89 0l-0.44 0c-0.04,0 -0.07,0.03 -0.07,0.07l0 0.44c0,0.04 0.03,0.07 0.07,0.07l0.44 0c0.04,0 0.07,-0.03 0.07,-0.07l0 -0.44c0,-0.04 -0.03,-0.07 -0.07,-0.07zm0.89 0.89l-0.44 0c-0.04,0 -0.07,0.03 -0.07,0.07l0 0.44c0,0.04 0.03,0.07 0.07,0.07l0.44 0c0.04,0 0.07,-0.03 0.07,-0.07l0 -0.44c0,-0.04 -0.03,-0.07 -0.07,-0.07zm-16.62 7.12l0.45 0c0.04,0 0.07,0.03 0.07,0.06l0 0.45c0,0.04 -0.03,0.07 -0.07,0.07l-0.45 0c-0.03,0 -0.06,-0.03 -0.06,-0.07l0 -0.45c0,-0.03 0.03,-0.06 0.06,-0.06zm0 -1.78l0.45 0c0.04,0 0.07,0.03 0.07,0.07l0 0.44c0,0.04 -0.03,0.07 -0.07,0.07l-0.45 0c-0.03,0 -0.06,-0.03 -0.06,-0.07l0 -0.44c0,-0.04 0.03,-0.07 0.06,-0.07zm5.34 -8.01l0.45 0c0.04,0 0.06,0.03 0.06,0.07l0 0.44c0,0.04 -0.02,0.07 -0.06,0.07l-0.45 0c-0.03,0 -0.06,-0.03 -0.06,-0.07l0 -0.44c0,-0.04 0.03,-0.07 0.06,-0.07zm-0.89 0l0.45 0c0.04,0 0.06,0.03 0.06,0.07l0 0.44c0,0.04 -0.02,0.07 -0.06,0.07l-0.45 0c-0.03,0 -0.06,-0.03 -0.06,-0.07l0 -0.44c0,-0.04 0.03,-0.07 0.06,-0.07zm0.89 0.89l0.45 0c0.04,0 0.06,0.03 0.06,0.07l0 0.44c0,0.04 -0.02,0.07 -0.06,0.07l-0.45 0c-0.03,0 -0.06,-0.03 -0.06,-0.07l0 -0.44c0,-0.04 0.03,-0.07 0.06,-0.07zm0 8.9l0.45 0c0.04,0 0.06,0.03 0.06,0.06l0 0.45c0,0.04 -0.02,0.07 -0.06,0.07l-0.45 0c-0.03,0 -0.06,-0.03 -0.06,-0.07l0 -0.45c0,-0.03 0.03,-0.06 0.06,-0.06zm0 -0.89l0.45 0c0.04,0 0.06,0.03 0.06,0.06l0 0.45c0,0.04 -0.02,0.07 -0.06,0.07l-0.45 0c-0.03,0 -0.06,-0.03 -0.06,-0.07l0 -0.45c0,-0.03 0.03,-0.06 0.06,-0.06zm-0.89 0l0.45 0c0.04,0 0.06,0.03 0.06,0.06l0 0.45c0,0.04 -0.02,0.07 -0.06,0.07l-0.45 0c-0.03,0 -0.06,-0.03 -0.06,-0.07l0 -0.45c0,-0.03 0.03,-0.06 0.06,-0.06zm-0.89 0l0.45 0c0.04,0 0.07,0.03 0.07,0.06l0 0.45c0,0.04 -0.03,0.07 -0.07,0.07l-0.45 0c-0.03,0 -0.06,-0.03 -0.06,-0.07l0 -0.45c0,-0.03 0.03,-0.06 0.06,-0.06zm-0.89 0l0.45 0c0.04,0 0.06,0.03 0.06,0.06l0 0.45c0,0.04 -0.02,0.07 -0.06,0.07l-0.45 0c-0.03,0 -0.06,-0.03 -0.06,-0.07l0 -0.45c0,-0.03 0.03,-0.06 0.06,-0.06zm-0.89 0l0.45 0c0.04,0 0.07,0.03 0.07,0.06l0 0.45c0,0.04 -0.03,0.07 -0.07,0.07l-0.45 0c-0.03,0 -0.06,-0.03 -0.06,-0.07l0 -0.45c0,-0.03 0.03,-0.06 0.06,-0.06zm3.56 -0.89l0.45 0c0.04,0 0.06,0.03 0.06,0.07l0 0.44c0,0.04 -0.02,0.07 -0.06,0.07l-0.45 0c-0.03,0 -0.06,-0.03 -0.06,-0.07l0 -0.44c0,-0.04 0.03,-0.07 0.06,-0.07zm-0.89 0l0.45 0c0.04,0 0.06,0.03 0.06,0.07l0 0.44c0,0.04 -0.02,0.07 -0.06,0.07l-0.45 0c-0.03,0 -0.06,-0.03 -0.06,-0.07l0 -0.44c0,-0.04 0.03,-0.07 0.06,-0.07zm-1.78 0l0.45 0c0.04,0 0.06,0.03 0.06,0.07l0 0.44c0,0.04 -0.02,0.07 -0.06,0.07l-0.45 0c-0.03,0 -0.06,-0.03 -0.06,-0.07l0 -0.44c0,-0.04 0.03,-0.07 0.06,-0.07zm-0.89 0l0.45 0c0.04,0 0.07,0.03 0.07,0.07l0 0.44c0,0.04 -0.03,0.07 -0.07,0.07l-0.45 0c-0.03,0 -0.06,-0.03 -0.06,-0.07l0 -0.44c0,-0.04 0.03,-0.07 0.06,-0.07zm3.56 -1.78l0.45 0c0.04,0 0.06,0.03 0.06,0.07l0 0.44c0,0.04 -0.02,0.07 -0.06,0.07l-0.45 0c-0.03,0 -0.06,-0.03 -0.06,-0.07l0 -0.44c0,-0.04 0.03,-0.07 0.06,-0.07zm-0.89 0l0.45 0c0.04,0 0.06,0.03 0.06,0.07l0 0.44c0,0.04 -0.02,0.07 -0.06,0.07l-0.45 0c-0.03,0 -0.06,-0.03 -0.06,-0.07l0 -0.44c0,-0.04 0.03,-0.07 0.06,-0.07zm0.89 -0.89l0.45 0c0.04,0 0.06,0.03 0.06,0.07l0 0.44c0,0.04 -0.02,0.07 -0.06,0.07l-0.45 0c-0.03,0 -0.06,-0.03 -0.06,-0.07l0 -0.44c0,-0.04 0.03,-0.07 0.06,-0.07zm-0.89 -0.89l0.45 0c0.04,0 0.06,0.03 0.06,0.07l0 0.44c0,0.04 -0.02,0.07 -0.06,0.07l-0.45 0c-0.03,0 -0.06,-0.03 -0.06,-0.07l0 -0.44c0,-0.04 0.03,-0.07 0.06,-0.07zm0.89 -0.89l0.45 0c0.04,0 0.06,0.03 0.06,0.07l0 0.44c0,0.04 -0.02,0.07 -0.06,0.07l-0.45 0c-0.03,0 -0.06,-0.03 -0.06,-0.07l0 -0.44c0,-0.04 0.03,-0.07 0.06,-0.07zm-1.78 -0.89l0.45 0c0.04,0 0.07,0.03 0.07,0.07l0 0.44c0,0.04 -0.03,0.07 -0.07,0.07l-0.45 0c-0.03,0 -0.06,-0.03 -0.06,-0.07l0 -0.44c0,-0.04 0.03,-0.07 0.06,-0.07zm1.78 -0.89l0.45 0c0.04,0 0.06,0.03 0.06,0.07l0 0.44c0,0.04 -0.02,0.07 -0.06,0.07l-0.45 0c-0.03,0 -0.06,-0.03 -0.06,-0.07l0 -0.44c0,-0.04 0.03,-0.07 0.06,-0.07zm-0.89 0l0.45 0c0.04,0 0.06,0.03 0.06,0.07l0 0.44c0,0.04 -0.02,0.07 -0.06,0.07l-0.45 0c-0.03,0 -0.06,-0.03 -0.06,-0.07l0 -0.44c0,-0.04 0.03,-0.07 0.06,-0.07zm-0.89 0l0.45 0c0.04,0 0.07,0.03 0.07,0.07l0 0.44c0,0.04 -0.03,0.07 -0.07,0.07l-0.45 0c-0.03,0 -0.06,-0.03 -0.06,-0.07l0 -0.44c0,-0.04 0.03,-0.07 0.06,-0.07zm-0.89 0l0.45 0c0.04,0 0.06,0.03 0.06,0.07l0 0.44c0,0.04 -0.02,0.07 -0.06,0.07l-0.45 0c-0.03,0 -0.06,-0.03 -0.06,-0.07l0 -0.44c0,-0.04 0.03,-0.07 0.06,-0.07zm-1.78 0l0.45 0c0.04,0 0.07,0.03 0.07,0.07l0 0.44c0,0.04 -0.03,0.07 -0.07,0.07l-0.45 0c-0.03,0 -0.06,-0.03 -0.06,-0.07l0 -0.44c0,-0.04 0.03,-0.07 0.06,-0.07zm-11.04 9.2l16.36 0 0 -11.59 -4.94 0 -4.8 4.88 6.81 0 0 2.01 -8.79 0 -4.64 4.7zm38.71 0l-16.36 0 0 -11.59 4.93 0 4.81 4.88 -6.81 0 0 2.01 8.79 0 4.64 4.7zm-17.38 -11.59l-3.95 0 0 11.59 3.95 0 0 -11.59z"/><path class="fil1" d="M11.93 9.81l0.45 0c0.04,0 0.07,0.03 0.07,0.07l0 0.44c0,0.04 -0.03,0.07 -0.07,0.07l-0.45 0c-0.03,0 -0.06,-0.03 -0.06,-0.07l0 -0.44c0,-0.04 0.03,-0.07 0.06,-0.07z"/><path class="fil1" d="M14.6 10.7l0.45 0c0.04,0 0.07,0.03 0.07,0.07l0 0.44c0,0.04 -0.03,0.07 -0.07,0.07l-0.45 0c-0.03,0 -0.06,-0.03 -0.06,-0.07l0 -0.44c0,-0.04 0.03,-0.07 0.06,-0.07z"/><path class="fil1" d="M15.49 10.7l0.45 0c0.04,0 0.06,0.03 0.06,0.07l0 0.44c0,0.04 -0.02,0.07 -0.06,0.07l-0.45 0c-0.03,0 -0.06,-0.03 -0.06,-0.07l0 -0.44c0,-0.04 0.03,-0.07 0.06,-0.07z"/><path class="fil1" d="M15.49 12.48l0.45 0c0.04,0 0.06,0.03 0.06,0.07l0 0.44c0,0.04 -0.02,0.07 -0.06,0.07l-0.45 0c-0.03,0 -0.06,-0.03 -0.06,-0.07l0 -0.44c0,-0.04 0.03,-0.07 0.06,-0.07z"/><path class="fil1" d="M14.6 15.15l0.45 0c0.04,0 0.07,0.03 0.07,0.07l0 0.44c0,0.04 -0.03,0.07 -0.07,0.07l-0.45 0c-0.03,0 -0.06,-0.03 -0.06,-0.07l0 -0.44c0,-0.04 0.03,-0.07 0.06,-0.07z"/><path class="fil1" d="M15.49 15.15l0.45 0c0.04,0 0.06,0.03 0.06,0.07l0 0.44c0,0.04 -0.02,0.07 -0.06,0.07l-0.45 0c-0.03,0 -0.06,-0.03 -0.06,-0.07l0 -0.44c0,-0.04 0.03,-0.07 0.06,-0.07z"/><path class="fil1" d="M11.04 16.04l0.45 0c0.04,0 0.07,0.03 0.07,0.07l0 0.44c0,0.04 -0.03,0.07 -0.07,0.07l-0.45 0c-0.03,0 -0.06,-0.03 -0.06,-0.07l0 -0.44c0,-0.04 0.03,-0.07 0.06,-0.07z"/><path class="fil1" d="M11.04 17.82l0.45 0c0.04,0 0.07,0.03 0.07,0.06l0 0.45c0,0.04 -0.03,0.07 -0.07,0.07l-0.45 0c-0.03,0 -0.06,-0.03 -0.06,-0.07l0 -0.45c0,-0.03 0.03,-0.06 0.06,-0.06z"/><path class="fil1" d="M14.6 17.82l0.45 0c0.04,0 0.07,0.03 0.07,0.06l0 0.45c0,0.04 -0.03,0.07 -0.07,0.07l-0.45 0c-0.03,0 -0.06,-0.03 -0.06,-0.07l0 -0.45c0,-0.03 0.03,-0.06 0.06,-0.06z"/><path class="fil1" d="M14.6 8.92l0.45 0c0.04,0 0.07,0.03 0.07,0.07l0 0.44c0,0.04 -0.03,0.07 -0.07,0.07l-0.45 0c-0.03,0 -0.06,-0.03 -0.06,-0.07l0 -0.44c0,-0.04 0.03,-0.07 0.06,-0.07z"/><path class="fil1" d="M9.27 16.04l0.44 0c0.04,0 0.07,0.03 0.07,0.07l0 0.44c0,0.04 -0.03,0.07 -0.07,0.07l-0.44 0c-0.04,0 -0.07,-0.03 -0.07,-0.07l0 -0.44c0,-0.04 0.03,-0.07 0.07,-0.07z"/><path class="fil1" d="M27.66 10.7l-0.44 0c-0.04,0 -0.07,0.03 -0.07,0.07l0 0.44c0,0.04 0.03,0.07 0.07,0.07l0.44 0c0.04,0 0.07,-0.03 0.07,-0.07l0 -0.44c0,-0.04 -0.03,-0.07 -0.07,-0.07z"/><path class="fil1" d="M24.99 10.7l-0.44 0c-0.04,0 -0.07,0.03 -0.07,0.07l0 0.44c0,0.04 0.03,0.07 0.07,0.07l0.44 0c0.04,0 0.07,-0.03 0.07,-0.07l0 -0.44c0,-0.04 -0.03,-0.07 -0.07,-0.07z"/><path class="fil1" d="M24.1 15.15l-0.44 0c-0.04,0 -0.07,0.03 -0.07,0.07l0 0.44c0,0.04 0.03,0.07 0.07,0.07l0.44 0c0.04,0 0.07,-0.03 0.07,-0.07l0 -0.44c0,-0.04 -0.03,-0.07 -0.07,-0.07z"/><path class="fil1" d="M23.21 15.15l-0.44 0c-0.04,0 -0.07,0.03 -0.07,0.07l0 0.44c0,0.04 0.03,0.07 0.07,0.07l0.44 0c0.04,0 0.07,-0.03 0.07,-0.07l0 -0.44c0,-0.04 -0.03,-0.07 -0.07,-0.07z"/><path class="fil1" d="M26.77 16.93l-0.44 0c-0.04,0 -0.07,0.03 -0.07,0.06l0 0.45c0,0.04 0.03,0.07 0.07,0.07l0.44 0c0.04,0 0.07,-0.03 0.07,-0.07l0 -0.45c0,-0.03 -0.03,-0.06 -0.07,-0.06z"/><path class="fil1" d="M25.88 16.93l-0.44 0c-0.04,0 -0.07,0.03 -0.07,0.06l0 0.45c0,0.04 0.03,0.07 0.07,0.07l0.44 0c0.04,0 0.07,-0.03 0.07,-0.07l0 -0.45c0,-0.03 -0.03,-0.06 -0.07,-0.06z"/><path class="fil1" d="M24.1 17.82l-0.44 0c-0.04,0 -0.07,0.03 -0.07,0.06l0 0.45c0,0.04 0.03,0.07 0.07,0.07l0.44 0c0.04,0 0.07,-0.03 0.07,-0.07l0 -0.45c0,-0.03 -0.03,-0.06 -0.07,-0.06z"/><path class="fil1" d="M24.1 8.92l-0.44 0c-0.04,0 -0.07,0.03 -0.07,0.07l0 0.44c0,0.04 0.03,0.07 0.07,0.07l0.44 0c0.04,0 0.07,-0.03 0.07,-0.07l0 -0.44c0,-0.04 -0.03,-0.07 -0.07,-0.07z"/><path class="fil1" d="M20.46 8.03l0.45 0c0.04,0 0.07,0.03 0.07,0.07l0 0.44c0,0.04 -0.03,0.07 -0.07,0.07l-0.45 0c-0.03,0 -0.06,-0.03 -0.06,-0.07l0 -0.44c0,-0.04 0.03,-0.07 0.06,-0.07z"/><path class="fil1" d="M17.8 8.92l0.44 0c0.04,0 0.07,0.03 0.07,0.07l0 0.44c0,0.04 -0.03,0.07 -0.07,0.07l-0.44 0c-0.04,0 -0.07,-0.03 -0.07,-0.07l0 -0.44c0,-0.04 0.03,-0.07 0.07,-0.07z"/><path class="fil1" d="M18.69 9.81l0.44 0c0.04,0 0.07,0.03 0.07,0.07l0 0.44c0,0.04 -0.03,0.07 -0.07,0.07l-0.44 0c-0.04,0 -0.07,-0.03 -0.07,-0.07l0 -0.44c0,-0.04 0.03,-0.07 0.07,-0.07z"/><path class="fil1" d="M18.69 11.59l0.44 0c0.04,0 0.07,0.03 0.07,0.07l0 0.44c0,0.04 -0.03,0.07 -0.07,0.07l-0.44 0c-0.04,0 -0.07,-0.03 -0.07,-0.07l0 -0.44c0,-0.04 0.03,-0.07 0.07,-0.07z"/><path class="fil1" d="M20.46 11.59l0.45 0c0.04,0 0.07,0.03 0.07,0.07l0 0.44c0,0.04 -0.03,0.07 -0.07,0.07l-0.45 0c-0.03,0 -0.06,-0.03 -0.06,-0.07l0 -0.44c0,-0.04 0.03,-0.07 0.06,-0.07z"/><path class="fil1" d="M18.69 13.37l0.44 0c0.04,0 0.07,0.03 0.07,0.07l0 0.44c0,0.04 -0.03,0.07 -0.07,0.07l-0.44 0c-0.04,0 -0.07,-0.03 -0.07,-0.07l0 -0.44c0,-0.04 0.03,-0.07 0.07,-0.07z"/><path class="fil1" d="M19.58 13.37l0.44 0c0.04,0 0.07,0.03 0.07,0.07l0 0.44c0,0.04 -0.03,0.07 -0.07,0.07l-0.44 0c-0.04,0 -0.07,-0.03 -0.07,-0.07l0 -0.44c0,-0.04 0.03,-0.07 0.07,-0.07z"/><path class="fil1" d="M20.46 14.26l0.45 0c0.04,0 0.07,0.03 0.07,0.07l0 0.44c0,0.04 -0.03,0.07 -0.07,0.07l-0.45 0c-0.03,0 -0.06,-0.03 -0.06,-0.07l0 -0.44c0,-0.04 0.03,-0.07 0.06,-0.07z"/><path class="fil1" d="M17.8 16.04l0.44 0c0.04,0 0.07,0.03 0.07,0.07l0 0.44c0,0.04 -0.03,0.07 -0.07,0.07l-0.44 0c-0.04,0 -0.07,-0.03 -0.07,-0.07l0 -0.44c0,-0.04 0.03,-0.07 0.07,-0.07z"/><path class="fil2" d="M18.69 16.04l0.44 0c0.04,0 0.07,0.03 0.07,0.07l0 0.44c0,0.04 -0.03,0.07 -0.07,0.07l-0.44 0c-0.04,0 -0.07,-0.03 -0.07,-0.07l0 -0.44c0,-0.04 0.03,-0.07 0.07,-0.07z"/><path class="fil1" d="M19.58 16.04l0.44 0c0.04,0 0.07,0.03 0.07,0.07l0 0.44c0,0.04 -0.03,0.07 -0.07,0.07l-0.44 0c-0.04,0 -0.07,-0.03 -0.07,-0.07l0 -0.44c0,-0.04 0.03,-0.07 0.07,-0.07z"/><path class="fil1" d="M18.69 17.82l0.44 0c0.04,0 0.07,0.03 0.07,0.06l0 0.45c0,0.04 -0.03,0.07 -0.07,0.07l-0.44 0c-0.04,0 -0.07,-0.03 -0.07,-0.07l0 -0.45c0,-0.03 0.03,-0.06 0.07,-0.06z"/><path class="fil1" d="M19.58 17.82l0.44 0c0.04,0 0.07,0.03 0.07,0.06l0 0.45c0,0.04 -0.03,0.07 -0.07,0.07l-0.44 0c-0.04,0 -0.07,-0.03 -0.07,-0.07l0 -0.45c0,-0.03 0.03,-0.06 0.07,-0.06z"/><path class="fil1" d="M25.88 8.03l-0.44 0c-0.04,0 -0.07,0.03 -0.07,0.07l0 0.44c0,0.04 0.03,0.07 0.07,0.07l0.44 0c0.04,0 0.07,-0.03 0.07,-0.07l0 -0.44c0,-0.04 -0.03,-0.07 -0.07,-0.07z"/><path class="fil1" d="M25.88 10.7l-0.44 0c-0.04,0 -0.07,0.03 -0.07,0.07l0 0.44c0,0.04 0.03,0.07 0.07,0.07l0.44 0c0.04,0 0.07,-0.03 0.07,-0.07l0 -0.44c0,-0.04 -0.03,-0.07 -0.07,-0.07z"/><path class="fil1" d="M25.88 15.15l-0.44 0c-0.04,0 -0.07,0.03 -0.07,0.07l0 0.44c0,0.04 0.03,0.07 0.07,0.07l0.44 0c0.04,0 0.07,-0.03 0.07,-0.07l0 -0.44c0,-0.04 -0.03,-0.07 -0.07,-0.07z"/><path class="fil1" d="M31.22 17.82l-0.45 0c-0.03,0 -0.06,0.03 -0.06,0.06l0 0.45c0,0.04 0.03,0.07 0.06,0.07l0.45 0c0.04,0 0.07,-0.03 0.07,-0.07l0 -0.45c0,-0.03 -0.03,-0.06 -0.07,-0.06z"/><path class="fil3" d="M38.28 6.32l0.24 0 -1 -2.2 -0.23 0 -1.01 2.2 0.24 0 0.27 -0.58 1.22 0 0.27 0.58zm-1.41 -0.77l0.53 -1.19 0.53 1.19 -1.06 0zm3.81 -1.43l-1.4 0 0 2.2 0.23 0 0 -2 1.17 0 0 -0.2zm0.97 2l0 -0.82 1.14 0 0 -0.19 -1.14 0 0 -0.79 1.28 0 0 -0.2 -1.51 0 0 2.2 1.56 0 0 -0.2 -1.33 0zm3.79 -2l0 0.98 -1.37 0 0 -0.98 -0.24 0 0 2.2 0.24 0 0 -1.01 1.37 0 0 1.01 0.23 0 0 -2.2 -0.23 0zm2.75 0l-1.77 0 0 0.2 0.77 0 0 2 0.23 0 0 -2 0.77 0 0 -0.2zm1.68 2.22c0.33,0 0.61,-0.11 0.81,-0.32l-0.15 -0.15c-0.18,0.19 -0.4,0.26 -0.65,0.26 -0.53,0 -0.93,-0.39 -0.93,-0.91 0,-0.52 0.4,-0.91 0.93,-0.91 0.25,0 0.47,0.08 0.65,0.26l0.15 -0.15c-0.2,-0.21 -0.48,-0.32 -0.8,-0.32 -0.67,0 -1.16,0.48 -1.16,1.12 0,0.65 0.49,1.12 1.15,1.12zm3.04 -2.22l-1.77 0 0 0.2 0.77 0 0 2 0.23 0 0 -2 0.77 0 0 -0.2zm2.06 1.07c0.22,-0.08 0.35,-0.25 0.35,-0.5 0,-0.37 -0.28,-0.57 -0.74,-0.57l-0.92 0 0 2.2 0.98 0c0.53,0 0.79,-0.21 0.79,-0.59 0,-0.29 -0.16,-0.48 -0.46,-0.54zm-1.08 -0.88l0.67 0c0.34,0 0.53,0.14 0.53,0.4 0,0.27 -0.19,0.41 -0.53,0.41l-0.67 0 0 -0.81zm0.75 1.83l-0.75 0 0 -0.84 0.75 0c0.37,0 0.56,0.13 0.56,0.41 0,0.29 -0.19,0.43 -0.56,0.43zm2.68 0.2c0.66,0 1.15,-0.47 1.15,-1.12 0,-0.64 -0.49,-1.12 -1.15,-1.12 -0.67,0 -1.16,0.48 -1.16,1.12 0,0.64 0.49,1.12 1.16,1.12zm0 -0.21c-0.53,0 -0.93,-0.38 -0.93,-0.91 0,-0.52 0.4,-0.91 0.93,-0.91 0.53,0 0.92,0.39 0.92,0.91 0,0.53 -0.39,0.91 -0.92,0.91zm4.48 -2.01l0 0.98 -1.37 0 0 -0.98 -0.24 0 0 2.2 0.24 0 0 -1.01 1.37 0 0 1.01 0.23 0 0 -2.2 -0.23 0zm1.55 2l0 -0.82 1.14 0 0 -0.19 -1.14 0 0 -0.79 1.27 0 0 -0.2 -1.5 0 0 2.2 1.55 0 0 -0.2 -1.32 0zm3.87 0l0 -2 -1.49 0 -0.02 0.72c-0.02,0.7 -0.09,1.26 -0.4,1.28l-0.11 0 -0.01 0.7 0.22 0 0 -0.5 1.92 0 0 0.5 0.22 0 0 -0.7 -0.33 0zm-1.3 -1.26l0.02 -0.54 1.05 0 0 1.8 -1.36 0c0.21,-0.16 0.27,-0.69 0.29,-1.26zm3.75 0.33c0.22,-0.08 0.36,-0.25 0.36,-0.5 0,-0.37 -0.29,-0.57 -0.75,-0.57l-0.92 0 0 2.2 0.98 0c0.53,0 0.8,-0.21 0.8,-0.59 0,-0.29 -0.16,-0.48 -0.47,-0.54zm-1.08 -0.88l0.67 0c0.34,0 0.53,0.14 0.53,0.4 0,0.27 -0.19,0.41 -0.53,0.41l-0.67 0 0 -0.81zm0.75 1.83l-0.75 0 0 -0.84 0.75 0c0.37,0 0.57,0.13 0.57,0.41 0,0.29 -0.2,0.43 -0.57,0.43zm1.72 0.18l0.21 0 1.41 -1.82 0 1.82 0.23 0 0 -2.2 -0.22 0 -1.4 1.83 0 -1.83 -0.23 0 0 2.2zm5.39 0l0.27 0 -0.76 -1.13 0.7 -1.07 -0.25 0 -0.63 0.99 -0.46 0 0 -0.99 -0.23 0 0 0.99 -0.46 0 -0.63 -0.99 -0.25 0 0.7 1.07 -0.76 1.13 0.27 0 0.67 -1.01 0.46 0 0 1.01 0.23 0 0 -1.01 0.46 0 0.67 1.01zm0.98 0l0.21 0 1.41 -1.82 0 1.82 0.23 0 0 -2.2 -0.21 0 -1.41 1.83 0 -1.83 -0.23 0 0 2.2zm5.02 -2.2l-0.94 1.63 -0.96 -1.63 -0.19 0 0 2.2 0.22 0 0 -1.75 0.87 1.47 0.11 0 0.86 -1.48 0 1.76 0.23 0 0 -2.2 -0.2 0zm2.24 2.22c0.66,0 1.16,-0.47 1.16,-1.12 0,-0.64 -0.5,-1.12 -1.16,-1.12 -0.66,0 -1.15,0.48 -1.15,1.12 0,0.64 0.49,1.12 1.15,1.12zm0 -0.21c-0.53,0 -0.93,-0.38 -0.93,-0.91 0,-0.52 0.4,-0.91 0.93,-0.91 0.53,0 0.92,0.39 0.92,0.91 0,0.53 -0.39,0.91 -0.92,0.91zm3.01 0.21c0.33,0 0.62,-0.11 0.81,-0.32l-0.15 -0.15c-0.18,0.19 -0.4,0.26 -0.65,0.26 -0.53,0 -0.93,-0.39 -0.93,-0.91 0,-0.52 0.4,-0.91 0.93,-0.91 0.25,0 0.47,0.08 0.65,0.26l0.15 -0.15c-0.19,-0.21 -0.48,-0.32 -0.8,-0.32 -0.67,0 -1.16,0.48 -1.16,1.12 0,0.65 0.49,1.12 1.15,1.12zm3.04 -2.22l-1.77 0 0 0.2 0.77 0 0 2 0.23 0 0 -2 0.77 0 0 -0.2zm0.75 2.2l0.21 0 1.41 -1.82 0 1.82 0.23 0 0 -2.2 -0.21 0 -1.41 1.83 0 -1.83 -0.23 0 0 2.2z"/><polygon class="fil4" points="46.13,16.27 48.21,16.27 45.89,12.19 48.07,8.47 46.16,8.47 44.4,11.62 43.25,11.62 43.25,8.47 41.48,8.47 41.48,11.62 40.28,11.62 38.54,8.47 36.63,8.47 38.82,12.19 36.49,16.27 38.57,16.27 40.32,13.13 41.48,13.13 41.48,16.27 43.25,16.27 43.25,13.13 44.38,13.13 "/><polygon class="fil4" points="49.08,16.27 50.79,16.27 54.51,11.2 54.51,16.27 56.29,16.27 56.29,8.47 54.6,8.47 50.88,13.55 50.88,8.47 49.08,8.47 "/><path class="fil4" d="M59.13 8.47l-0.11 3.16c-0.08,2 -0.31,3.16 -1.23,3.16 -0.11,0 -0.21,-0.02 -0.32,-0.05l-0.11 1.53c0.33,0.07 0.62,0.12 0.89,0.12 1.83,0 2.26,-1.76 2.36,-4.82l0.06 -1.63 2.67 0 0 6.33 1.78 0 0 -7.8 -5.99 0z"/><polygon class="fil4" points="72.11,16.27 74.16,16.27 71.54,12.23 74.09,8.47 72.18,8.47 70.13,11.62 68.84,11.62 68.84,8.47 67.05,8.47 67.05,16.27 68.84,16.27 68.84,13.13 70.09,13.13 "/><path class="fil5" d="M78.7 16.4c2.45,0 4.26,-1.7 4.26,-4.03 0,-2.33 -1.81,-4.03 -4.26,-4.03 -2.46,0 -4.27,1.71 -4.27,4.03 0,2.32 1.81,4.03 4.27,4.03zm0 -1.54c-1.39,0 -2.44,-1.01 -2.44,-2.49 0,-1.48 1.05,-2.5 2.44,-2.5 1.39,0 2.44,1.02 2.44,2.5 0,1.48 -1.05,2.49 -2.44,2.49z"/><polygon class="fil4" points="93.15,16.27 93.14,8.47 91.64,8.47 88.77,13.32 85.85,8.47 84.36,8.47 84.36,16.27 86.05,16.27 86.05,11.69 88.34,15.44 89.15,15.44 91.44,11.6 91.46,16.27 "/></g></svg>