<svg xmlns="http://www.w3.org/2000/svg" fill-rule="evenodd" clip-rule="evenodd" image-rendering="optimizeQuality" shape-rendering="geometricPrecision" text-rendering="geometricPrecision" viewBox="0 0 539.05 137.63"><defs/><defs><style>.fil4{fill:#fefefe}.fil3{fill:#dadada}.fil2{fill:#2b2a29}.fil8{fill:#d42023}.fil6,.fil9{fill-rule:nonzero}.fil9{fill:#dadada}.fil6{fill:#2b2a29}</style></defs><g id="Слой_x0020_1"><g id="_2905098185888" fill-rule="nonzero"><path fill="#d42023" d="M158.02 63.59h-17.48v40.37h9.34V92.83h8.14c10.78 0 17.53-5.59 17.53-14.59 0-9.05-6.75-14.65-17.53-14.65zm-.52 21.63h-7.62V71.21h7.62c5.71 0 8.59 2.59 8.59 7.03 0 4.38-2.88 6.98-8.59 6.98zM191 96.47v-9.35h18.75v-7.26H191v-8.77h21.23v-7.5h-30.51v40.37h31.26v-7.49H191zm58.04-32.88h-28.5v40.37h9.3l-.06-32.75h19.2l.06-7.62zm5.69 40.37h8.82l19.27-26.24v26.24h9.22V63.59h-8.76l-19.26 26.3v-26.3h-9.29v40.37zm66.61.69c12.69 0 22.09-8.82 22.09-20.87 0-12.06-9.4-20.88-22.09-20.88-12.74 0-22.09 8.88-22.09 20.88 0 11.99 9.35 20.87 22.09 20.87zm0-7.95c-7.21 0-12.63-5.25-12.63-12.92s5.42-12.92 12.63-12.92c7.21 0 12.63 5.25 12.63 12.92s-5.42 12.92-12.63 12.92zm56.98-33.11v15.92h-18.34V63.59h-9.34v40.37h9.34V87.41h18.34v16.55h9.34V63.59h-9.34zm17.42 27.74h16.32v-7.21h-16.32v7.21zm43.6 13.32c7.03 0 12.86-2.53 16.66-7.2l-5.99-5.54c-2.71 3.17-6.12 4.79-10.15 4.79-7.56 0-12.92-5.31-12.92-12.92 0-7.62 5.36-12.92 12.92-12.92 4.03 0 7.44 1.61 10.15 4.73l5.99-5.54c-3.8-4.61-9.63-7.15-16.61-7.15-12.57 0-21.91 8.71-21.91 20.88 0 12.17 9.34 20.87 21.86 20.87zm35.7-41.75c-7.16 0-13.04 2.54-16.84 7.21l5.94 5.54c2.82-3.18 6.28-4.79 10.43-4.79 5.77 0 10.1 3.57 11.42 9.11h-16.26v7.15h16.38c-1.21 5.77-5.6 9.58-11.54 9.58-4.15 0-7.61-1.62-10.43-4.79l-5.94 5.54c3.8 4.67 9.68 7.2 16.84 7.2 12.11 0 20.93-8.7 20.93-20.87 0-12.17-8.82-20.88-20.93-20.88zm47.34 41.75c7.04 0 12.86-2.53 16.67-7.2l-6-5.54c-2.71 3.17-6.11 4.79-10.15 4.79-7.55 0-12.92-5.31-12.92-12.92 0-7.62 5.37-12.92 12.92-12.92 4.04 0 7.44 1.61 10.15 4.73l6-5.54c-3.81-4.61-9.63-7.15-16.61-7.15-12.57 0-21.91 8.71-21.91 20.88 0 12.17 9.34 20.87 21.85 20.87z"/><path fill="#8f1416" d="M140.54 47.52V36.06h1.81c1.05 0 1.82.06 2.31.2.69.18 1.24.52 1.64 1.01.41.5.62 1.08.62 1.75 0 .44-.1.83-.28 1.19-.18.36-.49.69-.9 1 .69.33 1.2.74 1.52 1.23.33.49.49 1.07.49 1.74 0 .65-.17 1.23-.51 1.76-.33.53-.76.93-1.29 1.19-.53.26-1.25.39-2.18.39h-3.23zm2.17-9.39v2.43h.49c.54 0 .95-.11 1.21-.34.27-.22.4-.53.4-.91 0-.36-.13-.65-.38-.86-.25-.21-.63-.32-1.14-.32h-.58zm0 4.38v2.94h.56c.92 0 1.54-.12 1.86-.35.31-.23.48-.56.48-.99 0-.5-.19-.89-.57-1.17-.37-.29-.99-.43-1.87-.43h-.46zm12.52-6.74c1.62 0 3.02.58 4.18 1.76 1.17 1.18 1.75 2.61 1.75 4.29 0 1.68-.57 3.1-1.72 4.25-1.15 1.16-2.55 1.74-4.19 1.74-1.73 0-3.16-.59-4.29-1.78-1.14-1.19-1.71-2.61-1.71-4.25a5.948 5.948 0 012.98-5.21c.93-.53 1.93-.8 3-.8zm-.03 2.14c-1.06 0-1.95.37-2.67 1.11-.72.73-1.08 1.67-1.08 2.81 0 1.27.45 2.27 1.36 3.01.71.58 1.52.86 2.43.86 1.03 0 1.91-.37 2.63-1.12.73-.75 1.09-1.67 1.09-2.77 0-1.09-.36-2.01-1.1-2.77-.73-.75-1.62-1.13-2.66-1.13zm8.02-1.85h2.32c1.25 0 2.16.11 2.71.34.55.23.99.61 1.31 1.12.32.52.48 1.14.48 1.87 0 .8-.21 1.46-.63 1.99-.42.53-.99.9-1.71 1.11-.42.12-1.19.18-2.3.18v4.85h-2.18V36.06zm2.18 4.48h.69c.56 0 .94-.04 1.15-.11.22-.08.39-.21.51-.39.12-.18.18-.4.18-.66 0-.44-.17-.77-.51-.97-.25-.15-.72-.23-1.41-.23h-.61v2.36zm12.19-4.77c1.62 0 3.02.58 4.18 1.76 1.17 1.18 1.76 2.61 1.76 4.29 0 1.68-.58 3.1-1.73 4.25-1.15 1.16-2.55 1.74-4.19 1.74-1.72 0-3.16-.59-4.29-1.78-1.14-1.19-1.71-2.61-1.71-4.25 0-1.09.27-2.1.79-3.02a5.9 5.9 0 012.19-2.19c.93-.53 1.93-.8 3-.8zm-.03 2.14c-1.06 0-1.95.37-2.67 1.11-.72.73-1.08 1.67-1.08 2.81 0 1.27.45 2.27 1.36 3.01.71.58 1.52.86 2.43.86 1.03 0 1.91-.37 2.63-1.12.73-.75 1.09-1.67 1.09-2.77 0-1.09-.36-2.01-1.1-2.77-.73-.75-1.62-1.13-2.66-1.13zm8.02-1.85h2.22v4.32h3.84v-4.32h2.2v11.46h-2.2v-5.03h-3.84v5.03h-2.22V36.06zm10.9 0h6.26v2.14h-4.09v2.06h4.09v2.11h-4.09v3.01h4.09v2.14h-6.26V36.06zm13.35 6.37l-.3-.33-3.24 5.42h-2.59l4.25-6.65-3.87-4.81h2.63l3.12 4.1v-4.1h2.22v4.09l3.09-4.09h2.64l-3.84 4.82 4.22 6.64h-2.59l-3.22-5.42-.3.33v5.09h-2.22v-5.09zm20.42-4.36l-1.53 1.45c-1.04-1.1-2.21-1.64-3.52-1.64-1.09 0-2.02.37-2.77 1.12-.75.75-1.13 1.67-1.13 2.76 0 .77.17 1.45.5 2.04.33.59.81 1.06 1.41 1.4.61.33 1.29.5 2.03.5.64 0 1.22-.11 1.74-.35.53-.24 1.11-.67 1.74-1.29l1.48 1.55c-.85.82-1.65 1.4-2.4 1.72-.76.32-1.62.48-2.59.48-1.78 0-3.24-.56-4.38-1.7-1.13-1.12-1.7-2.57-1.7-4.34 0-1.14.26-2.16.78-3.05.51-.89 1.25-1.6 2.22-2.14.96-.54 2-.81 3.12-.81.94 0 1.85.2 2.73.6.88.4 1.63.96 2.27 1.7zm1.93-2.01h2.2v3.96l3.1-3.96h2.64l-4.01 5.11 4.4 6.35h-2.6l-3.53-5.1v5.1h-2.2V36.06zm18.24 0v11.46h-2.17v-7.18l-4.33 7.18h-1.87V36.06h2.17v7.41l4.39-7.41h1.81zm10.97 0v11.46h-2.17v-7.18l-4.32 7.18h-1.88V36.06h2.18v7.41l4.38-7.41h1.81zm-7.31-3.09h1.72c.14.22.32.37.57.48.24.11.53.16.88.16s.67-.06.95-.19c.19-.08.35-.23.49-.45h1.73c-.1.66-.42 1.19-.95 1.59-.53.4-1.28.6-2.23.6-.65 0-1.18-.09-1.62-.27-.43-.18-.78-.43-1.05-.77-.26-.33-.43-.71-.49-1.15zm14.39 3.09h5.7v2.14h-3.53v9.32h-2.17V36.06zm12.81-.29c1.62 0 3.02.58 4.18 1.76 1.17 1.18 1.76 2.61 1.76 4.29 0 1.68-.58 3.1-1.73 4.25-1.15 1.16-2.55 1.74-4.19 1.74-1.72 0-3.16-.59-4.29-1.78-1.14-1.19-1.71-2.61-1.71-4.25 0-1.09.27-2.1.8-3.02a5.948 5.948 0 015.18-2.99zm-.03 2.14c-1.06 0-1.94.37-2.67 1.11-.72.73-1.07 1.67-1.07 2.81 0 1.27.45 2.27 1.36 3.01.7.58 1.51.86 2.42.86 1.03 0 1.91-.37 2.63-1.12.73-.75 1.09-1.67 1.09-2.77 0-1.09-.36-2.01-1.09-2.77-.73-.75-1.62-1.13-2.67-1.13zm8.02-1.85h2.32c1.26 0 2.16.11 2.71.34.56.23 1 .61 1.32 1.12.32.52.48 1.14.48 1.87 0 .8-.21 1.46-.64 1.99-.41.53-.98.9-1.71 1.11-.42.12-1.19.18-2.3.18v4.85h-2.18V36.06zm2.18 4.48h.7c.55 0 .93-.04 1.14-.11.22-.08.39-.21.51-.39.12-.18.19-.4.19-.66 0-.44-.18-.77-.52-.97-.25-.15-.72-.23-1.4-.23h-.62v2.36zm12.19-4.77c1.62 0 3.02.58 4.19 1.76 1.16 1.18 1.75 2.61 1.75 4.29 0 1.68-.58 3.1-1.73 4.25-1.15 1.16-2.55 1.74-4.19 1.74-1.72 0-3.15-.59-4.29-1.78-1.14-1.19-1.71-2.61-1.71-4.25 0-1.09.27-2.1.8-3.02a5.948 5.948 0 015.18-2.99zm-.03 2.14c-1.06 0-1.94.37-2.66 1.11-.73.73-1.08 1.67-1.08 2.81 0 1.27.45 2.27 1.36 3.01.7.58 1.51.86 2.42.86 1.03 0 1.91-.37 2.63-1.12.73-.75 1.09-1.67 1.09-2.77 0-1.09-.36-2.01-1.09-2.77-.73-.75-1.62-1.13-2.67-1.13zm11.77-1.85h2.2l3.71 9.42h1.27v3.75h-2.11v-1.71h-7.92v1.71h-2.11v-3.75h1.28l3.68-9.42zm1.12 3.01l-2.52 6.41h5.04l-2.52-6.41zm18.01-1l-1.53 1.45c-1.04-1.1-2.21-1.64-3.51-1.64-1.1 0-2.03.37-2.78 1.12-.75.75-1.13 1.67-1.13 2.76 0 .77.17 1.45.5 2.04.34.59.81 1.06 1.41 1.4.62.33 1.29.5 2.04.5.63 0 1.21-.11 1.74-.35.52-.24 1.1-.67 1.73-1.29l1.48 1.55c-.85.82-1.65 1.4-2.4 1.72-.75.32-1.62.48-2.58.48-1.79 0-3.25-.56-4.39-1.7-1.13-1.12-1.7-2.57-1.7-4.34 0-1.14.26-2.16.78-3.05.52-.89 1.26-1.6 2.22-2.14.97-.54 2-.81 3.12-.81.94 0 1.86.2 2.73.6.88.4 1.63.96 2.27 1.7zm1.93-2.01h2.2v3.96l3.11-3.96h2.63l-4.01 5.11 4.4 6.35h-2.59l-3.54-5.1v5.1h-2.2V36.06zm15.3-.29c1.62 0 3.01.58 4.18 1.76 1.16 1.18 1.75 2.61 1.75 4.29 0 1.68-.58 3.1-1.73 4.25-1.15 1.16-2.55 1.74-4.19 1.74-1.72 0-3.15-.59-4.29-1.78-1.14-1.19-1.71-2.61-1.71-4.25 0-1.09.27-2.1.8-3.02a5.948 5.948 0 015.19-2.99zm-.04 2.14c-1.05 0-1.94.37-2.66 1.11-.72.73-1.08 1.67-1.08 2.81 0 1.27.45 2.27 1.36 3.01.7.58 1.51.86 2.42.86 1.03 0 1.91-.37 2.64-1.12.72-.75 1.08-1.67 1.08-2.77 0-1.09-.36-2.01-1.09-2.77-.73-.75-1.62-1.13-2.67-1.13zm16.4-1.85v11.46h-2.18v-7.18l-4.32 7.18h-1.87V36.06h2.17v7.41l4.39-7.41h1.81zm-7.32-3.09h1.73c.13.22.32.37.56.48.24.11.54.16.88.16.35 0 .67-.06.96-.19.18-.08.35-.23.49-.45h1.72c-.1.66-.41 1.19-.95 1.59-.53.4-1.27.6-2.23.6-.64 0-1.18-.09-1.61-.27a2.444 2.444 0 01-1.55-1.92zm14.39 14.55V36.06h2.22v9.5h3.85v-9.5h2.2v9.5h2.34v3.67h-2.05v-1.71h-8.56zm12.01-11.46h6.26v2.14h-4.08v2.06h4.08v2.11h-4.08v3.01h4.08v2.14h-6.26V36.06zm8.27 0h2.23v4.32h3.83v-4.32h2.2v11.46h-2.2v-5.03h-3.83v5.03h-2.23V36.06zm9.77 0h6.34v2.15h-2.09v9.31h-2.22v-9.31h-2.03v-2.15zm7.81 0h2.32c1.25 0 2.15.11 2.71.34.55.23.99.61 1.31 1.12.32.52.48 1.14.48 1.87 0 .8-.21 1.46-.63 1.99-.42.53-.99.9-1.71 1.11-.42.12-1.2.18-2.31.18v4.85h-2.17V36.06zm2.17 4.48h.7c.55 0 .93-.04 1.15-.11.21-.08.38-.21.51-.39.12-.18.18-.4.18-.66 0-.44-.17-.77-.52-.97-.25-.15-.72-.23-1.4-.23h-.62v2.36zm14.98-4.48h2.21l3.71 9.42h1.27v3.75h-2.11v-1.71h-7.92v1.71h-2.11v-3.75h1.28l3.67-9.42zm1.13 3.01l-2.52 6.41h5.04l-2.52-6.41zm7.48-3.01h6.26v2.14h-4.09v2.06h4.09v2.11h-4.09v3.01h4.09v2.14h-6.26V36.06zm8.84 8.48c.58.81 1.25 1.21 2.03 1.21.52 0 .94-.15 1.26-.44.31-.29.47-.68.47-1.17 0-.47-.15-.87-.46-1.18-.31-.31-.96-.47-1.93-.47h-.48v-1.95h.47c.58 0 1.02-.13 1.32-.39.29-.27.44-.62.44-1.07 0-.41-.12-.74-.37-.97-.25-.24-.58-.36-.99-.36-.49 0-.99.24-1.51.72l-1.28-1.43c.69-.63 1.26-1 1.73-1.12.46-.12.89-.18 1.28-.18.94 0 1.72.27 2.36.81.64.55.96 1.28.96 2.21 0 .41-.08.81-.22 1.2-.14.39-.54.8-1.2 1.24 1.35.6 2.02 1.62 2.02 3.06 0 1.07-.35 1.93-1.07 2.58-.72.65-1.64.97-2.76.97-.71 0-1.34-.13-1.91-.39-.56-.25-1.17-.81-1.83-1.66l1.67-1.22zm16.34-8.48v11.46h-2.18v-7.18l-4.32 7.18h-1.87V36.06h2.17v7.41l4.39-7.41h1.81zm2.6 0h2.22v4.32h3.83v-4.32h2.21v11.46h-2.21v-5.03h-3.83v5.03h-2.22V36.06zm16.63 0v1.48h.49c2.75 0 4.13 1.14 4.13 3.4 0 .65-.11 1.19-.33 1.64-.21.45-.53.82-.95 1.12-.42.29-.85.48-1.29.57-.45.09-1.13.14-2.05.14v3.11H481v-3.11c-.97 0-1.76-.1-2.37-.29-.62-.19-1.13-.56-1.53-1.09-.39-.54-.59-1.21-.59-2.02 0-.77.16-1.41.48-1.94.31-.52.76-.91 1.35-1.16.58-.25 1.46-.37 2.66-.37v-1.48h2.2zm-2.2 3.49h-.51c-.77 0-1.28.13-1.54.37-.25.25-.38.61-.38 1.08 0 .55.15.93.47 1.14.31.21.76.32 1.36.32h.6v-2.91zm2.2 0v2.91h.72c.73 0 1.22-.14 1.46-.41.24-.27.36-.63.36-1.07 0-.45-.12-.8-.38-1.05-.25-.25-.75-.38-1.52-.38h-.64zm6.31-3.49h6.26v2.14h-4.09v2.06h4.09v2.11h-4.09v3.01h4.09v2.14h-6.26V36.06zm8.3 0h2.21v3.96l3.1-3.96h2.64l-4.01 5.11 4.39 6.35h-2.59l-3.53-5.1v5.1h-2.21V36.06zm9.88 11.46V36.06h2.22v9.5h3.85v-9.5h2.2v9.5h2.33v3.67h-2.04v-1.71h-8.56zm20.35-11.46v11.46h-2.18v-7.18l-4.32 7.18h-1.87V36.06h2.17v7.41l4.39-7.41h1.81zm10.97 0v11.46h-2.17v-7.18l-4.32 7.18h-1.88V36.06h2.17v7.41l4.39-7.41h1.81z"/></g><g id="_2905098188512"><path d="M68.47 31.18c-1.38.52-4.46.82-8.07.82-3.59 0-6.67-.3-8.05-.82l-.04-3.89c-1.3-2.01-2.4-4.59-3.24-6.85-2.23-6.03 1.07-8.57 6.28-9.68.56-.4 1.22-.53 2.08-.26l.14.98 1.07-.15-.06-1.19c.23.02.45.05.65.06a2.497 2.497 0 01-.41-4.12h-.84c.41-.46 1.34-1.46 1.47-2.06-.6.13-1.6 1.06-2.06 1.47V.59c.46.41 1.46 1.34 2.06 1.48-.13-.61-1.06-1.61-1.47-2.07h4.9c-.41.47-1.34 1.46-1.47 2.07.6-.14 1.59-1.06 2.06-1.48v4.9c-.47-.41-1.46-1.34-2.07-1.47.14.6 1.06 1.6 1.48 2.06h-.84c.55.46.9 1.15.9 1.92 0 .95-.53 1.77-1.3 2.2l.6-.06-.06 1.19 1.07.15.14-.98c.86-.27 1.52-.14 2.08.26 5.21 1.11 8.52 3.65 6.28 9.68-.84 2.26-1.94 4.84-3.24 6.85l-.04 3.89z" class="fil2"/><path d="M60.42 30.37c-2.39 0-4.86-.26-6.49-.64 1.58-.37 4.07-.57 6.49-.57 2.41 0 4.89.2 6.47.57-1.63.38-4.09.64-6.47.64z" class="fil3"/><path d="M53.01 30.58v-.47c1.52.44 4.56.71 7.39.71 2.84 0 5.82-.28 7.34-.72v.48c-1.41.5-3.79.77-7.31.78-3.56-.01-6.01-.28-7.42-.78zm14.82-2.32v.38c-.07-.03-.15-.06-.23-.09.1-.07.18-.17.23-.29zm-5.77-8.01c-.04-.23-.1-.46-.17-.69h.27l-.1.69zm9.11-.04c-.14.37-.32.85-.53 1.37l-.42-.72c.34-.35.69-.73 1.04-1.14l.05.09c-.05.15-.09.28-.14.4zm.37-1.18l-.24.29c-.26-.44-.53-.87-.81-1.3.32-.42.63-.85.94-1.3l.38.68a9.9 9.9 0 01-.27 1.63zm.29-2.08l-.25-.45.21-.31c.03.25.04.5.04.76zm-.1-1.1l-.28.42c-.37-.66-.66-1.19-1-1.69.13-.2.26-.4.38-.6.5.53.78 1.18.9 1.87zm-1.07-2.04c-.12.19-.23.37-.36.56-.32-.46-.68-.91-1.18-1.46l.08-.13a9.418 9.418 0 011.46 1.03zM69 12.67l-.04.06-.15-.16.19.1zm-.78-.39c.22.24.43.46.61.66-.29.48-.62.99-.99 1.52-.36-.43-.73-.86-1.12-1.29.34-.45.63-.86.82-1.17.22.09.45.18.68.28zm-.91-.36c-.18.28-.45.66-.75 1.07-.32-.35-.66-.7-1.01-1.05l.1-.48c.54.11 1.1.27 1.66.46zm-1.81.3c.31.32.62.64.92.97-.33.44-.7.91-1.05 1.34l-.27-.28.4-2.03zm-.46 2.31l.18.19-.28.33.1-.52zm-.2.97c.17-.18.36-.39.54-.61.41.43.8.85 1.17 1.28-.33.39-.68.8-1.05 1.19-.27-.29-.55-.6-.85-.9l.19-.96zm-.24 1.24c.26.27.5.53.74.8-.34.36-.7.72-1.11 1.03l.37-1.83zm-.46 2.3l.11-.1c.35.39.68.78.99 1.18-.35.3-.71.6-1.08.9l.02-.15-.13.03c-.08-.09-.15-.18-.23-.26l.32-1.6zm.14 2.53c-.12.09-.23.19-.34.3.06-.18.11-.35.17-.52l.17.22zm3.19 4.51c.33-.14.65-.31.94-.52l.18.41c-.09.15-.17.3-.26.44-.25-.13-.54-.24-.86-.33zm.73-1c-.09-.04-.2-.09-.33-.13l.21-.14.12.27zm.08-.39c.56-.37 1.02-.68 1.4-.88-.3.66-.62 1.31-.94 1.9l-.13-.3.08-.07-.15-.09c-.08-.18-.17-.37-.26-.56zm1.64-1.4l-.19.13c-.25-.44-.51-.88-.72-1.35.35-.34.7-.68 1.05-1.03.15.27.31.54.47.82-.19.45-.39.94-.61 1.43zm-5.9-12.28c.36-.07.82.03 1.01.23l-1.71 8.57c-.01-.1-.03-.2-.04-.29l-.19.1c-.01 0-.12.06-.3.19l1.23-8.8zm2.56 2.35c.39.43.76.86 1.13 1.3-.31.43-.65.87-1.01 1.32-.37-.42-.76-.84-1.17-1.28.35-.42.72-.89 1.05-1.34zm2.52 2.68c-.35-.47-.72-.93-1.1-1.4.37-.52.71-1.03 1-1.52.49.55.85 1 1.16 1.46-.34.5-.7.99-1.06 1.46zm-1.18 1.42c-.34-.43-.69-.86-1.07-1.3.36-.44.7-.88 1.01-1.32.38.46.74.93 1.09 1.39-.34.43-.68.83-1.03 1.23zm-1.24 1.32c-.32-.41-.66-.82-1.03-1.24.37-.4.72-.8 1.05-1.19.38.43.73.86 1.06 1.29-.35.39-.71.77-1.08 1.14zm-1.26 1.18c-.31-.4-.64-.79-.99-1.18.37-.35.72-.71 1.06-1.06.36.41.7.81 1.02 1.22-.36.35-.72.69-1.09 1.02zm4.94-2.15c-.36-.53-.73-1.05-1.11-1.58.36-.46.71-.94 1.05-1.45.34.51.63 1.04 1 1.71-.31.46-.62.9-.94 1.32zm-1.15 1.43c-.37-.54-.74-1.06-1.14-1.59.35-.39.69-.8 1.03-1.22.38.52.75 1.05 1.1 1.58-.32.43-.65.84-.99 1.23zm-1.23 1.33l-.09-.14.12-.3-.22-.01s-.04 0-.11.01c-.27-.39-.55-.78-.86-1.17.37-.36.73-.74 1.09-1.13.4.53.77 1.05 1.13 1.6-.34.39-.69.77-1.06 1.14zm-.57-.42c-.34.04-.89.15-1.52.43-.11-.14-.22-.29-.33-.44.37-.32.74-.66 1.1-1.01.26.34.51.68.75 1.02zm.24.75c.04-.07.08-.15.12-.22l.05.06-.17.16zm-1.98-.22c-.3.15-.63.33-.95.56-.09.06-.17.12-.25.18l-.17-.22c.37-.29.73-.59 1.08-.9.1.13.2.25.29.38zm1.04 1.56l-.14.01.09-.09.05.08zm-.3 1.8c-.09-.02-.19-.04-.31-.06.42-.22.8-.49 1.15-.82l.05.11c-.28.25-.58.5-.89.77zm3.69-3.39c-.25-.41-.5-.81-.76-1.2.34-.4.68-.81 1-1.23.28.43.54.85.79 1.29-.35.41-.69.79-1.03 1.14zm-1.26 1.25c-.24-.38-.47-.76-.72-1.13.36-.37.72-.75 1.06-1.14.25.39.51.79.75 1.2-.36.37-.72.72-1.09 1.07zm-1.35 1.21l-.07-.12c.17-.18.32-.38.47-.59l-.21-.05c-.01-.01-.26-.08-.69-.1l-.16-.26c.38-.34.76-.69 1.12-1.05.24.37.48.75.71 1.13-.37.34-.76.69-1.17 1.04zm-.07.38c.2.38.39.75.56 1.11l-.41.26a5.61 5.61 0 00-1.09-.18l-.03-.06c.14-.13.28-.28.4-.43l-.18-.07.75-.63zm1.37-1.22c.25.42.5.85.75 1.29-.35.24-.8.55-1.36.91-.17-.37-.37-.75-.58-1.14.42-.36.81-.71 1.19-1.06zm-6.92-3.93l.44.15-.1.7-.38-.15.04-.7zm.05-1.06l.54.15-.09.66-.48-.15.03-.66zm.05-1.07l.64.16-.09.61-.58-.15.03-.62zm.05-1.06l.74.15-.09.59-.67-.15.02-.59zm.06-1.07l.83.15-.08.55-.78-.15.03-.55zm.05-1.06l.92.15-.07.52-.88-.16.03-.51zm.05-1.07l1.02.15-.06.48-.98-.15.02-.48zm-.93 15.13c-.02-.16-.1-.3-.2-.41l.43.01a.8.8 0 00-.23.4zm.22.73l-.45-.01c.11-.11.19-.25.23-.41.03.17.11.31.22.42zm1.31-.72a.768.768 0 00-.18-.36l.42.04c-.11.08-.19.19-.24.32zm.14.77l-.4-.02c.1-.08.18-.19.23-.31a.8.8 0 00.17.33zm1.26-.76c-.03-.08-.08-.16-.13-.23l.3.04a.75.75 0 00-.17.19zm.09.86l-.31-.03c.07-.05.12-.12.17-.2.03.09.08.16.14.23zm1.22-.64a.65.65 0 00-.09-.23l.28.05c-.07.05-.14.11-.19.18zm-.01.77l-.27-.03c.06-.05.13-.11.17-.18.02.08.05.15.1.21zm1.24-.48a.62.62 0 00-.08-.24l.27.08c-.07.05-.14.1-.19.16zm-.09.68l-.16-.03c.04-.04.08-.07.11-.12.01.06.03.1.05.15zm-4.62-1.49c.25 0 .46.2.46.45s-.21.45-.46.45c-.24 0-.44-.2-.44-.45s.2-.45.44-.45zm1.47.14c.23 0 .41.19.41.42 0 .23-.18.42-.41.42-.23 0-.42-.19-.42-.42 0-.23.19-.42.42-.42zm1.31.15c.22 0 .39.17.39.38 0 .22-.17.39-.39.39-.21 0-.38-.17-.38-.39 0-.21.17-.38.38-.38zm1.26.28c.19 0 .35.15.35.35 0 .19-.16.35-.35.35-.19 0-.35-.16-.35-.35 0-.2.16-.35.35-.35zm1.17.34c.18 0 .32.14.32.32 0 .17-.14.31-.32.31s-.32-.14-.32-.31c0-.18.14-.32.32-.32z" class="fil3"/><path d="M66.88 14.04l.57.61-.48.63c.21-.51.17-.9-.09-1.24zm1.25 1.5l.57.62-.48.63c.21-.51.21-.91-.09-1.25zm1.36 1.78l.53.67-.54.58c.26-.49.27-.94.01-1.25zm.95 1.49l.5.65-.57.54c.28-.47.31-.86.07-1.19zm-2.15-.07l.5.65-.57.55c.29-.47.31-.87.07-1.2zm-2.55-.44l.5.66-.57.54c.28-.47.31-.87.07-1.2zm1.23-1.27l.55.62-.53.58c.25-.49.24-.89-.02-1.2zm-1.23-1.49l.54.62-.52.59c.24-.5.24-.9-.02-1.21zm2.29-3.14l.59.56-.47.63c.21-.51.16-.91-.12-1.19zm1.36 1.58l.57.6-.51.6c.23-.5.22-.9-.06-1.2zm1.24 1.78l.48.7-.43.65c.21-.51.2-.99-.05-1.35zm-1.37 4.38l.42.66-.57.54c.29-.47.36-.77.15-1.2zm-.4 2.64l.42.71-.63.47c.34-.43.41-.82.21-1.18zm-4.27-3.19l.4.53-.45.43c.22-.38.24-.7.05-.96zm3.4 1.78l.42.66-.57.54c.28-.47.36-.77.15-1.2z" class="fil2"/><path d="M68.13 25.39c-.37.23-.77.42-1.21.55-.58-.15-1.22-.28-1.9-.37.36-.16.69-.36 1-.59.74-.01 1.47.12 2.11.41zm-3.97-3.3c.94-.88 2.18-1.52 3.39-1.64a5.52 5.52 0 01-1.51 1.84c-.29.05-.6.11-.93.21.09-.19.17-.38.24-.58h-.22c-.01 0-.39 0-.97.17zm-2.45-2.07c.05.23.08.47.1.71-.15.18-.3.39-.45.62-.04-.26-.08-.51-.15-.76.15-.21.32-.4.5-.57zm2.09 1.26c-.1.38-.24.76-.43 1.12-.18.09-.37.19-.57.32.17-.39.31-.79.4-1.2.25-.12.46-.19.6-.24zm1.09 1.63c.8-.31 1.67-.43 2.47-.31-.48.56-1.14 1.01-1.86 1.32-.44-.02-1 .01-1.62.17.39-.34.73-.74 1.01-1.18zm-3.49-1.03c.41-.75.97-1.4 1.63-1.86.06 1.02-.24 2.12-.77 3.07-.47.38-.88.81-1.21 1.29.24-.7.36-1.44.36-2.19 0-.1-.01-.21-.01-.31zm4.91 2.46c-.52.51-1.21.9-1.94 1.14-.74-.08-1.54-.14-2.39-.17 1.2-.88 2.91-1.31 4.33-.97z" class="fil3"/><path d="M64.89 22.25c-.69 1.49-2.35 2.7-3.97 2.95.72-1.46 2.34-2.74 3.97-2.95zm-11.86 6.01c.05.12.12.22.22.29-.08.03-.15.06-.22.09v-.38zm5.76-8.01l-.09-.69h.27c-.08.23-.13.46-.18.69zm-9.1-.04c-.05-.12-.1-.25-.14-.4l.05-.09c.35.41.69.79 1.03 1.14-.14.24-.28.48-.41.72-.21-.52-.4-1-.53-1.37zm-.37-1.18a9.9 9.9 0 01-.27-1.63l.38-.68c.31.45.62.88.93 1.3-.27.43-.54.86-.8 1.3l-.24-.29zm-.29-2.08c0-.26.01-.51.04-.76l.21.31-.25.45zm.09-1.1c.13-.69.4-1.34.9-1.87l.39.6c-.34.5-.64 1.03-1 1.69l-.29-.42zm1.07-2.04l.15-.12c.42-.35.86-.65 1.31-.91l.08.13c-.49.55-.86 1-1.17 1.46a18 18 0 01-.37-.56zm1.67-1.14l.19-.1-.15.16-.04-.06zm.78-.39c.23-.1.45-.19.68-.28.19.31.48.72.81 1.17-.38.43-.76.86-1.12 1.29-.37-.53-.7-1.04-.99-1.52.19-.2.39-.42.62-.66zm.91-.36c.56-.19 1.12-.35 1.65-.46l.1.48c-.34.35-.68.7-1.01 1.05-.3-.41-.56-.79-.74-1.07zm1.81.3l.4 2.03-.27.28c-.35-.43-.72-.9-1.05-1.34.3-.33.6-.65.92-.97zm.46 2.31l.1.52-.28-.33.18-.19zm.19.97l.19.96c-.29.3-.57.61-.84.9-.37-.39-.72-.8-1.05-1.19.37-.43.75-.85 1.16-1.28.19.22.38.43.54.61zm.25 1.24l.36 1.83c-.4-.31-.76-.67-1.1-1.03.24-.27.48-.53.74-.8zm.46 2.3l.32 1.6c-.08.08-.15.17-.23.26l-.14-.03.03.15c-.37-.3-.73-.6-1.08-.9.31-.4.63-.79.98-1.18l.12.1zm-.14 2.53l.16-.22c.06.17.12.34.18.52a4.57 4.57 0 00-.34-.3zm-3.19 4.51c-.32.09-.62.2-.87.33-.08-.14-.17-.29-.25-.44l.17-.41c.3.21.61.38.95.52zm-.74-1l.12-.27.21.14c-.13.04-.24.09-.33.13zm-.07-.39c-.09.19-.18.38-.26.56l-.15.09.08.07-.13.3c-.33-.59-.65-1.24-.95-1.9.39.2.84.51 1.41.88zm-1.64-1.4c-.22-.49-.43-.98-.61-1.43.16-.28.31-.55.47-.82.35.35.69.69 1.05 1.03-.22.47-.47.91-.73 1.35l-.18-.13zm5.9-12.28l1.23 8.8c-.18-.13-.3-.19-.3-.19l-.19-.1c-.02.09-.03.19-.04.29l-1.71-8.57c.19-.2.65-.3 1.01-.23zm-2.56 2.35c.33.45.69.92 1.04 1.34-.41.44-.79.86-1.16 1.28-.36-.45-.7-.89-1.01-1.32.36-.44.74-.87 1.13-1.3zm-2.52 2.68c-.37-.47-.72-.96-1.06-1.46.31-.46.67-.91 1.16-1.46.29.49.63 1 1 1.52-.39.47-.75.93-1.1 1.4zm1.18 1.42c-.36-.4-.7-.8-1.03-1.23.34-.46.71-.93 1.09-1.39.31.44.64.88 1 1.32-.37.44-.73.87-1.06 1.3zm1.24 1.32c-.37-.37-.73-.75-1.08-1.14.33-.43.68-.86 1.05-1.29.33.39.68.79 1.05 1.19-.36.42-.7.83-1.02 1.24zm1.26 1.18c-.38-.33-.74-.67-1.09-1.02.32-.41.66-.81 1.01-1.22.34.35.7.71 1.07 1.06-.35.39-.68.78-.99 1.18zm-4.94-2.15c-.32-.42-.63-.86-.95-1.32.37-.67.67-1.2 1-1.71.35.51.7.99 1.06 1.45-.39.53-.76 1.05-1.11 1.58zm1.15 1.43c-.34-.39-.67-.8-1-1.23.35-.53.72-1.06 1.11-1.58.34.42.68.83 1.03 1.22-.4.53-.78 1.05-1.14 1.59zm1.22 1.33c-.36-.37-.71-.75-1.06-1.14.36-.55.74-1.07 1.14-1.6.35.39.71.77 1.08 1.13-.3.39-.58.78-.85 1.17-.07-.01-.11-.01-.12-.01l-.21.01.12.3-.1.14zm.58-.42c.24-.34.49-.68.75-1.02.36.35.72.69 1.09 1.01-.11.15-.21.3-.32.44-.64-.28-1.18-.39-1.52-.43zm-.25.75l-.16-.16.05-.06c.03.07.07.15.11.22zm1.99-.22c.09-.13.19-.25.28-.38.36.31.72.61 1.09.9l-.17.22c-.08-.06-.16-.12-.25-.18-.33-.23-.65-.41-.95-.56zm-1.04 1.56l.05-.08.09.09-.14-.01zm.3 1.8c-.31-.27-.61-.52-.9-.77l.06-.11c.34.33.73.6 1.15.82-.12.02-.23.04-.31.06zm-3.69-3.39c-.34-.35-.68-.73-1.04-1.14.26-.44.52-.86.8-1.29.32.42.65.83 1 1.23-.26.39-.52.79-.76 1.2zm1.26 1.25c-.38-.35-.74-.7-1.09-1.07.24-.41.49-.81.75-1.2.34.39.69.77 1.06 1.14-.25.37-.49.75-.72 1.13zm1.35 1.21c-.41-.35-.8-.7-1.18-1.04.24-.38.47-.76.72-1.13.36.36.73.71 1.12 1.05l-.16.26c-.43.02-.68.09-.69.1l-.21.05c.14.21.3.41.47.59l-.07.12zm.07.38l.74.63-.17.07c.12.15.25.3.39.43l-.03.06c-.42.03-.79.1-1.09.18l-.41-.26c.17-.36.36-.73.57-1.11zm-1.37-1.22c.38.35.77.7 1.18 1.06-.21.39-.4.77-.58 1.14-.55-.36-1-.67-1.35-.91.25-.44.49-.87.75-1.29zm6.92-3.93l.03.7-.38.15-.09-.7.44-.15zm-.05-1.06l.03.66-.48.15-.09-.66.54-.15zm-.06-1.07l.03.62-.57.15-.09-.61.63-.16zm-.05-1.06l.03.59-.68.15-.08-.59.73-.15zm-.05-1.07l.03.55-.78.15-.08-.55.83-.15zm-.05-1.06l.03.51-.88.16-.08-.52.93-.15zm-.06-1.07l.03.48-.98.15-.07-.48 1.02-.15zm.94 15.13a.8.8 0 00-.23-.4l.43-.01c-.1.11-.18.25-.2.41zm-.22.73c.11-.11.19-.25.22-.42.04.16.12.3.23.41l-.45.01zm-1.31-.72a.775.775 0 00-.24-.32l.41-.04c-.08.1-.15.22-.17.36zm-.14.77a.8.8 0 00.17-.33c.05.12.13.23.23.31l-.4.02zm-1.26-.76c-.05-.07-.1-.13-.17-.19l.3-.04c-.06.07-.1.15-.13.23zm-.09.86c.06-.07.11-.14.14-.23.04.08.1.15.17.2l-.31.03zm-1.23-.64a.769.769 0 00-.18-.18l.28-.05c-.04.07-.08.15-.1.23zm.02.77c.04-.06.08-.13.09-.21.05.07.11.13.18.18l-.27.03zm-1.25-.48a.934.934 0 00-.18-.16l.27-.08c-.04.07-.07.15-.09.24zm.1.68c.02-.05.04-.09.05-.15.03.05.07.08.11.12l-.16.03zm4.61-1.49c.25 0 .45.2.45.45s-.2.45-.45.45-.45-.2-.45-.45.2-.45.45-.45zm-1.46.14c.23 0 .42.19.42.42 0 .23-.19.42-.42.42-.23 0-.42-.19-.42-.42 0-.23.19-.42.42-.42zm-1.32.15c.22 0 .39.17.39.38 0 .22-.17.39-.39.39-.21 0-.38-.17-.38-.39 0-.21.17-.38.38-.38zm-1.25.28c.19 0 .35.15.35.35 0 .19-.16.35-.35.35-.2 0-.35-.16-.35-.35 0-.2.15-.35.35-.35zm-1.17.34c.17 0 .32.14.32.32 0 .17-.15.31-.32.31-.18 0-.32-.14-.32-.31 0-.18.14-.32.32-.32z" class="fil3"/><path d="M53.98 14.04c-.26.34-.3.73-.09 1.24l-.48-.63.57-.61zm-1.25 1.5c-.3.34-.3.74-.09 1.25l-.48-.63.57-.62zm-1.36 1.78c-.26.31-.25.76 0 1.25l-.53-.58.53-.67zm-.95 1.49c-.24.33-.22.72.07 1.19l-.57-.54.5-.65zm2.15-.07c-.24.33-.22.73.06 1.2l-.57-.55.51-.65zm2.55-.44c-.24.33-.22.73.07 1.2l-.57-.54.5-.66zm-1.23-1.27c-.27.31-.27.71-.02 1.2l-.53-.58.55-.62zm1.23-1.49c-.26.31-.27.71-.02 1.21l-.53-.59.55-.62zm-2.29-3.14c-.29.28-.33.68-.12 1.19l-.48-.63.6-.56zm-1.36 1.58c-.28.3-.3.7-.06 1.2l-.51-.6.57-.6zm-1.25 1.78c-.24.36-.25.84-.04 1.35l-.43-.65.47-.7zm1.37 4.38c-.2.43-.13.73.15 1.2l-.57-.54.42-.66zm.4 2.64c-.19.36-.12.75.22 1.18l-.63-.47.41-.71zm4.27-3.19c-.19.26-.17.58.06.96l-.45-.43.39-.53zm-3.39 1.78c-.21.43-.14.73.15 1.2l-.57-.54.42-.66z" class="fil2"/><path d="M52.73 25.39c.63-.29 1.37-.42 2.11-.41.31.23.64.43 1 .59-.69.09-1.32.22-1.91.37a4.86 4.86 0 01-1.2-.55zm3.96-3.3c-.57-.17-.95-.17-.96-.17h-.22c.07.2.15.39.24.58-.33-.1-.65-.16-.93-.21a5.52 5.52 0 01-1.51-1.84c1.21.12 2.44.76 3.38 1.64zm2.46-2.07c.18.17.34.36.49.57-.06.25-.11.5-.14.76-.15-.23-.3-.44-.45-.62.01-.24.05-.48.1-.71zm-2.09 1.26c.14.05.34.12.6.24.09.41.23.81.4 1.2-.2-.13-.39-.23-.57-.32a4.79 4.79 0 01-.43-1.12zm-1.09 1.63c.28.44.62.84 1.01 1.18-.63-.16-1.18-.19-1.62-.17-.73-.31-1.38-.76-1.86-1.32.8-.12 1.67 0 2.47.31zm3.49-1.03c0 .1-.01.21-.01.31 0 .75.12 1.49.36 2.19-.33-.48-.74-.91-1.21-1.29-.53-.95-.83-2.05-.77-3.07.65.46 1.21 1.11 1.63 1.86zm-4.91 2.46c1.42-.34 3.13.09 4.33.97-.85.03-1.65.09-2.39.17-.74-.24-1.42-.63-1.94-1.14zm1.42-2.09c1.63.21 3.25 1.49 3.97 2.95-1.63-.25-3.29-1.46-3.97-2.95zm4.94 4.97c0 .27-.21.48-.48.48s-.48-.21-.48-.48.21-.49.48-.49.48.22.48.49z" class="fil3"/><path d="M60.4 26.33c-3.29 0-6.11.52-7.38 1.16v-.5c1.27-.63 4.09-1.14 7.4-1.14 3.29 0 6.11.51 7.37 1.14v.5c-1.26-.64-4.08-1.16-7.39-1.16zm-.14-7.31c-.18.3-.35.71-.53 1.23l-.46-9.46c.12.03.26.06.41.07-.17.18-.28.42-.28.69 0 .33.16.62.41.81a.935.935 0 00.04 1.49c-.2.16-.33.4-.33.68 0 .3.15.56.37.72a.833.833 0 00.04 1.31c-.18.14-.29.35-.29.6 0 .26.13.49.33.62-.16.13-.26.33-.26.55 0 .34.23.62.55.69zm.88-8.16c.15-.01.29-.04.41-.07l-.46 9.46c-.17-.52-.35-.93-.54-1.23a.7.7 0 00.56-.69c0-.22-.1-.42-.26-.55.2-.13.33-.36.33-.62 0-.25-.12-.46-.29-.6.2-.15.34-.39.34-.67a.81.81 0 00-.31-.64c.23-.16.37-.42.37-.72 0-.28-.12-.52-.32-.68.23-.18.38-.45.38-.76 0-.3-.13-.56-.34-.73.24-.19.4-.48.4-.81 0-.27-.1-.51-.27-.69zm-.74 17.7c-3.29 0-6.11.3-7.38.82v-.42c1.27-.53 4.09-.84 7.4-.84 3.29 0 6.11.31 7.37.84v.42c-1.26-.52-4.08-.82-7.39-.82zm.69-6.37c0 .96-.21 1.98-.66 2.83-.45-.85-.67-1.87-.67-2.83 0-.92.21-1.93.67-2.76.45.83.66 1.84.66 2.76zm-.02-20.76c-.13.22-.27.53-.23.8.16 1.04 1.79-.19 2.07-.4v2.43c-.36-.28-1.16-.89-1.67-.81-1.04.16.19 1.79.41 2.07h-2.44c.28-.36.89-1.16.81-1.67-.16-1.04-1.79.19-2.07.41V1.82c.36.28 1.16.88 1.67.81 1.04-.16-.19-1.79-.41-2.06h2.44c-.25.31-.45.6-.58.86zm-.64 4.72c1.02 0 1.85.83 1.85 1.85s-.83 1.85-1.85 1.85-1.85-.83-1.85-1.85.83-1.85 1.85-1.85z" class="fil3"/><path d="M60.33 16.71h.16c.21.04.37.22.37.45 0 .25-.2.45-.45.45s-.45-.2-.45-.45c0-.23.16-.41.37-.45zm.18 1.21c.19.04.32.21.32.41a.425.425 0 11-.85 0c0-.2.14-.37.32-.41h.21zm-.21-2.51c.03 0 .07.01.11.01.04 0 .08-.01.11-.01.22.05.38.25.38.48 0 .28-.22.49-.49.49-.28 0-.5-.21-.5-.49 0-.23.17-.43.39-.48zm-.03-1.39c.05.01.09.01.14.01.04 0 .09 0 .13-.01.23.06.39.27.39.51 0 .29-.23.53-.52.53-.29 0-.53-.24-.53-.53 0-.24.17-.45.39-.51zm.14-.37a.56.56 0 01-.56-.56c0-.27.18-.49.42-.55.05.01.09.01.14.01.04 0 .09 0 .14-.01.24.06.42.28.42.55 0 .29-.22.53-.51.56h-.05zm0-2.69c.33 0 .59.26.59.59 0 .33-.26.59-.59.59-.33 0-.6-.26-.6-.59 0-.33.27-.59.6-.59z" class="fil3"/><path d="M60.43 137.63c1.46-.75 2.87-2.15 3.44-3.53.77.48 1.81.9 2.88.93 2.3.05 4.58-1.59 5.2-3.53 1.66 1.71 3.77 1.41 5.11.78 2.02-.95 2.81-3.1 2.7-4.6.38.35.48 1.19.65 1.86.27 1.04 1 1.74 2.04 2.05-.74-2.4 1.22-2.41 1.68-4.28.58-2.35-.59-4-2.14-4.83 1.13-.71 1.67-2.08 1.02-3.9-.47-1.36-2.16-2.29-3.43-2.05 1.22 1.18.51 2.75-.84 2.69-1.67-.06-3.32-2.19-5.51-3.43-2.43-1.39-4.31-1.56-6.71-3.34 1.65-.15 2.92.4 3.85 1.57.27-2.54-1.89-3.47-3.34-4.46-2.9-1.97.26-6.67 2.51-7.25 3.13-.81 5.2 1.13 4.92 3.47-.32 2.67-2.91 1.96-3.99 1.46-.02 1.44 1.27 2.44 1.85 2.69.86.37 2.69.52 4-.65.05.77.29 1.17.93 1.58.3-1.05.49-1.33 1.05-2.21.37 1.85 1.63 2.6 2.94 2.37-.32-.72-.2-1.77-.09-2.2.3.41.71.75 1.36 1.05.06-.34.09-.64.22-.96.64.89 1.63 1.41 2.82 1.33-.72-.63-1.07-2.26-.7-3.65 1.01 1.66 4.83 2.06 5.53-.97-1.44.59-2.35-.1-2.62-.89-.4-1.16 1.01-4.16-.29-6.42-.99-1.73-2.14-2.76-4.83-3.16.22-.34.28-.62.37-1.12-2.46.94-4.63.28-5.58-1.76.5.25 1.23.34 1.88.33-2.16-1.82-2.05-6.81-.48-9.44.19-.1.31-.24.48-.33.51 1.02 1.92 1.02 2.64 1.77.28-.28.43-.34.73-.56 0 0 .06 4.1.33 5.75.31 1.93 2.12 1.7 3.08 2.55 1.11-1.15 3.1-1.14 2.82-3.2-.31-2.18-.73-4.08-.81-5.46.65 1.25 1.83 6.05 2.35 7.48.75 2.04 2.72 1.45 3.84 2.17.75-1.42 2.56-1.81 1.84-3.9-.2-.57-3.2-6.97-3.61-8.13 1.05 1.52 3.89 7.1 4.85 8.65 1.01 1.61 2.82.87 4.14 1.3.25-1.24 2.04-2.54.77-4.58-1.69-2.71-5.45-7.44-5.72-8.07.82.68 6.72 8.04 7.2 8.47 1.35 1.2 3.38.3 4.54.27-.01-1.37 1.11-2.91-.47-4.42-1.41-1.36-4.63-3.7-5.36-4.45 2.19 1.44 4.75 3.86 6.31 4.25 2.67.66 3.61-.41 4.65-.81-.87-2.46.23-3.61-5.48-6.01 5 1.78 7.16.9 8.91-.49-.69-1.8-2.43-3.25-3.88-3.74 3.03.07 5.03-1.32 6.34-3.05-1.1-1.47-3.32-2.58-5.81-2.85 3.75-.54 6.72-2.89 7.07-5.56-1.55-.96-4.01-1.19-6.43-1.03 3.85-1.29 6.52-4.23 6.71-6.82-2.1-.59-4.21-.3-6.06.13 1.96-1.43 5.04-4.02 4.68-7.81-1.84-.44-5.19.83-6.66 1.44 4.57-2.56 6.2-8.51 3.78-11.92-1.4.81-7.85 7.42-8.88 8.16 3.28-3.82 4.85-6.52 5.78-9.11 1.01-2.81 1.11-7.67-2.33-9.34-1.62 3.76-7.36 13.37-10.59 17.33-.29-.28-.59-.67-1-.78-.78 2.46-3.08 5.69-5.11 7.21-.1-.21-.26-.79-.67-1.32-2.17 3.27-7.83 7.72-9.66 10.43-1.38 2.05-1.44 3.94.55 5.84.79.76 2.34 2.2 1 4.14-2.13 3.12-6.88 3-8.26.32 2.61-.29 3.65-3.11 2.67-5.26l-1.29-.11c-.91.83-2.25 1.09-3.6.54-1.11-.46-1.96-1.06-2.42-1.58 2.43.82 4.56-.65 4.28-3.16-1.97 1.7-3.99.06-4.37-.37-1.29-1.45-1.62-3.1-1.12-5.58.44-2.17 2.65-5.62 4.17-6.78.17.25.51.68 1.22.55.47-.09 1.2-.5 1.67-.65 1.48-.46 2.97-.07 3.86.48 1.71 1.04 1.56 2.16 1.53 3.05 2.61-1.5 1.66-3.88-1.69-4.83 2.33.03 4.21 2.09 4.67 2.41 1.27.89 3.11.69 4.18.19 2.05-.96 2.52-3.35 1.95-3.9-.21.86-.9 1.62-2.04 1.76-1.79.22-3.49-.54-4.83-1.11-1.1-.47-2.96-.82-4.24-.73 2.3-1.32 5.94-1.17 7.21.82.76-.63 1.26-1.2 1.49-2.51.6-3.42-2.03-5.2-4.93-5.2.03-.82-.55-1.24-1.3-1.03.01-.46-.22-.83-.65-.83H72.41c-2.25 0-6.21-.18-6.68-.75.08 1.43 3.13 3.06 5.12 3.48-1.63.17-3.16-.01-4.43-.61.69 1 1.49 1.81 2.81 2.24-1.39 1.7-4.21 2.79-7.03 2.52.67.86 1.92 1.37 3.08 1.22-2.29 3.61-4.38 7.59-4.85 13.05v83.23zm1.08-26.55c.33 2.69 1.46 6.92 3.01 10.38 1.11 2.48 2.72 8.27-.19 9.75.28-2.07-.28-6.89-1.14-10.11-.49-1.83-2.21-8.75-1.68-10.02zm12.89 13.97c.87 1.47-.33 2.53-2.08 2.54.03-.62.01-.8-.09-1.49.7-.08 1.66-.35 2.17-1.05zm-10.08-11.56c2.06 2.42 6.15 4.82 7.14 6.65.49.9.79 2.73-.67 2.91-.82-2.21-1.85-3.49-3.15-5.23-.86-1.14-2.58-3.1-3.32-4.33z" class="fil2"/><path d="M60.43 137.63c-1.46-.75-2.87-2.15-3.44-3.53-.78.47-1.81.9-2.88.93-2.31.05-4.59-1.59-5.21-3.53-1.66 1.71-3.77 1.41-5.1.78-2.02-.95-2.82-3.1-2.7-4.6-.39.35-.48 1.19-.66 1.86-.27 1.04-.99 1.74-2.04 2.05.75-2.4-1.21-2.41-1.67-4.28-.59-2.35.58-4 2.13-4.83-1.13-.71-1.67-2.08-1.02-3.9.48-1.36 2.17-2.29 3.44-2.05-1.23 1.18-.51 2.75.84 2.69 1.66-.06 3.32-2.19 5.51-3.43 2.43-1.39 4.3-1.56 6.71-3.34-1.65-.15-2.93.4-3.86 1.57-.26-2.54 1.89-3.47 3.35-4.46 2.89-1.97-.27-6.67-2.51-7.25-3.13-.81-5.21 1.13-4.92 3.47.32 2.67 2.91 1.96 3.99 1.45.01 1.45-1.28 2.45-1.86 2.7-.85.37-2.68.52-3.99-.65-.05.77-.29 1.17-.93 1.58-.31-1.05-.5-1.33-1.05-2.21-.38 1.85-1.63 2.6-2.94 2.37.32-.72.19-1.77.08-2.2-.3.41-.71.75-1.36 1.05-.05-.34-.09-.64-.22-.96-.64.89-1.63 1.41-2.82 1.33.73-.63 1.08-2.26.71-3.65-1.01 1.66-4.83 2.06-5.53-.97 1.43.59 2.35-.1 2.62-.89.4-1.16-1.02-4.16.28-6.42 1-1.73 2.14-2.76 4.83-3.16-.21-.34-.28-.62-.37-1.12 2.47.94 4.63.28 5.58-1.76-.49.25-1.23.34-1.88.33 2.16-1.82 2.05-6.81.49-9.44-.2-.1-.31-.24-.49-.33-.5 1.02-1.91 1.02-2.63 1.77-.28-.28-.43-.34-.74-.56 0 0-.05 4.1-.32 5.75-.31 1.93-2.12 1.7-3.08 2.55-1.12-1.15-3.11-1.14-2.82-3.2.31-2.18.73-4.08.81-5.46-.65 1.25-1.83 6.05-2.35 7.48-.76 2.04-2.73 1.45-3.84 2.17-.75-1.42-2.56-1.81-1.84-3.9.2-.57 3.19-6.97 3.61-8.13-1.05 1.52-3.9 7.1-4.86 8.65-1 1.61-2.81.87-4.14 1.3-.25-1.24-2.03-2.54-.76-4.58 1.69-2.71 5.44-7.44 5.71-8.07-.82.68-6.71 8.04-7.19 8.47-1.36 1.2-3.39.3-4.54.27.01-1.37-1.11-2.91.47-4.42 1.41-1.36 4.63-3.7 5.35-4.45-2.19 1.44-4.74 3.86-6.3 4.25-2.68.66-3.61-.41-4.65-.81.87-2.46-.24-3.61 5.48-6.01-5 1.78-7.17.9-8.91-.49.69-1.8 2.43-3.25 3.88-3.74-3.03.07-5.03-1.32-6.35-3.05 1.1-1.47 3.33-2.58 5.81-2.85C3.6 65.23.63 62.88.28 60.21c1.54-.96 4.01-1.19 6.43-1.03C2.86 57.89.18 54.95 0 52.36c2.1-.59 4.21-.3 6.05.13-1.95-1.43-5.03-4.02-4.67-7.81 1.83-.44 5.19.83 6.66 1.44-4.57-2.56-6.2-8.51-3.79-11.92 1.4.81 7.86 7.42 8.89 8.16-3.29-3.82-4.85-6.53-5.78-9.11-1.01-2.81-1.12-7.67 2.33-9.34 1.62 3.76 7.36 13.37 10.58 17.33.3-.28.59-.67 1-.78.79 2.46 3.09 5.69 5.12 7.21.1-.21.26-.79.67-1.32 2.17 3.27 7.82 7.72 9.66 10.43 1.38 2.05 1.44 3.94-.55 5.84-.79.76-2.34 2.2-1.01 4.14 2.14 3.12 6.88 3 8.26.32-2.58-.29-3.63-3.05-2.7-5.2l1.44-.07c.9.75 2.19.97 3.49.44 1.11-.46 1.95-1.06 2.42-1.58-2.43.82-4.56-.65-4.28-3.16 1.96 1.7 3.98.06 4.37-.37 1.28-1.45 1.62-3.1 1.12-5.58-.44-2.17-2.66-5.62-4.18-6.78-.16.25-.51.68-1.22.55-.46-.09-1.19-.5-1.67-.65-1.47-.46-2.96-.07-3.86.48-1.7 1.04-1.55 2.16-1.53 3.05-2.6-1.5-1.66-3.88 1.7-4.83-2.33.03-4.21 2.09-4.68 2.41-1.27.89-3.11.69-4.18.19-2.04-.96-2.51-3.35-1.95-3.9.21.86.9 1.62 2.05 1.76 1.78.22 3.48-.54 4.83-1.11 1.1-.47 2.96-.82 4.23-.73-2.3-1.32-5.93-1.17-7.21.82-.75-.63-1.26-1.2-1.48-2.51-.6-3.42 2.02-5.2 4.92-5.2-.03-.82.56-1.24 1.31-1.03-.02-.46.22-.83.64-.83h11.44c2.26 0 6.22-.18 6.69-.75-.08 1.43-3.13 3.06-5.13 3.48 1.64.17 3.17-.01 4.44-.61-.7 1-1.49 1.81-2.82 2.24 1.4 1.7 4.22 2.79 7.04 2.52-.67.86-1.93 1.37-3.09 1.22 2.3 3.61 4.38 7.59 4.86 13.05v83.23zm-1.08-26.55c-.34 2.69-1.46 6.92-3.01 10.38-1.11 2.48-2.72 8.27.19 9.75-.29-2.07.28-6.89 1.13-10.11.49-1.83 2.21-8.75 1.69-10.02zm-12.89 13.97c-.87 1.48.33 2.53 2.07 2.54-.02-.62 0-.8.1-1.49-.7-.08-1.66-.35-2.17-1.05zm10.08-11.56c-2.06 2.42-6.16 4.82-7.15 6.65-.49.9-.78 2.73.68 2.91.82-2.21 1.85-3.49 3.14-5.23.86-1.14 2.59-3.1 3.33-4.33z" class="fil2"/><path d="M60.43 136v.83c.86-.35 2.65-1.95 2.94-3.07-.13-.15-.31-.41-.31-.41-.3 1-1.52 2.54-2.63 2.65zm0 0v.83c-.86-.35-2.65-1.95-2.94-3.07.13-.15.3-.41.3-.41.31 1 1.53 2.54 2.64 2.65zm-.01-2.2l.01 1.52c1.13-.28 2.08-1.73 2.23-2.35-.45-.56-.75-1.35-.93-1.94.58.26.76.25 1.22.33.11-1.17.07-3.38-.11-4.98.35.97.73 3.58.53 5.01 0 0 .38.01.39-.06.37-2.69-.31-6.93-.98-10.03-.73-3.34-1.5-5.64-1.8-8.95-.43 2.79-.41 7.11-.33 10.72.03 1.09.02 8.96-.23 10.73z" class="fil3"/><path d="M60.43 133.8v1.52c-1.13-.28-2.08-1.73-2.23-2.35.44-.56.75-1.35.93-1.94-.58.26-.76.25-1.22.33-.12-1.17-.07-3.38.1-4.98-.35.97-.72 3.58-.52 5.01 0 0-.38.01-.39-.06-.38-2.69.3-6.93.98-10.03.73-3.34 1.5-5.64 1.79-8.95.43 2.79.42 7.11.34 10.72-.03 1.09-.02 8.96.22 10.73zm1.66-23.82c-.4 2.25 1.19 6.65 2.15 9.24.86 2.36 2.19 4.48 2.41 7.44.25 3.33-.92 5.62-3.95 5.29.52 1.13 1.46 1.78 2.75 2.15 2.46.71 4.4-.57 5.38-1.95.22-.31.32-.55.47-.94-.64-.63-1.55-.21-1.89.18-.91-2.15.27-3.41 2.26-3.71 0-.58-.07-1.18-.27-1.67-1.78-.17-2.36-2.13-2.24-3.21.31.15.66.21.93.24-.58-2.09-2.63-4.54-4.18-6.51-1.31-1.66-3.17-3.95-3.82-6.55z" class="fil3"/><path d="M58.76 109.98c.41 2.25-1.19 6.65-2.14 9.24-.87 2.36-2.2 4.48-2.42 7.44-.25 3.33.93 5.62 3.96 5.29-.52 1.13-1.47 1.78-2.75 2.15-2.46.71-4.41-.57-5.39-1.95-.22-.31-.32-.55-.47-.94.64-.63 1.56-.21 1.89.18.92-2.15-.26-3.41-2.26-3.71 0-.58.08-1.18.28-1.67 1.78-.17 2.35-2.13 2.23-3.21-.3.14-.65.21-.93.24.59-2.1 2.63-4.54 4.19-6.51 1.31-1.66 3.16-3.95 3.81-6.55zm4.3-2.27c-.83 1.6-.09 2.97.71 4.08 1.58 2.17 3.64 3.84 5.67 5.48.93.76 2.13 1.42 2.7 2.51.77 1.47.54 3.8-1.21 4-.43.05-.81-.16-1.02-.19 0 .5.43 1.15.92 1.49 1.44.97 3.09-.2 3.69-1.08 1.65 1.57.84 3.85-.89 4.15-1.8.31-4.04.21-3.91 2.32 1.28-.75 2.14.07 2.98.75 2.3 1.84 4.95.45 5.94-1.68.3-.62.6-2.47.33-3.28 2.44.96 1.59 3.1 2.65 4.12.03-1.6 1.62-2.23 1.86-3.34.47-2.07-1.05-4.57-3.94-4.57 1.59-.09 2.75-.67 2.95-1.85.33-1.91-.72-2.91-1.61-3.25.71 1.4-1.04 3.66-3.63 2.23-1.09-.61-2.82-2.44-4.35-3.23-2.44-1.27-4.11-1.7-6.71-3.37-1.61-1.04-3.04-2.84-3.13-5.29z" class="fil3"/><path d="M57.8 107.71c.83 1.6.09 2.96-.72 4.08-1.57 2.17-3.63 3.84-5.67 5.48-.93.76-2.13 1.42-2.69 2.51-.77 1.47-.54 3.8 1.21 4 .43.05.81-.16 1.02-.19-.01.5-.43 1.15-.93 1.49-1.43.97-3.08-.2-3.68-1.08-1.66 1.57-.84 3.85.89 4.15 1.8.31 4.04.21 3.9 2.32-1.27-.75-2.13.07-2.97.75-2.3 1.84-4.95.45-5.95-1.68-.29-.62-.6-2.47-.32-3.28-2.44.96-1.59 3.1-2.65 4.12-.03-1.6-1.62-2.23-1.87-3.34-.46-2.07 1.06-4.57 3.94-4.57-1.59-.09-2.74-.67-2.94-1.85-.33-1.91.72-2.91 1.61-3.25-.71 1.4 1.03 3.66 3.63 2.23 1.09-.61 2.81-2.44 4.34-3.23 2.45-1.27 4.12-1.7 6.72-3.37 1.61-1.04 3.04-2.84 3.13-5.29zm7.74-1.87c-1.98 2.83-.83 5.98.99 5.96 1.47-.01 1.94-.16 3.01.64-.49-1.27-2.23-1.88-2.78-2.29-1.08-.8-1.7-1.65-1.22-4.31z" class="fil3"/><path d="M55.32 105.84c1.97 2.83.83 5.98-.99 5.96-1.47-.01-1.95-.16-3.01.64.48-1.27 2.23-1.88 2.78-2.29 1.07-.8 1.69-1.65 1.22-4.31zm26.51-3c.14.9.13 1.57-.09 2.37-.24-.35-.64-.7-.97-.95.25.93.26 2.47.27 3.46.14.27.59.86 1.01 1.11 0 0 .12-.44.22-.87-.52-1.23-.29-2.48.38-3.34-.02-.29-.69-1.5-.82-1.78zm-42.8 0c-.15.9-.13 1.57.08 2.37.25-.35.65-.7.97-.95-.24.93-.25 2.47-.26 3.46-.14.27-.6.86-1.01 1.11 0 0-.13-.44-.22-.87.51-1.23.29-2.48-.39-3.34.03-.29.69-1.5.83-1.78zm39.84.33c-.3-.15-.66-.29-.93-.29.5.84.8 1.63.89 2.5.24 2.24-.46 4.2 1.65 5.03 0 0-.01-1.14.02-1.32.39-1.95.18-3.83-.02-4.99-.26-.22-.69-.52-1-.68.4.95.59 2.31.34 3.38-.25-1.39-.21-2.4-.95-3.63zm-36.88 0c.3-.15.66-.29.93-.29-.51.84-.81 1.63-.89 2.5-.24 2.24.46 4.2-1.66 5.03 0 0 .02-1.14-.02-1.31-.39-1.96-.18-3.84.02-5 .27-.22.7-.52 1.01-.68-.4.95-.6 2.31-.35 3.38.26-1.39.22-2.4.96-3.63z" class="fil3"/><path d="M75.65 101.6c1.37 1.28 1.91 2.99 1.68 4.81-.17 1.35-.93 1.74-.32 3.48.07-.93 1.27-1.6 1.45-2.93.33-2.53-1.13-4.65-2.81-5.36zm-30.44 0c-1.38 1.28-1.92 2.99-1.68 4.81.16 1.35.93 1.74.32 3.48-.07-.93-1.27-1.6-1.45-2.93-.34-2.53 1.13-4.66 2.81-5.36z" class="fil3"/><path d="M73.16 100.82c-1.02-.1-2.55.09-3.46.78 3.2-.47 5.13 1.02 5.45 3.28.24 1.74-.73 3.7-3.05 3.35.19.31.93.69 1.99.59-1.12.41-2.06-.09-2.72-.65.66 1.54 3.42 1.93 4.77.18 2.14-2.77.12-7.22-2.98-7.53zm-25.47 0c1.02-.1 2.56.09 3.47.78-3.21-.47-5.14 1.02-5.45 3.28-.24 1.74.73 3.7 3.05 3.35-.2.31-.94.69-2 .59 1.13.41 2.06-.09 2.73-.65-.67 1.54-3.42 1.93-4.77.18-2.14-2.77-.12-7.22 2.97-7.53zm29.94-1.19c.31.34 1.69 1.45 2.31 2.37-.98-.43-2.14-1.43-3.29-1.79.19.27 1.47 2.17 1.62 2.29 1.37.45 2.43 1.06 3.27 1.87 0-3.3-1.43-4.45-3.91-4.74zm-34.4 0c-.32.34-1.69 1.45-2.32 2.37.99-.43 2.14-1.43 3.3-1.79-.19.27-1.48 2.17-1.63 2.29-1.37.45-2.43 1.06-3.27 1.87 0-3.3 1.44-4.45 3.92-4.74zm38.29-.01l-1.04-.32 1.75 1.22-.71-.9zm-42.19 0l1.05-.32-1.75 1.22.7-.9z" class="fil3"/><path d="M83.86 100.35c-.55-.11-2.01-.57-1.88-.61.25.25.83 1.11 1.05 2.08-.44-.78-1.63-1.69-2.11-1.97-.36.08-.83-.02-1.05.08 1.99 1.72 2.83 3.53 3.33 5.19 1.47-1.53 1.3-3.24.66-4.77zm-46.87 0c.56-.11 2.01-.57 1.89-.61-.26.25-.83 1.11-1.06 2.08.45-.78 1.64-1.69 2.11-1.97.36.08.84-.02 1.06.08-2 1.72-2.83 3.53-3.33 5.19-1.47-1.53-1.31-3.24-.67-4.77z" class="fil3"/><path d="M84.28 98.91c0 .01.1.83.03 1.55.44 1.47.75 3.64-1.2 5.2-.11-.25-.16-.42-.28-.75-.48.53-.61 1.54-.45 2.21.26 1.14 1.03 1.97 2.03 2.44-.85-1.69.17-3.91.28-4.18.89-2.23 1.81-4.5-.41-6.47zm-47.7 0c0 .01-.1.83-.03 1.55-.44 1.47-.75 3.63 1.2 5.2.11-.25.15-.42.28-.75.47.53.61 1.54.45 2.21-.27 1.14-1.04 1.97-2.03 2.44.85-1.69-.17-3.91-.28-4.18-.9-2.23-1.81-4.5.41-6.47zm40.49.61c-.5-.16-1.03-.38-1.73-.62.35.3.76.71.94.82.69.28 1.86.88 2.36 1.2-.07-.06-1.25-1.14-1.57-1.4zm-33.28 0c.5-.16 1.02-.38 1.72-.62-.35.3-.76.71-.94.82-.69.28-1.85.88-2.36 1.2.07-.06 1.26-1.14 1.58-1.4zm29.67-1.74c-.34.27-1.05.61-1.58.72.64.22 1.96.68 2.65 1.35-.48-.15-2.64-.66-3.7-.7-.25.56-1.07 1.82-1.2 2.04 2.36-1.34 5.61-.93 8.14 1.35-.76-1.84-3.73-4.57-4.31-4.76zm-26.06 0c.33.27 1.04.61 1.58.72-.65.22-1.97.68-2.65 1.35.47-.15 2.63-.66 3.69-.7.26.56 1.07 1.82 1.21 2.04-2.36-1.34-5.61-.93-8.15 1.35.77-1.84 3.74-4.57 4.32-4.76z" class="fil3"/><path d="M81.43 96.33c-.7.32-1.3.43-2.21.48 1.1.34 1.9.5 2.84 1.34-1.34-.46-2.52-.5-3.62-.66.5.28 1.18.86 1.47 1.18 1.4.68 2.87 1.04 4.12 1.39-.03-1.69-.87-3.06-2.6-3.73zm-42 0c.7.32 1.3.43 2.21.48-1.11.34-1.9.5-2.84 1.34 1.34-.46 2.52-.5 3.61-.66-.49.28-1.17.86-1.47 1.18-1.4.68-2.87 1.04-4.11 1.39.02-1.69.87-3.06 2.6-3.73z" class="fil3"/><path d="M82.37 95.67c-.19.2-.31.35-.56.51 1.26.53 2.19 1.79 2.36 2.28.53.2 1.39 1.02 1.69 2.09.35 1.21.16 2.31-.38 3.63.05 1.26.81 2.27 2.18 2.4-1.37.1-2.13-.62-2.4-1.9-.36 1.14.2 1.98 1.1 2.37.89.38 2 .23 2.6-.56-3.75-.62-.42-5.02-1.91-7.83-.69-1.32-2.11-2.72-4.68-2.99zm-43.88 0c.19.2.31.35.56.51-1.26.53-2.2 1.79-2.36 2.28-.53.2-1.39 1.02-1.69 2.09-.35 1.21-.16 2.31.37 3.63-.04 1.26-.8 2.27-2.17 2.4 1.37.1 2.13-.62 2.4-1.9.36 1.14-.2 1.98-1.1 2.37-.9.38-2 .23-2.61-.56 3.75-.62.43-5.02 1.91-7.83.7-1.32 2.11-2.72 4.69-2.99zm36.53-.13c-.09.23-.21.47-.33.79.71.49 1.78 1.18 2.54 1.82-.97-.29-2.09-.92-2.96-1.15-.12.18-.38.46-.6.62 2.61 1.86 5.37 1.93 6.63 2.01-1.14-1.76-4.01-3.41-5.28-4.09zm-29.18 0c.09.23.2.47.33.79-.71.49-1.79 1.18-2.55 1.82.97-.29 2.09-.92 2.97-1.15.12.18.37.46.59.62-2.6 1.86-5.36 1.93-6.62 2.01 1.14-1.76 4-3.41 5.28-4.09zm29.56-5.25v1.37c.27.99 1.17 2.03 1.67 2.47-.69-.28-1.46-1.21-1.67-1.64 0 1.41-.08 2.02-.28 2.7.24.24.96.66 1.5.88 2.52 1.05 4.86.16 5.43-1.16-.89.81-3.13 1.76-5.17.43 1.58.71 3.29.41 4.29-.38-1.4.16-3.74-.43-4.41-3.07-.41-.36-1.15-1.09-1.36-1.6zm-29.94 0v1.37c-.27.99-1.17 2.03-1.67 2.47.69-.28 1.46-1.21 1.67-1.64-.01 1.41.07 2.02.27 2.7-.24.24-.95.66-1.5.88-2.51 1.05-4.86.16-5.43-1.16.89.81 3.13 1.76 5.18.43-1.59.71-3.29.41-4.3-.38 1.4.16 3.75-.43 4.41-3.07.42-.36 1.15-1.09 1.37-1.6zm40.06-7.41c.06.97.37 3.75.23 5.44-.37-1-1.19-5.13-1.26-5.59-.17.58-.82.62-1.2.94.03.89.06 4.9.12 5.47.23 2.15 1.83 1.8 2.59 2.38.87-.65 2.5-1.07 2.33-2.35-.29-2.13-.65-3.85-.86-5.74-.75-.33-1.36-.22-1.95-.55zm-50.19 0c-.06.97-.36 3.75-.22 5.44.36-1 1.19-5.13 1.26-5.59.16.58.82.62 1.19.94-.03.89-.05 4.9-.11 5.47-.23 2.15-1.83 1.8-2.6 2.38-.86-.65-2.5-1.07-2.32-2.35.29-2.13.64-3.85.86-5.74.75-.33 1.36-.22 1.94-.55zm55.2-1.73c.42 1.5 1.82 6.28 1.99 7.17-.87-1.39-2.5-5.54-3.05-6.94-.2.59-.64.98-.86 1.4.56 2.11 2.19 7.54 2.5 8.3.46 1.14 2.21.86 2.92 1.44.44-.77 2.04-1.5 1.62-2.77-.61-1.84-2.83-6.83-3.77-8.41-.27-.11-.94-.08-1.35-.19zm-60.2 0c-.42 1.5-1.83 6.28-1.99 7.17.86-1.39 2.5-5.54 3.05-6.94.19.59.64.98.85 1.4-.55 2.11-2.19 7.54-2.49 8.3-.46 1.14-2.22.86-2.93 1.44-.43-.77-2.03-1.5-1.61-2.77.61-1.84 2.82-6.83 3.77-8.41.27-.11.94-.08 1.35-.19zm65.52-2.52c-.56-.14-1.48-.03-2.22-.58.13.25 4.12 6.22 4.89 8.07-.95-.84-3.98-5.12-4.98-6.36-.17.36-.39.8-.45 1.3.63 1.34 4.5 8.35 4.96 8.8.92.89 1.95.26 2.96.59.4-.86 1.32-1.44 1.06-2.83-.22-1.17-5.45-8.13-6.22-8.99zm-70.84 0c.56-.14 1.48-.02 2.22-.58-.13.25-4.13 6.22-4.9 8.07.96-.84 3.99-5.12 4.98-6.36.17.36.39.8.46 1.3-.63 1.34-4.5 8.35-4.96 8.8-.92.89-1.96.26-2.96.59-.4-.86-1.32-1.44-1.06-2.83.22-1.17 5.45-8.13 6.22-8.99zm56.33-3.29a.916.916 0 01-.38-.55c-.13.59-.58.89-.89 1.07-.01 1.16-.3 5.54-.31 6.1-.03 1.14 1.25 1.25 2.16 1.86.97-.72 2.39-.86 2.33-2.16-.06-1.53-.59-4.03-.67-5.37-.13.09-.3.27-.44.42-.32-.47-.66-.57-.88-.78-.06.53-.09 3.06-.36 4.63-.28-1.62-.37-3.67-.56-5.22zm-41.82 0c.14-.1.31-.26.38-.56.12.6.57.9.88 1.08.02 1.16.3 5.54.32 6.1.03 1.14-1.25 1.25-2.17 1.86-.97-.72-2.38-.86-2.33-2.16.07-1.53.59-4.03.68-5.37.13.09.29.27.43.42.32-.47.67-.57.89-.78.05.53.09 3.06.36 4.63.28-1.62.36-3.67.56-5.22zm45.8-.47l-.26.36.86 2.18-.6-2.54zm-49.78 0l.26.36-.86 2.18.6-2.54z" class="fil3"/><path d="M85.6 74.63c.29 1.27.82 3.74.95 4.72-.69-1.13-1.39-3.09-1.74-3.92l-.81.54c.17 1.41.78 4.78.97 5.47.36 1.24 1.7 1.08 2.79 1.54.6-.99 1.84-1.6 1.11-3.44-.41-1.04-1.72-3.72-2.05-4.44-.4-.04-.76.11-1.22-.47zm-50.34 0c-.29 1.27-.82 3.74-.95 4.72.69-1.13 1.39-3.09 1.74-3.92l.8.54c-.16 1.41-.77 4.78-.97 5.47-.36 1.24-1.69 1.08-2.78 1.54-.6-.99-1.85-1.6-1.11-3.44.41-1.04 1.72-3.71 2.05-4.44.4-.04.75.11 1.22-.47zm54.55-1.47c-.18.31-.51.69-.66 1.08.52 1.07 1.4 2.85 1.67 3.99-.6-.54-1.98-2.9-2.38-3.45-.36 0-.83.09-1.18.24.46 1.05 1.28 2.95 2.26 4.86.5.97 1.97.74 3.02.94.41-1 1.03-1.72.6-2.68-.64-1.44-2.55-3.76-3.33-4.98zm-58.77 0c.19.31.51.69.67 1.08-.52 1.07-1.4 2.85-1.68 3.99.61-.54 1.99-2.9 2.39-3.45.36 0 .83.09 1.17.24-.45 1.05-1.27 2.95-2.26 4.86-.5.97-1.96.74-3.02.94-.41-1-1.03-1.72-.6-2.68.64-1.44 2.56-3.76 3.33-4.98zm61.63-1.59c-.37.14-.56.25-.78.38.89.84 1.83 2.19 2.67 3.33-.95-.75-3.43-2.9-3.7-3.15-.47-.02-.65-.12-.91-.26.11.33.07.67.06.85.59.98 2.72 3.69 3.42 4.41.86.89 2.11.84 3.43.92.32-1.33 1.01-2.47-.04-3.58-.65-.68-3.75-2.63-4.15-2.9zm-64.49 0c.38.14.56.25.78.38-.88.84-1.82 2.19-2.67 3.33.95-.75 3.44-2.9 3.71-3.15.46-.02.65-.12.91-.26-.11.33-.08.67-.06.85-.59.98-2.72 3.69-3.42 4.41-.87.89-2.11.84-3.44.92-.31-1.33-1-2.47.05-3.58.65-.68 3.75-2.63 4.14-2.9zm71.11-1.34c-.65-.15-5.41-1.14-5.41-1.14.05.39.05.6.14.94 1.33.5 2.91 1.31 4.04 1.84-1.53-.17-3.74-.85-4.03-.96-.35.11-.93.51-.93.51.9.45 2.46 1.57 4.08 2.25 1.52.64 3.24-.19 3.87-.55-.13-1.14-.49-2.58-1.76-2.89zm-77.72 0c.64-.15 5.41-1.14 5.41-1.14-.06.39-.06.6-.14.94-1.33.5-2.91 1.31-4.05 1.84 1.53-.17 3.74-.85 4.04-.96.34.11.93.51.93.51-.91.45-2.46 1.57-4.08 2.25-1.53.64-3.24-.2-3.87-.55.13-1.14.49-2.58 1.76-2.89zm86.78-1.72c-2.19-.28-3.82-.22-4.52-.31.06.2.04.35 0 .37 1.36.13 2.42.02 4.52-.06zm-95.85 0c2.19-.28 3.83-.22 4.52-.31-.05.2-.03.35 0 .37-1.36.13-2.41.02-4.52-.06z" class="fil3"/><path d="M118.53 68.5c-1.47-1.41-4.11-2.46-7.04-2.4-2.86.05-5.63.05-8.79.25.58.47.95 1.13 1.08 1.47 2.82.27 4.8.14 7.99.77-2.89.5-7.34.36-8.21.31-.35.47-.98.83-1.72 1 4.21.74 7.15 1.05 9.84 1.27 3.24.26 5.41-.67 6.85-2.67zm-116.21 0c1.48-1.41 4.12-2.46 7.05-2.4 2.85.05 5.63.05 8.79.25-.58.47-.95 1.13-1.08 1.47-2.82.27-4.8.14-7.99.77 2.89.5 7.33.36 8.21.31.34.47.97.83 1.72 1-4.21.74-7.16 1.05-9.85 1.27-3.23.26-5.4-.67-6.85-2.67z" class="fil3"/><path d="M100.66 65.97c-1.5-.05-4.65-.26-5.73-.2-.22.32-.63.68-.88.84 1.02.33 3.27.57 4.64.99-1.4.15-4.34-.14-5.67-.14.43.27.69.74.82 1.19 1.12.29 5.78 1.04 5.78 1.04 2.22.26 2.94-.58 3.67-1.39-.46-1.26-1.43-2.29-2.63-2.33zm-80.47 0c1.51-.05 4.65-.26 5.74-.2.22.32.63.68.87.84-1.02.33-3.26.57-4.63.99 1.4.15 4.33-.14 5.67-.14-.43.27-.69.74-.82 1.19-1.12.29-5.79 1.04-5.79 1.04-2.21.26-2.93-.58-3.66-1.39.45-1.26 1.42-2.29 2.62-2.33zm78.22-2.63c-.9 0-2.02 0-2.94.1 0 0 .21.23.39.37.91-.08 1.97-.33 2.55-.47zm-75.96 0c.89 0 2.02 0 2.94.1 0 0-.21.23-.39.37-.92-.08-1.97-.33-2.55-.47zm86.38-.29c-.88.08-3.83.41-3.83.41-.2.2-.14.34-.36.47 0 0 3.44-.61 4.19-.88zm-96.8 0c.88.08 3.83.41 3.83.41.19.2.14.34.36.47 0 0-3.45-.61-4.19-.88zm50.87-2.39c-.09.58-.06 1.36-.06 2.2h.78c-.08-.63-.5-1.39-.72-2.2zm-4.94 0c.09.58.05 1.36.05 2.2h-.77c.08-.63.5-1.39.72-2.2z" class="fil3"/><path d="M104.48 62.81c-.81-1.71-2.74-2.11-4.85-1.66-2 .42-3.59.69-5.62 1.13.48.23.65.45 1.14.86 1.34.02 3.3-.2 5.08.02-1.28.5-3.1.84-4.4.95-.14.35-.56 1.12-.56 1.12 1.25.02 4.07.12 5.8-.06 1.67-.17 2.9-1.24 3.41-2.36zm-88.1 0c.8-1.71 2.73-2.11 4.85-1.66 1.99.42 3.58.69 5.61 1.13-.48.23-.64.45-1.14.86-1.33.02-3.29-.2-5.07.02 1.27.5 3.1.84 4.39.95.14.35.56 1.12.56 1.12-1.25.02-4.06.13-5.8-.06-1.66-.17-2.89-1.24-3.4-2.36zm50.54-3.09c-.03 1.06.13 2.28.2 3.14h.93c-.41-.92-.88-1.81-1.13-3.14zm-12.98 0c.03 1.06-.14 2.28-.2 3.14h-.93c.41-.92.88-1.81 1.13-3.14zm14.81-.86c.19 1.5.88 3.25 1.06 4h1.21c-.35-.74-1.94-2.67-2.27-4zm-16.64 0c-.2 1.5-.88 3.25-1.07 4h-1.2c.34-.74 1.93-2.67 2.27-4z" class="fil3"/><path d="M119.73 60.67c-2.16-1.11-5.92-1.01-8.3-.45-1.97.46-5.55 1.26-6.76 1.56.24.24.41.57.59.97-.05.2-.07.31-.12.43.18-.01 5.13-.85 7.95-.65-2.66.85-8.56 1.72-8.76 1.79-.66.67-1.55 1.11-2.38 1.39.67.12 8.6-.04 10.41-.28 2.58-.35 6.56-1.93 7.37-4.76zm-118.6 0c2.16-1.11 5.92-1.01 8.3-.45 1.96.46 5.55 1.26 6.75 1.56-.24.24-.41.57-.58.98.05.19.07.3.12.42-.19-.01-5.13-.85-7.96-.65 2.66.85 8.57 1.72 8.76 1.79.67.67 1.56 1.11 2.39 1.39-.68.12-8.6-.04-10.41-.28-2.59-.35-6.56-1.93-7.37-4.76zM65.28 59c-.17 1.09-.25 2.6-.12 3.86h1.49c-.1-1.42-.87-2.59-1.37-3.86zm-9.71 0c.17 1.09.26 2.6.12 3.86H54.2c.1-1.42.88-2.59 1.37-3.86zm5.19-.03c-.2 1.06.1 2.79-.11 3.89h1.63c-.38-1.32-1.14-2.46-1.52-3.89zm-.66 0c.19 1.06-.1 2.79.11 3.89h-1.64c.39-1.32 1.15-2.46 1.53-3.89zm48.68-1.36c-1.43.37-3.79 1.03-4.31 1.27-.1.15-.26.33-.37.49.26-.11 3.53-1.16 4.68-1.76zm-96.71 0c1.43.37 3.8 1.03 4.32 1.27.1.15.26.33.37.49-.26-.11-3.54-1.16-4.69-1.76zm51.77-2.36s-.89 3.62-.81 4.86c.36.91.69 1.94 1.02 2.75h.75c0-1.08.01-2.75.29-4.11-.17-.78-.29-1.6-.39-2.28-.42 1.5-.41 2.04-.5 3.75-.21-1.65-.42-3.55-.36-4.97zm-6.82 0s.89 3.62.81 4.86c-.37.91-.7 1.94-1.02 2.75h-.75c0-1.08-.01-2.75-.29-4.11.17-.78.29-1.6.39-2.28.41 1.5.4 2.04.5 3.75.21-1.65.41-3.55.36-4.97zm10.32.54c-.8 3.91-.01 5.33 1.17 7.07h.93c-.53-1.3-1.19-4.83-1.19-6.94 0 .14-.25 2.3-.14 3.97-.48-1.61-.59-2.53-.77-4.1zm-13.83 0c.81 3.91.01 5.33-1.17 7.07h-.93c.53-1.3 1.2-4.83 1.2-6.94 0 .14.25 2.3.14 3.97.47-1.61.59-2.53.76-4.1zm17.1-1.04c.02 1.89 1.09 3.99 2.46 4.62-1.54-.42-2.24-2.14-2.24-2.14.08.5.35 1.67.68 2.3 1.56 1.31 4.2.9 4.78-.76-2.87 1.14-4.86-1.18-5.68-4.02zm-20.36 0c-.03 1.89-1.09 3.99-2.46 4.62 1.53-.42 2.23-2.14 2.23-2.14-.08.5-.34 1.67-.67 2.3-1.56 1.31-4.21.9-4.78-.76 2.87 1.14 4.86-1.18 5.68-4.02zm54.66 1.71c-1.29-1-3.06-1.34-4.89-.53-.32.14-3.24 1.56-4.47 2.24-.03.33-.17.84-.27 1.02 1.08-.27 3-.83 4.74-1.12-1.85 1.15-4.25 1.72-5.16 2.05-.29.48-.76 1.13-1.62 1.66 2.84-.55 6.57-.9 9.03-1.97.72-.32 2.46-1.65 2.64-3.35zm-88.96 0c1.28-1 3.06-1.34 4.88-.53.32.14 3.24 1.56 4.48 2.24.03.33.16.84.27 1.02-1.09-.27-3-.83-4.75-1.12 1.85 1.15 4.26 1.72 5.17 2.05.28.48.75 1.13 1.62 1.66-2.85-.55-6.58-.9-9.03-1.97-.72-.32-2.46-1.65-2.64-3.35zm80.37-1.45c-.98.47-1.98 1.19-2.84 1.65l.42.06c.79-.46 1.4-.93 2.42-1.71zm-71.78 0c.97.47 1.98 1.19 2.83 1.65l-.42.06c-.79-.46-1.39-.93-2.41-1.71z" class="fil3"/><path d="M68.56 52.98c-.6 4.17.52 7.47 3.09 9.88h3.7l-.52-.15c-3.79-1.46-5.23-4.93-5.89-9.7-.11.81-.03 2.61.19 3.76-.46-1.23-.48-2.7-.57-3.79zm-16.26 0c.6 4.17-.52 7.47-3.09 9.88h-3.7l.51-.15c3.79-1.46 5.24-4.93 5.89-9.7.11.81.03 2.61-.19 3.76.47-1.23.48-2.7.58-3.79zm67.64-.12c-2.02-.52-5.92.18-7.92 1.12-1.2.55-5.33 2.2-6.4 2.81-.26.75-.4 1.17-.8 1.68 1.68-.55 5.39-1.91 9.55-2.83-2.94 1.53-7.96 3.33-10.9 4.27-.14.2-.52.47-.84.66.65.17 1.01.4 1.54.7.9.02 5.98-1.28 7.19-1.63 3.93-1.12 8.12-3.75 8.58-6.78zm-119.02 0c2.02-.52 5.92.18 7.92 1.12 1.19.55 5.32 2.2 6.4 2.81.26.75.39 1.17.8 1.68-1.69-.55-5.39-1.91-9.56-2.83 2.95 1.53 7.96 3.33 10.9 4.27.14.2.53.47.85.66-.65.17-1.01.4-1.54.7-.9.02-5.98-1.28-7.2-1.63-3.92-1.12-8.11-3.75-8.57-6.78zm107.93-.89c-1.92.89-5.28 2.69-5.82 2.92.31.04.41.03.8.2.08-.02 3.56-1.97 5.02-3.12zm-96.84 0c1.91.89 5.28 2.69 5.82 2.92-.32.04-.41.03-.81.2-.07-.02-3.56-1.97-5.01-3.12zm54.68-1.38c-.58 1.11-1.67 4.38-1.83 5.36.17 2.36 1.2 4.16 1.83 5.6-.13-2.14.11-4.55.59-6.32-.17-1.31-.25-3.19-.17-4.55-.22.72-1 3.71-1.11 5.38-.05-1.64.47-4.33.69-5.47zm-12.53 0c.58 1.11 1.67 4.38 1.83 5.36-.17 2.36-1.19 4.16-1.83 5.6.14-2.14-.1-4.55-.58-6.32.16-1.31.25-3.19.16-4.55.23.72 1 3.71 1.11 5.38.06-1.64-.47-4.33-.69-5.47zm9.87-.19c-.35 1.12-1.41 5.12-1.52 5.74.27-2 .59-3.77 1.08-5.69 0 0-.85 2.26-1.03 2.87-.36 1.29-1.38 4.05-1.52 5.26.33 1.56.97 2.49 1.52 3.67 0-1.97.26-3.85.66-5.77.13-.62.47-1.48.55-2.13.16-1.27.21-3.21.26-3.95zm-7.21 0c.36 1.12 1.41 5.12 1.53 5.74-.27-2-.59-3.77-1.08-5.69 0 0 .84 2.26 1.02 2.87.37 1.29 1.38 4.05 1.53 5.26-.34 1.56-.98 2.49-1.53 3.67 0-1.97-.25-3.85-.65-5.77-.13-.62-.47-1.48-.56-2.13-.16-1.27-.21-3.21-.26-3.95zm46.18-.42c-5.3.39-8.01 4.28-11.44 6.78.36-.02.82-.11 1.4-.09.58-.18 3.55-2.33 5.6-3.16-.99 1.33-2.97 2.25-4.38 3.35.45.15.78.34 1.28.77.81-.38 3.96-2.13 5.18-2.6 1.42-1.49 2.47-3.52 2.36-5.05zm-85.14 0c5.29.39 8.01 4.28 11.43 6.78-.35-.02-.82-.11-1.39-.09-.58-.17-3.55-2.33-5.61-3.16 1 1.33 2.98 2.25 4.38 3.35-.44.15-.78.34-1.27.77-.82-.38-3.97-2.13-5.19-2.6-1.41-1.5-2.47-3.52-2.35-5.05zm78.32-.69c-.46.41-.95.99-1.45 1.38.03.22.02.38-.02.56.43-.5 1.15-1.47 1.47-1.94zm-71.51 0c.46.41.95.99 1.46 1.38-.04.22-.03.38.01.56-.43-.5-1.15-1.47-1.47-1.94z" class="fil3"/><path d="M92.82 66.68c1.55-.19 2.03-1.83 2.45-2.63-.45-.47-1.53-1.92-3.05-1.62-.99.2-1.97.38-2.89.75-.14-.12-.17-.21-.16-.37 3.39-.7 5.72-2.13 5.74-4.93-2.53-1.75-5.11-.2-6.88 1.99l-.18-.23c1.29-2.11 3.19-3.06 4.76-4.75 1.41-1.51 1.93-4.74 1.09-7.24-2.96 3.8-8.06 7.35-9.39 10.51-1.33 3.17 1.99 3.83 2.61 6.04.72 2.56-.95 4.45-4 5.45-2.3.76-5.16-.11-6.14-2.38-.51.03-.79.1-1.39 0v2.41c.5.1.09 0 .47.38-.21.44-.39 1.04-.47 1.48v1.9c.36-.02.57-.12.87-.61-.17.53-.4.78-.87.94v.38c.25-.04.69-.24.84-.47.4-.64.72-2.32 1-3.03.12-.28.48-.23.39.05-.16.56-.8 2.44-.91 2.91-.31 1.28.76 1.5 1.41 2.31 1.1-.47 2.3-.14 2.58-1.59.17-.87.19-1.72.36-2.69.03-.16.39-.18.36.03-.13.84-.19 2.24-.19 2.58-.03 1.06 1.21 1.11 1.91 1.8.78-.73 2.08-.81 1.94-2.01-.07-.52-.61-2.11-.77-2.59-.05-.18.22-.35.28-.19.3.82.76 2.13 1.12 2.81.61 1.17 1.7.28 2.89.35.34-.84 1.54-1.61.87-2.66-.25-.38-1.63-1.89-1.69-2.02-.08-.2.14-.41.31-.23.41.38 1.02 1.14 2.1 2.02.95.78 2.97-.72 3.51-.83-.19-.94.04-2.44-1.24-3.08-.89-.44-2.27-.52-2.63-.66-.11-.2.11-.36.11-.36.89.13 1.99.19 2.88.08zm-64.79 0c-1.55-.19-2.03-1.83-2.44-2.63.44-.47 1.53-1.92 3.05-1.62.98.2 1.97.38 2.88.75.14-.12.18-.21.17-.37-3.39-.7-5.73-2.13-5.74-4.93 2.52-1.75 5.11-.2 6.88 1.99l.18-.23c-1.29-2.11-3.19-3.06-4.76-4.75-1.41-1.51-1.94-4.74-1.1-7.24 2.96 3.8 8.07 7.35 9.39 10.51 1.33 3.17-1.98 3.83-2.6 6.04-.72 2.56.95 4.45 3.99 5.45 2.3.76 5.16-.11 6.14-2.38.52.03.8.1 1.39 0v2.41c-.49.1-.08 0-.46.38.21.44.39 1.04.46 1.48v1.9c-.35-.02-.56-.12-.87-.61.18.53.4.78.87.94v.38c-.25-.04-.69-.24-.83-.47-.41-.64-.72-2.32-1.01-3.03-.11-.28-.47-.23-.39.05.17.56.81 2.44.92 2.91.3 1.28-.77 1.5-1.42 2.31-1.09-.47-2.3-.14-2.58-1.59-.16-.87-.19-1.72-.36-2.69-.02-.16-.38-.18-.35.03.13.84.18 2.24.19 2.58.02 1.06-1.22 1.11-1.91 1.8-.79-.73-2.08-.81-1.94-2.01.07-.52.6-2.11.76-2.59.06-.18-.22-.35-.28-.19-.29.82-.76 2.13-1.12 2.81-.6 1.17-1.69.28-2.89.35-.33-.84-1.54-1.61-.86-2.66.24-.38 1.63-1.89 1.69-2.02.08-.2-.14-.41-.32-.23-.4.38-1.01 1.14-2.09 2.02-.95.78-2.98-.72-3.52-.83.19-.94-.04-2.44 1.24-3.08.89-.44 2.28-.52 2.64-.66.11-.2-.11-.36-.11-.36-.89.13-2 .19-2.89.08zm79.73-20.22c-1.04.61-3.64 2.37-4.25 2.89.14.02.24.04.35.07 0 .11-.03.21-.04.32.91-.71 3.09-2.37 3.94-3.28zm-94.66 0c1.04.61 3.64 2.37 4.24 2.89-.13.02-.24.04-.34.07 0 .11.02.21.04.32-.91-.71-3.09-2.37-3.94-3.28zm53.8-2.04c-.02.02-1.23 2.38-1.45 2.77-1.28 2.19-1.53 5.96-1.31 10.78.81-4.8 2.97-8.46 3.22-10.44-1.02 1.28-2.08 3.09-2.75 5.14.07-1.2 1.78-6.95 2.29-8.25zm-12.94 0c.02.02 1.22 2.38 1.45 2.77 1.27 2.19 1.52 5.96 1.3 10.78-.8-4.8-2.97-8.46-3.22-10.44 1.03 1.28 2.08 3.09 2.76 5.14-.07-1.2-1.78-6.95-2.29-8.25zm64.65.9c-2.94-.19-6.34 1.39-8.73 2.92-1.55 1-4.58 2.77-6.74 4.29-.47 1.04-.71.81-1.81 2.38.86-.12.92-.07 1.28-.1 1.22-.64 6.88-3.86 9.96-5.02-2.58 2.21-7.24 4.93-8.33 5.42.64.33.95.61 1.23.87 1.81-.51 6.4-2.33 8.03-3.5 2.35-1.68 5.33-3.82 5.11-7.26zm-116.36 0c2.93-.19 6.34 1.39 8.73 2.92 1.55 1 4.58 2.77 6.73 4.29.48 1.04.71.81 1.82 2.38-.86-.13-.92-.07-1.29-.1-1.21-.64-6.87-3.86-9.96-5.02 2.58 2.21 7.25 4.93 8.33 5.42-.64.33-.94.61-1.22.87-1.82-.51-6.4-2.33-8.03-3.5-2.35-1.68-5.34-3.82-5.11-7.26z" class="fil3"/><path d="M66.75 44.22c-2.01 2.41-4.6 5.71-5.41 7.4-.8 2.83-.66 5.21-.55 6.77.89-5 2.97-9.65 5.96-14.17zm-12.64 0c2 2.41 4.6 5.71 5.4 7.4.81 2.83.67 5.21.56 6.77-.89-5-2.97-9.65-5.96-14.17zm15.98-.1c-.76.75-2.17 2.15-2.53 3.2-.37 2.83-.28 7.91.3 10.57.11-2.5.42-6.35 1.58-8.04-.69 2.88-.06 5.8 1.49 9.05-.88-2.72-1.06-7.9-.1-10.78.27-.79.78-1.68 1.26-2.34-1.27.63-3.37 2.87-3.89 4.26.52-2.27 1.11-3.89 1.89-5.92zm-19.33 0c.76.75 2.18 2.15 2.54 3.2.36 2.83.28 7.91-.3 10.57-.11-2.5-.42-6.35-1.59-8.04.7 2.88.07 5.8-1.48 9.05.87-2.72 1.05-7.9.09-10.78-.26-.79-.78-1.68-1.25-2.34 1.27.63 3.37 2.87 3.89 4.26-.52-2.27-1.11-3.89-1.9-5.92zm33.22.59c-1.45-.96-2.89-1.22-5.25-.69 1.75-.11 4.99-.41 5.86 2.8.44-.72.18-1.57-.61-2.11zm-47.1 0c1.44-.96 2.89-1.22 5.24-.69-1.74-.11-4.99-.41-5.86 2.8-.43-.72-.17-1.57.62-2.11zm46.88-2.17c-.64-.07-1.9-.29-2.86.15 5.1.17 5.21 2.44 7.32 3.01 1.49.41 3.57-.15 4.32-1.82-1.16.67-2.37.73-3.77.36-1.66-.44-3.06-1.49-5.01-1.7zm-46.66 0c.64-.07 1.89-.29 2.86.15-5.1.17-5.21 2.44-7.32 3.01-1.5.41-3.58-.15-4.33-1.82 1.17.67 2.37.73 3.77.36 1.67-.44 3.06-1.49 5.02-1.7z" class="fil3"/><path d="M70.68 41.29c-.63.76-2.18 3.16-2.93 3.95.66-1.41 1.84-2.91 2.59-4.03-.51.48-1.88 1.47-2.47 1.8-.76 1.37-1.84 4.64-2.24 6.6 1.48-2.48 3.42-4.9 4.46-5.83-.03-.79.32-1.75.59-2.49zm-20.5 0c.62.76 2.17 3.16 2.93 3.95-.66-1.41-1.84-2.91-2.6-4.03.52.48 1.89 1.47 2.48 1.8.75 1.37 1.84 4.64 2.23 6.6-1.48-2.48-3.42-4.9-4.46-5.83.04-.79-.32-1.75-.58-2.49zm49.75.23c-1.02 2.8-3.85 5.7-5.3 6.88.11.81.2 1.34.12 1.92.35-.33 1.7-1.92 2.98-3.11-.72 1.86-2.36 3.8-3.09 4.53-.12.64-.37 1.4-.66 2.14 1.13-1.03 3.63-3.02 4.56-3.99 2.02-2.12 2.98-5.48 1.39-8.37zm-79.01 0c1.02 2.8 3.85 5.7 5.3 6.88-.1.81-.19 1.34-.11 1.92-.35-.33-1.71-1.92-2.99-3.11.73 1.86 2.37 3.8 3.1 4.53.11.64.36 1.4.66 2.14-1.13-1.03-3.63-3.02-4.56-3.99-2.02-2.12-2.98-5.48-1.4-8.37zm85.14-2.34c-1.46 1.94-4.12 4.89-4.54 5.23-.01.23.01.43.01.73 1.34-1.41 3.57-4.14 4.53-5.96zm-91.27 0c1.47 1.94 4.13 4.89 4.55 5.23 0 .23-.01.43-.01.73-1.34-1.41-3.58-4.14-4.54-5.96zm54.57.81c-.8.56-3.05 3.32-3.69 3.72.47-1.04 2.68-2.91 3.36-3.78-.76.53-1.97 1.16-2.8 1.32-.67.8-3.67 5.49-4.5 9.12 2.8-4.66 5.63-6.29 7.63-10.38zm-17.86 0c.8.56 3.05 3.32 3.69 3.73-.48-1.05-2.68-2.92-3.36-3.79.76.53 1.97 1.16 2.8 1.32.66.81 3.66 5.49 4.49 9.12-2.8-4.66-5.62-6.29-7.62-10.38zm23.89-1.05c-1.48.85-4.01 3.03-4.74 4.44-.62 1.2-1.69 4.67-1.79 5.02.96-1.27 2.12-2.37 3.63-3.13.79-.85 2.22-2 3.31-2.71.52-.52 1.51-1.75 1.94-2.45-1.2 1.13-4.59 3.58-6.44 4.66 1.19-2.12 2.82-4.38 4.09-5.83zm-29.92 0c1.48.85 4 3.03 4.73 4.44.63 1.2 1.7 4.67 1.8 5.02-.97-1.27-2.13-2.37-3.64-3.13-.79-.85-2.22-2-3.3-2.71-.53-.52-1.51-1.75-1.94-2.45 1.2 1.13 4.58 3.58 6.43 4.66-1.19-2.12-2.82-4.38-4.08-5.83zM73.8 37.5c-.69.12-1.72.32-2.39.32-.88.85-2.01 2.58-3.31 4.83 2.31-1.4 4.58-4.06 5.7-5.15zm-26.74 0c.68.12 1.72.32 2.38.32.88.85 2.02 2.58 3.32 4.83-2.32-1.4-4.59-4.06-5.7-5.15z" class="fil3"/><path d="M69.9 37.75c-.67 1.28-3.24 2.79-5.8 2.96 2.84.68 6.01-1.31 6.81-2.89-.2-.01-1.01-.07-1.01-.07zm-18.94 0c.66 1.28 3.24 2.79 5.8 2.96-2.84.68-6.01-1.31-6.82-2.89.21-.01 1.02-.07 1.02-.07zM77.98 36c.2.29.8.56 1.1.59a1.94 1.94 0 00-1.1-.59zm-35.1 0c-.2.29-.81.56-1.1.59.43-.44.85-.55 1.1-.59z" class="fil3"/><path d="M80.15 35.63c-.47.06-1.55.28-1.65.28.43.17 1.17.49 1.56.76-.24-.42-.16-.8.09-1.04zm-39.44 0c.47.06 1.54.28 1.64.28-.42.17-1.16.49-1.56.76.25-.42.16-.8-.08-1.04zm40.77.02s-.22.17-.37.5c-.08.17-.19.67-.19.67s.43-.22.58-.63a.72.72 0 00-.02-.54zm-42.1 0s.21.17.37.5c.08.17.19.67.19.67s-.43-.22-.59-.63c-.1-.28.03-.54.03-.54z" class="fil4"/><path d="M82.24 35.61c-.08-.05-.37-.03-.44-.03.11.84-.21 1.28-1.1 1.48.18.11.43.38.56.53.49-.4 1.04-1.46.98-1.98zm-43.63 0c.09-.05.37-.03.45-.03-.12.84.21 1.28 1.09 1.48-.17.11-.42.38-.56.53-.49-.4-1.04-1.46-.98-1.98z" class="fil4"/><path d="M89.98 37.99c-.44-1.11-2.23-2.46-4.29-2.35-2.69 3.85-5.36 6.34-9.37 8.76.25.48 1.56-.54 2.42-1.11 1.72-1.16 4.14-2.64 6.5-2.79 1.7-.11 3.18.5 4.12 1.41.84-.79 1.1-2.76.62-3.92zm-59.11 0c.45-1.11 2.24-2.46 4.29-2.35 2.7 3.85 5.37 6.34 9.38 8.76-.25.48-1.57-.54-2.42-1.11-1.73-1.16-4.14-2.64-6.51-2.79-1.7-.11-3.18.5-4.11 1.41-.85-.79-1.1-2.76-.63-3.92zm85.55-2.68c-1.85 1.07-9.79 9.78-17.11 14.88 1.02-.41 2.5-.82 3.63-.82.53-.4 5.83-4.35 8.46-5.94-2.07 2.59-6.53 5.99-7.68 6.83-.04.36-.1.86-.4 1.43 2.67-1.76 7.42-4.13 10.7-7.23 2.38-2.26 3.85-5.84 2.4-9.15zm-111.98 0c1.85 1.07 9.79 9.78 17.1 14.88-1.02-.41-2.49-.82-3.63-.82-.52-.4-5.82-4.35-8.45-5.94 2.07 2.59 6.52 5.99 7.68 6.83.04.36.09.86.39 1.43-2.66-1.76-7.41-4.13-10.69-7.23-2.38-2.26-3.85-5.84-2.4-9.15z" class="fil3"/><path d="M85.15 35.38c.46-.75-.65-1.17-.9-.59-.86 2.02-1.97 3.77-3.19 4.97-1.01.99-3 2.17-4.32 2.85-1.52.77-3.85 2.47-4.69 3.88-.83 1.4-1.46 3.47-1.31 5.44.74-2.73 3.1-6.65 5.65-8.18 2.3-1.38 4.41-2.81 5.76-4.53.99-1.27 2.19-2.49 3-3.84zm-49.45 0c-.45-.75.66-1.17.9-.59.86 2.02 1.98 3.77 3.19 4.97 1.02.99 3 2.17 4.33 2.84 1.51.78 3.85 2.48 4.69 3.89.83 1.4 1.46 3.47 1.3 5.44-.74-2.73-3.1-6.65-5.65-8.18-2.3-1.38-4.4-2.81-5.75-4.53-.99-1.27-2.19-2.49-3.01-3.84z" class="fil3"/><path d="M83.66 33.62c-2.76 0-11.75.25-15.24.19-.37-.01-.95-.13-1.39-.3.39.28 1.19.8 1.67 1.04 2.64 1.33 5.89 1.6 9.3 1.21.85-.1 2.95-1.01 4.64-.34.01.85-.95 2.26-1.3 2.57-1-.68-1.98-1.01-3.34-1.4-1.65-.47-3.67-.53-5.68-.28-1.22.16-3.08.38-4.4.03 1.57 1.26 4.27 1.52 6.91.72-1.96 1.41-4.2 3.79-4.53 6.35 1.64-2.5 4.16-4.38 6.67-5.7-1.95 1.68-4.01 4.67-4.83 6.23 2.04-1.14 5.01-3.41 6.6-5.21-.48 1.16-1.51 2.68-2.51 3.62.5-.25 2.54-1.24 4.09-2.59 1.27-1.12 2.93-3.67 3.62-5.49.12-.51-.11-.65-.28-.65zm-46.47 0c2.76 0 11.76.25 15.25.19.36-.01.94-.13 1.39-.3-.39.28-1.2.8-1.67 1.04-2.65 1.33-5.89 1.6-9.3 1.21-.85-.1-2.95-1.01-4.64-.34-.02.85.94 2.26 1.3 2.57 1-.68 1.98-1.01 3.34-1.4 1.64-.47 3.67-.53 5.67-.28 1.22.16 3.09.38 4.41.03-1.58 1.26-4.27 1.52-6.92.72 1.97 1.41 4.21 3.79 4.54 6.35-1.64-2.5-4.17-4.38-6.68-5.7 1.96 1.68 4.01 4.67 4.84 6.23-2.05-1.14-5.02-3.41-6.6-5.21.48 1.16 1.51 2.68 2.51 3.62-.51-.25-2.55-1.24-4.09-2.59-1.27-1.12-2.94-3.67-3.63-5.49-.11-.51.11-.65.28-.65zm74.19-8.45c-1.09 2.29-6.77 12.43-10.49 16.58.25.58.5 1.41.58 2.22 2.29-2.32 5.03-6.6 7.76-9.6-1.68 3.99-5.63 9.48-7.72 11.34-.21.89-.68 2.5-1.49 3.34 5.2-3.94 11.12-11.15 12.63-15.92 1.45-4.62.24-6.92-1.27-7.96zm-101.9 0c1.09 2.29 6.76 12.43 10.49 16.58-.26.58-.51 1.41-.59 2.22-2.28-2.32-5.02-6.6-7.75-9.6 1.68 3.99 5.63 9.48 7.71 11.33.21.9.69 2.51 1.49 3.35-5.2-3.94-11.12-11.15-12.62-15.92-1.45-4.62-.25-6.92 1.27-7.96z" class="fil3"/><path d="M70.11 59.5c.27.77.72 1.58 1.72 2.24-.75-.83-.95-1.36-1.72-2.24zm-19.36 0c-.28.77-.72 1.58-1.72 2.24.75-.83.94-1.36 1.72-2.24zM87.2 39.01c-.55-.15-.12.47-.19.56-.44-.15-.39.08-.37.28.56.01.98.11 1.49.28-.16-.38-.31-.96-.93-1.12zm-53.54 0c.55-.15.11.47.19.56.44-.15.39.08.37.28-.57.01-.99.11-1.49.28.15-.38.31-.96.93-1.12zm77.8-12.83c-.48.82-2.63 4.88-3.98 6.97 1.44-1.83 3.38-4.76 4.07-6.01 1.97 2.9-1.01 8.51-2.21 11.39 1.81-2.67 5.27-9.47 2.12-12.35zm-102.06 0c.48.82 2.62 4.88 3.97 6.97-1.43-1.83-3.38-4.76-4.06-6.01-1.98 2.9 1.01 8.51 2.21 11.39-1.81-2.67-5.28-9.47-2.12-12.35zm108.51 19.76c-2.31.16-5.64 1.47-7.48 2.83 1.28-.75 4.91-2.02 6.88-2.19-.87 3.48-3.19 4.68-5.15 6.15 2.21-1.22 5.85-3.94 5.75-6.79zm-114.96 0c2.3.16 5.64 1.47 7.47 2.83-1.28-.75-4.9-2.02-6.87-2.19.87 3.48 3.19 4.68 5.15 6.15-2.21-1.22-5.85-3.94-5.75-6.79zm113.19-9.7c-.95.52-5.25 4.83-6.57 6.07 1.7-1.24 4.45-4.09 6.22-5.14.44 3.9-2.79 7.32-3.87 8.62 2.06-1.67 5.45-5.68 4.22-9.55zm-111.42 0c.95.52 5.25 4.83 6.57 6.07-1.71-1.24-4.45-4.09-6.23-5.14-.43 3.9 2.79 7.32 3.87 8.62-2.05-1.66-5.45-5.68-4.21-9.55zm95.2 6.44c-.54 1.15-1.1 2.06-1.94 3.07.72-.44 1.64-1.38 1.79-1.66.41 1.8-1.39 5.34-2.82 6.68 3.05-2.52 3.97-5.91 2.97-8.09zm-78.98 0c.54 1.15 1.1 2.06 1.94 3.07-.73-.44-1.64-1.38-1.8-1.66-.4 1.8 1.39 5.34 2.83 6.68-3.06-2.52-3.97-5.91-2.97-8.09zm81.34 7.94c-1.3 0-4.05 1.25-4.49 1.87 1.13-.66 2.34-1.16 3.91-1.37-.2.97-1.31 2.86-2.3 3.91 1.72-1.11 2.96-3.27 2.88-4.41zm-83.7 0c1.3 0 4.05 1.25 4.48 1.87-1.12-.66-2.33-1.16-3.9-1.37.19.97 1.3 2.86 2.3 3.91-1.72-1.11-2.97-3.27-2.88-4.41zm100.44 2.73c-2.28-.31-5.51.62-6.97 1.35 2.2-.47 3.18-1 6.04-.89-.62 1.39-3.45 3.94-5.69 4.86 3.66-1.19 6.27-3.86 6.62-5.32zm-117.18 0c2.28-.31 5.5.62 6.97 1.35-2.2-.47-3.19-1-6.04-.89.61 1.39 3.44 3.94 5.69 4.86-3.67-1.19-6.27-3.86-6.62-5.32zm97.94 3.24c1.22-.36 2.24-.44 3.76.24-.26 1.33-1.71 2.45-2.65 2.91 1.4-.33 2.91-1.51 3.27-3.08-1.54-1.04-3.29-.65-4.38-.07zm-78.71 0c-1.22-.35-2.24-.44-3.75.24.25 1.33 1.71 2.45 2.64 2.91-1.4-.33-2.91-1.51-3.26-3.08 1.53-1.04 3.29-.65 4.37-.07z" class="fil2"/><path d="M98.12 58.67c-1.03.27-2.04.49-2.91.77l-.17.39c.79-.28 2.01-.61 3.08-1.16zm-75.39 0c1.04.27 2.04.49 2.92.77l.17.39c-.79-.28-2.01-.61-3.09-1.16z" class="fil3"/><path d="M90.65 58.07c1.14-.27 2.34-.18 3.05.3.05.91-.55 2.05-1.29 2.72 1.07-.5 1.97-2.09 1.84-2.99-.79-.49-2.18-.76-3.6-.03zm-60.44 0c-1.14-.27-2.35-.18-3.05.3-.05.91.54 2.05 1.29 2.72-1.08-.5-1.97-2.09-1.84-2.99.78-.49 2.17-.76 3.6-.03zm63.21-9.26c-.65.81-2.18 2.31-2.85 3 .92-.59 1.75-1.17 2.43-1.87.34 1.98-1.2 5-1.75 5.48a6.73 6.73 0 002.17-6.61zm-65.99 0c.66.81 2.18 2.31 2.85 3-.91-.59-1.75-1.17-2.43-1.87-.34 1.98 1.2 5 1.75 5.48a6.75 6.75 0 01-2.17-6.61zm63.36 4.47c-1.71.94-4.01 3.6-4.01 3.6l-.03.49.42.12s2.85-2.87 3.62-4.21zm-60.72 0c1.71.94 4 3.6 4 3.6l.04.49-.43.12s-2.85-2.87-3.61-4.21z" class="fil2"/><path d="M88.96 55.05c-.25.11-1.99 1.96-1.99 1.96l.14.23s1.68-2.01 1.85-2.19zm-57.06 0c.25.11 1.99 1.96 1.99 1.96l-.15.23s-1.68-2.01-1.84-2.19z" class="fil3"/><path d="M91.56 59.55c-1.57.49-2.56 1.13-2.95 1.44-.05.15-.03.43-.03.43l.35.14c.59-.33 1.5-1.14 2.63-2.01zm-62.27 0c1.57.49 2.56 1.13 2.96 1.44.04.15.03.43.03.43l-.35.14c-.6-.33-1.5-1.14-2.64-2.01z" class="fil2"/><path d="M90.02 60.42c-.25.11-1.23.71-1.23.71l.1.21s.96-.74 1.13-.92zm-59.18 0c.25.11 1.23.71 1.23.71l-.1.21s-.97-.74-1.13-.92zm66.99 14.72c.09.39.05.8.02 1.04.63.8 4.48 5.02 5.87 7-1.46-1.38-4.99-4.56-6.07-5.83 0 0-.29.65-.32 1.11.09.14 5.57 6.73 6.51 7.78 1.21 1.35 2.78.53 3.93.51.1-1.23.6-2.26-.56-3.55-.6-.68-8.37-7.29-9.38-8.06zm-74.81 0c-.08.39-.04.8-.01 1.04-.63.8-4.49 5.02-5.87 7 1.46-1.38 4.98-4.56 6.07-5.83 0 0 .28.65.32 1.11-.1.14-5.58 6.73-6.52 7.78-1.2 1.35-2.77.53-3.93.51-.1-1.23-.59-2.26.56-3.55.61-.68 8.38-7.29 9.38-8.06zm89.68 6.42c-.28-1.3-.35-3.4-3.79-4.76-1.13-.45-6.6-2.74-7.55-3.13-.41.08-.86.29-.86.29.79.49 4.39 2.73 6.6 4.39-2.68-.88-7.39-3.83-7.81-3.96-.37.06-.95.17-1.72-.14 1.41.99 8.23 6.27 10.25 7.32 2.95 1.54 3.77.31 4.88-.01zm-104.55 0c.29-1.3.36-3.4 3.8-4.76 1.13-.45 6.6-2.74 7.54-3.13.42.08.86.29.86.29-.78.49-4.38 2.73-6.6 4.39 2.69-.88 7.39-3.83 7.82-3.96.36.06.94.17 1.72-.14-1.42.99-8.24 6.27-10.26 7.32-2.95 1.54-3.76.31-4.88-.01zm92.38-11.28c.36.23.57.64.72 1.06.41.21 5.41 1.19 7.97 2.32-2.7-.18-7.77-1.38-7.8-1.38.07.31.08.63.14.94 1.8.92 7.09 2.31 8.1 2.7 1.94.74 5.45.5 6.48-.85-.87-1.82-2.97-3.15-4.71-3.35-2.38-.28-8.19-1.18-10.9-1.44zm-80.21 0c-.36.23-.56.64-.72 1.06-.4.21-5.4 1.19-7.96 2.32 2.69-.19 7.76-1.38 7.79-1.38-.06.31-.08.63-.13.94-1.8.92-7.09 2.31-8.1 2.7-1.95.74-5.45.5-6.48-.85.87-1.82 2.97-3.15 4.71-3.35 2.38-.28 8.18-1.18 10.89-1.44z" class="fil3"/><path d="M111.85 66.65c1.72.2 3.99.95 4.91 1.97-.72 1.47-4.3 1.97-6.19 2.03 3.25.25 6.19-.53 7.05-2.08-1.31-1.31-4.11-1.97-5.77-1.92zm-102.84 0c-1.72.2-4 .95-4.91 1.97.72 1.47 4.3 1.97 6.18 2.03-3.25.25-6.18-.53-7.04-2.08 1.3-1.31 4.1-1.97 5.77-1.92zm102.65-5.78c1.85-.11 4.24-.23 6.01.48-.61 1.17-3.05 2.8-5.81 3.57 2.23-.23 6.13-1.89 6.83-3.89-1.74-.85-5.68-.7-7.03-.16zm-102.47 0c-1.85-.11-4.23-.24-6.01.48.61 1.17 3.06 2.8 5.82 3.57-2.24-.23-6.14-1.89-6.83-3.89 1.74-.85 5.67-.7 7.02-.16zm90.58.7c1.74-.08 2.93.42 3.51 1.24-.41 1.01-1.66 1.78-2.63 2 1.36-.07 2.74-.88 3.23-2.08-.72-1.09-2.74-1.65-4.11-1.16zm-78.69 0c-1.74-.08-2.92.42-3.51 1.24.42 1.01 1.66 1.78 2.63 2-1.35-.07-2.74-.88-3.22-2.09.72-1.08 2.74-1.64 4.1-1.15zm70.49 1.28c1.17.02 1.98.63 2.55 1.26-.31.7-.7 1.69-1.58 2.15 1.17-.22 1.8-1.17 2.12-2.18-.57-.73-1.53-1.59-3.09-1.23zm-62.29 0c-1.17.02-1.98.63-2.55 1.26.32.7.7 1.69 1.58 2.15-1.16-.22-1.8-1.17-2.12-2.18.58-.73 1.54-1.59 3.09-1.23z" class="fil2"/><path d="M105.63 72.78c-2.1-.58-3.3-.97-4.29-1.14l.07.38c1.24.36 2.42.46 4.22.76zm-90.41 0c2.11-.58 3.3-.97 4.3-1.14l-.07.38c-1.25.36-2.43.46-4.23.76z" class="fil3"/><path d="M110.93 72.13c1.52.3 3.08 1.43 3.86 2.68-1.69 1.24-3.86.91-5.1.69 1.55.58 4.13.8 5.85-.53-1.03-1.8-3.02-2.73-4.61-2.84zm-101 0c-1.53.3-3.09 1.43-3.86 2.68 1.69 1.24 3.85.91 5.1.69-1.55.58-4.13.8-5.85-.53 1.03-1.8 3.02-2.73 4.61-2.84zm68.2 53.44c.18 1.32.24 4.75-2.32 5.86 2.56-.66 3.16-3.61 2.74-5.53.45-.14 1.29.24 1.95.87-.38-.87-1.23-1.54-2.37-1.2zm-35.4 0c-.18 1.32-.24 4.75 2.31 5.86-2.55-.66-3.15-3.61-2.74-5.53-.44-.14-1.29.24-1.95.87.39-.87 1.24-1.54 2.38-1.2zm36.19-2.16c2.73.83 2.88 3.06 2.89 4.27.8-2.39-.58-3.95-2.89-4.27zm-36.99 0c-2.72.83-2.87 3.06-2.88 4.27-.8-2.39.58-3.95 2.88-4.27zm36.53-2.51c-.95-.03.08.34.37.37.6.06.63-.25.75-.28-.37 0-.9-.08-1.12-.09zm-36.06 0c.94-.03-.09.34-.37.37-.61.06-.63-.25-.75-.28.37 0 .89-.08 1.12-.09zm39.46-2.01c.03 1.05-.33 2.34-1.9 2.98 1.42.09 2.8-1.39 1.9-2.98zm-42.86 0c-.03 1.05.33 2.34 1.89 2.98-1.41.09-2.79-1.39-1.89-2.98zm25.14-2.92c1.05 2.26 3.59 5.49 4.36 8.91.69 3.09-.31 6.2-2.03 7.45 1.78-.89 3.3-3.75 2.4-7.6-.79-3.37-3.03-6.06-4.73-8.76zm-7.43 0c-1.05 2.26-3.59 5.49-4.35 8.91-.7 3.09.3 6.2 2.03 7.45-1.78-.89-3.31-3.75-2.41-7.6.79-3.37 3.04-6.06 4.73-8.76zm10.13-1.76c1.44 1.26 4 2.65 4.93 3.26 2.02 1.33 5.56 3.9 5.11 8.63-.35 3.62-2.28 3.76-3.25 3.6 1.41.42 2.53-.18 3.15-1.37 1.7-3.22.14-7.94-3.5-10.42-1.91-1.3-3.98-2.18-6.44-3.7zm-12.82 0c-1.44 1.26-4 2.65-4.93 3.26-2.02 1.33-5.56 3.9-5.11 8.63.34 3.62 2.28 3.76 3.24 3.6-1.4.42-2.53-.18-3.15-1.37-1.69-3.22-.14-7.94 3.5-10.42 1.91-1.3 3.99-2.18 6.45-3.7z" class="fil2"/><path d="M74.28 123.55c-.7.91-2.47 1.2-3.61.82.93 1.11 2.97.56 3.61-.82zm-27.7 0c.69.91 2.47 1.2 3.61.82-.93 1.11-2.98.56-3.61-.82zm63.14-45.87c1.58.92 1.58 2.34 1.88 3.17-1.18.16-1.82.82-3.15.5 1.74.66 2.1.18 3.65-.08-.28-1.58-.46-2.51-2.38-3.59zm-98.59 0c-1.57.92-1.57 2.34-1.87 3.17 1.17.16 1.81.82 3.15.5-1.75.66-2.11.18-3.65-.08.28-1.58.46-2.51 2.37-3.59z" class="fil2"/><path d="M103.67 76.36l-3.51-2.26-.49.15 4 2.11zm-86.48 0l3.51-2.26.48.15-3.99 2.11zm83.7 3.81l-3.1-3.64-.07.49 3.17 3.15zm-80.93 0l3.11-3.64.06.49-3.17 3.15z" class="fil3"/><path d="M106.07 82.87c1.26 1.31.95 2.12.93 3.14-1.31.06-2.22.48-3.37-.77 1.26 1.85 2.33 1.14 3.7 1.17.18-1.8.39-2.21-1.26-3.54zm-91.28 0c-1.26 1.31-.96 2.12-.93 3.14 1.31.06 2.22.48 3.37-.77-1.26 1.85-2.33 1.14-3.71 1.17-.17-1.8-.38-2.21 1.27-3.54z" class="fil2"/><path d="M96.27 82.76l-2.55-3.93-.05.57 2.6 3.36zm-71.69 0l2.56-3.93.05.57-2.61 3.36z" class="fil3"/><path d="M100.67 86.27c.89 1.85.13 2.16-.18 3.13-1.27-.3-2.23.2-3-1.64.77 2.58 1.93 1.74 3.24 2.14.67-1.68 1.49-1.56-.06-3.63zm-80.49 0c-.89 1.85-.13 2.16.18 3.13 1.27-.3 2.23.2 3.01-1.64-.78 2.58-1.93 1.74-3.25 2.14-.66-1.68-1.49-1.56.06-3.63z" class="fil2"/><path d="M91.46 85.38l-1.3-4.4a2.09 2.09 0 01-.64-.41l.02.36 1.92 4.45zm-62.06 0l1.29-4.4c.22-.08.43-.22.64-.41l-.02.36-1.91 4.45z" class="fil3"/><path d="M94.69 88.55c.49 1.99-.38 1.99-.88 2.88-1.18-.56-2.35-.19-2.85-2.19.37 2.6 1.75 2.01 2.96 2.68 1-1.51 1.86-1.02.77-3.37zm-68.52 0c-.49 1.99.37 1.99.88 2.88 1.18-.56 2.35-.19 2.84-2.19-.37 2.6-1.75 2.01-2.95 2.68-1-1.51-1.86-1.02-.77-3.37z" class="fil2"/><path d="M85.47 85.97l-.25-3.32c-.17-.1-.35-.3-.55-.6l.8 3.92zm-50.08 0l.24-3.32c.17-.1.36-.3.56-.6l-.8 3.92z" class="fil3"/><path d="M87.69 88c-.01 2.05-1.07 1.7-1.77 2.44-1.01-.83-2.14-.24-2.14-2.3-.27 2.62 1.16 1.86 2.17 2.8 1.34-1.22 2.23-.4 1.74-2.94zm-54.53 0c.01 2.05 1.08 1.7 1.78 2.44 1.01-.83 2.14-.24 2.13-2.3.28 2.62-1.16 1.86-2.16 2.8-1.34-1.22-2.23-.4-1.75-2.94z" class="fil2"/><path d="M96.68 67.34s-2.64-.37-3.08-.49c-.21.16-.86.29-.86.29l3.94.2zm-72.5 0s2.63-.37 3.08-.49c.21.16.86.29.86.29l-3.94.2z" class="fil3"/><path d="M99.4 66.32c1.69.28 2.27.69 2.77 1.75-.58.77-2 1.11-2.97 1.19 1.53.17 2.86-.22 3.53-1.14-.7-1.27-1.73-1.91-3.33-1.8zm-77.94 0c-1.69.28-2.27.69-2.77 1.75.58.77 1.99 1.11 2.97 1.19-1.53.17-2.86-.22-3.53-1.14.7-1.27 1.72-1.91 3.33-1.8z" class="fil2"/><path d="M95.87 71.09l-1.81-.75.04.28 1.77.47zm-70.89 0l1.82-.75-.04.28-1.78.47z" class="fil3"/><path d="M98.29 70.39c1.38.44 1.44 1.25 1.7 2.19-.76.56-1.84.9-2.59.67 1.3.64 2.27-.03 3.14-.44-.37-1.44-.7-2.27-2.25-2.42zm-75.72.01c-1.38.43-1.44 1.24-1.71 2.18.77.56 1.85.89 2.6.67-1.31.64-2.28-.03-3.14-.44.36-1.44.7-2.27 2.25-2.41zm73.17 3.74c.99 1.05.63 1.72.38 2.89-1.05-.03-1.99.19-2.72-.7.92 1.47 2 .92 3.09 1.16.36-1.74.71-2.3-.75-3.35zm-70.62 0c-1 1.05-.64 1.72-.39 2.89 1.06-.03 2 .19 2.72-.7-.91 1.47-2 .92-3.08 1.16-.36-1.74-.72-2.3.75-3.35z" class="fil2"/><path d="M93.02 73.63l-1.38-1.59-.43.06 1.81 1.53zm-65.19 0l1.38-1.59.44.06-1.82 1.53zm62.04 2.81l-.9-2.01-.18.36 1.08 1.65zm-58.88 0l.9-2.01.17.36-1.07 1.65z" class="fil3"/><path d="M92.26 77.52c.65 1.11-.04 1.55-.33 2.38-1.06-.02-1.73.03-2.35-.83.66 1.55 1.57 1.04 2.66 1.29.26-1.05 1.15-1.44.02-2.84zm-63.66 0c-.66 1.11.04 1.55.33 2.38 1.05-.02 1.73.03 2.34-.83-.66 1.55-1.56 1.04-2.65 1.29-.27-1.05-1.16-1.44-.02-2.84zm59.76 2.11c.33 1.19-.42 1.5-.86 2.28-1.03-.37-1.98-.3-2.3-1.33.16 1.55 1.41 1.38 2.44 1.85.41-.94 1.58-1.41.72-2.8zm-55.86 0c-.33 1.19.42 1.5.86 2.28 1.02-.37 1.97-.3 2.3-1.33-.17 1.55-1.41 1.38-2.44 1.85-.42-.94-1.58-1.41-.72-2.8zm51.25 1.28c.03 1.29-1.24 1.27-1.9 1.86-.9-.54-1.62-.56-1.7-1.75-.22 1.86.92 1.56 1.76 2.3.73-.79 2.16-.64 1.84-2.41zm-46.65 0c-.03 1.29 1.25 1.27 1.9 1.86.91-.54 1.63-.56 1.71-1.75.22 1.86-.92 1.56-1.76 2.3-.74-.79-2.16-.64-1.85-2.41z" class="fil2"/><path d="M81.99 75.76l-.37-.26.3 2.99.07-2.73zm-43.13 0l.38-.26-.31 2.99-.07-2.73z" class="fil3"/><path d="M91.66 67.79c1.22.46.86 1.28 1.15 2.44-.96.44-1.79 1.22-2.79.64 1.12 1.02 2.15-.17 3.24-.42-.45-1.72.22-2.11-1.6-2.66zm-62.46 0c-1.22.46-.87 1.28-1.15 2.44.96.44 1.79 1.22 2.78.64-1.12 1.02-2.14-.17-3.23-.42.45-1.72-.22-2.11 1.6-2.66zm63.33-3.3c-1.64-.2-3.28.17-3.28.17l-.2.38.27.27c.77-.03 1.66-.43 3.21-.82zm-1.79.22c-.22.1-1.38.37-1.38.37v-.22s1.11-.15 1.38-.15zm-62.42-.22c1.64-.19 3.29.17 3.29.17l.19.38-.26.27c-.77-.03-1.66-.43-3.22-.82zm1.79.22c.23.1 1.38.37 1.38.37l.01-.22s-1.11-.15-1.39-.15z" class="fil2"/><path d="M91.52 69.8a21.267 21.267 0 00-2.62-1.98l-.4.17.03.38s1.48 1.03 2.99 1.43zm-1.68-1.01c-.23-.07-1.12-.56-1.12-.56l.14-.18s.77.57.98.74zM29.33 69.8c1.27-1.14 2.63-1.98 2.63-1.98l.39.17-.03.38s-1.48 1.03-2.99 1.43zm1.69-1.01c.23-.07 1.12-.56 1.12-.56l-.14-.18s-.78.57-.98.74zm57.82 2.74c.59.97-.46 1.31-.72 2.1-1.04-.2-1.8.65-2.34-.15.74 1.37 1.56.26 2.59.56.14-.94 1.46-1.29.47-2.51zm-56.83 0c-.58.97.46 1.31.73 2.1 1.03-.2 1.8.65 2.34-.16-.75 1.38-1.57.27-2.6.57-.13-.94-1.45-1.29-.47-2.51zm55.36.86c-.53-1.63-.97-2.39-.97-2.39l-.42-.05-.16.33s.44 1.01 1.55 2.11zm-.75-1.38c-.17-.18-.58-.75-.58-.75l.22-.09s.26.58.36.84zm-53.14 1.38c.53-1.63.97-2.39.97-2.39l.43-.05.16.33s-.45 1.01-1.56 2.11zm.76-1.38c.17-.18.57-.75.57-.75l-.21-.09s-.27.58-.36.84zm48.82 2.53c.13-1.05.06-2.17.06-2.17l-.38-.2-.27.25s.18 1.21.59 2.12zm-.12-1.15c-.1-.22-.25-.91-.25-.91h.23s.02.64.02.91zM37.8 73.54c-.13-1.05-.06-2.17-.06-2.17l.38-.2.27.25s-.18 1.21-.59 2.12zm.12-1.15c.09-.22.25-.91.25-.91h-.23s-.03.64-.02.91zm46.74 1.21c.03 1.13-.98.91-1.52 1.48-.71-.68-1.57-.3-1.64-1.27-.01 1.57 1.02.99 1.68 1.76.5-.76 1.71-.42 1.48-1.97zm-48.46 0c-.04 1.13.98.91 1.51 1.48.71-.68 1.58-.3 1.65-1.27.01 1.57-1.02.99-1.68 1.76-.5-.76-1.72-.42-1.48-1.97zm25.42-43.91c1.58 1.59 6.02 2.92 9.49 3.64 2.87.6 8.47.26 10.68.09 2.58-.21 5.08-1.04 6.38-2.41 2.34-2.45-1.35-5.61-.04-8.08 1.24.62 2.19 1.29 3.97 1.56.16.35.31 1.11.38 1.47.57 2.8-2.17 3.23-1.49 6.21.31 1.33 1.33 1.74 1.66 3.32.03 0 .15 1.17-.83 2.11 2.25.02 3.41-1.83 2.69-3.61-.28-.71-1.06-1.41-1.03-2.23 1.13 1.56 2.13 1.44 3.89.91.8-.24.87.87.4 1.74 1.19-.67 1.51-1.86 1.5-2.4-.01-1.24-.94-1.79-1.87-1.58-.53.12-1.6.79-1.69-.25-.14-1.75 2.58-1.65 2.01-4.5-.29-1.48-1.88-2.2-4.3-2.55-.29-.22-.87-.81-1.19-1.31-1.43-2.29-2.81-2.86-3.64-2.4-.99.54-1.47.97-2.32 1.4-.62.32-1.34.49-1.74 1-1.05 1.34-.09 3.4.51 4.66.35.75 1.25 2.48.88 3.7-.47 1.5-2.96 2.45-4.48 2.79-1.28.28-5.13.47-7.46-.01-1.96-.41-7.22-2.38-8.72-3.99l-4.45-.09.81.81zm-2.38 0c-1.58 1.59-6.02 2.92-9.5 3.64-2.87.6-8.47.26-10.68.09-2.58-.21-5.08-1.04-6.38-2.41-2.33-2.45 1.35-5.61.04-8.08-1.23.62-2.18 1.29-3.97 1.56-.15.35-.3 1.11-.37 1.47-.57 2.8 2.17 3.23 1.49 6.21-.31 1.33-1.34 1.74-1.66 3.32-.03 0-.16 1.17.83 2.11-2.25.02-3.41-1.83-2.69-3.61.28-.71 1.06-1.41 1.03-2.23-1.13 1.56-2.13 1.44-3.89.91-.8-.24-.88.87-.41 1.74-1.18-.67-1.51-1.86-1.5-2.4.02-1.24.95-1.79 1.87-1.58.54.12 1.61.79 1.69-.25.14-1.75-2.58-1.65-2.01-4.5.3-1.48 1.88-2.2 4.3-2.55.3-.22.88-.81 1.19-1.31 1.43-2.29 2.82-2.86 3.65-2.4.99.54 1.47.97 2.32 1.4.62.32 1.33.49 1.74 1 1.05 1.34.08 3.4-.51 4.66-.36.75-1.25 2.48-.88 3.7.46 1.5 2.96 2.45 4.48 2.79 1.27.28 5.13.47 7.45-.01 1.97-.41 7.23-2.38 8.73-3.99l4.44-.09c-.23.24-.5.51-.8.81z" class="fil2"/><path d="M64.12 29.32c2.03 1.52 6.17 3.24 9.27 3.88-1.74-.58-6.07-1.96-7.96-3.73l-1.31-.15zm-7.38 0c-2.04 1.52-6.17 3.24-9.27 3.88 1.74-.58 6.06-1.96 7.96-3.73l1.31-.15z" class="fil3"/><path d="M61.96 29.19c2.06 1.83 6.41 3.35 10.15 4.01-3.49-1.15-6.89-2.55-8.64-3.93l-1.51-.08zm-3.07 0c-2.05 1.83-6.41 3.35-10.14 4.01 3.48-1.15 6.88-2.55 8.63-3.93l1.51-.08zm34.98-4.44l-.43-.06c.31.66.41 1.34.18 2.23.01-1.03-.36-1.93-.56-2.28-.03 0-.43-.03-.43-.03.83 1.91.43 3.48-.25 4.27-1.26 1.48-1.16 2.82-.34 4.39.38.72 1.88 2.51.78 3.73 2.37-1.1 1.28-3.26.63-4.11-.5-.64-.56-1.81.09-2.31.02 1.15 1 2 1.96 2.02.86.02 2.47-1.2 2.87.22-.02-1.44-.94-1.09-1.87-.88-2.69.59-2.58-2.72-1.52-3.61.99-.83 2.44-2.16.74-3.09.21.55.16 1.27-.1 1.76.12-.81-.17-1.77-.3-1.92l-.34-.09c.19.57.3 1.3 0 1.97.07-.59-.04-1.54-.34-2.08l-.35-.06c.24.6.22 1.25-.05 2.16.05-1.09-.15-1.82-.37-2.23zm-66.88 0l.42-.07c-.31.67-.4 1.35-.17 2.24-.01-1.03.36-1.93.55-2.28.04 0 .44-.03.44-.03-.83 1.91-.43 3.48.25 4.27 1.26 1.48 1.15 2.82.33 4.39-.37.72-1.87 2.51-.78 3.72-2.36-1.09-1.27-3.25-.62-4.1.49-.64.55-1.81-.09-2.31-.02 1.15-1.01 2-1.96 2.02-.86.02-2.47-1.2-2.88.22.03-1.44.94-1.09 1.88-.88 2.69.59 2.58-2.72 1.52-3.61-.99-.83-2.44-2.16-.74-3.09-.21.55-.17 1.27.09 1.76-.12-.81.18-1.77.31-1.92l.34-.09c-.19.57-.3 1.3-.01 1.97-.06-.59.05-1.54.34-2.08l.35-.06c-.24.6-.22 1.25.06 2.16-.06-1.09.14-1.82.37-2.23zm60.03-2.22c-.14-.04-.26-.05-.33-.05-.29.52-.34 1.29-.26 2-.27-.69-.33-1.32-.15-1.98-1.51.12.17 3.37.82 4.88.32.72.92 2.56-.29 4.17.54-.26 1.73-1.51 1.72-2.36-.03-1.49-.41-2.23-.63-2.82-.45-1.23-.7-2.54-.11-3.57-.15-.04-.25-.12-.43-.17-.2.32-.51 1.08-.37 2.02-.42-.85-.19-1.81.03-2.12zm-53.18 0c.14-.04.26-.05.33-.05.29.52.34 1.29.25 2 .28-.69.34-1.32.16-1.98 1.51.12-.18 3.37-.83 4.88-.31.72-.91 2.56.3 4.17-.55-.26-1.73-1.5-1.72-2.36.02-1.48.41-2.23.62-2.82.46-1.22.71-2.54.12-3.57.14-.04.25-.12.43-.17.19.32.5 1.08.37 2.02.42-.85.18-1.81-.03-2.12z" class="fil3"/><path d="M87.1 21.57c-.65-.12-1.28-.02-1.61.16-2.67 1.42 1.34 5.33 1.03 8.29-.19 1.75-2.35 2.41-3.52 2.88 2.71-.23 4.48-1.67 4.01-4.21-.34-1.91-3.24-5.87-.98-6.56 1.58-.48 3.45 1.42 5.61 1.76 2.05.33 5.8.38 5.22 3.03-.17.75-1.31 1.33-1.73 1.92-.87 1.25-.27 3.09 1.16 2.67 1.73-.51 2.15-.36 2.47.62-.16-2.84-2.81.06-3.41-1.43-.49-1.23.35-1.88 1.11-2.5.45-.38 1-1.09.91-1.91-.32-2.73-3.86-2.45-6.05-2.98-1.29-.32-2.94-1.51-4.22-1.74zm-53.34 0c.65-.12 1.28-.02 1.61.16 2.67 1.42-1.34 5.33-1.03 8.29.18 1.75 2.34 2.41 3.52 2.88-2.71-.23-4.48-1.67-4.02-4.21.35-1.91 3.24-5.87.98-6.56-1.58-.48-3.44 1.42-5.61 1.76-2.05.33-5.79.38-5.21 3.03.16.75 1.31 1.33 1.73 1.92.87 1.25.27 3.09-1.17 2.67-1.72-.51-2.14-.36-2.47.62.17-2.84 2.81.06 3.42-1.43.49-1.23-.36-1.88-1.11-2.5-.45-.38-1.01-1.09-.91-1.91.31-2.73 3.85-2.45 6.04-2.98 1.29-.32 2.95-1.51 4.23-1.74z" class="fil3"/><path d="M89.05 19.68c-.27.02-.6.24-.68.3.76.02 1.23.51 1.73.98-.42-.27-1.51-.79-2.12-.68-.18.11-.32.2-.32.2.22.04 1.14.04 1.83.76-.95-.46-1.89-.48-2.36-.43-.27.12-.36.23-.78.34 1.19-.04 1.83.23 3.46 1.12 1.07.59 3 .84 3.02.84-.54-.47-1.06-1.21-1.31-1.53-.58-.75-1.51-2-2.47-1.9zm-57.24 0c.27.02.6.24.68.3-.76.02-1.24.51-1.73.98.42-.27 1.51-.79 2.11-.68.18.11.32.2.32.2-.22.04-1.13.04-1.83.76.96-.46 1.9-.48 2.36-.43.28.12.37.23.78.34-1.18-.04-1.83.23-3.46 1.12-1.07.59-2.99.84-3.01.84.54-.47 1.06-1.21 1.31-1.53.58-.75 1.51-2 2.47-1.9z" class="fil3"/><path d="M93.48 29.36c-.23.77-1.93 1.49-.75 3.48-.62-1.82.94-2.54.75-3.48zm-66.1 0c.23.77 1.93 1.49.75 3.48.61-1.82-.94-2.54-.75-3.48z" class="fil2"/><path fill="#fecc00" d="M60.43 111.3c-12.18 0-20.17-4.47-20.17-16.85V61.81H80.6v32.64c0 12.38-8 16.85-20.17 16.85z"/><path d="M60.43 111.74c-6.18 0-11.31-1.14-14.92-3.87-3.63-2.75-5.69-7.08-5.69-13.42V61.37h41.22v33.08c0 6.34-2.07 10.67-5.7 13.42-3.6 2.73-8.73 3.87-14.91 3.87zm-14.39-4.57c3.44 2.6 8.39 3.7 14.39 3.7 5.99 0 10.95-1.1 14.39-3.7 3.41-2.58 5.35-6.68 5.35-12.72v-32.2H40.69v32.2c0 6.04 1.94 10.14 5.35 12.72z" class="fil6"/><path fill="#d42023" fill-rule="nonzero" d="M74.59 77.77h-6.8V70.1H53.07v7.67H45.4v14.72h7.67v7.67h14.72v-7.67h7.67V77.77h-.87zm-7.67 1.75h6.8v11.23h-7.68v7.67H54.81v-7.67h-7.67V79.52h7.67v-7.68h11.23v7.68h.88z"/><path d="M60.43 76.43h1.43l-1.18 21.14h-.5L59 76.43h1.43zm0-.04c1.02 0 1.85-.83 1.85-1.85s-.83-1.86-1.85-1.86-1.85.84-1.85 1.86.83 1.85 1.85 1.85z" class="fil8"/><path d="M58.96 97.57c-.8-.67-1.85-2.63 1.43-3.5 4.05-1.21 1.42-1.75-2.02-3.05-4.71-1.79-1.44-5.61 2.76-6.75 3.67-1 5.29-3.86.19-4.69-1.94.18-1.49.43-3 .94-.77 1.16-1.19 1.28-2.06 1.77-1.07.55-1.66-.27-1.38-1.18.31-1.49.82-2.74 3-2.61 2.05.16 3.26-.85 5.85.05 3.51 1.35 4.21 5.31-1.28 7-4.34 1.07-6.62 3.22-1.96 4.68 4.65 1.64 4.19 3.33 1.42 4.63-2.01.81-3.59.72-2.95 2.71z" class="fil8"/><path d="M47 107.9c-.04.32-.14.61-.3.87-.25.41-.64.72-1.17.89-.24.08-.51.13-.81.15h-.05c-.21.01-.5.05-.83.1-1.02.13-2.39.32-2.82 0l-.01-.01c-.06-.04-.13-.09-.2-.15a4.02 4.02 0 01-.23-.21l-.02-.02c-.45-.41-1.01-1.02-1.06-1.41a1.9 1.9 0 01.01-.54c-.53-.01-.97-.07-1.18-.22l-.01-.02c-.07-.04-.15-.1-.21-.16l-.02-.02h-.01c-.08-.07-.16-.13-.23-.19l-.02-.03c-.49-.43-1.09-1.07-1.15-1.46-.07-.53.06-.9.32-1.14-.21-.16-.39-.34-.55-.51l-.13-.13c-.12-.12-.22-.25-.3-.39-.29-.52-.25-1.09-.02-1.63.2-.48.56-.94.94-1.32.38-.38.79-.69 1.11-.87.49-.28.77-.84 1.04-1.38.22-.42.43-.85.75-1.18.03-.03.05-.06.08-.09.1.97.27 1.94.47 2.9.26-.01.13-.02.5 0l.24.01c.11.03.37.11.48.15.25.09.48.22.66.39l.11-.05.03-.01c.29-.12.58-.26.88-.43.08-.05.19-.07.29-.06.24.04.4.27.36.5-.08.5-.16.9-.31 1.28-.12.31-.28.6-.5.89.01.18.01.36 0 .54-.01.17-.04.34-.09.51.18-.02.35-.03.51-.03.08-.05.15-.11.23-.16.29-.21.58-.44.86-.71.07-.07.16-.12.28-.13.24-.02.44.16.46.4.04.56.06 1.02 0 1.47-.06.47-.19.9-.46 1.39a.21.21 0 01-.04.06c-.04.06-.09.12-.13.18.13-.04.26-.07.38-.1l.03-.01c.3-.2.6-.39.91-.61.29-.21.57-.44.85-.71.07-.07.17-.12.28-.13.24-.01.45.17.47.41.04.55.06 1.01 0 1.47-.06.46-.2.89-.46 1.38-.01.02-.03.05-.04.07-.06.07-.12.14-.17.21zm26.86 0c.04.32.14.61.29.87h.01-.01c.25.41.64.72 1.18.89.24.08.51.13.81.15h.05c.2.01.49.05.82.1 1.03.13 2.4.32 2.82 0h.01l.01-.01c.06-.04.12-.09.19-.15l.24-.21.01-.02c.45-.41 1.01-1.02 1.06-1.41.03-.21.03-.39 0-.54.52-.01.96-.07 1.17-.22h.01l.01-.02c.07-.04.14-.1.21-.16l.02-.02h.01c.07-.07.15-.13.22-.19l.03-.03c.48-.43 1.09-1.07 1.14-1.46.08-.53-.05-.9-.32-1.14.22-.16.39-.34.56-.51l.13-.13c.11-.12.21-.25.29-.39.3-.52.26-1.09.03-1.63-.21-.48-.56-.94-.94-1.32-.38-.38-.79-.69-1.11-.87-.49-.28-.78-.84-1.05-1.38-.21-.42-.42-.85-.74-1.18-.03-.03-.06-.06-.08-.09-.1.97-.27 1.94-.47 2.9-.26-.01-.14-.02-.5 0l-.24.01c-.12.03-.37.11-.48.15-.25.09-.48.22-.67.39l-.1-.05-.03-.01c-.29-.12-.59-.26-.88-.43a.509.509 0 00-.3-.06c-.23.04-.4.27-.36.5.08.5.17.9.31 1.28.12.31.28.6.51.89-.01.18-.02.36 0 .54.01.17.04.34.08.51-.17-.02-.34-.03-.5-.03-.08-.05-.16-.11-.24-.16a7.8 7.8 0 01-.85-.71.459.459 0 00-.28-.13.422.422 0 00-.46.4c-.05.56-.06 1.02-.01 1.47.06.47.2.9.46 1.39.01.02.03.04.04.06.05.06.09.12.14.18-.13-.04-.26-.07-.39-.1l-.02-.01c-.31-.2-.61-.39-.91-.61-.29-.21-.58-.44-.86-.71a.432.432 0 00-.27-.13.452.452 0 00-.47.41c-.04.55-.06 1.01 0 1.47.06.46.19.89.46 1.38.01.02.02.05.04.07.06.07.11.14.17.21z" class="fil6"/><path d="M39.32 101.1c.04.03.08.04.13.04.04 0 .08-.01.12-.04h.01l.03-.03c.01-.01.02-.01.02-.02h.01c.01-.02.04-.05.08-.09.04-.04.11-.11.19-.2.17-.16.37-.26.59-.31.04-.01.08-.02.13-.03.04 0 .09-.01.13-.01h.01c.13-.01.26 0 .38.03.02 0 .05.01.08.01.03.01.05.02.07.02l.01.01c.04.01.09.04.12.08.07.1.04.23-.05.3-.23.17-.38.42-.44.7-.02.06-.03.12-.03.17-.01.06-.01.12-.01.17v.02c.01.15.03.29.08.42 0 .02.01.05.03.07H41c.02.03.03.05.04.07v.01l.01.02.01.01c.07.12.16.22.27.3h.01c.02.02.04.03.06.04h.01c.03.02.05.02.07.03.01.01.02.01.02.01.12.05.26.06.4.04.04-.01.07-.01.1-.02l.1-.03h.01l.04-.02c.04-.01.08-.02.12-.01.12.02.2.13.18.25-.03.15-.07.29-.14.41-.01.03-.03.05-.04.07-.02.03-.03.05-.04.06l-.01.01-.03.03c-.05.06-.12.11-.2.15l-.01.01c-.02.01-.04.01-.06.02-.02.01-.04.01-.06.02h-.02l-.02.01c-.19.04-.53.06-.92.08l-1.17.03h-.05c-.45 0-.83.01-1 .03h-.01c-.49.06-.84-.02-1.11-.16-.28-.14-.47-.33-.64-.51l-.02-.03-.11-.11-.01-.01-.01-.01-.02-.02-.03-.03c-.05-.06-.1-.12-.13-.18v-.01c-.03-.04-.05-.09-.07-.14-.01-.05-.03-.1-.03-.15-.05-.24 0-.5.11-.75v-.01c.02-.05.05-.11.08-.17.03-.05.07-.11.1-.16.17-.28.39-.54.63-.78l.01-.01c.04-.05.09-.09.13-.13.05-.04.09-.08.14-.13.24-.21.48-.37.66-.48l.02-.01c.33-.19.57-.44.77-.72.21-.29.37-.61.53-.92l.01-.01c.03-.07.05-.11.06-.14l.01-.01c.04-.09.07-.14.15-.27.03-.06.09-.1.15-.11.1.62.21 1.24.34 1.86.12 0 .16-.01.2-.01-.02.07-.07.13-.14.16-.2.07-.44.15-.64.27-.17.1-.31.22-.35.35-.01.01-.01.02-.01.03-.04.09-.13.21-.16.24l-.01.02h-.01c-.01.02-.01.03-.02.04v.01c-.01.01-.01.02-.01.03-.02.08.01.17.08.22v.01zm42.21 0c-.03.03-.08.04-.12.04-.04 0-.09-.01-.12-.04h-.01l-.03-.03h-.01c0-.01-.01-.01-.02-.02-.02-.02-.04-.05-.08-.09-.05-.04-.11-.11-.2-.2-.16-.16-.37-.26-.58-.31-.05-.01-.09-.02-.13-.03-.05 0-.09-.01-.13-.01h-.02c-.13-.01-.25 0-.37.03h-.01c-.02 0-.04.01-.07.01-.03.01-.05.02-.07.02h-.01v.01a.2.2 0 00-.12.08c-.07.1-.05.23.05.3.23.17.38.42.44.7.01.06.02.12.03.17 0 .06.01.12 0 .17v.02c0 .15-.02.29-.07.42-.01.02-.02.05-.03.07-.01.03-.02.05-.03.07v.01l-.01.02-.01.01c-.07.12-.16.22-.28.3-.02.02-.05.03-.07.04h-.01c-.02.02-.04.02-.06.03-.01.01-.02.01-.03.01-.12.05-.25.06-.4.04-.03-.01-.07-.01-.1-.02s-.06-.02-.1-.03l-.04-.02c-.04-.01-.08-.02-.12-.01-.12.02-.2.13-.18.25.03.15.07.29.13.41.02.03.03.05.05.07.01.03.03.05.04.06v.01l.03.03a.8.8 0 00.21.15l.01.01c.02.01.04.01.06.02.02.01.04.01.06.02h.02l.01.01c.2.04.54.06.92.08l1.17.03h.05c.46 0 .84.01 1.01.03h.01c.48.06.83-.02 1.11-.16.28-.14.46-.33.64-.51l.02-.03.11-.11.01-.01v-.01l.02-.02h.01l.03-.03a.94.94 0 00.12-.18h.01v-.01c.02-.04.04-.09.06-.14.02-.05.03-.1.04-.15.04-.24-.01-.5-.12-.75v-.01c-.02-.05-.05-.11-.08-.17-.03-.05-.06-.11-.09-.16-.17-.28-.39-.54-.63-.78l-.01-.01-.13-.13c-.05-.04-.1-.08-.15-.13h.01c-.24-.21-.48-.37-.67-.48l-.01-.01c-.33-.19-.58-.44-.78-.72-.21-.29-.37-.61-.52-.92l-.01-.01a.88.88 0 00-.07-.14v-.01c-.04-.09-.07-.14-.15-.27a.209.209 0 00-.16-.11c-.09.62-.2 1.24-.33 1.86-.12 0-.16-.01-.2-.01.02.07.07.13.14.16.2.07.43.15.64.27.17.1.31.22.35.35 0 .01.01.02.01.03.04.09.13.21.16.24l.01.02c.01.02.02.03.02.04l.01.01c0 .01.01.02.01.03.01.08-.01.17-.08.22l-.01.01z" class="fil9"/><path d="M41.69 101.18l.02-.01c.01 0 .02-.01.03-.01.15-.05.29-.1.44-.15.14-.05.29-.11.44-.17.01 0 .01 0 .02-.01l.02-.01.16-.06a.17.17 0 01.14-.01c.12.03.18.15.15.26-.02.07-.04.13-.06.19v.01l-.01.03-.01.02c0 .01-.01.02-.01.03-.06.16-.13.3-.22.44-.09.15-.2.29-.34.44 0 .01-.01.02-.02.02-.24.2-.43.29-.58.32h-.11c-.03 0-.06-.01-.09-.02h-.02a.36.36 0 01-.14-.11c-.01 0-.01-.01-.01-.01-.01-.01-.01-.02-.02-.03h-.01v-.01c-.01-.01-.01-.01-.01-.02h-.01.01l-.01-.01v-.01h-.01c-.03-.08-.06-.16-.07-.24-.01-.01-.01-.03-.01-.05 0-.02-.01-.04-.01-.06v-.03c0-.2.05-.41.16-.56.02-.03.05-.06.07-.08l.01-.01c.03-.03.07-.06.11-.08zm37.47 0l-.01-.01c-.01 0-.02-.01-.03-.01l-.45-.15c-.14-.05-.28-.11-.43-.17-.01 0-.02 0-.02-.01l-.03-.01-.15-.06a.193.193 0 00-.15-.01c-.11.03-.18.15-.14.26.01.07.03.13.05.19l.01.01.01.03.01.02c0 .01.01.02.01.03.06.16.13.3.22.44.09.15.2.29.33.44.01.01.02.02.03.02.24.2.43.29.57.32h.11c.03 0 .07-.01.1-.02h.01c.06-.02.11-.06.15-.11l.01-.01c0-.01.01-.02.02-.03l.01-.01c0-.01.01-.01.01-.02l.01-.01v-.01c.04-.08.07-.16.08-.24 0-.01.01-.03.01-.05v-.09c.01-.2-.04-.41-.15-.56-.03-.03-.05-.06-.08-.08v-.01c-.04-.03-.07-.06-.11-.08h-.01zm-35.52 5.77l.03-.02c.02-.01.03-.02.05-.02.07-.02.15-.05.24-.07.06-.02.14-.05.25-.08l.01-.01h.01l.3-.09c.03-.01.06-.02.09-.01.12.01.21.11.2.22-.01.13 0 .26.02.39 0 .02.01.05.01.08.01.01.01.04.02.06 0 .01.01.03.01.04.04.15.11.29.19.41.01.03.03.05.05.08.02.02.03.04.05.06h.01c0 .01.01.01.02.02v.01c.11.11.24.2.38.25.02.01.05.01.08.02s.06.01.09.02h.06c.05 0 .1.03.14.06.08.09.08.22 0 .31-.12.11-.26.21-.42.28a.3.3 0 01-.1.04c-.03.01-.06.02-.08.03l-.01.01h-.01c-.01 0-.02 0-.02.01-.13.04-.27.06-.42.08-.02.01-.05.01-.1.01-.04.01-.07.01-.09.01h-.06c0 .01-.01.01-.02.01h-.01c-.09 0-.21.02-.35.03a74.052 74.052 0 01-1.88.24c-.4.03-.73.04-.9-.01l-.06-.03-.01-.01h-.01l-.01-.01-.01-.01c-.02-.01-.05-.04-.09-.07l-.03-.02-.02-.02h-.01c-.02-.03-.05-.05-.1-.1a.45.45 0 01-.1-.09l-.03-.02-.01-.01c-.25-.23-.54-.51-.69-.72-.03-.04-.06-.07-.08-.11 0-.01-.01-.01-.01-.01a.298.298 0 01-.05-.15h-.01v-.02c-.02-.19.01-.36.1-.49l.01-.01c.02-.03.04-.05.06-.08l.05-.05.02-.01c.03-.04.08-.05.13-.06.25-.01.53-.03.79-.05.32-.02.61-.04.85-.05h.18c.27 0 .52-.03.74-.08.05-.01.09-.02.13-.03.03-.01.08-.03.12-.04h.02l.01-.01c.08-.03.16-.06.23-.09l.05-.03v.01zm33.58 0l-.03-.02c-.02-.01-.04-.02-.06-.02-.06-.02-.14-.05-.23-.07-.06-.02-.14-.05-.25-.08l-.02-.01-.3-.09c-.03-.01-.06-.02-.09-.01-.12.01-.21.11-.2.22.01.13 0 .26-.02.39-.01.02-.01.05-.02.08 0 .01-.01.04-.01.06-.01.01-.01.03-.01.04a1.4 1.4 0 01-.19.41c-.02.03-.04.05-.05.08l-.06.06-.02.02v.01h-.01c-.1.11-.23.2-.37.25-.03.01-.05.01-.08.02s-.06.01-.09.02h-.06c-.05 0-.1.03-.14.06-.09.09-.08.22 0 .31.12.11.25.21.42.28.02.02.06.03.09.04l.09.03.01.01c.01 0 .02 0 .03.01.13.04.27.06.42.08.02.01.05.01.1.01.03.01.06.01.09.01h.05c.01.01.02.01.03.01h.01c.09 0 .21.02.35.03a74.052 74.052 0 001.88.24c.39.03.73.04.89-.01l.06-.03.02-.01.02-.01v-.01c.03-.01.06-.04.1-.07l.02-.02.02-.02h.01c.02-.03.06-.05.1-.1.05-.03.08-.06.11-.09l.03-.02v-.01c.25-.23.54-.51.7-.72l.08-.11v-.01c.03-.05.05-.1.06-.15v-.02a.715.715 0 00-.09-.49l-.01-.01c-.02-.03-.04-.05-.06-.08a.265.265 0 01-.06-.05l-.01-.01c-.03-.04-.08-.05-.13-.06-.26-.01-.54-.03-.8-.05-.32-.02-.6-.04-.84-.05h-.18a3.45 3.45 0 01-.88-.11c-.03-.01-.07-.03-.12-.04h-.01l-.02-.01c-.08-.03-.15-.06-.22-.09h-.01l-.04-.03v.01zm-35.33-2.62c.17-.04.34-.08.5-.11.04-.01.08-.01.13.01.11.04.16.17.12.28-.09.21-.12.44-.1.67 0 .05.01.09.01.14h.01c0 .04.01.08.02.12v.02c.01.01.01.03.01.04.05.15.11.29.19.41.02.02.04.05.06.07.01.02.03.05.05.07l.01.01c.01.01.01.01.02.01.05.06.12.11.18.16.02 0 .03.01.04.02.01.01.02.01.04.02.05.03.09.07.11.13.03.12-.04.24-.15.27-.09.02-.19.05-.3.06 0 .01-.01.01-.02.01l-.06.01c-.13.01-.27.02-.42.02-.01.01-.02.01-.03.01-.2 0-.55.02-.96.05-.32.02-.67.04-1.03.06h-.01c-.35.02-.69.03-.96.03-.3 0-.54-.03-.63-.1l-.01-.01-.01-.01h-.01c-.02-.02-.05-.04-.06-.05a.55.55 0 01-.09-.07l-.01-.01-.01-.01h-.01l-.1-.09c-.04-.03-.08-.07-.11-.1h-.01l-.02-.02c-.28-.25-.6-.56-.78-.77-.03-.05-.07-.1-.09-.13a.471.471 0 01-.06-.15s0-.01-.01-.02c-.04-.27.06-.47.23-.61.15-.12.36-.18.6-.22h.01c.23-.03.5-.04.78-.04s.55.02.81.03h.01l.42.03h.41c.28-.01.67-.1 1.11-.2l.06-.01.12-.03zm37.08 0c-.17-.04-.35-.08-.5-.11a.195.195 0 00-.13.01c-.11.04-.16.17-.12.28.09.21.12.44.1.67 0 .05-.01.09-.02.14 0 .04-.01.08-.02.12l-.01.01v.01c0 .01-.01.03-.01.04a1.4 1.4 0 01-.19.41c-.01.02-.03.05-.05.07-.02.02-.04.05-.06.07l-.01.01c0 .01-.01.01-.01.01-.06.06-.12.11-.19.16-.01 0-.02.01-.03.02-.01.01-.03.01-.04.02-.05.03-.09.07-.11.13-.03.12.03.24.15.27.09.02.19.05.29.06.01.01.02.01.02.01l.06.01h.01c.13.01.26.02.42.02.01.01.02.01.03.01.2 0 .55.02.95.05.32.02.68.04 1.03.06h.01c.36.02.69.03.97.03.3 0 .53-.03.63-.1v-.01l.02-.01c.03-.02.06-.04.07-.05.02-.02.05-.04.09-.07v-.01l.02-.01h.01l.1-.09h-.01c.04-.03.08-.07.12-.1l.02-.02h.01c.28-.25.6-.56.77-.77.04-.05.07-.1.1-.13.03-.05.05-.1.06-.15v-.02c.04-.27-.05-.47-.23-.61-.15-.12-.35-.18-.59-.22h-.01c-.24-.03-.5-.04-.78-.04s-.56.02-.82.03l-.43.03h-.4c-.28-.01-.68-.1-1.11-.2l-.06-.01-.12-.03zm-35.77.12l.01-.01.03-.03c.15-.1.3-.21.46-.32.14-.11.29-.22.44-.33.01-.01.01-.02.02-.02l.03-.02.15-.12c.04-.04.1-.06.16-.06.15-.01.26.11.26.25v.23l-.01.05v.06c-.02.2-.05.38-.1.57-.06.2-.13.4-.23.61-.01.01-.02.02-.02.03-.21.31-.4.48-.56.55-.04.02-.08.03-.12.04-.04.01-.08.01-.12.01h-.02c-.07 0-.13-.03-.2-.07 0 0-.01 0-.01-.01-.01 0-.02-.01-.03-.02h-.01v-.01h-.01l-.02-.02-.01-.01-.01-.01c-.07-.07-.13-.15-.18-.24 0-.02-.01-.04-.02-.06l-.03-.06h.01l-.01-.01-.01-.02v-.01c-.07-.22-.08-.47-.01-.68l.06-.12v-.01h.01a.38.38 0 01.09-.13h.01zm34.46 0l-.01-.01a12.472 12.472 0 01-.49-.35c-.15-.11-.29-.22-.44-.33l-.02-.02-.03-.02-.15-.12a.235.235 0 00-.17-.06.25.25 0 00-.26.25c0 .07 0 .15.01.22v.08c0 .01.01.03.01.04.01.2.05.38.1.57.05.2.13.4.23.61.01.01.01.02.02.03.21.31.39.48.55.55.04.02.09.03.13.04.03.01.07.01.11.01h.02c.07 0 .14-.03.2-.07.01 0 .01 0 .02-.01.01 0 .02-.01.03-.02l.01-.01h.01c0-.01.01-.01.02-.02l.01-.01v-.01h.01c.07-.07.13-.15.17-.24l.03-.06c.01-.02.01-.04.02-.06v-.01l.01-.02v-.01a.994.994 0 00-.04-.8l-.01-.01c-.03-.05-.06-.09-.09-.13h-.01zm-32.2 1.95l.01-.01c.01-.01.03-.02.04-.03.15-.1.31-.21.47-.32.15-.1.3-.21.45-.33.01 0 .02-.01.03-.01l.02-.02.16-.12c.04-.04.11-.06.17-.06.15 0 .27.11.27.24 0 .08 0 .15-.01.23v.07c0 .02 0 .03-.01.05-.01.19-.05.37-.1.56-.06.19-.13.39-.24.6-.01.01-.01.02-.02.03-.21.3-.41.47-.57.54-.04.02-.09.04-.13.05-.04 0-.08.01-.12.01h-.02a.579.579 0 01-.21-.07c0-.01-.01-.01-.01-.01a.138.138 0 00-.04-.03h-.01v-.01c-.01 0-.02-.01-.02-.02l-.02-.01-.01-.01a.697.697 0 01-.17-.24.219.219 0 01-.03-.05l-.03-.06-.01-.03v-.01c-.07-.22-.09-.47-.01-.67l.06-.12v-.01l.01-.01c.02-.04.06-.08.09-.12h.01zm29.94 0l-.02-.01-.03-.03c-.16-.1-.31-.21-.47-.32-.15-.1-.3-.21-.46-.33 0 0-.01-.01-.02-.01l-.03-.02-.15-.12a.272.272 0 00-.17-.06c-.15 0-.27.11-.27.24v.23l.01.01v.11c.02.19.05.37.11.56.05.19.13.39.24.6 0 .01.01.02.02.03.21.3.4.47.57.54.04.02.08.04.13.05.03 0 .07.01.12.01H75a.48.48 0 00.2-.07c.01-.01.02-.01.02-.01l.03-.03h.01l.01-.01c.01 0 .01-.01.02-.02l.01-.01h.01l.01-.01c.06-.06.12-.15.17-.24.01-.01.02-.03.03-.05 0-.02.01-.04.02-.06l.01-.03v-.01a.967.967 0 00-.04-.79l-.01-.01v-.01c-.03-.04-.06-.08-.1-.12z" class="fil9"/></g></g></svg>