<svg width="160" height="56" viewBox="0 0 160 56" fill="none" xmlns="http://www.w3.org/2000/svg">
<path fill-rule="evenodd" clip-rule="evenodd" d="M4.05515 0.492096H40.6418C42.8496 0.492096 44.6518 2.29425 44.6518 4.5021V41.1336C44.6518 43.3414 42.8496 45.1436 40.6418 45.1436H4.05515C1.80215 45.1436 0 43.3414 0 41.1336V4.5021C0 2.29425 1.80215 0.492096 4.05515 0.492096Z" fill="#FFD760"/>
<path d="M66.7303 37.1236C66.7303 43.2963 50.2843 42.5755 50.2843 37.3938C50.2843 33.7892 55.6911 38.3401 56.6373 38.8806C58.0792 39.6917 66.5949 40.1874 55.8713 32.167C39.245 19.641 66.73 11.8461 66.73 18.2894C66.73 19.7762 65.153 24.5976 62.3595 22.0743C59.2054 19.2357 53.9338 24.5073 58.124 28.4273C60.9627 31.0857 66.7303 34.6455 66.7303 37.1236ZM77.7241 10.1343C77.7241 11.3959 72.5425 13.3783 69.1181 8.24185C68.8027 7.79131 67.0006 6.66481 71.2809 5.67344C75.6063 4.63723 77.7241 10.0895 77.7241 10.1343ZM84.6179 30.5452C82.9058 44.1074 69.0282 43.9723 69.8393 30.9506L69.4787 18.0192C68.3973 15.8565 77.679 16.4873 75.8768 19.6862C75.1109 21.0378 72.8579 37.1233 77.3187 37.1233C82.4552 37.1233 81.2839 27.7513 83.7169 27.7513C85.0685 27.7513 84.7082 29.6441 84.6179 30.5452ZM84.7982 29.1033C85.2036 9.36803 86.9609 16.8027 79.3463 13.7386C78.2198 13.2429 77.3187 11.4856 80.0223 11.2605C87.1412 10.7196 85.2939 13.5135 85.8796 2.92476C85.9696 1.25774 85.429 -1.62608 91.2415 1.16744C93.4945 2.24879 89.6193 10.6745 91.9175 11.2153C93.5845 11.6207 102.281 10.8099 100.839 14.054C100.523 14.7748 100.884 13.8286 97.4145 14.0089C89.6196 14.4594 90.8813 13.0175 90.611 25.7689C90.5659 26.1295 89.5296 43.2511 94.4407 38.3401C97.8651 34.9157 97.0091 26.2646 99.8027 28.5627C101.605 30.0495 96.3783 48.2077 88.8988 42.4404C85.3845 39.692 84.7982 33.4738 84.7982 29.1033ZM118.096 30.9509C118.096 46.5407 94.0802 48.8385 98.4959 25.6792C102.146 6.52999 119.402 15.3159 111.292 28.6079C109.535 31.4466 106.922 33.1587 103.587 32.2125C103.587 41.3142 113.545 43.1615 115.978 30.9509C116.474 28.5179 118.096 28.7882 118.096 30.9509ZM110.12 20.4976C110.12 16.0819 104.083 20.0922 104.083 28.2925C104.083 31.8519 110.12 28.8333 110.12 20.4976ZM132.649 38.2049C131.748 37.3039 131.027 35.9519 130.441 34.1046C129.901 35.1408 128.955 42.4404 124.944 42.4404C119.087 42.4404 117.33 38.5655 117.149 32.6179L117.33 15.7213C117.42 15.1357 123.097 16.0819 123.097 17.6138C123.097 19.3711 121.926 37.8895 125.035 37.8895C129.315 37.8895 129.675 21.7589 129 20.4073C127.333 17.0729 134.452 18.65 134.587 18.7403C136.885 19.7316 133.19 30.0946 136.524 36.0874C138.552 39.782 140.49 32.2576 142.157 34.5555C144.004 37.0787 137.56 42.5755 132.649 38.2049ZM159.819 28.3825C159.819 45.3242 147.338 43.9271 147.338 39.016C147.338 38.115 148.69 36.3576 149.996 38.4304C152.024 41.6296 154.412 37.7995 154.727 32.1674C155.809 12.207 149.816 16.127 147.879 25.1836C146.933 29.4641 145.446 52.6685 148.104 53.7047C151.348 54.9212 141.391 57.805 141.391 54.3807L140.985 12.2519C140.67 10.9902 145.941 8.60209 145.941 14.2343V23.6062C146.933 21.2181 147.609 14.2794 152.565 14.2794C158.558 14.2794 159.819 23.7865 159.819 28.3825Z" fill="black"/>
<path d="M22.3485 24.5976C21.4922 24.5976 20.6814 24.8678 20.0506 25.4987L13.2471 32.3925C12.0758 33.609 12.0758 35.5465 13.2922 36.763C14.5087 37.9344 16.4463 37.9344 17.6628 36.7179L22.3488 31.9868L27.0347 36.7179C28.2061 37.9344 30.1888 37.9344 31.3601 36.763C32.5766 35.5465 32.6218 33.609 31.4053 32.3925L24.6018 25.4987C23.971 24.8678 23.1595 24.5976 22.3485 24.5976ZM20.0506 8.91781L6.48841 22.5703C5.27193 23.7868 5.27193 25.7244 6.48841 26.9409C7.70489 28.1122 9.64249 28.1122 10.859 26.8957L22.3485 15.3611L33.8379 26.8957C35.0093 28.1122 36.992 28.1122 38.2085 26.9409C39.3798 25.7244 39.3798 23.7868 38.2085 22.5703L24.6011 8.91781C23.9703 8.28699 23.1592 7.97159 22.3481 8.01673C21.4919 7.97159 20.6814 8.28699 20.0506 8.91781Z" fill="black"/>
</svg>
