<svg width="311" height="66" viewBox="0 0 311 66" fill="none" xmlns="http://www.w3.org/2000/svg"><path d="M227.367 39.0941L217.193 44.9503L215.184 46.1044V26.7832L217.193 27.9801L227.452 33.8791L231.898 36.4438L227.367 39.0941Z" fill="#E62875"/><path d="M236.343 15.7119C241.943 15.7119 246.218 17.4645 249.082 20.9697C251.988 24.4321 253.442 29.0915 253.442 34.9477V55.2948H241.259V35.6316C241.259 30.2456 238.951 27.5098 234.377 27.5098C230.957 27.5098 228.777 29.006 227.837 31.9982L215.184 24.6459V0.665283H227.367V18.3194C229.632 16.6096 232.624 15.7119 236.343 15.7119V15.7119ZM227.367 41.1886V55.2948H215.184V48.2417L227.367 41.1886ZM276.696 11.7365C275.328 12.9334 273.661 13.5319 271.694 13.5319C269.728 13.5319 268.061 12.9334 266.693 11.7365C265.325 10.5396 264.684 9.08627 264.684 7.29093C264.684 5.58109 265.368 4.12772 266.736 2.88808C268.104 1.64844 269.771 1.05 271.694 1.05C273.618 1.05 275.285 1.64844 276.653 2.88808C278.021 4.12772 278.705 5.58109 278.705 7.29093C278.705 9.08627 278.064 10.5396 276.696 11.7365ZM265.624 55.2948V16.2676H277.764V55.2948H265.624ZM306.148 28.0655V55.2948H293.88V28.0655H289.092V16.2676H293.88V3.14456H306.148V16.2676H310.893V28.0655H306.148Z" fill="#22252A"/><path d="M99.2565 27.0396H85.7915C85.6205 26.9114 85.4067 26.8259 85.193 26.7404C84.1671 26.3129 83.0557 26.0992 81.9016 26.0992C80.7474 26.0992 79.6788 26.3129 78.6528 26.7404C78.4391 26.8259 78.2254 26.9114 78.0117 27.0396H64.6321C65.5298 25.116 66.8122 23.3634 68.4365 21.7391C70.3174 19.901 72.3692 18.4904 74.592 17.55C76.8148 16.6523 79.294 16.1821 81.9016 16.1821C84.5946 16.1821 87.0311 16.6523 89.2966 17.55C91.5622 18.4904 93.614 19.901 95.4521 21.7818C97.0764 23.4062 98.3161 25.1588 99.2565 27.0396V27.0396ZM62.6231 27.0396H62.3238C56.5959 27.0396 53.7319 31.015 53.7319 36.7002V54.8246H41.5492V29.6471C36.6334 42.3 24.8782 43.2831 13.294 43.2831V54.8246H0V0.195029C15.6451 0.195029 37.1036 -2.92544 42.1904 15.7974H49.5855L50.9961 23.1497C54.2021 17.8919 58.9469 15.2417 65.1878 15.2417H75.5751C75.0194 15.4126 74.4637 15.6264 73.908 15.8401C71.4288 16.866 69.1632 18.4049 67.1114 20.4567C65.1451 22.423 63.649 24.6458 62.6231 27.0396V27.0396ZM88.2707 15.2417H108.276L109.558 20.4567C115.115 13.3181 129.051 13.2326 135.078 21.2689C140.763 12.5059 160.811 11.6082 164.487 28.493C171.797 7.71835 203.429 12.6341 203.429 35.2896C203.429 56.9191 173.848 62.9036 165.085 43.5823V54.8246H152.903V35.1613C152.903 29.9891 151.065 27.0396 145.935 27.0396C141.276 27.0396 138.925 29.8181 138.925 35.3751V54.8246H126.742V35.1613C126.742 29.7326 124.434 27.0396 119.86 27.0396C115.201 27.0396 112.85 29.8181 112.85 35.3751V54.8246H100.667V44.8647C100.924 44.3518 101.137 43.8388 101.351 43.3259C102.377 40.8466 102.89 38.1963 102.89 35.2896C102.89 32.4256 102.377 29.7753 101.351 27.2961C100.325 24.8168 98.829 22.5512 96.7772 20.4994C94.7254 18.4476 92.4598 16.9088 89.9806 15.8829C89.4249 15.6264 88.8692 15.4126 88.2707 15.2417V15.2417ZM100.667 39.3932V31.2287C100.924 32.5538 101.052 33.879 101.052 35.2896C101.052 36.743 100.924 38.0681 100.667 39.3932V39.3932ZM13.294 30.7158C19.4067 30.7158 30.3925 31.6562 30.3925 21.7391C30.3925 11.7792 19.022 12.6769 13.294 12.6769V30.7158ZM188.81 29.3051C180.816 21.5681 170.557 34.3064 177.867 41.274C185.775 48.7974 196.162 36.401 188.81 29.3051V29.3051Z" fill="#22252A"/><path d="M100.111 56.1924C99.8549 56.3206 99.5984 56.4061 99.2992 56.4916V56.8763C99.2992 57.0473 99.2992 57.2183 99.2565 57.3465L99.3847 57.3893C99.6412 57.5175 99.8977 57.3893 100.026 57.3038C100.154 57.1755 100.282 57.0046 100.24 56.6626L100.111 56.1924V56.1924Z" fill="#C03B88"/><path d="M89.4249 5.32462C88.6555 4.9399 87.8005 4.68343 86.9029 4.68343C85.1503 4.64068 83.5259 5.36736 82.4145 6.64975L73.2241 17.0798L78.3964 13.8311L87.2876 6.43602C87.9288 5.88032 88.6555 5.53835 89.4249 5.32462V5.32462Z" fill="#E62875"/><path d="M56.9378 38.5811L55.3562 39.9062C55.0142 40.2054 55.0997 40.6329 55.2707 40.8466C55.3562 40.9321 55.4417 40.9748 55.5699 41.0176L57.7927 41.8725C57.75 41.8298 57.7072 41.7443 57.6645 41.7015C56.9378 40.8039 56.6813 39.6497 56.9378 38.5811V38.5811Z" fill="#E62875"/><path d="M96.6062 56.0643L83.9961 51.5759L84.2953 51.7469L96.6062 56.3635V56.0643Z" fill="#C03B88"/><path d="M70.2746 28.4502L69.035 29.0914L60.1438 36.7429L61.9819 37.8543L70.2746 28.4502Z" fill="#E62875"/><path d="M60.1865 39.9061L58.4339 38.8375C58.3911 38.7947 58.3484 38.752 58.3057 38.7092C58.0492 39.4787 58.2202 40.2908 58.6904 40.8465C58.8186 40.9748 58.9041 41.103 59.0323 41.1885L60.1865 39.9061Z" fill="#E62875"/><path d="M101.608 35.1614L102.719 41.1458L102.548 37.8544L101.608 35.1614Z" fill="#C03B88"/><path d="M80.6619 56.107L79.9352 55.7223L79.2085 55.4658L80.6619 56.107Z" fill="#C03B88"/><path d="M78.1399 55.6795L70.1464 52.0461L53.7746 45.9334C52.7915 45.5914 51.9365 44.9502 51.2526 44.1808C51.0816 43.9243 50.8679 43.7106 50.7397 43.4541C50.2267 45.2922 50.6542 47.3013 51.9793 48.8401C52.8342 49.9088 54.0311 50.5927 55.3562 50.8919L78.1399 55.6795V55.6795Z" fill="#E62875"/><path d="M96.6489 54.2261L93.7422 53.6277L96.6489 54.6536V54.2261Z" fill="#C03B88"/><path d="M91.9469 11.8648C91.605 11.5656 91.1348 11.3519 90.6646 11.3091C90.1943 11.2664 89.7241 11.3946 89.2967 11.6511L88.57 12.2923L88.228 12.5488L89.2112 15.3273L92.2889 13.6602L91.9469 11.8648Z" fill="#E62875"/><path d="M99.6839 54.8672L99.3419 54.7817V55.0382C99.4702 54.9955 99.5984 54.9527 99.6839 54.8672V54.8672Z" fill="#C03B88"/><path d="M103.317 40.1199L103.617 46.0616L105.412 55.8077C105.711 57.3893 105.369 58.9709 104.514 60.2105C105.284 59.8686 106.01 59.3556 106.609 58.6717C108.019 57.0901 108.447 54.91 107.72 52.901L103.317 40.1199Z" fill="#E62875"/><path d="M92.8018 16.4812L90.1088 17.9346L96.4779 36.4009L92.8018 16.4812Z" fill="#E62875"/><path d="M74.592 16.9941L71.6425 18.8322L70.5739 20.0291L73.0104 18.2765L74.592 16.9941Z" fill="#C03B88"/><path d="M80.0208 50.1653L83.4404 51.4477L83.8679 51.5332L80.0208 50.1653Z" fill="#14B3E3"/><path d="M60.1865 39.9061L66.8977 44.0952L78.6956 48.2843L61.9819 37.8542L60.1865 39.9061Z" fill="#14B3E3"/><path d="M99.3419 54.7819L99.3847 52.1744L96.9481 38.9231L96.6489 54.2262L99.3419 54.7819Z" fill="#14B3E3"/><path d="M97.6322 12.7625C97.5467 12.7625 97.5039 12.7197 97.4612 12.7197L97.8459 14.857L97.6322 12.7625Z" fill="#14B3E3"/><path d="M90.1089 17.9347L89.2112 15.3271L78.3537 21.0551L71.7708 26.7404L70.2747 28.4502L90.1089 17.9347Z" fill="#14B3E3"/><path d="M99.2992 56.4917C98.7008 56.6199 98.0168 56.5772 97.4184 56.3207L96.6062 56.0642V56.3634L99.2565 57.3466C99.2992 57.2184 99.2992 57.0474 99.2992 56.8764V56.4917V56.4917Z" fill="#C03B88"/><path d="M99.2992 56.8764V56.4917C98.7008 56.6199 98.0168 56.5772 97.4184 56.3207L96.6062 56.0642V56.3634L99.2565 57.3466C99.2992 57.2184 99.2992 57.0474 99.2992 56.8764V56.8764Z" fill="#14B3E3"/><path d="M61.9818 37.8543L60.1437 36.7429L58.9041 37.8116C58.6049 38.068 58.3912 38.41 58.3057 38.7092C58.3484 38.752 58.3912 38.7947 58.4339 38.8375L60.1865 39.9061L61.9818 37.8543Z" fill="#C03B88"/><path d="M60.1865 39.9061L61.9818 37.8543L60.1437 36.7429L58.9041 37.8116C58.6049 38.068 58.3912 38.41 58.3057 38.7092C58.3484 38.752 58.3912 38.7947 58.4339 38.8375L60.1865 39.9061Z" fill="#14B3E3"/><path d="M84.2953 51.7467L83.9961 51.5757L83.8679 51.533L83.4404 51.4475L84.2953 51.7467Z" fill="#C03B88"/><path d="M83.8679 51.533L83.4404 51.4475L84.2953 51.7467L83.9961 51.5757L83.8679 51.533Z" fill="#14B3E3"/><path d="M71.7707 26.7405L69.0349 29.0915L70.2746 28.4503L71.7707 26.7405Z" fill="#C03B88"/><path d="M71.7707 26.7405L69.0349 29.0915L70.2746 28.4503L71.7707 26.7405Z" fill="#14B3E3"/><path d="M99.3419 54.7818L96.6489 54.2261V54.6535L97.8458 55.081C98.3588 55.252 98.8717 55.252 99.3419 55.0383V54.7818V54.7818Z" fill="#C03B88"/><path d="M96.6489 54.2261V54.6535L97.8458 55.081C98.3588 55.252 98.8717 55.252 99.3419 55.0383V54.7818L96.6489 54.2261V54.2261Z" fill="#14B3E3"/><path d="M92.2889 13.6602L89.2112 15.3273L90.1088 17.9348L92.8018 16.4814L92.2889 13.6602Z" fill="#C03B88"/><path d="M92.8018 16.4814L92.2889 13.6602L89.2112 15.3273L90.1088 17.9348L92.8018 16.4814Z" fill="#14B3E3"/><path d="M96.307 6.30779C96.7345 6.82074 96.9909 7.46193 97.0764 8.14587L97.6321 12.7625C97.8886 12.8907 98.1023 13.0189 98.3161 13.1899L97.7604 8.10312C97.6321 7.29095 97.3329 6.52152 96.8199 5.88033C96.2215 5.15364 95.4093 4.72618 94.5544 4.51245L93.6567 5.06815C94.6826 5.06815 95.6658 5.5811 96.307 6.30779V6.30779Z" fill="#14B3E3"/><path d="M49.842 42.1718C49.3291 41.9153 48.9443 41.6161 48.6024 41.2314C48.0039 40.5047 47.7047 39.5216 47.7902 38.5811C47.833 38.4529 47.8329 38.3247 47.8757 38.1964C47.7047 37.94 47.5337 37.6835 47.4482 37.427C47.2773 37.769 47.1918 38.1109 47.149 38.4957C47.0208 39.6071 47.3627 40.7612 48.0894 41.6161C48.4741 42.1291 48.9871 42.471 49.5855 42.7703L50.6114 43.1977C50.4405 42.9412 50.3122 42.5993 50.184 42.3001L49.842 42.1718V42.1718Z" fill="#14B3E3"/><path d="M78.1399 55.6794L89.8523 60.98L81.0039 56.2779L78.1399 55.6794Z" fill="#14B3E3"/><path d="M49.158 36.2728L65.7008 24.3894L69.6761 21.0552L70.5738 20.0293L48.7733 35.7599C48.3886 36.0163 48.0894 36.3156 47.8329 36.6575C47.9184 36.914 48.0466 37.1705 48.1749 37.427C48.3886 36.9995 48.7306 36.572 49.158 36.2728V36.2728Z" fill="#14B3E3"/><path d="M92.2033 5.19643L93.4429 4.427C92.7163 4.427 91.9896 4.68348 91.3484 5.11094C91.6476 5.11094 91.9041 5.15369 92.2033 5.19643Z" fill="#14B3E3"/><path d="M103.702 61.1083C103.617 61.1938 103.531 61.2793 103.446 61.3648C103.317 61.4502 103.232 61.5357 103.104 61.6212C102.975 62.4762 102.505 63.2883 101.779 63.8013C100.753 64.528 99.513 64.6562 98.3589 64.1433L90.1516 60.3816L98.5726 64.8699C98.6153 64.9127 98.6581 64.9127 98.7008 64.9554C99.8977 65.2974 101.137 65.0837 102.163 64.357C103.018 63.7158 103.574 62.8181 103.745 61.7922C103.745 61.7495 103.745 61.7067 103.745 61.6212L103.702 61.1083V61.1083Z" fill="#14B3E3"/><path d="M81.0039 56.278L80.6619 56.107L79.2085 55.4658L70.1464 52.0461L78.1399 55.6796L81.0039 56.278Z" fill="#C03B88"/><path d="M80.6619 56.107L79.2085 55.4658L70.1464 52.0461L78.1399 55.6796L81.0039 56.278L80.6619 56.107Z" fill="#14B3E3"/><path d="M73.0103 18.2766L70.5738 20.0292L69.6761 21.0551L73.0103 18.2766Z" fill="#C03B88"/><path d="M70.5738 20.0292L69.6761 21.0551L73.0103 18.2766L70.5738 20.0292Z" fill="#14B3E3"/><path d="M99.5984 24.3894L98.316 13.1899C98.1023 13.0189 97.8886 12.8907 97.6321 12.7625L97.8458 14.857L99.5984 24.3894V24.3894Z" fill="#14B3E3"/><path d="M99.5984 24.3894L98.316 13.1899C98.1023 13.0189 97.8886 12.8907 97.6321 12.7625L97.8458 14.857L99.5984 24.3894V24.3894Z" fill="#14B3E3"/><path d="M50.7824 43.283L50.6115 43.1975C50.6542 43.283 50.6969 43.3685 50.7397 43.454C50.7397 43.4112 50.7824 43.3685 50.7824 43.283V43.283Z" fill="#A53B89"/><path d="M97.0337 15.6264C96.649 15.1562 95.8796 14.857 95.1529 15.2417L94.7682 15.4127L97.2475 22.594L97.3757 16.6096C97.3757 16.1394 97.2047 15.7974 97.0337 15.6264Z" fill="#72457D"/><path d="M87.3731 10.1976C87.2448 10.0267 87.0738 9.94116 86.8601 9.94116C86.6891 9.94116 86.5609 10.0267 86.4754 10.0694C86.4327 10.1121 86.3899 10.1549 86.3899 10.1549L78.3536 19.3026L87.7578 11.1808L87.5013 10.4114C87.4586 10.3259 87.4158 10.2404 87.3731 10.1976V10.1976Z" fill="#72457D"/><path d="M64.2474 47.3867L56.9805 43.5396L55.9974 44.651C55.9119 44.7364 55.8691 44.8219 55.8691 44.8647L58.9469 46.2753L64.2474 47.3867V47.3867Z" fill="#72457D"/><path d="M101.95 52.1743L101.992 52.388C102.206 53.414 101.95 54.4399 101.308 55.2093L101.992 55.3803C102.206 55.423 102.377 55.3375 102.505 55.2948L102.249 53.0292L101.95 52.1743V52.1743Z" fill="#72457D"/><path d="M76.3019 49.9514L72.241 47.3867L59.2462 42.7701C58.8187 42.6418 58.4767 42.4281 58.1775 42.1716L57.4081 43.0266L66.5557 47.8996L76.3019 49.9514V49.9514Z" fill="#72457D"/><path d="M68.6075 22.2947L65.7008 24.3892L51.9365 35.8452C50.8679 36.7001 50.2267 37.8543 49.9702 39.0939L52.5777 40.4618L56.5104 36.0162C56.3821 35.5032 56.3821 34.9903 56.4676 34.4346C56.6386 33.4942 57.1516 32.6392 57.8782 32.0408C58.092 31.8698 58.3485 31.6988 58.5622 31.5706L62.0246 29.7325L68.6075 22.2947Z" fill="#72457D"/><path d="M103.104 60.5952C102.42 60.6807 101.736 60.6807 101.009 60.5097L97.9313 59.8685C97.9313 59.9112 97.8886 59.9112 97.8458 59.954C97.6321 60.125 97.3756 60.296 97.1191 60.4242C95.794 61.1509 94.2124 61.0654 92.93 60.296L89.3393 58.0732L83.3121 56.7908L84.6373 57.4747L97.5893 62.305C99.4702 63.0317 101.522 62.7752 103.104 61.6211C103.146 61.3219 103.146 61.0226 103.104 60.7234V60.5952V60.5952Z" fill="#72457D"/><path d="M91.3485 5.11084C90.7073 5.0681 90.0661 5.11084 89.4249 5.32457C89.7241 5.45281 90.0234 5.6238 90.3226 5.83753L91.263 5.15359C91.3058 5.11084 91.3485 5.11084 91.3485 5.11084V5.11084Z" fill="#72457D"/><path d="M99.513 46.8738L99.3848 52.1743L99.855 54.7391C99.8977 54.7391 99.9405 54.6963 99.9405 54.6963H99.9832C100.539 54.1834 100.795 53.4139 100.667 52.6445L99.513 46.8738Z" fill="#72457D"/><path d="M52.1502 40.9747L49.8847 39.7778C49.7992 40.6328 49.8847 41.4877 50.1839 42.2998L50.9961 42.6846C51.2526 42.1289 51.5518 41.6159 51.9793 41.1457L52.1502 40.9747V40.9747Z" fill="#72457D"/><path d="M79.9352 55.7223L64.2474 47.3868L58.9469 46.2754L79.2086 55.4658L79.9352 55.7223Z" fill="#782961"/><path d="M76.4301 15.8401L74.592 16.9942L73.0104 18.2766L76.4301 15.8401Z" fill="#782961"/><path d="M56.5104 36.0164L52.5778 40.462L57.4081 43.0267L58.1775 42.1718C58.0493 42.0863 57.921 42.0008 57.7928 41.8726L55.57 41.0177C55.4417 40.9749 55.3563 40.9322 55.2708 40.8467C55.0998 40.6329 55.0143 40.2055 55.3563 39.9063L56.9379 38.5811C57.0234 38.2819 57.1088 38.0254 57.2798 37.7262C56.8951 37.2132 56.5959 36.6575 56.5104 36.0164V36.0164Z" fill="#A53B89"/><path d="M56.9805 43.5396L52.1502 40.9749L51.9793 41.1458C51.5518 41.616 51.2526 42.129 50.9961 42.6847L55.8691 44.8647C55.8691 44.822 55.9119 44.7365 55.9974 44.651L56.9805 43.5396V43.5396Z" fill="#A53B89"/><path d="M89.3393 58.0732L76.3018 49.9515L66.5557 47.8997L83.3121 56.7908L89.3393 58.0732Z" fill="#782961"/><path d="M99.7694 31.699L99.5984 40.6757L101.949 52.1744L102.249 53.0293L99.7694 31.699Z" fill="#A53B89"/><path d="M91.3912 6.82066C91.3057 6.77792 91.263 6.69243 91.1775 6.60693L85.1076 10.4113L68.6076 22.2948L62.0247 29.7326L72.9249 23.9619L78.3537 19.3025L86.3899 10.1549C86.3899 10.1549 86.4327 10.1121 86.4754 10.0694C86.5609 10.0266 86.6892 9.94113 86.8601 9.94113C87.0739 9.94113 87.2449 10.0266 87.3731 10.1976C87.4159 10.2404 87.4586 10.3258 87.5013 10.4113L87.7578 11.1808L88.228 10.7961C88.228 10.7961 88.228 10.7533 88.2708 10.7533C88.9547 10.1549 89.8524 9.89838 90.7928 9.98388C91.7332 10.0694 92.6309 10.5396 93.2293 11.2663C93.3148 11.3518 93.3576 11.4372 93.4431 11.5227L92.5026 8.78699C92.2462 8.0603 91.8614 7.41911 91.3912 6.82066V6.82066Z" fill="#A53B89"/><path d="M103.617 46.0615L104.343 60.2532C104.386 60.2532 104.429 60.2105 104.514 60.2105C105.369 58.9709 105.711 57.3892 105.412 55.8076L103.617 46.0615V46.0615Z" fill="#A53B89"/><path d="M90.3225 5.83742C90.0233 5.62369 89.7241 5.4527 89.4249 5.32446C88.6554 5.53819 87.9287 5.88016 87.2876 6.43586L78.3964 13.8309L84.7655 9.85555L90.3225 5.83742V5.83742Z" fill="#A53B89"/><path d="M100.496 31.8699L103.617 59.3556L102.719 41.1458L101.607 35.1613L100.496 31.8699Z" fill="#A53B89"/><path d="M102.505 55.2947C102.377 55.3375 102.206 55.423 101.992 55.3802L101.308 55.2092C101.18 55.3802 101.052 55.5512 100.838 55.7222C100.838 55.7222 100.838 55.7222 100.795 55.7222C100.582 55.9359 100.368 56.0641 100.111 56.1924L100.24 56.6626C100.282 57.0046 100.154 57.1755 100.026 57.3038C99.8977 57.3893 99.6412 57.5175 99.3848 57.3893L99.2565 57.3465C99.1283 58.3297 98.6581 59.2274 97.9314 59.8686L101.009 60.5097C101.736 60.6807 102.42 60.6807 103.104 60.5952L102.505 55.2947V55.2947Z" fill="#A53B89"/><path d="M70.1464 52.0462L50.7824 43.2832C50.7824 43.3687 50.7396 43.4114 50.7396 43.4542C50.8679 43.7107 51.0816 43.9244 51.2526 44.1809C51.9365 44.9503 52.7914 45.5915 53.7746 45.9335L70.1464 52.0462V52.0462Z" fill="#A53B89"/><path d="M92.2034 12.1212C92.1179 12.0357 92.0324 11.9502 91.9469 11.8647L92.2889 13.6601L92.7591 13.4464L92.6736 13.1044C92.5881 12.7197 92.4599 12.3777 92.2034 12.1212Z" fill="#A53B89"/><path d="M96.9909 37.8116L97.0336 34.6912L93.3147 16.2249L92.8018 16.4813L96.4779 36.401L96.9481 38.923L96.9909 37.8116Z" fill="#A53B89"/><path d="M94.7682 15.4126L94.5544 15.5408L97.162 28.4929L97.2474 22.5939L94.7682 15.4126Z" fill="#A53B89"/><path d="M63.6062 31.998L59.8873 33.9644C59.8018 34.0071 59.7163 34.0499 59.6308 34.1354C59.2888 34.3918 59.1606 34.7765 59.1178 34.9903C59.0751 35.2468 59.1178 35.5032 59.2033 35.7597L63.6062 31.998V31.998Z" fill="#A53B89"/><path d="M89.2966 11.6509C89.2539 11.6936 89.1684 11.7364 89.1257 11.8219C89.1257 11.8219 89.1256 11.8219 89.0829 11.8219L88.5699 12.2921L89.2966 11.6509Z" fill="#782961"/><path d="M96.6062 56.3634L84.2953 51.7468L94.3406 57.9878C94.9818 58.4152 95.5803 58.1587 95.8367 58.0733C95.8795 58.0305 95.965 57.945 96.0932 57.9023C96.3069 57.6885 96.6062 57.3466 96.6062 56.7909V56.3634V56.3634Z" fill="#A53B89"/><path d="M99.8976 26.7404V25.9283L99.5984 24.3894L99.8976 26.7404Z" fill="#14B3E3"/><path d="M99.8976 25.9283L100.069 16.7379C100.111 15.712 99.7694 14.6861 99.0855 13.9166C98.8717 13.6601 98.6153 13.4037 98.316 13.1899L99.5984 24.3894L99.8976 26.7405V25.9283Z" fill="#14B3E3"/><path d="M93.9987 12.8051V12.8478L94.1269 13.5745L94.7681 15.4126L95.1528 15.2416C95.8795 14.8569 96.6489 15.1561 97.0336 15.6263C97.2046 15.7973 97.3756 16.1393 97.3756 16.6095L97.2474 22.5939L99.4702 29.0059L97.8458 14.8569L97.4611 12.7196C96.3497 12.2494 95.1101 12.2494 93.9987 12.8051V12.8051Z" fill="#14B3E3"/><path d="M96.9482 38.9229L99.3848 52.1742L99.513 46.8737L98.6581 42.6418L96.991 37.8115L96.9482 38.9229Z" fill="#14B3E3"/><path d="M96.991 37.8115L96.9482 38.9229L99.3848 52.1742L99.513 46.8737L98.6581 42.6418L96.991 37.8115Z" fill="#7D77B4"/><path d="M72.241 47.3867L76.3019 49.9515L83.4405 51.4476L80.0208 50.1652L72.241 47.3867Z" fill="#14B3E3"/><path d="M92.93 60.296C94.2124 61.0655 95.794 61.151 97.1191 60.4243C97.4184 60.296 97.7176 60.0823 97.9313 59.8686L89.3394 58.0732L92.93 60.296V60.296Z" fill="#14B3E3"/><path d="M58.5622 31.5707C57.4936 32.1692 56.7241 33.1951 56.4677 34.4347C56.3822 34.9904 56.3822 35.5034 56.5104 36.0163L62.0247 29.7327L58.5622 31.5707V31.5707Z" fill="#14B3E3"/><path d="M94.7681 15.4125L94.127 13.5745L94.5544 15.5408L94.7681 15.4125Z" fill="#14B3E3"/><path d="M96.6062 56.3633V56.7908C96.6062 57.5602 96.0505 57.9449 95.8367 58.0732C95.5803 58.1587 94.9818 58.4151 94.3406 57.9877L84.2953 51.7468L83.4404 51.4475L76.3018 49.9514L89.3393 58.0732L97.9313 59.8685C98.658 59.2273 99.1282 58.3297 99.2564 57.3465L96.6062 56.3633Z" fill="#14B3E3"/><path d="M97.9313 59.8685C98.658 59.2273 99.1282 58.3297 99.2564 57.3465L96.6062 56.3633V56.7908C96.6062 57.3465 96.3069 57.6885 96.0932 57.9022C95.965 57.9449 95.8795 58.0304 95.8367 58.0732C95.5803 58.1587 94.9818 58.4151 94.3406 57.9877L84.2953 51.7468L83.4404 51.4475L76.3018 49.9514L89.3393 58.0732L92.93 60.296C94.2124 61.0654 95.794 61.1509 97.1191 60.4242C97.3756 60.296 97.6321 60.125 97.8458 59.954C97.8885 59.9113 97.9313 59.9113 97.9313 59.8685V59.8685Z" fill="#7D77B4"/><path d="M97.2474 22.594L97.1619 28.493L99.5984 40.6756L99.7694 31.6989L99.4702 29.0059L97.2474 22.594Z" fill="#14B3E3"/><path d="M58.0065 36.7857L59.2034 35.7598C59.1179 35.5034 59.0751 35.2469 59.1179 34.9904C59.2034 34.7339 59.3316 34.2637 59.8873 33.9645L63.6062 31.9982L72.9249 23.9619L62.0246 29.7326L56.5104 36.0163C56.5959 36.6575 56.8951 37.2132 57.2798 37.7262C57.4508 37.3842 57.7073 37.085 58.0065 36.7857V36.7857Z" fill="#14B3E3"/><path d="M58.0065 36.7857L59.2034 35.7598C59.1179 35.5034 59.0752 35.2469 59.1179 34.9904C59.1607 34.7767 59.2889 34.392 59.6309 34.1355C59.7164 34.05 59.8019 34.0072 59.8874 33.9645L63.6063 31.9982L72.9249 23.9619L62.0247 29.7326L58.5622 31.5707C58.3485 31.699 58.092 31.8699 57.8783 32.0409C57.1516 32.6394 56.6386 33.4943 56.4677 34.4347C56.3822 34.9904 56.3822 35.5034 56.5104 36.0163C56.5959 36.6575 56.8951 37.2132 57.2798 37.7262C57.4508 37.3842 57.7073 37.085 58.0065 36.7857V36.7857Z" fill="#14B3E3"/><path d="M98.6581 42.6419L97.0337 34.6912L96.991 37.8116L98.6581 42.6419Z" fill="#14B3E3"/><path d="M97.0337 34.6912L96.991 37.8116L98.6581 42.6419L97.0337 34.6912Z" fill="#7D77B4"/><path d="M92.8018 16.4813L93.3147 16.2248L92.759 13.4463L92.2888 13.66L92.8018 16.4813Z" fill="#14B3E3"/><path d="M92.759 13.4463L92.2888 13.66L92.8018 16.4813L93.3147 16.2248L92.759 13.4463Z" fill="#7D77B4"/><path d="M99.8121 29.9892L100.496 31.87L99.8976 26.7405L99.8121 29.9892Z" fill="#14B3E3"/><path d="M90.3225 5.83752C90.4507 5.92302 90.579 6.05125 90.7072 6.13675L92.2033 5.19633C91.9041 5.15359 91.6476 5.11084 91.3484 5.11084C91.3484 5.11084 91.3057 5.11084 91.2629 5.15359L90.3225 5.83752V5.83752Z" fill="#14B3E3"/><path d="M92.2033 5.19633C91.9041 5.15359 91.6476 5.11084 91.3484 5.11084C91.3484 5.11084 91.3057 5.11084 91.2629 5.15359L90.3225 5.83752C90.4507 5.92302 90.579 6.05125 90.7072 6.13675L92.2033 5.19633V5.19633Z" fill="#7D77B4"/><path d="M50.9961 42.6848L50.184 42.3C50.3122 42.5993 50.4404 42.9412 50.6114 43.1977L50.7824 43.2832C50.8252 43.1122 50.9106 42.8985 50.9961 42.6848Z" fill="#14B3E3"/><path d="M50.9961 42.6848L50.184 42.3C50.3122 42.5993 50.4404 42.9412 50.6114 43.1977L50.7824 43.2832C50.8252 43.1122 50.9106 42.8985 50.9961 42.6848Z" fill="#7D77B4"/><path d="M103.104 60.7235C103.146 61.0227 103.146 61.322 103.104 61.6212C103.232 61.5357 103.317 61.4502 103.446 61.3647C103.531 61.2792 103.617 61.1937 103.702 61.1082V60.467C103.488 60.5098 103.317 60.5525 103.104 60.5953V60.7235V60.7235Z" fill="#14B3E3"/><path d="M103.702 60.467C103.488 60.5098 103.317 60.5525 103.104 60.5953V60.7235C103.146 61.0227 103.146 61.322 103.104 61.6212C103.232 61.5357 103.317 61.4502 103.446 61.3647C103.531 61.2792 103.617 61.1937 103.702 61.1082V60.467V60.467Z" fill="#7D77B4"/><path d="M102.633 55.1666C102.719 55.0384 102.847 54.8246 102.762 54.5254L102.249 53.0293L102.505 55.2948C102.548 55.2521 102.591 55.2093 102.633 55.1666Z" fill="#14B3E3"/><path d="M69.6762 21.0552L65.7008 24.3894L68.6075 22.2948L69.6762 21.0552Z" fill="#14B3E3"/><path d="M55.9974 45.5059C56.0829 45.6342 56.2111 45.6769 56.3393 45.7197L58.9469 46.2754L55.8691 44.8647C55.7836 45.1212 55.8691 45.3777 55.9974 45.5059V45.5059Z" fill="#14B3E3"/><path d="M58.9469 46.2754L55.8691 44.8647C55.7836 45.1212 55.8691 45.3777 55.9974 45.5059C56.0829 45.6342 56.2111 45.6769 56.3393 45.7197L58.9469 46.2754V46.2754Z" fill="#7D77B4"/><path d="M100.496 31.8698L99.8122 29.989L99.7694 31.6989L102.249 53.0292L102.762 54.5253C102.847 54.8245 102.719 55.0382 102.633 55.1665C102.591 55.2092 102.548 55.252 102.505 55.2947L103.104 60.5952C103.317 60.5525 103.488 60.5097 103.702 60.467L103.617 59.3556L100.496 31.8698V31.8698Z" fill="#14B3E3"/><path d="M56.3393 45.7195C56.2111 45.6768 56.0829 45.6341 55.9974 45.5058C55.8691 45.3776 55.7836 45.1211 55.8691 44.8646L50.9961 42.6846C50.9106 42.8983 50.8251 43.112 50.7823 43.283L70.1463 52.046L79.2085 55.4657L58.9469 46.2752L56.3393 45.7195V45.7195Z" fill="#14B3E3"/><path d="M79.2085 55.4657L58.9469 46.2752L56.3393 45.7195C56.2111 45.6768 56.0829 45.6341 55.9974 45.5058C55.8691 45.3776 55.7836 45.1211 55.8691 44.8646L50.9961 42.6846C50.9106 42.8983 50.8251 43.112 50.7823 43.283L70.1463 52.046L79.2085 55.4657Z" fill="#14B3E3"/><path d="M90.3225 5.8374L84.7655 9.85554L90.7072 6.13663C90.579 6.05113 90.4507 5.92289 90.3225 5.8374V5.8374Z" fill="#14B3E3"/><path d="M90.7072 6.13663C90.579 6.05113 90.4507 5.92289 90.3225 5.8374L84.7655 9.85554L90.7072 6.13663V6.13663Z" fill="#7D77B4"/><path d="M85.1075 10.4114L76.4301 15.8401L73.0104 18.2767L69.6762 21.0552L68.6075 22.2948L85.1075 10.4114Z" fill="#14B3E3"/><path d="M76.4301 15.8401L73.0104 18.2767L65.7008 24.3894L68.6075 22.2948L85.1075 10.4114L76.4301 15.8401Z" fill="#7D77B4"/><path d="M99.5984 24.3893L97.8458 14.8569L99.4702 29.0059L99.8122 29.9891L99.8976 26.7404L99.5984 24.3893Z" fill="#14B3E3"/><path d="M99.5984 24.3893L97.8458 14.8569L99.4702 29.0059L99.8122 29.9891L99.8976 26.7404L99.5984 24.3893Z" fill="#14B3E3"/><path d="M97.8458 14.8569L99.4702 29.0059L99.8122 29.9891L99.8976 26.7404L99.5984 24.3893L97.8458 14.8569Z" fill="#7D77B4"/><path d="M99.7694 31.6989L99.8122 29.989L99.4702 29.0059L99.7694 31.6989Z" fill="#14B3E3"/><path d="M99.7694 31.6989L99.8122 29.989L99.4702 29.0059L99.7694 31.6989Z" fill="#14B3E3"/><path d="M103.617 59.3557L100.496 31.8699L101.607 35.1614L99.8976 25.9282V26.7404L99.8121 29.9891L99.4702 29.0059L97.2474 22.594L97.1619 28.493L99.5984 40.6756L99.7694 31.6989L102.249 53.0292L102.505 55.2948L103.104 60.5953C103.317 60.5525 103.488 60.5098 103.702 60.4671L103.617 59.3557V59.3557Z" fill="#7D77B4"/><path d="M49.9702 39.0941L49.6709 38.9231C49.2435 38.6666 48.8588 38.4102 48.5595 38.0254C48.3886 37.8545 48.2603 37.6407 48.1748 37.427C48.0466 37.6835 47.9184 37.94 47.8756 38.1964C47.9184 38.2819 48.0038 38.3674 48.0466 38.4529C48.4313 38.8804 48.8588 39.2223 49.3717 39.4788L49.8847 39.778C49.8847 39.5216 49.9274 39.3078 49.9702 39.0941V39.0941Z" fill="#72457D"/><path d="M93.6567 5.06812C93.272 5.06812 92.8446 5.11086 92.4598 5.28185C92.6736 5.32459 92.8446 5.36734 93.0583 5.45283L93.6567 5.06812Z" fill="#72457D"/><path d="M100.667 4.25603C99.2992 2.63168 96.9054 2.24696 95.1528 3.35836L93.443 4.42702C93.8277 4.38427 94.1697 4.42702 94.5544 4.51251L95.4948 3.91406C97.2046 2.84541 99.1282 3.4866 100.154 4.68349C100.667 5.28194 100.924 6.00862 100.966 6.8208L102.548 37.8545L103.317 40.12L101.65 6.8208C101.608 5.88038 101.266 4.98272 100.667 4.25603V4.25603Z" fill="#72457D"/><path d="M73.2241 17.0798L48.9871 32.212C47.9612 32.8532 47.2773 33.8791 47.1063 35.0759C46.978 35.8881 47.1063 36.7003 47.4482 37.427C47.5337 37.1705 47.662 36.914 47.833 36.6576C47.7047 36.1873 47.7047 35.6744 47.7475 35.2042C47.9184 34.1783 48.4741 33.3234 49.3718 32.7677L71.6425 18.8324L73.2241 17.0798V17.0798Z" fill="#72457D"/><path d="M102.548 37.8542L102.719 41.1457L103.617 46.0615L103.317 40.1198L102.548 37.8542Z" fill="#72457D"/><path d="M82.0297 56.5343L79.9352 55.7222L80.6619 56.1069L81.1321 56.3206L82.0297 56.5343Z" fill="#782961"/><path d="M92.4598 5.28185C92.8446 5.11086 93.272 5.06812 93.6567 5.06812L94.5544 4.51242C94.1697 4.42693 93.8277 4.38418 93.443 4.42693L92.2034 5.19636C92.2889 5.2391 92.3744 5.2391 92.4598 5.28185Z" fill="#14B3E3"/><path d="M94.5544 4.51242C94.1697 4.42693 93.8277 4.38418 93.443 4.42693L92.2034 5.19636C92.2889 5.2391 92.3744 5.2391 92.4598 5.28185C92.8446 5.11086 93.272 5.06812 93.6567 5.06812L94.5544 4.51242Z" fill="#7D77B4"/><path d="M98.7008 64.9553C98.658 64.9125 98.6153 64.9125 98.5726 64.8698L90.1516 60.3815L81.1321 56.3206L81.0039 56.2778L89.8524 60.9799L98.1024 64.7416C98.3161 64.8271 98.4871 64.8698 98.7008 64.9553V64.9553Z" fill="#14B3E3"/><path d="M103.745 61.6212C103.745 61.7066 103.745 61.7494 103.745 61.7921C103.788 61.5357 103.788 61.2792 103.788 61.0227C103.788 61.0655 103.745 61.1082 103.702 61.1082L103.745 61.6212V61.6212Z" fill="#14B3E3"/><path d="M48.1749 37.4269C48.0467 37.1704 47.9184 36.9139 47.833 36.6575C47.662 36.9139 47.5337 37.1704 47.4482 37.4269C47.5337 37.6834 47.7047 37.9399 47.8757 38.1963C47.9184 37.9399 48.0467 37.6834 48.1749 37.4269Z" fill="#14B3E3"/><path d="M47.833 36.6575C47.662 36.9139 47.5337 37.1704 47.4482 37.4269C47.5337 37.6834 47.7047 37.9399 47.8757 38.1963C47.9184 37.9399 48.0467 37.6834 48.1749 37.4269C48.0467 37.1704 47.9184 36.9139 47.833 36.6575Z" fill="#7D77B4"/><path d="M81.0038 56.2779L81.1321 56.3207L80.6619 56.1069L81.0038 56.2779Z" fill="#14B3E3"/><path d="M81.1321 56.3207L80.6619 56.1069L81.0038 56.2779L81.1321 56.3207Z" fill="#3D2C51"/><path d="M104.386 61.6211L104.343 60.4242C104.172 60.6379 104.001 60.8517 103.788 61.0226C103.788 61.0654 103.745 61.1081 103.702 61.1081L103.745 61.6211C103.745 61.7066 103.745 61.7493 103.745 61.7921C103.745 63.0317 103.146 64.1004 102.12 64.7843C101.095 65.4255 99.8122 65.4682 98.7008 64.9553C98.658 64.9125 98.6153 64.9125 98.5726 64.8698L90.1516 60.3815L84.6373 57.4747L83.3122 56.7908L82.0298 56.5343L81.1321 56.3206L81.0039 56.2778L89.8524 60.9799L98.2733 65.4682C99.5985 66.1522 101.18 66.1094 102.462 65.34C103.745 64.5278 104.472 63.1172 104.386 61.6211V61.6211Z" fill="#72457D"/><path d="M52.5778 40.4619L49.9703 39.094C49.9275 39.3077 49.8848 39.5215 49.8848 39.7779L52.1503 40.9748L52.5778 40.4619Z" fill="#873D87"/><path d="M66.5557 47.8997L57.4081 43.0266L56.9806 43.5396L64.2474 47.3867L66.5557 47.8997Z" fill="#873D87"/><path d="M93.0582 5.45272C92.8445 5.36723 92.6735 5.32448 92.4598 5.28174C92.2033 5.36723 91.9041 5.49547 91.6476 5.7092L90.8354 6.2649C90.9637 6.39314 91.0919 6.47863 91.1774 6.60687L93.0582 5.45272V5.45272Z" fill="#834084"/><path d="M83.3122 56.7909L66.5557 47.8997L64.2474 47.3867L79.9353 55.7222L82.0298 56.5344L83.3122 56.7909Z" fill="#5F2753"/><path d="M78.3963 13.8311L73.2241 17.0798L71.6425 18.8324L74.5919 16.9943L76.43 15.8402L84.7655 9.85571L78.3963 13.8311Z" fill="#A53B89"/><path d="M57.408 43.0267L52.5777 40.4619L52.1503 40.9749L56.9806 43.5396L57.408 43.0267Z" fill="#873D87"/><path d="M91.1775 6.60686C91.092 6.47862 90.9638 6.39313 90.8355 6.26489L85.1075 10.4113L91.1775 6.60686V6.60686Z" fill="#873D87"/><path d="M103.745 60.467H103.702V61.1082C103.745 61.1082 103.788 61.0655 103.788 61.0227C103.788 60.8945 103.788 60.7663 103.788 60.638L103.745 60.467V60.467Z" fill="#14B3E3"/><path d="M103.788 61.0229C104.001 60.8519 104.172 60.6382 104.343 60.4244C104.386 60.3389 104.429 60.2962 104.514 60.2107C104.429 60.2107 104.386 60.2534 104.343 60.2534C104.129 60.3389 103.959 60.4244 103.745 60.4672H103.702V61.1084C103.745 61.1084 103.788 61.0656 103.788 61.0229V61.0229Z" fill="#A53B89"/><path d="M91.6477 5.70924C91.9042 5.49551 92.2034 5.36727 92.4599 5.28178C92.3744 5.23904 92.2889 5.23904 92.2034 5.19629L90.7073 6.1367C90.75 6.17945 90.7928 6.2222 90.8355 6.26494L91.6477 5.70924V5.70924Z" fill="#14B3E3"/><path d="M92.4599 5.28178C92.3744 5.23904 92.2889 5.23904 92.2034 5.19629L90.7073 6.1367C90.75 6.17945 90.7928 6.2222 90.8355 6.26494L91.6477 5.70924C91.9042 5.49551 92.2034 5.36727 92.4599 5.28178V5.28178Z" fill="#8162A1"/><path d="M85.1075 10.4113L90.8355 6.26496C90.7928 6.22221 90.75 6.17946 90.7073 6.13672L84.7655 9.85563L76.4301 15.8401L85.1075 10.4113Z" fill="#14B3E3"/><path d="M90.8355 6.26496C90.7928 6.22221 90.75 6.17946 90.7073 6.13672L84.7655 9.85563L76.4301 15.8401L85.1075 10.4113L90.8355 6.26496Z" fill="#8F539B"/><path d="M103.702 60.4671H103.745L103.617 59.3557L103.702 60.4671Z" fill="#14B3E3"/><path d="M103.617 46.0616L102.719 41.1458L103.617 59.3556L103.702 60.467H103.745C103.959 60.4242 104.129 60.3388 104.343 60.2533L103.617 46.0616V46.0616Z" fill="#873D87"/><path d="M93.7422 53.6277L78.6956 48.2844L83.9533 51.5331L93.7422 53.6277Z" fill="#72457D"/><path d="M99.8549 54.739C99.8122 54.7818 99.7695 54.8245 99.684 54.8673L99.8977 54.91L99.8549 54.739Z" fill="#9C398A"/><path d="M88.228 12.5486L77.3705 21.6108L78.3536 21.0551L88.228 12.5486Z" fill="#873D87"/><path d="M71.6425 47.0447L66.8976 44.0952L59.6735 41.5304C59.4171 41.445 59.2461 41.3167 59.0323 41.1885L58.3057 42.0434L71.6425 47.0447Z" fill="#72457D"/><path d="M91.6477 10.5823C91.4767 10.3686 91.0492 10.1976 90.7073 10.4968L89.2966 11.651C89.7241 11.3945 90.1943 11.2663 90.6645 11.309C91.1347 11.3518 91.6049 11.5655 91.9469 11.8647L91.7759 10.8816C91.7759 10.7533 91.6904 10.6678 91.6477 10.5823V10.5823Z" fill="#A53B89"/><path d="M88.57 12.2922L88.228 12.5487L88.57 12.2922Z" fill="#782961"/><path d="M99.8976 54.9102L99.6839 54.8674C99.5984 54.9529 99.4702 54.9957 99.3419 55.0384L99.2992 56.4918C99.5984 56.4063 99.8549 56.3208 100.111 56.1926L99.8976 54.9102V54.9102Z" fill="#873D87"/><path d="M96.649 54.6537L93.7422 53.6278L83.9534 51.5332L83.9961 51.5759L96.6062 56.0643L96.649 54.6537Z" fill="#A53B89"/><path d="M58.3057 38.7093C58.0065 38.5383 57.75 38.3246 57.5362 38.0681L56.9378 38.5811C56.6813 39.6497 56.9378 40.8039 57.6645 41.7015C57.7072 41.7443 57.75 41.8298 57.7927 41.8725L58.3057 42.0435L59.0324 41.1886C58.9041 41.1031 58.8186 40.9749 58.6904 40.8466C58.2202 40.2909 58.0492 39.4787 58.3057 38.7093V38.7093Z" fill="#782961"/><path d="M69.035 29.0913L67.1115 30.1172L59.5881 36.3581C59.6736 36.4436 59.7591 36.4864 59.8446 36.5291L60.1438 36.7429L69.035 29.0913Z" fill="#782961"/><path d="M78.3536 21.0552L77.3705 21.6109L73.3951 24.9023L71.7708 26.7404L78.3536 21.0552Z" fill="#14B3E3"/><path d="M78.6956 48.2843L66.8977 44.0952L71.6425 47.0447L80.0208 50.1652L83.8679 51.533H83.9534L78.6956 48.2843Z" fill="#14B3E3"/><path d="M71.7708 26.7404L73.3951 24.9023L67.1115 30.1174L69.035 29.0915L71.7708 26.7404Z" fill="#14B3E3"/><path d="M71.7708 26.7404L78.3537 21.0552L77.3705 21.6109L67.1115 30.1174L69.035 29.0914L71.7708 26.7404Z" fill="#7D77B4"/><path d="M83.8679 51.5332L83.9962 51.5759L83.9534 51.5332H83.8679Z" fill="#14B3E3"/><path d="M83.9962 51.5759L83.9534 51.5332H83.8679L83.9962 51.5759Z" fill="#3D2C51"/><path d="M60.1438 36.7429L59.8445 36.5291C59.7591 36.4864 59.6736 36.4436 59.5881 36.3582L57.5363 38.068C57.75 38.3245 58.0065 38.5382 58.3057 38.7092C58.3912 38.41 58.6049 38.068 58.9041 37.8115L60.1438 36.7429V36.7429Z" fill="#14B3E3"/><path d="M60.1438 36.7429L59.8445 36.5291C59.7591 36.4864 59.6736 36.4436 59.5881 36.3582L57.5363 38.068C57.75 38.3245 58.0065 38.5382 58.3057 38.7092C58.3912 38.41 58.6049 38.068 58.9041 37.8115L60.1438 36.7429V36.7429Z" fill="#7D77B4"/><path d="M97.8458 55.081L96.6489 54.6536L96.6062 56.0642L97.4184 56.3207C98.0168 56.5771 98.7008 56.6199 99.2992 56.4916L99.3419 55.0383C98.8717 55.252 98.3588 55.252 97.8458 55.081Z" fill="#14B3E3"/><path d="M99.3419 55.0383C98.8717 55.252 98.3588 55.252 97.8458 55.081L96.6489 54.6536L96.6062 56.0642L97.4184 56.3207C98.0168 56.5771 98.7008 56.6199 99.2992 56.4916L99.3419 55.0383Z" fill="#7D77B4"/><path d="M99.5129 45.2068V46.8739L100.667 52.6446C100.795 53.414 100.539 54.1835 99.9831 54.6964H99.9404C99.9404 54.6964 99.8977 54.7392 99.8549 54.7392L99.8977 54.9102L101.308 55.2094C101.949 54.4399 102.206 53.414 101.992 52.3881L101.949 52.1744L99.5129 45.2068V45.2068Z" fill="#873D87"/><path d="M72.241 47.3867L71.6425 47.0448L58.3057 42.0435L58.1775 42.1717C58.4767 42.4282 58.8187 42.6419 59.2461 42.7701L72.241 47.3867Z" fill="#782961"/><path d="M87.7578 11.1807L78.3537 19.3024L75.3615 22.6794L77.3705 21.6107L88.228 12.5485L87.7578 11.1807Z" fill="#873D87"/><path d="M96.9482 10.0267C96.7772 9.00081 96.307 8.06039 95.6658 7.24822C94.9391 6.3933 94.0415 5.79485 93.0583 5.45288L91.1775 6.60703C91.263 6.69252 91.3057 6.77801 91.3912 6.82076C91.8614 7.4192 92.2461 8.06039 92.5026 8.78708L93.443 11.5228L93.8705 12.848C93.9132 12.8052 93.956 12.8052 93.9987 12.8052C95.1101 12.2495 96.3498 12.2495 97.4612 12.7197L96.9482 10.0267V10.0267Z" fill="#72457D"/><path d="M58.3057 42.0435L57.7927 41.8726C57.921 42.0008 58.0492 42.0863 58.1774 42.1718L58.3057 42.0435V42.0435Z" fill="#5F2753"/><path d="M57.2798 37.7261C57.1089 38.0253 57.0234 38.2818 56.9379 38.581L57.5363 38.068C57.4936 38.0253 57.4508 37.9826 57.4081 37.9398C57.3653 37.8543 57.3226 37.8116 57.2798 37.7261V37.7261Z" fill="#782961"/><path d="M78.3536 19.3025L72.9248 23.9618L75.3613 22.6794L78.3536 19.3025Z" fill="#A53B89"/><path d="M67.1114 30.1174L63.6062 31.9983L59.2034 35.7599V35.8027C59.2889 35.9736 59.3744 36.1019 59.4598 36.2301C59.5026 36.2729 59.5453 36.3156 59.5881 36.3584L67.1114 30.1174Z" fill="#9C398A"/><path d="M93.2293 11.2662C92.6309 10.5395 91.7332 10.0693 90.7928 9.9838C89.8524 9.89831 88.9547 10.1548 88.2708 10.7532C88.228 10.7532 88.228 10.796 88.228 10.796L87.7578 11.1807L88.228 12.5486L88.57 12.2921L89.0829 11.8219C89.1257 11.8219 89.1257 11.8219 89.1257 11.8219C89.1684 11.7364 89.2539 11.6936 89.2967 11.6509L90.7073 10.4968C91.0493 10.1975 91.4767 10.3685 91.6477 10.5822C91.6905 10.6677 91.7759 10.7532 91.7759 10.8815L91.9469 11.8646C92.0324 11.9501 92.1179 12.0356 92.2034 12.1211C92.4599 12.3776 92.5881 12.7196 92.6736 13.1043L92.7591 13.4462L93.8705 12.8478L93.443 11.5227C93.3576 11.4372 93.3148 11.3517 93.2293 11.2662V11.2662Z" fill="#9C398A"/><path d="M101.308 55.2094L99.8977 54.9102L100.111 56.1925C100.368 56.0643 100.582 55.9361 100.795 55.7223C100.838 55.7223 100.838 55.7223 100.838 55.7223C101.052 55.5513 101.18 55.3804 101.308 55.2094V55.2094Z" fill="#9C398A"/><path d="M94.5545 15.5408L93.3148 16.2247L97.0337 34.691L97.162 28.4928L94.5545 15.5408Z" fill="#9C398A"/><path d="M99.5984 40.6755L99.5129 45.2066L101.949 52.1742L99.5984 40.6755Z" fill="#9C398A"/><path d="M94.127 13.5746L93.9987 12.8479V12.8052C93.956 12.8052 93.9132 12.8052 93.8705 12.8479L94.127 13.5746V13.5746Z" fill="#14B3E3"/><path d="M97.8459 14.8569L97.4612 12.7196C96.3498 12.2494 95.1101 12.2494 93.9987 12.8051C93.956 12.8051 93.9132 12.8051 93.8705 12.8478L94.127 13.5745L94.5544 15.5408L94.7682 15.4126L95.1529 15.2416C95.8796 14.8569 96.649 15.1561 97.0337 15.6263C97.2047 15.7973 97.3757 16.1393 97.3757 16.6095L97.2474 22.5939L99.4702 29.0059L97.8459 14.8569V14.8569Z" fill="#7D77B4"/><path d="M71.6425 47.0447L72.2409 47.3866L80.0207 50.1651L71.6425 47.0447Z" fill="#14B3E3"/><path d="M83.9534 51.533L78.6956 48.2843L66.8977 44.0952L71.6425 47.0447L72.241 47.3867L76.3019 49.9514L83.4405 51.4475L80.0208 50.1652L83.8679 51.533H83.9534Z" fill="#7D77B4"/><path d="M75.3613 22.6795L73.395 24.9023L77.3704 21.6108L75.3613 22.6795Z" fill="#14B3E3"/><path d="M99.513 45.2066L98.6581 42.6418L99.513 46.8737V45.2066Z" fill="#14B3E3"/><path d="M98.6581 42.6418L99.513 46.8737V45.2066L98.6581 42.6418Z" fill="#72457D"/><path d="M67.1114 30.1173L73.3951 24.9022L75.3614 22.6794L72.9249 23.9618L63.6062 31.9981L67.1114 30.1173Z" fill="#14B3E3"/><path d="M75.3614 22.6795L72.9249 23.9619L63.6062 31.9981L67.1114 30.1173L77.3705 21.6108L75.3614 22.6795Z" fill="#8F539B"/><path d="M57.5363 38.0681L59.5881 36.3582C59.4171 36.1872 59.2889 36.0162 59.2034 35.7598L58.0065 36.7857C57.7072 37.0849 57.4508 37.3841 57.2798 37.7261C57.3225 37.8116 57.3653 37.8543 57.408 37.9398C57.4508 37.9826 57.4935 38.0253 57.5363 38.0681Z" fill="#14B3E3"/><path d="M59.2034 35.7598L58.0065 36.7857C57.7072 37.0849 57.4508 37.3841 57.2798 37.7261C57.3225 37.8116 57.3653 37.8543 57.408 37.9398C57.4508 37.9826 57.4935 38.0253 57.5363 38.0681L59.5881 36.3582C59.5453 36.3155 59.5026 36.2727 59.4598 36.23C59.3743 36.1017 59.2889 35.9735 59.2034 35.8025V35.7598V35.7598Z" fill="#8F539B"/><path d="M59.5881 36.3582C59.5453 36.3155 59.5026 36.2727 59.4598 36.23C59.5026 36.2727 59.5453 36.3155 59.5881 36.3582ZM59.2034 35.7598V35.8025V35.7598Z" fill="#3B2848"/><path d="M93.8704 12.8479L92.759 13.4463L93.3147 16.2248L94.5544 15.5409L94.1269 13.5746L93.8704 12.8479Z" fill="#14B3E3"/><path d="M93.8704 12.8479L92.759 13.4463L93.3147 16.2248L94.5544 15.5409L94.1269 13.5746L93.8704 12.8479Z" fill="#8F539B"/><path d="M98.658 42.6419L99.513 45.2067L99.5985 40.6756L97.1619 28.4929L97.0337 34.6911L98.658 42.6419Z" fill="#14B3E3"/><path d="M97.1619 28.4929L97.0337 34.6911L98.658 42.6419L99.513 45.2067L99.5985 40.6756L97.1619 28.4929Z" fill="#8F539B"/><path d="M81.9015 15.2417C87.5013 15.2417 92.2033 17.208 96.136 21.1407C100.026 25.0733 101.992 29.7754 101.992 35.2896C101.992 40.8466 100.026 45.5487 96.136 49.4386C92.2033 53.3285 87.5013 55.2948 81.9015 55.2948C76.3445 55.2948 71.6425 53.3285 67.7526 49.4386C63.8627 45.5487 61.9391 40.8466 61.9391 35.2896C61.9391 29.7326 63.8627 24.9878 67.7953 21.0979C71.6852 17.208 76.3873 15.2417 81.9015 15.2417V15.2417ZM87.373 29.3052C85.8342 27.8091 83.9961 27.0396 81.9015 27.0396C79.8497 27.0396 78.0116 27.8091 76.43 29.3052C74.8912 30.8013 74.1217 32.8104 74.1217 35.2896C74.1217 37.8116 74.8912 39.8207 76.43 41.2741C78.0116 42.7702 79.8497 43.4969 81.9015 43.4969C83.9961 43.4969 85.8342 42.7702 87.373 41.2741C88.9546 39.8207 89.7241 37.8116 89.7241 35.2896C89.7241 32.8104 88.9546 30.8013 87.373 29.3052Z" fill="#22252A"/></svg>