<svg xmlns="http://www.w3.org/2000/svg" fill="none" viewBox="0 0 371 106"><defs/><path fill="#767676" fill-rule="evenodd" d="M57.136 8.858C82.478 8.858 103 28.61 103 53.002c0 24.392-20.522 44.144-45.864 44.144S11.275 77.394 11.275 53.002c0-24.391 20.519-44.144 45.86-44.144zm0 10.762c19.16 0 34.686 14.94 34.686 33.382S76.296 86.384 57.136 86.384s-34.683-14.94-34.683-33.382S37.975 19.62 57.136 19.62z" clip-rule="evenodd"/><path fill="url(#paint0_linear)" fill-rule="evenodd" d="M104.12 14.264c12.896 14.485 13.368 35.377 2.397 50.317.944-3.7 1.448-7.6 1.448-11.583 0-27.01-22.738-48.894-50.799-48.894-1.448 0-2.9.06-4.347.172 17.029-8.167 38.409-4.527 51.301 9.99v-.002zM61.482 101.72c-17.03 8.166-38.41 4.526-51.301-9.99C-2.715 77.245-3.187 56.353 7.784 41.413c-.944 3.7-1.448 7.6-1.448 11.583 0 27.01 22.738 48.894 50.799 48.894 1.448 0 2.9-.06 4.317-.172h.028l.002.002z" clip-rule="evenodd"/><path fill="url(#paint1_linear)" fill-rule="evenodd" d="M59.205 37.747h7.391c.386 0 .741.196.918.538l6.12 11.811V38.714c0-.541.472-1 1.038-1h7.006c.559 0 1.035.455 1.035 1v29.058c0 .538-.472.996-1.035.996h-7.391c-.418 0-.77-.228-.948-.567l-6.12-12.58v12.182c0 .54-.472.999-1.035.999h-7.006c-.562 0-1.038-.458-1.038-1V38.746c0-.538.472-.996 1.038-.996l.027-.004v.002zm-27.2 30.054V38.743c0-.538.471-.996 1.034-.996h10.41c6.09 0 11.088 4.81 11.088 10.672v3.329c0 5.864-5 10.672-11.088 10.672h-2.396v5.41c0 .538-.472.996-1.038.996h-6.978c-.562 0-1.038-.455-1.038-.996l.003-.027.002-.002zm9.281-22.77v9.337h1.123c5.796 0 5.796-9.336 0-9.336h-1.123z" clip-rule="evenodd"/><path fill="#434343" d="M132.249 28.009h8.472c2.298 0 4.056.174 5.294.523 1.24.345 2.158.844 2.778 1.497.618.654 1.039 1.442 1.26 2.382.219.943.318 2.368.318 4.328v2.71c0 1.981-.219 3.444-.638 4.346-.42.904-1.198 1.615-2.339 2.096-1.137.48-2.617.732-4.455.732h-2.259V59.2h-8.427V28.026l-.004-.02v.003zm8.431 5.327v7.941c.239.02.441.02.621.02.778 0 1.298-.194 1.597-.558.298-.362.441-1.113.441-2.267v-2.58c0-1.057-.181-1.767-.522-2.076-.338-.326-1.058-.48-2.137-.48zm31.246-5.327v20.847c0 2.366-.079 4.018-.238 4.981-.161.96-.639 1.943-1.421 2.94-.778 1.018-1.816 1.767-3.097 2.29-1.298.52-2.798.788-4.554.788-1.939 0-3.637-.308-5.113-.926-1.479-.614-2.577-1.423-3.319-2.402-.737-1.001-1.156-2.04-1.298-3.134-.139-1.095-.201-3.403-.201-6.924V28.007h8.431v23.384c0 1.367.08 2.23.219 2.615.161.385.46.579.918.579.522 0 .86-.213 1.021-.635.161-.424.219-1.407.219-2.964v-22.98h8.432l.001.003zm20.218 0v6.229h-4.956V59.18h-8.427V34.238h-4.995v-6.23h18.378zm10.351 0v31.174h-8.432V28.009h8.432zm11.786 0v24.943h5.077v6.229H205.85V28.007h8.431v.002zm25.716 18.268c0 3.134-.082 5.346-.243 6.653a7.172 7.172 0 01-1.438 3.575c-.799 1.078-1.897 1.903-3.277 2.48-1.38.579-2.977.865-4.797.865-1.737 0-3.277-.269-4.655-.826-1.376-.538-2.496-1.367-3.315-2.444-.84-1.095-1.338-2.271-1.498-3.558-.161-1.289-.238-3.54-.238-6.73v-5.328c0-3.134.079-5.342.238-6.653a7.242 7.242 0 011.44-3.575c.796-1.078 1.894-1.903 3.277-2.48 1.377-.576 2.974-.865 4.797-.865 1.737 0 3.278.269 4.654.827 1.379.538 2.499 1.364 3.314 2.441.84 1.099 1.341 2.271 1.498 3.558.161 1.29.243 3.54.243 6.732V46.277zm-8.432-10.228c0-1.442-.081-2.366-.239-2.77-.161-.403-.502-.597-.999-.597-.44 0-.76.155-.999.499-.22.328-.338 1.288-.338 2.885v14.559c0 1.808.08 2.925.219 3.345.161.424.499.635 1.04.635.557 0 .918-.25 1.079-.73.158-.484.239-1.657.239-3.483V36.049h-.002zm31.586-8.04l-4.258 31.174H246.15l-4.878-31.174h8.893c.999 8.595 1.737 15.866 2.198 21.809a705.07 705.07 0 011.38-16l.557-5.81h8.893-.042zm21.537 0l-4.812 14.078 5.253 17.096h-8.671l-3.417-13.366v13.366h-8.428V28.009h8.428v12.114l3.778-12.114h7.869zm17.241 0l4.813 31.174h-8.61l-.46-5.596h-3.038l-.459 5.596h-8.71l4.276-31.174H301.929zm-4.474 20.056c-.4-3.536-.819-7.903-1.281-13.133-.836 5.98-1.358 10.363-1.578 13.133h2.859zm36.741-20.056v31.174h-7.37l-4.376-14.174v14.174h-7.036V28.009h7.036l4.714 14.04v-14.04h7.032zm3.378 0h14.044v6.229h-5.612v5.943h5.233v5.904h-5.233v6.867h6.172v6.229h-14.623V28.007h.021l-.002.002zm33.423 0v6.229h-4.956V59.18h-8.431V34.238h-4.995v-6.23h18.382z"/><path fill="#767676" d="M132.251 68.544h1.017v6.462l4.515-6.462h1.111v8.16h-1.021v-6.446l-4.501 6.445h-1.123v-8.16h.002zm13.315 8.16v-8.16h1.124v3.362h4.383v-3.362h1.125v8.16h-1.125V72.86h-4.383v3.842h-1.124zm15.437 0V69.5h-2.793v-.957h6.714v.957h-2.796v7.202h-1.125zm9.883 0v-8.16h6.12v.957h-4.995v2.505h4.677v.96h-4.677v2.782h5.198v.957h-6.323v-.002zm12.654 0v-8.16h3.201c.562 0 .994.025 1.291.078.417.065.768.19 1.049.38.279.187.508.45.679.786.172.337.257.707.257 1.112 0 .693-.23 1.277-.688 1.757-.459.48-1.29.722-2.491.722h-2.175v3.328h-1.125l.002-.004zm1.124-4.285h2.19c.729 0 1.242-.13 1.546-.39.306-.26.458-.627.458-1.1 0-.339-.087-.632-.269-.873a1.27 1.27 0 00-.709-.486c-.189-.047-.54-.07-1.047-.07h-2.169v2.918zm11.601 4.284v-8.16h1.125v3.363h4.383v-3.362h1.125v8.16h-1.125V72.86h-4.383v3.842h-1.125zm13.31 0v-8.16h6.12v.958H210.7v2.505h4.676v.96H210.7v2.782h5.198v.957h-6.323v-.002zm14.807 0v-7.202h-2.792v-.957h6.714v.957h-2.797v7.202h-1.125zm15.896-2.45V73.25h3.221v1.005h-3.221zm15.863-5.71h6.656v8.16h-1.125v-7.202h-4.406v7.202h-1.125v-8.16zm13.28 8.16v-8.16h3.201c.562 0 .994.026 1.291.08.414.064.768.19 1.047.379.283.187.51.45.683.786.172.337.256.707.256 1.112 0 .693-.229 1.277-.688 1.757-.458.48-1.289.722-2.49.722h-2.175v3.328h-1.125v-.004zm1.125-4.285h2.189c.729 0 1.24-.129 1.546-.39.306-.26.458-.626.458-1.1 0-.338-.086-.63-.269-.872a1.27 1.27 0 00-.709-.486c-.189-.047-.539-.07-1.047-.07h-2.168v2.918zm10.948.312c0-1.353.382-2.41 1.137-3.18.755-.763 1.732-1.147 2.927-1.147.784 0 1.49.182 2.117.541.63.36 1.108.861 1.438 1.505.329.642.499 1.372.499 2.19 0 .825-.178 1.565-.525 2.219a3.49 3.49 0 01-1.472 1.481 4.386 4.386 0 01-2.06.502c-.8 0-1.514-.185-2.144-.555a3.665 3.665 0 01-1.429-1.52 4.499 4.499 0 01-.486-2.034l-.002-.002zm1.164.02c0 .983.274 1.757.822 2.32.548.564 1.24.849 2.068.849.845 0 1.538-.286 2.085-.857.545-.57.817-1.377.817-2.427 0-.666-.117-1.243-.35-1.737a2.612 2.612 0 00-1.021-1.147 2.835 2.835 0 00-1.514-.41c-.792 0-1.478.26-2.05.786-.571.524-.857 1.401-.857 2.624zm13.125 3.955v-8.16h3.184c.647 0 1.165.082 1.556.247.395.166.701.42.918.761.225.346.333.705.333 1.078 0 .347-.096.68-.292.986-.195.308-.494.555-.89.749.513.143.909.39 1.182.739.277.347.417.76.417 1.234 0 .385-.086.74-.253 1.069-.17.328-.376.58-.621.76a2.663 2.663 0 01-.926.403c-.374.091-.828.138-1.371.138h-3.237v-.004zm1.125-4.73h1.834c.495 0 .858-.031 1.07-.096.287-.082.503-.216.644-.407.145-.19.219-.427.219-.715 0-.272-.067-.51-.203-.715a1.033 1.033 0 00-.577-.427c-.251-.077-.682-.113-1.289-.113h-1.696v2.472h-.002zm0 3.773h2.11c.365 0 .621-.013.768-.039a1.8 1.8 0 00.647-.225c.175-.103.315-.255.428-.454.113-.2.17-.429.17-.69 0-.306-.081-.57-.248-.793a1.261 1.261 0 00-.674-.477c-.286-.09-.7-.137-1.239-.137h-1.962v2.817-.002zm10.28.957l3.251-8.16h1.232l3.455 8.16h-1.277l-.984-2.472h-3.569l-.921 2.472h-1.191.004zm2.441-3.35h2.89l-.886-2.263a28.249 28.249 0 01-.607-1.705 11.136 11.136 0 01-.467 1.57l-.93 2.398zm11.192-4.81h1.017v6.463l4.514-6.462h1.114v8.16h-1.021V70.26l-4.501 6.445h-1.123v-8.16zm4.227-1.96h.709c-.058.468-.233.83-.53 1.08-.294.252-.688.38-1.182.38-.493 0-.889-.126-1.181-.376-.294-.25-.472-.611-.527-1.083h.709c.053.255.163.446.324.572.161.13.376.19.647.19.311 0 .552-.059.711-.185.157-.12.265-.315.32-.578zm9.808 1.96h5.162v7.203h.761v2.862h-.998v-1.905h-5.612v1.905h-.994v-2.862h.651c.688-.994 1.03-2.996 1.03-6.012v-1.19zm4.038.957h-2.96v.42c0 .692-.063 1.647-.194 2.852-.129 1.207-.386 2.198-.764 2.974h3.918v-6.246zm8.017 7.203v-8.16h6.12v.957h-4.995v2.506h4.676v.96h-4.676v2.782h5.198v.957h-6.323v-.002zm12.653 0v-8.16h3.202c.562 0 .994.026 1.291.079.417.065.768.19 1.049.38.279.187.507.449.679.786.171.337.256.706.256 1.112 0 .693-.23 1.276-.688 1.757-.458.48-1.289.721-2.49.721h-2.175v3.329h-1.125l.001-.004zm1.125-4.285h2.19c.729 0 1.242-.13 1.546-.39.306-.26.458-.626.458-1.1 0-.338-.087-.63-.269-.873a1.27 1.27 0 00-.709-.485c-.189-.047-.54-.07-1.047-.07h-2.169v2.918z"/><defs><linearGradient id="paint0_linear" x1="67.792" x2="67.792" y1="-2.401" y2="104.244" gradientUnits="userSpaceOnUse"><stop stop-color="#F3E06B"/><stop offset="1" stop-color="#DC9028"/></linearGradient><linearGradient id="paint1_linear" x1="62.077" x2="62.077" y1="37.01" y2="68.312" gradientUnits="userSpaceOnUse"><stop stop-color="#F3E06B"/><stop offset="1" stop-color="#DC9028"/></linearGradient></defs></svg>