<svg width="226" height="226" viewBox="0 0 226 226" fill="none" xmlns="http://www.w3.org/2000/svg">
<path d="M113.926 6.60211L119.208 11.8838L117.887 13.2042L112.606 7.92253L107.324 13.2042L106.004 11.8838L111.285 6.60211L106.004 1.32042L107.324 0L112.606 5.28169L117.887 0L119.208 1.32042L113.926 6.60211ZM136.822 19.0273L135.502 17.7069L130.22 22.9886L124.938 17.7069L123.618 19.0273L128.9 24.309L123.618 29.5907L124.938 30.9111L130.22 25.6294L135.502 30.9111L136.822 29.5907L131.54 24.309L136.822 19.0273ZM154.476 36.6285L153.156 35.3081L147.874 40.5898L142.592 35.3081L141.272 36.6285L146.554 41.9102L141.272 47.1919L142.592 48.5123L147.874 43.2306L153.156 48.5123L154.476 47.1919L149.195 41.9102L154.476 36.6285ZM172.13 54.2826L170.81 52.9621L165.528 58.2438L160.246 52.9621L158.926 54.2826L164.208 59.5643L158.926 64.846L160.246 66.1664L165.528 60.8847L170.81 66.1664L172.13 64.846L166.849 59.5643L172.13 54.2826ZM189.798 71.9498L188.477 70.6294L183.195 75.9111L177.914 70.6294L176.593 71.9498L181.875 77.2315L176.593 82.5132L177.914 83.8336L183.195 78.5519L188.477 83.8336L189.798 82.5132L184.516 77.2315L189.798 71.9498ZM207.425 89.6039L206.105 88.2835L200.823 93.5651L195.541 88.2835L194.221 89.6039L199.503 94.8856L194.221 100.167L195.541 101.488L200.823 96.206L206.105 101.488L207.425 100.167L202.143 94.8856L207.425 89.6039ZM219.85 112.5L225.132 107.218L223.812 105.898L218.53 111.18L213.248 105.898L211.928 107.218L217.21 112.5L211.928 117.782L213.248 119.102L218.53 113.82L223.812 119.102L225.132 117.782L219.85 112.5ZM101.501 18.9613L100.18 17.6408L94.8988 22.9225L89.6171 17.6408L88.2966 18.9613L93.5783 24.243L88.2966 29.5246L89.6171 30.8451L94.8988 25.5634L100.18 30.8451L101.501 29.5246L96.2192 24.243L101.501 18.9613ZM119.155 36.6285L117.835 35.3081L112.553 40.5898L107.271 35.3081L105.951 36.6285L111.232 41.9102L105.951 47.1919L107.271 48.5123L112.553 43.2306L117.835 48.5123L119.155 47.1919L113.873 41.9102L119.155 36.6285ZM136.822 54.2826L135.502 52.9621L130.22 58.2438L124.938 52.9621L123.618 54.2826L128.9 59.5643L123.618 64.846L124.938 66.1664L130.22 60.8847L135.502 66.1664L136.822 64.846L131.54 59.5643L136.822 54.2826ZM154.476 71.9498L153.156 70.6294L147.874 75.9111L142.592 70.6294L141.272 71.9498L146.554 77.2315L141.272 82.5132L142.592 83.8336L147.874 78.5519L153.156 83.8336L154.476 82.5132L149.195 77.2315L154.476 71.9498ZM172.13 89.6039L170.81 88.2835L165.528 93.5651L160.246 88.2835L158.926 89.6039L164.208 94.8856L158.926 100.167L160.246 101.488L165.528 96.206L170.81 101.488L172.13 100.167L166.849 94.8856L172.13 89.6039ZM189.798 107.271L188.477 105.951L183.195 111.232L177.914 105.951L176.593 107.271L181.875 112.553L176.593 117.835L177.914 119.155L183.195 113.873L188.477 119.155L189.798 117.835L184.516 112.553L189.798 107.271ZM207.425 124.925L206.105 123.605L200.823 128.886L195.541 123.605L194.221 124.925L199.503 130.207L194.221 135.489L195.541 136.809L200.823 131.527L206.105 136.809L207.425 135.489L202.143 130.207L207.425 124.925ZM83.8336 36.6285L82.5132 35.3081L77.2315 40.5898L71.9498 35.3081L70.6294 36.6285L75.9111 41.9102L70.6294 47.1919L71.9498 48.5123L77.2315 43.2306L82.5132 48.5123L83.8336 47.1919L78.5519 41.9102L83.8336 36.6285ZM101.501 54.2826L100.18 52.9621L94.8988 58.2438L89.6171 52.9621L88.2966 54.2826L93.5783 59.5643L88.2966 64.846L89.6171 66.1664L94.8988 60.8847L100.18 66.1664L101.501 64.846L96.2192 59.5643L101.501 54.2826ZM119.155 71.9498L117.835 70.6294L112.553 75.9111L107.271 70.6294L105.951 71.9498L111.232 77.2315L105.951 82.5132L107.271 83.8336L112.553 78.5519L117.835 83.8336L119.155 82.5132L113.873 77.2315L119.155 71.9498ZM136.822 89.6039L135.502 88.2835L130.22 93.5651L124.938 88.2835L123.618 89.6039L128.9 94.8856L123.618 100.167L124.938 101.488L130.22 96.206L135.502 101.488L136.822 100.167L131.54 94.8856L136.822 89.6039ZM154.476 107.271L153.156 105.951L147.874 111.232L142.592 105.951L141.272 107.271L146.554 112.553L141.272 117.835L142.592 119.155L147.874 113.873L153.156 119.155L154.476 117.835L149.195 112.553L154.476 107.271ZM172.13 124.925L170.81 123.605L165.528 128.886L160.246 123.605L158.926 124.925L164.208 130.207L158.926 135.489L160.246 136.809L165.528 131.527L170.81 136.809L172.13 135.489L166.849 130.207L172.13 124.925ZM189.798 142.606L188.477 141.285L183.195 146.567L177.914 141.285L176.593 142.606L181.875 147.887L176.593 153.169L177.914 154.489L183.195 149.208L188.477 154.489L189.798 153.169L184.516 147.887L189.798 142.606ZM66.14 54.2826L64.8195 52.9621L59.5379 58.2438L54.2562 52.9621L52.9357 54.2826L58.2174 59.5643L52.9357 64.846L54.2562 66.1664L59.5379 60.8847L64.8195 66.1664L66.14 64.846L60.8583 59.5643L66.14 54.2826ZM83.8336 71.9498L82.5132 70.6294L77.2315 75.9111L71.9498 70.6294L70.6294 71.9498L75.9111 77.2315L70.6294 82.5132L71.9498 83.8336L77.2315 78.5519L82.5132 83.8336L83.8336 82.5132L78.5519 77.2315L83.8336 71.9498ZM101.501 89.6039L100.18 88.2835L94.8988 93.5651L89.6171 88.2835L88.2966 89.6039L93.5783 94.8856L88.2966 100.167L89.6171 101.488L94.8988 96.206L100.18 101.488L101.501 100.167L96.2192 94.8856L101.501 89.6039ZM119.155 107.271L117.835 105.951L112.553 111.232L107.271 105.951L105.951 107.271L111.232 112.553L105.951 117.835L107.271 119.155L112.553 113.873L117.835 119.155L119.155 117.835L113.873 112.553L119.155 107.271ZM136.822 124.925L135.502 123.605L130.22 128.886L124.938 123.605L123.618 124.925L128.9 130.207L123.618 135.489L124.938 136.809L130.22 131.527L135.502 136.809L136.822 135.489L131.54 130.207L136.822 124.925ZM154.476 142.606L153.156 141.285L147.874 146.567L142.592 141.285L141.272 142.606L146.554 147.887L141.272 153.169L142.592 154.489L147.874 149.208L153.156 154.489L154.476 153.169L149.195 147.887L154.476 142.606ZM172.13 160.273L170.81 158.952L165.528 164.234L160.246 158.952L158.926 160.273L164.208 165.555L158.926 170.836L160.246 172.157L165.528 166.875L170.81 172.157L172.13 170.836L166.849 165.555L172.13 160.273ZM48.5255 71.9498L47.2051 70.6294L41.9234 75.9111L36.6417 70.6294L35.3213 71.9498L40.603 77.2315L35.3213 82.5132L36.6417 83.8336L41.9234 78.5519L47.2051 83.8336L48.5255 82.5132L43.2438 77.2315L48.5255 71.9498ZM66.14 89.6039L64.8195 88.2835L59.5379 93.5651L54.2562 88.2835L52.9357 89.6039L58.2174 94.8856L52.9357 100.167L54.2562 101.488L59.5379 96.206L64.8195 101.488L66.14 100.167L60.8583 94.8856L66.14 89.6039ZM83.8336 107.271L82.5132 105.951L77.2315 111.232L71.9498 105.951L70.6294 107.271L75.9111 112.553L70.6294 117.835L71.9498 119.155L77.2315 113.873L82.5132 119.155L83.8336 117.835L78.5519 112.553L83.8336 107.271ZM101.501 124.925L100.18 123.605L94.8988 128.886L89.6171 123.605L88.2966 124.925L93.5783 130.207L88.2966 135.489L89.6171 136.809L94.8988 131.527L100.18 136.809L101.501 135.489L96.2192 130.207L101.501 124.925ZM119.155 142.606L117.835 141.285L112.553 146.567L107.271 141.285L105.951 142.606L111.232 147.887L105.951 153.169L107.271 154.489L112.553 149.208L117.835 154.489L119.155 153.169L113.873 147.887L119.155 142.606ZM136.822 160.273L135.502 158.952L130.22 164.234L124.938 158.952L123.618 160.273L128.9 165.555L123.618 170.836L124.938 172.157L130.22 166.875L135.502 172.157L136.822 170.836L131.54 165.555L136.822 160.273ZM154.476 177.927L153.156 176.607L147.874 181.888L142.592 176.607L141.272 177.927L146.554 183.209L141.272 188.49L142.592 189.811L147.874 184.529L153.156 189.811L154.476 188.49L149.195 183.209L154.476 177.927ZM30.8583 89.6039L29.5379 88.2835L24.2562 93.5651L18.9745 88.2835L17.654 89.6039L22.9357 94.8856L17.654 100.167L18.9745 101.488L24.2562 96.206L29.5379 101.488L30.8583 100.167L25.5766 94.8856L30.8583 89.6039ZM48.5255 107.271L47.2051 105.951L41.9234 111.232L36.6417 105.951L35.3213 107.271L40.603 112.553L35.3213 117.835L36.6417 119.155L41.9234 113.873L47.2051 119.155L48.5255 117.835L43.2438 112.553L48.5255 107.271ZM66.14 124.925L64.8195 123.605L59.5379 128.886L54.2562 123.605L52.9357 124.925L58.2174 130.207L52.9357 135.489L54.2562 136.809L59.5379 131.527L64.8195 136.809L66.14 135.489L60.8583 130.207L66.14 124.925ZM83.8336 142.606L82.5132 141.285L77.2315 146.567L71.9498 141.285L70.6294 142.606L75.9111 147.887L70.6294 153.169L71.9498 154.489L77.2315 149.208L82.5132 154.489L83.8336 153.169L78.5519 147.887L83.8336 142.606ZM101.501 160.273L100.18 158.952L94.8988 164.234L89.6171 158.952L88.2966 160.273L93.5783 165.555L88.2966 170.836L89.6171 172.157L94.8988 166.875L100.18 172.157L101.501 170.836L96.2192 165.555L101.501 160.273ZM119.155 177.927L117.835 176.607L112.553 181.888L107.271 176.607L105.951 177.927L111.232 183.209L105.951 188.49L107.271 189.811L112.553 184.529L117.835 189.811L119.155 188.49L113.873 183.209L119.155 177.927ZM136.822 195.594L135.502 194.274L130.22 199.555L124.938 194.274L123.618 195.594L128.9 200.876L123.618 206.158L124.938 207.478L130.22 202.196L135.502 207.478L136.822 206.158L131.54 200.876L136.822 195.594ZM13.2042 107.271L11.8838 105.951L6.60211 111.232L1.32042 105.951L0 107.271L5.28169 112.553L0 117.835L1.32042 119.155L6.60211 113.873L11.8838 119.155L13.2042 117.835L7.92253 112.553L13.2042 107.271ZM30.8583 124.925L29.5379 123.605L24.2562 128.886L18.9745 123.605L17.654 124.925L22.9357 130.207L17.654 135.489L18.9745 136.809L24.2562 131.527L29.5379 136.809L30.8583 135.489L25.5766 130.207L30.8583 124.925ZM48.5255 142.606L47.2051 141.285L41.9234 146.567L36.6417 141.285L35.3213 142.606L40.603 147.887L35.3213 153.169L36.6417 154.489L41.9234 149.208L47.2051 154.489L48.5255 153.169L43.2438 147.887L48.5255 142.606ZM66.14 160.246L64.8195 158.926L59.5379 164.208L54.2562 158.926L52.9357 160.246L58.2174 165.528L52.9357 170.81L54.2562 172.13L59.5379 166.849L64.8195 172.13L66.14 170.81L60.8583 165.528L66.14 160.246ZM83.8336 177.901L82.5132 176.58L77.2315 181.862L71.9498 176.58L70.6294 177.901L75.9111 183.182L70.6294 188.464L71.9498 189.784L77.2315 184.503L82.5132 189.784L83.8336 188.464L78.5519 183.182L83.8336 177.901ZM101.501 195.568L100.18 194.247L94.8988 199.529L89.6171 194.247L88.2966 195.568L93.5783 200.849L88.2966 206.131L89.6171 207.452L94.8988 202.17L100.18 207.452L101.501 206.131L96.2192 200.849L101.501 195.568ZM119.155 213.222L117.835 211.901L112.553 217.183L107.271 211.901L105.951 213.222L111.232 218.504L105.951 223.785L107.271 225.106L112.553 219.824L117.835 225.106L119.155 223.785L113.873 218.504L119.155 213.222Z" fill="url(#paint0_linear)"/>
<defs>
<linearGradient id="paint0_linear" x1="112.619" y1="6.81338" x2="112.619" y2="203.939" gradientUnits="userSpaceOnUse">
<stop stop-color="#C4FF31"/>
<stop offset="0.11" stop-color="#BCFF58"/>
<stop offset="0.27" stop-color="#B3FF8B"/>
<stop offset="0.44" stop-color="#AAFFB4"/>
<stop offset="0.59" stop-color="#A4FFD5"/>
<stop offset="0.74" stop-color="#A0FFEC"/>
<stop offset="0.88" stop-color="#9DFFFA"/>
<stop offset="1" stop-color="#9CFFFF"/>
</linearGradient>
</defs>
</svg>
