<svg xmlns="http://www.w3.org/2000/svg" width="1822.084" height="924.616" fill-rule="evenodd" clip-rule="evenodd" image-rendering="optimizeQuality" shape-rendering="geometricPrecision" text-rendering="geometricPrecision" viewBox="0 0 3900.04 1979.07">
  <defs/>
  <defs>
    <linearGradient id="id0" x1="268.12" x2="268.12" y1="1977.82" y2=".47" gradientUnits="userSpaceOnUse">
      <stop offset="0" stop-color="#ebecec"/>
      <stop offset="1" stop-color="#fefefe"/>
    </linearGradient>
    <style>
      .str0{stroke:#9d9e9e;stroke-width:1.62;stroke-miterlimit:22.9256}.fil4{fill:#d9dada}.fil3{fill:#ebecec}
    </style>
  </defs>
  <g id="Слой_x0020_1">
    <path class="str0" fill="url(#id0)" d="M122.15 1978.26h450.66V.81H122.15C55.41.81.8 55.42.8 122.16v1734.76c0 66.74 54.61 121.35 121.35 121.35z"/>
    <path class="str0" fill="#f5f5f5" d="M572.81.81h3205.07c66.74 0 121.35 54.61 121.35 121.35v1734.76c0 66.74-54.61 121.35-121.35 121.35H572.81V.82z"/>
    <path fill="#b3b3b3" d="M712.65 75.01h1678.1c32.96 0 59.93 26.97 59.93 59.93v996.01c0 32.96-26.97 59.93-59.93 59.93H712.65c-32.96 0-59.93-26.97-59.93-59.93V134.94c0-32.96 26.97-59.93 59.93-59.93z"/>
    <path d="M2632.52 549.97h127.18c5.96 0 10.79 7.77 10.79 17.34 0 9.58-4.83 17.34-10.79 17.34h-127.18c-5.96 0-10.79-7.77-10.79-17.34 0-9.58 4.83-17.34 10.79-17.34zM2963.57 549.97h127.18c5.96 0 10.79 7.77 10.79 17.34 0 9.58-4.83 17.34-10.79 17.34h-127.18c-5.96 0-10.79-7.77-10.79-17.34 0-9.58 4.83-17.34 10.79-17.34zM3294.63 549.97h127.18c5.96 0 10.79 7.77 10.79 17.34 0 9.58-4.83 17.34-10.79 17.34h-127.18c-5.96 0-10.79-7.77-10.79-17.34 0-9.58 4.83-17.34 10.79-17.34zM3625.68 549.97h127.18c5.96 0 10.79 7.77 10.79 17.34 0 9.58-4.83 17.34-10.79 17.34h-127.18c-5.96 0-10.79-7.77-10.79-17.34 0-9.58 4.83-17.34 10.79-17.34zM2632.52 1009.45h127.18c5.96 0 10.79 7.77 10.79 17.34 0 9.58-4.83 17.34-10.79 17.34h-127.18c-5.96 0-10.79-7.77-10.79-17.34 0-9.58 4.83-17.34 10.79-17.34zM2963.57 1009.45h127.18c5.96 0 10.79 7.77 10.79 17.34 0 9.58-4.83 17.34-10.79 17.34h-127.18c-5.96 0-10.79-7.77-10.79-17.34 0-9.58 4.83-17.34 10.79-17.34zM3294.63 1009.45h127.18c5.96 0 10.79 7.77 10.79 17.34 0 9.58-4.83 17.34-10.79 17.34h-127.18c-5.96 0-10.79-7.77-10.79-17.34 0-9.58 4.83-17.34 10.79-17.34zM3625.68 1009.45h127.18c5.96 0 10.79 7.77 10.79 17.34 0 9.58-4.83 17.34-10.79 17.34h-127.18c-5.96 0-10.79-7.77-10.79-17.34 0-9.58 4.83-17.34 10.79-17.34z" class="fil3 str0"/>
    <path d="M45.66 66.1h482.31v139.84H45.66z" class="fil4"/>
    <path d="M45.66 305.82h482.31v-68.49H45.66v68.49zm0 699.2h482.31v-68.49H45.66v68.49zm0-99.89h482.31v-68.49H45.66v68.49zm0-99.89h482.31v-68.49H45.66v68.49zm0-99.89h482.31v-68.49H45.66v68.49zm0-99.89h482.31v-68.49H45.66v68.49zm0-99.89h482.31v-68.49H45.66v68.49zm0-99.89h482.31v-68.49H45.66v68.49z" class="fil3"/>
    <path d="M652.72 1328.53h761.4v-75.34h-761.4v75.34zm2568.55 0h601.81v-75.34h-601.81v75.34zm164.47 564.57h262.64v-28.14h-262.64v28.14zm0-43.52h437.34v-46.85h-437.34v46.85zm-142.34-74.36h101.14c12.17 0 22.12 9.96 22.12 22.12v101.14c0 12.17-9.96 22.12-22.12 22.12H3243.4c-12.17 0-22.12-9.96-22.12-22.12v-101.14c0-12.17 9.96-22.12 22.12-22.12zm142.34-75.49h262.64v-28.14h-262.64v28.14zm0-43.52h437.34v-46.85h-437.34v46.85zm-142.34-74.36h101.14c12.17 0 22.12 9.96 22.12 22.12v101.14c0 12.17-9.96 22.12-22.12 22.12H3243.4c-12.17 0-22.12-9.96-22.12-22.12v-101.14c0-12.17 9.96-22.12 22.12-22.12zm142.34-75.49h262.64v-28.14h-262.64v28.14zm0-43.52h437.34v-46.85h-437.34v46.85zm-142.34-74.36h101.14c12.17 0 22.12 9.96 22.12 22.12v101.14c0 12.17-9.96 22.12-22.12 22.12H3243.4c-12.17 0-22.12-9.96-22.12-22.12V1410.6c0-12.17 9.96-22.12 22.12-22.12zm568.59-584.51c0-67.77-54.94-122.72-122.72-122.72-67.77 0-122.72 54.94-122.72 122.72 0 67.77 54.94 122.72 122.72 122.72 67.77 0 122.72-54.94 122.72-122.72zM2610.9 1802.8h387.92c7.26 0 13.2-5.94 13.2-13.2v-387.92c0-7.26-5.94-13.2-13.2-13.2H2610.9c-7.26 0-13.2 5.94-13.2 13.2v387.92c0 7.26 5.94 13.2 13.2 13.2zm-13.2 117.82h207.22v-27.03H2597.7v27.03zm0-41.81h345.06v-45.01H2597.7v45.01zm-473.05-76h387.92c7.26 0 13.2-5.94 13.2-13.2v-387.92c0-7.26-5.94-13.2-13.2-13.2h-387.92c-7.26 0-13.2 5.94-13.2 13.2v387.92c0 7.26 5.94 13.2 13.2 13.2zm-13.2 117.82h207.22v-27.03h-207.22v27.03zm0-41.81h345.06v-45.01h-345.06v45.01zm-473.05-76h387.92c7.26 0 13.2-5.94 13.2-13.2V1401.7c0-7.26-5.94-13.2-13.2-13.2H1638.4c-7.26 0-13.2 5.94-13.2 13.2v387.92c0 7.26 5.94 13.2 13.2 13.2zm-13.2 117.82h207.22v-27.03H1625.2v27.03zm0-41.81h345.06v-45.01H1625.2v45.01zm-473.05-76h387.92c7.26 0 13.2-5.94 13.2-13.2v-387.92c0-7.26-5.94-13.2-13.2-13.2h-387.92c-7.26 0-13.2 5.94-13.2 13.2v387.92c0 7.26 5.94 13.2 13.2 13.2zm-13.2 117.82h207.22v-27.03h-207.22v27.03zm0-41.81h345.06v-45.01h-345.06v45.01zm-473.05-76h387.92c7.26 0 13.2-5.94 13.2-13.2v-387.92c0-7.26-5.94-13.2-13.2-13.2H665.9c-7.26 0-13.2 5.94-13.2 13.2v387.92c0 7.26 5.94 13.2 13.2 13.2zm-13.2 117.82h207.22v-27.03H652.7v27.03zm0-41.81h345.06v-45.01H652.7v45.01zm2236.74-892.18h275.4v-39.95h-275.4v39.95zm-331.05 0h275.4v-39.95h-275.4v39.95zm662.11 0h275.4v-39.95h-275.4v39.95zm331.05 0h275.4v-39.95h-275.4v39.95zm0-459.48h275.4v-39.95h-275.4v39.95zm-331.05 0h275.4v-39.95h-275.4v39.95zm-331.06 0h275.4v-39.95h-275.4v39.95zm-331.05 0h275.4v-39.95h-275.4v39.95zm1253.57-182.65c0-67.77-54.94-122.72-122.72-122.72-67.77 0-122.72 54.94-122.72 122.72 0 67.77 54.94 122.72 122.72 122.72 67.77 0 122.72-54.94 122.72-122.72zm-331.05 0c0-67.77-54.94-122.72-122.72-122.72-67.77 0-122.72 54.94-122.72 122.72 0 67.77 54.94 122.72 122.72 122.72 67.77 0 122.72-54.94 122.72-122.72zm-331.06 0c0-67.77-54.94-122.72-122.72-122.72-67.77 0-122.72 54.94-122.72 122.72 0 67.77 54.94 122.72 122.72 122.72 67.77 0 122.72-54.94 122.72-122.72zm-331.05 0c0-67.77-54.94-122.72-122.72-122.72-67.77 0-122.72 54.94-122.72 122.72 0 67.77 54.94 122.72 122.72 122.72 67.77 0 122.72-54.94 122.72-122.72zm0 459.48c0-67.77-54.94-122.72-122.72-122.72-67.77 0-122.72 54.94-122.72 122.72 0 67.77 54.94 122.72 122.72 122.72 67.77 0 122.72-54.94 122.72-122.72zm331.05 0c0-67.77-54.94-122.72-122.72-122.72-67.77 0-122.72 54.94-122.72 122.72 0 67.77 54.94 122.72 122.72 122.72 67.77 0 122.72-54.94 122.72-122.72zm331.06 0c0-67.77-54.94-122.72-122.72-122.72-67.77 0-122.72 54.94-122.72 122.72 0 67.77 54.94 122.72 122.72 122.72 67.77 0 122.72-54.94 122.72-122.72z" class="fil4"/>
    <path class="str0" fill="none" d="M3162.2 1253.2v725.06"/>
    <path fill="#dadada" d="M45.66 1822.91h482.31v68.49H45.66z"/>
  </g>
</svg>
