<svg xmlns="http://www.w3.org/2000/svg" width="1822.088" height="924.616" fill-rule="evenodd" clip-rule="evenodd" image-rendering="optimizeQuality" shape-rendering="geometricPrecision" text-rendering="geometricPrecision" viewBox="0 0 4676.13 2372.9">
  <defs/>
  <defs>
    <linearGradient id="id0" x1="321.32" x2="321.32" y1="2371.65" y2=".68" gradientUnits="userSpaceOnUse">
      <stop offset="0" stop-color="#ebecec"/>
      <stop offset="1" stop-color="#fefefe"/>
    </linearGradient>
    <style>
      .str0,.str1{stroke:#9d9e9e;stroke-width:1.94;stroke-miterlimit:22.9256}.fil2{fill:#d9dada}.fil3{fill:#ebecec}
    </style>
  </defs>
  <g id="Слой_x0020_1">
    <path class="str0" fill="url(#id0)" d="M146.47 2371.92h540.34V.97H146.47C66.45.97.97 66.44.97 146.47v2079.96c0 80.02 65.47 145.5 145.5 145.5z"/>
    <path class="str0" fill="#f5f5f5" d="M686.8.97h3842.86c80.02 0 145.5 65.47 145.5 145.5v2079.96c0 80.02-65.47 145.5-145.5 145.5H686.8V.98z"/>
    <path d="M54.75 79.25h578.29v167.67H54.75z" class="fil2"/>
    <path d="M54.75 366.68h578.29v-82.13H54.75v82.13zm0 838.34h578.29v-82.13H54.75v82.13zm0-119.77h578.29v-82.13H54.75v82.13zm0-119.76h578.29v-82.13H54.75v82.13zm0-119.76h578.29v-82.12H54.75v82.12zm0-119.76h578.29v-82.13H54.75v82.13zm0-119.77h578.29v-82.13H54.75v82.13zm0-119.76h578.29v-82.13H54.75v82.13z" class="fil3"/>
    <path d="M854.17 226.72h912.91v-90.33H854.17v90.33zm0 830.67h534.01v-69.66H854.17v69.66zm0 64.71h320.69v-41.83H854.17v41.83zm20.43-182.33h600.33c11.24 0 20.43-9.19 20.43-20.43V319.01c0-11.24-9.19-20.43-20.43-20.43H874.6c-11.24 0-20.43 9.19-20.43 20.43v600.33c0 11.24 9.19 20.43 20.43 20.43zm697.31 117.62h534.01v-69.66h-534.01v69.66zm0 64.71h320.69v-41.83h-320.69v41.83zm20.43-182.33h600.33c11.24 0 20.43-9.19 20.43-20.43V319.01c0-11.24-9.19-20.43-20.43-20.43h-600.33c-11.24 0-20.43 9.19-20.43 20.43v600.33c0 11.24 9.19 20.43 20.43 20.43zm697.31 117.62h534.01v-69.66h-534.01v69.66zm0 64.71h320.69v-41.83h-320.69v41.83zm20.43-182.33h600.33c11.24 0 20.43-9.19 20.43-20.43V319.01c0-11.24-9.19-20.43-20.43-20.43h-600.33c-11.24 0-20.43 9.19-20.43 20.43v600.33c0 11.24 9.19 20.43 20.43 20.43zm697.31 117.62h534.01v-69.66h-534.01v69.66zm0 64.71h320.68v-41.83h-320.68v41.83zm20.43-182.33h600.33c11.24 0 20.43-9.19 20.43-20.43V319.01c0-11.24-9.19-20.43-20.43-20.43h-600.33c-11.24 0-20.43 9.19-20.43 20.43v600.33c0 11.24 9.19 20.43 20.43 20.43zM854.2 1964.74h534.01v-69.66H854.2v69.66zm0 64.71h320.69v-41.83H854.2v41.83zm20.43-182.33h600.33c11.24 0 20.43-9.19 20.43-20.43v-600.33c0-11.24-9.19-20.43-20.43-20.43H874.63c-11.24 0-20.43 9.19-20.43 20.43v600.33c0 11.24 9.19 20.43 20.43 20.43zm697.31 117.62h534.01v-69.66h-534.01v69.66zm0 64.71h320.69v-41.83h-320.69v41.83zm20.43-182.33h600.33c11.24 0 20.43-9.19 20.43-20.43v-600.33c0-11.24-9.19-20.43-20.43-20.43h-600.33c-11.24 0-20.43 9.19-20.43 20.43v600.33c0 11.24 9.19 20.43 20.43 20.43zm697.31 117.62h534.01v-69.66h-534.01v69.66zm0 64.71h320.69v-41.83h-320.69v41.83zm20.43-182.33h600.33c11.24 0 20.43-9.19 20.43-20.43v-600.33c0-11.24-9.19-20.43-20.43-20.43h-600.33c-11.24 0-20.43 9.19-20.43 20.43v600.33c0 11.24 9.19 20.43 20.43 20.43zm697.31 117.62h534.01v-69.66h-534.01v69.66zm0 64.71h320.68v-41.83h-320.68v41.83zm20.43-182.33h600.33c11.24 0 20.43-9.19 20.43-20.43v-600.33c0-11.24-9.19-20.43-20.43-20.43h-600.33c-11.24 0-20.43 9.19-20.43 20.43v600.33c0 11.24 9.19 20.43 20.43 20.43z" class="fil2"/>
    <path class="str1" fill="none" d="M3791.46.97v2370.96"/>
    <path fill="#b3b3b3" d="M4601.29 1058.67v614.77c0 22.24-18.19 40.43-40.43 40.43h-671.94c-22.24 0-40.43-18.19-40.43-40.43v-614.77c0-22.24 18.19-40.43 40.43-40.43h671.94c22.24 0 40.43 18.19 40.43 40.43z"/>
    <path d="M3862.29 1877.21h721.57v-82.13h-721.57v82.13zm0-1650.49h721.57v-90.33h-721.57v90.33zm26.53 535.58h121.27c14.59 0 26.53 11.94 26.53 26.53V910.1c0 14.59-11.94 26.53-26.53 26.53h-121.27c-14.59 0-26.53-11.94-26.53-26.53V788.83c0-14.59 11.94-26.53 26.53-26.53zm170.67 89.16h524.37v-56.18h-524.37v56.18zm0 52.19h314.9v-33.74h-314.9v33.74zm-170.67-373.2h121.27c14.59 0 26.53 11.94 26.53 26.53v121.27c0 14.59-11.94 26.53-26.53 26.53h-121.27c-14.59 0-26.53-11.94-26.53-26.53V556.98c0-14.59 11.94-26.53 26.53-26.53zm170.67 89.16h524.37v-56.18h-524.37v56.18zm0 52.19h314.9v-33.74h-314.9v33.74zm-170.67-373.2h121.27c14.59 0 26.53 11.94 26.53 26.53V446.4c0 14.59-11.94 26.53-26.53 26.53h-121.27c-14.59 0-26.53-11.94-26.53-26.53V325.13c0-14.59 11.94-26.53 26.53-26.53zm170.67 89.16h524.37v-56.18h-524.37v56.18zm-197.2 1609.23h721.57v-82.13h-721.57v82.13zm0 119.76h721.57v-82.13h-721.57v82.13zm0 119.76h721.57v-82.13h-721.57v82.13zm197.2-1796.57h314.9V406.2h-314.9v33.74z" class="fil2"/>
    <path d="M2083.37 2176.16h335.99c15.74 0 28.5 20.52 28.5 45.82s-12.76 45.81-28.5 45.81h-335.99c-15.74 0-28.5-20.52-28.5-45.82s12.76-45.82 28.5-45.82z" class="fil3 str1"/>
    <path fill="#dadada" d="M54.74 2185.66h578.29v82.12H54.74z"/>
  </g>
</svg>
