<svg xmlns="http://www.w3.org/2000/svg" fill="none" viewBox="0 0 81 81">
  <defs/>
  <path fill="#0A0A0A" d="M62.4385 0H5.06258C2.26661 0 0 2.26658 0 5.0625v40.5c0 2.7959 2.26661 5.0625 5.06258 5.0625H27.0005v-3.3749H5.06258c-.93199 0-1.68758-.7556-1.68758-1.6876v-40.5c0-.93197.75559-1.68755 1.68758-1.68755H62.4385c.932 0 1.6876.75558 1.6876 1.68755v30.375h3.375V5.0625C67.5011 2.26658 65.2345 0 62.4385 0z"/>
  <path fill="#0A0A0A" d="M23.6244 48.9374h-3.375v10.125h3.375v-10.125zM11.8119 40.5c-.932 0-1.6876-.7556-1.6876-1.6876v-3.3749H6.74927v3.3749c0 2.796 2.26661 5.0625 5.06263 5.0625h3.3749V40.5h-3.3749zM10.1243 28.6874H6.74927v3.375h3.37503v-3.375zM61.6732 35.7446c-3.4388-3.4394-8.1032-5.3715-12.9667-5.3714-10.1261.0005-18.3346 8.2095-18.3343 18.3355.0005 10.1259 8.2096 18.3343 18.3357 18.334 4.862-.0002 9.5246-1.9314 12.9629-5.369 7.1608-7.1594 7.162-18.7682.0024-25.9291zM48.6978 63.6693c-8.2621-.0028-14.9577-6.7027-14.9549-14.9647.0029-8.262 6.7029-14.9575 14.965-14.9547 3.9711-.0107 7.7812 1.5694 10.579 4.3875 2.8031 2.8062 4.3771 6.6108 4.3759 10.5773-.0029 8.262-6.7029 14.9575-14.965 14.9546zM80.5059 73.4062l-10.5926-10.589c-.3164-.3164-.7456-.4944-1.193-.4944-.4476.0002-.8767.178-1.1931.4944l-4.7082 4.7081c-.6587.659-.6587 1.7272 0 2.3862l10.5927 10.5941c.3164.3166.7456.4944 1.193.4944.4482-.0014.8776-.1811 1.193-.4994l4.7082-4.7082c.6588-.659.6588-1.7272 0-2.3862zm-5.9013 3.5202l-8.2065-8.208 2.322-2.322 8.2064 8.2081-2.3219 2.3219z"/>
  <path fill="#0A0A0A" d="M61.6729 59.2856l-2.3864 2.3864 5.8851 5.885 2.3864-2.3864-5.8851-5.885zM48.9373 37.1251V40.5c4.6578.0055 8.4321 3.78 8.4376 8.4374h3.375c-.0073-6.5206-5.2916-11.8049-11.8126-11.8123zM30.3746 57.3751H16.8744V60.75h13.5002v-3.3749zM25.312 6.75006c-2.796 0-5.0626 2.26658-5.0626 5.06254 0 2.7959 2.2666 5.0625 5.0626 5.0625s5.0626-2.2666 5.0626-5.0625c0-2.79596-2.2666-5.06254-5.0626-5.06254zm0 6.74994c-.932 0-1.6876-.7556-1.6876-1.6876 0-.932.7556-1.6876 1.6876-1.6876.932 0 1.6876.7556 1.6876 1.6876 0 .9321-.7556 1.6876-1.6876 1.6876zM37.1247 18.5624c-2.7959 0-5.0625 2.2666-5.0625 5.0625 0 2.796 2.2666 5.0625 5.0625 5.0625 2.796 0 5.0626-2.2665 5.0626-5.0625 0-2.7959-2.2666-5.0625-5.0626-5.0625zm0 6.7501c-.932 0-1.6875-.7556-1.6875-1.6876 0-.9319.7555-1.6875 1.6875-1.6875s1.6876.7556 1.6876 1.6875c-.0001.932-.7556 1.6876-1.6876 1.6876z"/>
  <path fill="#0A0A0A" d="M22.431 12.3074l-8.4375 8.4373 2.3865 2.3865 8.4375-8.4374-2.3865-2.3864zM28.1854 12.3116l-2.3865 2.3864 8.4375 8.4374 2.3864-2.3864-8.4374-8.4374zM48.9373 6.75006c-2.7959 0-5.0625 2.26658-5.0625 5.06254 0 2.7959 2.2666 5.0625 5.0625 5.0625 2.796 0 5.0626-2.2666 5.0626-5.0625.0002-2.79596-2.2664-5.06254-5.0626-5.06254zm0 6.74994c-.932 0-1.6875-.7556-1.6875-1.6876 0-.932.7555-1.6876 1.6875-1.6876s1.6876.7556 1.6876 1.6876c0 .9321-.7556 1.6876-1.6876 1.6876z"/>
  <path fill="#0A0A0A" d="M46.0555 12.3133l-8.4375 8.4373 2.3865 2.3865 8.4374-8.4374-2.3864-2.3864z"/>
</svg>
