<svg xmlns="http://www.w3.org/2000/svg" fill="none" viewBox="0 0 81 81">
  <defs/>
  <path fill="#0A0A0A" d="M80.8493 75.8835l-7.2648-26.109V12.15c-.0033-1.0731-.44-2.1014-1.2149-2.86024-.7749-.75883-1.8249-1.18656-2.9207-1.18976H57.3317l-5.1281-5.0355c-.2429-.23527-.5663-.37382-.9076-.38878-.3414-.01497-.6762.09471-.9396.30778l-3.8598 3.078-.4825-4.8465c-.0387-.332416-.2003-.639482-.4542-.863297C45.306.127889 44.9772.00279133 44.6356 0h-8.2712c-.3416.00279133-.6704.127889-.9243.351703-.2539.223815-.4155.530881-.4542.863297l-.4825 4.8465-3.8598-3.078c-.2634-.21307-.5982-.32275-.9395-.30778-.3414.01496-.6648.15351-.9077.38878L23.6683 8.1H11.5511c-1.0958.0032-2.14583.43093-2.92069 1.18976-.77486.75884-1.21162 1.78714-1.21489 2.86024v37.6245L.150716 75.8835c-.1705825.6005-.1967672 1.2316-.0765003 1.8438.1202673.6121.3837153 1.1886.7696793 1.6843.385965.4957.883955.8971 1.454895 1.1727.57095.2755 1.19933.4178 1.83585.4157H76.8654c.6365.0021 1.2649-.1402 1.8358-.4157.571-.2756 1.0689-.677 1.4549-1.1727.386-.4957.6494-1.0722.7697-1.6843.1203-.6122.0941-1.2433-.0765-1.8438zM29.8716 5.8455l4.8662 3.9015c.1948.15315.4278.25264.675.2882.2471.0356.4995.006.7311-.0857.2302-.09535.4298-.24977.5778-.44699.148-.19722.2389-.42991.2631-.67351l.6203-6.129h5.7898l.6203 6.129c.0242.2436.1151.47629.2631.67351.148.19722.3476.35164.5778.44699.2316.0917.484.1213.7311.0857.2472-.03556.4802-.13505.675-.2882l4.8662-3.9015 4.0804 3.996-3.9839 4.7655c-.1564.1908-.258.419-.2943.661-.0364.242-.0062.4892.0875.716.0974.2254.2551.4209.4564.5659.2014.1449.439.2339.6878.2576l6.2585.6075v5.67l-6.2585.6075c-.2488.0237-.4864.1127-.6878.2576-.2013.145-.359.3405-.4564.5659-.0937.2268-.1239.4739-.0875.716.0363.242.1379.4702.2943.661l3.9839 4.7655-4.0804 3.996-4.8662-3.9015c-.1948-.1532-.4278-.2527-.675-.2883-.2471-.0355-.4995-.006-.7311.0858-.2302.0953-.4298.2498-.5778.447-.148.1972-.2389.4299-.2631.6735l-.6203 6.129h-5.7898l-.6203-6.129c-.0242-.2436-.1151-.4763-.2631-.6735-.148-.1972-.3476-.3517-.5778-.447-.2316-.0918-.484-.1213-.7311-.0858-.2472.0356-.4802.1351-.675.2883l-4.8662 3.9015-4.0804-3.996 3.9839-4.7655c.1564-.1908.258-.419.2943-.661.0364-.2421.0062-.4892-.0875-.716-.0974-.2254-.2551-.4209-.4564-.5659-.2014-.1449-.439-.2339-.6878-.2576l-6.2585-.6075v-5.67l6.2585-.6075c.2488-.0237.4864-.1127.6878-.2576.2013-.145.359-.3405.4564-.5659.0937-.2268.1239-.474.0875-.716-.0363-.242-.1379-.4702-.2943-.661l-3.9839-4.7655 4.0804-3.996zM10.1726 12.15c0-.358.1452-.7014.4037-.9546s.6092-.3954.9748-.3954h11.4693l2.9914 3.5775-4.9489.4725c-.3395.0379-.653.1961-.8816.4448-.2285.2487-.3562.5706-.3591.9052v8.1c.0029.3346.1306.6565.3591.9052.2286.2487.5421.4069.8816.4448l4.9489.4725-3.1431 3.78c-.2175.258-.3295.5858-.3143.9201.0153.3342.1568.651.397.8889l5.845 5.724c.2429.2353.5663.3738.9077.3888.3413.0149.6761-.0947.9395-.3078l3.8598-3.078.4825 4.8465c.0387.3324.2003.6395.4542.8633s.5827.3489.9243.3517h8.2712c.3416-.0028.6704-.1279.9243-.3517s.4155-.5309.4542-.8633l.4825-4.8465 3.8598 3.078c.2634.2131.5982.3227.9396.3078.3413-.015.6647-.1535.9076-.3888l5.845-5.724c.2402-.2379.3817-.5547.397-.8889.0152-.3343-.0968-.6621-.3143-.9201l-3.1431-3.78 4.9489-.4725c.3395-.0379.653-.1961.8816-.4448.2285-.2487.3562-.5706.3591-.9052v-8.1c-.0029-.3346-.1306-.6565-.3591-.9052-.2286-.2487-.5421-.4069-.8816-.4448l-4.9489-.4725L57.9796 10.8h11.4693c.3656 0 .7163.1422.9748.3954.2585.2532.4037.5966.4037.9546V48.6H10.1726V12.15zm67.7956 65.6235c-.1291.1659-.2961.3-.4876.3914-.1915.0915-.4022.1377-.6152.1351H4.13464c-.21303.0026-.42373-.0436-.61523-.1351-.1915-.0914-.35849-.2255-.48759-.3914-.12885-.1675-.21694-.3616-.25755-.5675-.04062-.2058-.03268-.4181.0232-.6205L9.84171 51.3H71.1583l7.0442 25.2855c.0559.2024.0638.4147.0232.6205-.0406.2059-.1287.4-.2575.5675z"/>
  <path fill="#0A0A0A" d="M52.8653 68.5219c-.0746-.2919-.2468-.551-.489-.7362-.2423-.1851-.5408-.2857-.8481-.2857H29.4719c-.3074 0-.6059.1006-.8481.2857-.2423.1852-.4144.4443-.4891.7362l-1.3785 5.4c-.0509.1991-.0549.4069-.0115.6076.0434.2008.133.3892.2619.551.1289.1618.2938.2927.4821.3827.1883.09.3951.1368.6046.1368h24.8134c.2095 0 .4163-.0468.6046-.1368.1883-.09.3532-.2209.4821-.3827.1289-.1618.2185-.3502.2619-.551.0434-.2007.0395-.4085-.0114-.6076l-1.3786-5.4zM29.8592 72.9l.6893-2.7h19.9031l.6892 2.7H29.8592zM33.6074 43.2h13.7852v2.7H33.6074v-2.7zM12.9296 54h5.5141v2.7h-5.5141V54zM21.2007 54h5.5141v2.7h-5.5141V54zM29.4718 54h5.5141v2.7h-5.5141V54zM46.0141 54h5.5141v2.7h-5.5141V54zM54.2852 54h5.5141v2.7h-5.5141V54zM62.5563 54h5.5141v2.7h-5.5141V54zM37.7429 54h5.5141v2.7h-5.5141V54zM12.9296 59.4h5.5141v2.7h-5.5141v-2.7zM21.2007 59.4h5.5141v2.7h-5.5141v-2.7zM29.4718 59.4h5.5141v2.7h-5.5141v-2.7zM46.0141 59.4h5.5141v2.7h-5.5141v-2.7zM54.2852 59.4h5.5141v2.7h-5.5141v-2.7zM62.5563 59.4h5.5141v2.7h-5.5141v-2.7zM37.7429 59.4h5.5141v2.7h-5.5141v-2.7zM40.5 28.35c1.6359 0 3.235-.4751 4.5952-1.3651 1.3601-.8901 2.4203-2.1551 3.0463-3.6352.626-1.4801.7898-3.1087.4707-4.68-.3192-1.5712-1.1069-3.0145-2.2637-4.1473-1.1567-1.1328-2.6305-1.9042-4.2349-2.2168-1.6044-.3125-3.2675-.1521-4.7788.461-1.5114.613-2.8032 1.6512-3.712 2.9833-.9088 1.332-1.3939 2.8981-1.3939 4.5001.0022 2.1476.8743 4.2066 2.4249 5.7252 1.5507 1.5186 3.6532 2.3726 5.8462 2.3748zm0-13.5c1.0906 0 2.1567.3167 3.0634.91.9068.5934 1.6136 1.4368 2.0309 2.4235.4174.9867.5266 2.0725.3138 3.12-.2127 1.0475-.7379 2.0097-1.5091 2.7649-.7711.7552-1.7536 1.2695-2.8233 1.4778-1.0696.2084-2.1783.1014-3.1859-.3073-1.0075-.4087-1.8687-1.1008-2.4746-1.9888-.6059-.8881-.9293-1.9321-.9293-3.0001 0-1.4322.581-2.8057 1.615-3.8184C37.635 15.4189 39.0376 14.85 40.5 14.85z"/>
</svg>
