<?xml version="1.0" encoding="UTF-8"?>
<!DOCTYPE svg PUBLIC "-//W3C//DTD SVG 1.1//EN" "http://www.w3.org/Graphics/SVG/1.1/DTD/svg11.dtd">
<!-- Creator: CorelDRAW 2019 (64-Bit) -->
<svg xmlns="http://www.w3.org/2000/svg" xml:space="preserve" width="579px" height="353px" version="1.1" style="shape-rendering:geometricPrecision; text-rendering:geometricPrecision; image-rendering:optimizeQuality; fill-rule:evenodd; clip-rule:evenodd"
viewBox="0 0 87.58 53.36"
 xmlns:xlink="http://www.w3.org/1999/xlink"
 xmlns:xodm="http://www.corel.com/coreldraw/odm/2003">
 <defs>
  <style type="text/css">
   <![CDATA[
    .fil0 {fill:#E6E6E6}
    .fil1 {fill:#E62875;fill-rule:nonzero}
    .fil3 {fill:#C03B88;fill-rule:nonzero}
    .fil5 {fill:#A53B89;fill-rule:nonzero}
    .fil15 {fill:#9C398A;fill-rule:nonzero}
    .fil14 {fill:#8F539B;fill-rule:nonzero}
    .fil7 {fill:#782961;fill-rule:nonzero}
    .fil10 {fill:#873D87;fill-rule:nonzero}
    .fil8 {fill:#7D77B4;fill-rule:nonzero}
    .fil13 {fill:#8162A1;fill-rule:nonzero}
    .fil11 {fill:#834084;fill-rule:nonzero}
    .fil12 {fill:#5F2753;fill-rule:nonzero}
    .fil6 {fill:#72457D;fill-rule:nonzero}
    .fil4 {fill:#14B3E3;fill-rule:nonzero}
    .fil16 {fill:#3B2848;fill-rule:nonzero}
    .fil9 {fill:#3D2C51;fill-rule:nonzero}
    .fil2 {fill:#1C202B;fill-rule:nonzero}
    .fil17 {fill:#22252A;fill-rule:nonzero}
   ]]>
  </style>
 </defs>
 <g id="Слой_x0020_1">
  <metadata id="CorelCorpID_0Corel-Layer"/>
  <rect class="fil0" width="87.58" height="53.36"/>
  <g id="_2372440071456">
   <polygon class="fil1" points="54.68,27.61 53.15,28.49 52.84,28.67 52.84,25.74 53.15,25.92 54.7,26.82 55.37,27.21 "/>
   <path class="fil2" d="M56.04 24.07c0.85,0 1.5,0.26 1.94,0.79 0.43,0.53 0.65,1.23 0.65,2.12l0 3.08 -1.84 0 0 -2.98c0,-0.82 -0.35,-1.23 -1.04,-1.23 -0.52,0 -0.85,0.23 -0.99,0.68l-1.92 -1.11 0 -3.64 1.84 0 0 2.68c0.35,-0.26 0.8,-0.39 1.36,-0.39zm-1.36 3.86l0 2.13 -1.84 0 0 -1.07 1.84 -1.06zm7.48 -4.47c-0.21,0.19 -0.46,0.28 -0.76,0.28 -0.3,0 -0.55,-0.09 -0.76,-0.28 -0.2,-0.18 -0.3,-0.4 -0.3,-0.67 0,-0.26 0.1,-0.48 0.31,-0.67 0.21,-0.18 0.46,-0.28 0.75,-0.28 0.29,0 0.54,0.1 0.75,0.28 0.21,0.19 0.31,0.41 0.31,0.67 0,0.27 -0.1,0.49 -0.3,0.67zm-1.68 6.6l0 -5.91 1.84 0 0 5.91 -1.84 0zm6.14 -4.12l0 4.12 -1.86 0 0 -4.12 -0.72 0 0 -1.79 0.72 0 0 -1.99 1.86 0 0 1.99 0.72 0 0 1.79 -0.72 0z"/>
   <path class="fil2" d="M35.28 25.78l-2.04 0c-0.03,-0.02 -0.06,-0.03 -0.09,-0.04 -0.16,-0.07 -0.32,-0.1 -0.5,-0.1 -0.18,0 -0.34,0.03 -0.5,0.1 -0.03,0.01 -0.06,0.02 -0.09,0.04l-2.03 0c0.14,-0.29 0.33,-0.56 0.58,-0.8 0.28,-0.28 0.59,-0.5 0.93,-0.64 0.34,-0.14 0.71,-0.21 1.11,-0.21 0.4,0 0.78,0.07 1.12,0.22 0.34,0.14 0.65,0.35 0.93,0.63 0.25,0.25 0.44,0.51 0.58,0.8zm-5.55 0l-0.05 0c-0.86,0 -1.3,0.6 -1.3,1.47l0 2.74 -1.85 0 0 -3.82c-0.74,1.92 -2.52,2.07 -4.28,2.07l0 1.75 -2.01 0 0 -8.28c2.37,0 5.62,-0.47 6.39,2.37l1.12 0 0.22 1.11c0.48,-0.8 1.2,-1.2 2.15,-1.2l1.57 0c-0.09,0.03 -0.17,0.06 -0.26,0.1 -0.37,0.15 -0.71,0.38 -1.02,0.69 -0.3,0.3 -0.53,0.63 -0.68,1zm3.88 -1.79l3.03 0 0.2 0.8c0.84,-1.09 2.95,-1.1 3.87,0.11 0.85,-1.32 3.89,-1.46 4.45,1.1 1.11,-3.15 5.9,-2.4 5.9,1.03 0,3.28 -4.49,4.19 -5.81,1.26l0 1.7 -1.85 0 0 -2.98c0,-0.78 -0.27,-1.23 -1.05,-1.23 -0.71,0 -1.06,0.42 -1.06,1.26l0 2.95 -1.85 0 0 -2.98c0,-0.82 -0.35,-1.23 -1.04,-1.23 -0.71,0 -1.07,0.42 -1.07,1.26l0 2.95 -1.84 0 0 -1.51c0.04,-0.08 0.07,-0.15 0.11,-0.23 0.15,-0.38 0.23,-0.78 0.23,-1.22 0,-0.43 -0.08,-0.84 -0.23,-1.21 -0.16,-0.38 -0.39,-0.72 -0.7,-1.03 -0.31,-0.31 -0.65,-0.55 -1.03,-0.7 -0.08,-0.04 -0.17,-0.07 -0.26,-0.1zm1.88 3.66l0 -1.23c0.04,0.19 0.06,0.4 0.06,0.61 0,0.22 -0.02,0.42 -0.06,0.62zm-13.24 -1.31c0.93,0 2.59,0.14 2.59,-1.36 0,-1.51 -1.72,-1.38 -2.59,-1.38l0 2.74zm26.59 -0.22c-1.21,-1.17 -2.76,0.76 -1.65,1.82 1.2,1.14 2.77,-0.74 1.65,-1.82z"/>
   <g>
    <path class="fil3" d="M35.41 30.2c-0.04,0.02 -0.08,0.03 -0.12,0.04l-0.01 0.06c0,0.03 0,0.05 0,0.07l0 0 0.01 0.01c0.05,0.02 0.08,0 0.1,-0.02 0.02,-0.01 0.04,-0.04 0.03,-0.09l-0.01 -0.07z"/>
    <path class="fil1" d="M33.79 22.49c-0.12,-0.06 -0.25,-0.09 -0.39,-0.1 -0.26,0 -0.51,0.11 -0.68,0.3l-1.39 1.58 0.79 -0.49 1.34 -1.12c0.1,-0.08 0.21,-0.14 0.33,-0.17z"/>
    <path class="fil1" d="M28.87 27.53l-0.24 0.2c-0.06,0.04 -0.04,0.11 -0.02,0.14 0.01,0.01 0.03,0.02 0.05,0.03l0.34 0.13c-0.01,-0.01 -0.02,-0.02 -0.02,-0.03 -0.12,-0.13 -0.15,-0.31 -0.11,-0.47z"/>
    <polygon class="fil3" points="34.88,30.18 32.97,29.5 33.01,29.53 34.88,30.22 "/>
    <polygon class="fil1" points="30.89,25.99 30.7,26.09 29.35,27.25 29.63,27.42 "/>
    <path class="fil1" d="M29.36 27.73l-0.27 -0.16c0,-0.01 -0.01,-0.01 -0.02,-0.02 -0.04,0.11 -0.01,0.24 0.06,0.32 0.02,0.02 0.04,0.04 0.06,0.05l0.17 -0.19z"/>
    <polygon class="fil3" points="35.63,27.01 35.8,27.92 35.78,27.42 "/>
    <polygon class="fil3" points="32.46,30.18 32.35,30.13 32.24,30.08 "/>
    <path class="fil1" d="M32.08 30.12l-1.22 -0.55 -2.47 -0.93c-0.15,-0.05 -0.28,-0.14 -0.38,-0.26 -0.03,-0.04 -0.06,-0.08 -0.08,-0.11 -0.08,0.27 -0.02,0.58 0.18,0.82 0.14,0.15 0.31,0.26 0.52,0.3l3.45 0.73z"/>
    <polygon class="fil3" points="34.88,29.9 34.44,29.81 34.88,29.96 "/>
    <path class="fil1" d="M34.17 23.48c-0.05,-0.05 -0.12,-0.08 -0.19,-0.08 -0.08,-0.01 -0.15,0.01 -0.21,0.05l-0.11 0.1 -0.05 0.04 0.14 0.42 0.47 -0.25 -0.05 -0.28z"/>
    <path class="fil3" d="M35.34 30l-0.05 -0.01 0 0.03 0 0c0.02,0 0.04,-0.01 0.05,-0.02z"/>
    <path class="fil1" d="M35.89 27.76l0.05 0.9 0.27 1.48c0.04,0.24 -0.01,0.48 -0.14,0.66l0 0c0.12,-0.05 0.23,-0.12 0.32,-0.23 0.22,-0.24 0.28,-0.56 0.17,-0.87l-0.67 -1.94z"/>
    <polygon class="fil1" points="34.3,24.18 33.89,24.4 34.86,27.2 "/>
    <polygon class="fil3" points="31.54,24.26 31.1,24.53 30.93,24.72 31.3,24.45 "/>
    <polygon class="fil4" points="32.36,29.28 32.88,29.48 32.95,29.49 "/>
    <polygon class="fil4" points="29.36,27.73 30.38,28.36 32.16,29 29.63,27.42 "/>
    <polygon class="fil4" points="35.29,29.99 35.3,29.59 34.93,27.58 34.88,29.9 "/>
    <path class="fil4" d="M35.03 23.62c-0.01,-0.01 -0.02,-0.01 -0.02,-0.01l0.06 0.33 -0.04 -0.32z"/>
    <polygon class="fil4" points="33.89,24.4 33.75,24.01 32.11,24.88 31.11,25.74 30.89,25.99 "/>
    <path class="fil3" d="M35.29 30.24c-0.1,0.02 -0.2,0.01 -0.29,-0.02l-0.12 -0.04 0 0.04 0.4 0.15c0,-0.02 0,-0.04 0,-0.07l0.01 -0.06 0 0z"/>
    <path class="fil4" d="M35.28 30.3l0.01 -0.06c-0.1,0.02 -0.2,0.01 -0.29,-0.02l-0.12 -0.04 0 0.04 0.4 0.15c0,-0.02 0,-0.04 0,-0.07z"/>
    <path class="fil3" d="M29.63 27.42l0 0 -0.28 -0.17 -0.18 0.16c-0.05,0.04 -0.08,0.09 -0.1,0.14l0 0c0.01,0.01 0.02,0.01 0.02,0.02l0.27 0.16 0.27 -0.31z"/>
    <path class="fil4" d="M29.36 27.73l0.27 -0.31 -0.28 -0.17 -0.18 0.16c-0.05,0.04 -0.08,0.09 -0.1,0.14 0.01,0.01 0.02,0.01 0.02,0.02l0.27 0.16z"/>
    <polygon class="fil3" points="33.01,29.53 32.97,29.5 32.95,29.49 32.88,29.48 "/>
    <polygon class="fil4" points="32.95,29.49 32.88,29.48 33.01,29.53 32.97,29.5 "/>
    <polygon class="fil3" points="31.11,25.74 30.7,26.09 30.89,25.99 "/>
    <polygon class="fil4" points="31.11,25.74 30.7,26.09 30.89,25.99 "/>
    <path class="fil3" d="M35.29 29.99l0 0 -0.41 -0.09 0 0.06 0.18 0.07c0.08,0.02 0.16,0.02 0.23,-0.01l0 -0.03z"/>
    <path class="fil4" d="M34.88 29.9l0 0.06 0.18 0.07c0.08,0.02 0.16,0.02 0.23,-0.01l0 -0.03 -0.41 -0.09z"/>
    <polygon class="fil3" points="34.22,23.76 34.22,23.76 33.75,24.01 33.89,24.4 34.3,24.18 "/>
    <polygon class="fil4" points="34.3,24.18 34.22,23.76 33.75,24.01 33.89,24.4 "/>
    <path class="fil4" d="M34.83 22.64c0.07,0.08 0.11,0.17 0.12,0.28l0.08 0.7c0.04,0.02 0.07,0.04 0.11,0.06l-0.09 -0.77c-0.02,-0.12 -0.06,-0.24 -0.14,-0.33 -0.1,-0.11 -0.22,-0.18 -0.35,-0.21l-0.13 0.08c0.16,0 0.31,0.08 0.4,0.19z"/>
    <path class="fil4" d="M27.79 28.07c-0.07,-0.03 -0.14,-0.08 -0.19,-0.14 -0.09,-0.11 -0.13,-0.26 -0.12,-0.4 0.01,-0.02 0.01,-0.04 0.01,-0.06 -0.02,-0.04 -0.05,-0.08 -0.06,-0.12 -0.03,0.05 -0.04,0.11 -0.05,0.17 -0.02,0.17 0.04,0.34 0.15,0.47 0.06,0.07 0.13,0.13 0.22,0.17l0.16 0.07c-0.03,-0.04 -0.05,-0.09 -0.07,-0.14l-0.05 -0.02z"/>
    <polygon class="fil4" points="32.08,30.12 33.85,30.92 32.51,30.21 "/>
    <path class="fil4" d="M27.69 27.18l2.5 -1.8 0.61 -0.5 0.13 -0.16 -3.3 2.38c-0.06,0.04 -0.1,0.09 -0.14,0.14 0.01,0.04 0.03,0.08 0.05,0.11 0.03,-0.06 0.08,-0.12 0.15,-0.17z"/>
    <path class="fil4" d="M34.21 22.47l0.19 -0.12c-0.11,0.01 -0.22,0.04 -0.32,0.11 0.04,0 0.08,0 0.13,0.01z"/>
    <path class="fil4" d="M35.95 30.94c-0.01,0.02 -0.03,0.03 -0.04,0.04 -0.02,0.01 -0.03,0.03 -0.05,0.04 -0.02,0.13 -0.09,0.25 -0.2,0.33 -0.15,0.11 -0.35,0.13 -0.52,0.05l-1.24 -0.57 1.27 0.68c0.01,0.01 0.02,0.01 0.02,0.01 0.18,0.05 0.37,0.02 0.53,-0.09 0.13,-0.09 0.21,-0.23 0.24,-0.38 0,-0.01 0,-0.02 0,-0.03l-0.01 -0.08z"/>
    <polygon class="fil3" points="32.51,30.21 32.46,30.18 32.24,30.08 30.86,29.57 32.08,30.12 "/>
    <polygon class="fil4" points="32.46,30.18 32.24,30.08 30.86,29.57 32.08,30.12 32.51,30.21 "/>
    <polygon class="fil3" points="31.3,24.45 31.3,24.45 30.93,24.72 30.8,24.88 "/>
    <polygon class="fil4" points="30.93,24.72 30.8,24.88 31.3,24.45 "/>
    <path class="fil4" d="M35.33 25.38l-0.19 -1.7c-0.04,-0.02 -0.07,-0.04 -0.11,-0.06l0.04 0.32 0.26 1.44z"/>
    <path class="fil4" d="M35.33 25.38l-0.19 -1.7c-0.04,-0.02 -0.07,-0.04 -0.11,-0.06l0.04 0.32 0.26 1.44z"/>
    <path class="fil5" d="M27.93 28.24l-0.02 -0.01c0,0.01 0.01,0.02 0.02,0.04 0,-0.01 0,-0.02 0,-0.03z"/>
    <path class="fil6" d="M34.94 24.05c-0.06,-0.07 -0.17,-0.12 -0.28,-0.06l-0.06 0.03 0.38 1.09 0.01 -0.91c0,-0.07 -0.02,-0.12 -0.05,-0.15z"/>
    <path class="fil6" d="M33.48 23.23c-0.02,-0.02 -0.05,-0.04 -0.08,-0.04 -0.03,0 -0.05,0.01 -0.06,0.02 -0.01,0.01 -0.01,0.01 -0.01,0.01l-1.22 1.39 1.43 -1.23 -0.04 -0.12c-0.01,-0.01 -0.02,-0.02 -0.02,-0.03z"/>
    <path class="fil6" d="M29.97 28.86l-1.1 -0.58 -0.15 0.17c-0.01,0.01 -0.01,0.02 -0.02,0.03l0 0 0.47 0.21 0.8 0.17z"/>
    <path class="fil6" d="M35.68 29.59l0.01 0.03c0.03,0.16 -0.01,0.31 -0.1,0.43l0 0 0.1 0.02c0.04,0.01 0.06,0 0.08,-0.01l-0.04 -0.34 -0.05 -0.13z"/>
    <path class="fil6" d="M31.8 29.25l-0.62 -0.39 -1.97 -0.69c-0.06,-0.03 -0.11,-0.06 -0.16,-0.09l-0.11 0.12 1.38 0.74 1.48 0.31z"/>
    <path class="fil6" d="M30.63 25.06l-0.44 0.32 -2.08 1.73c-0.16,0.13 -0.26,0.31 -0.3,0.49l0 0 0.4 0.21 0.59 -0.67c-0.02,-0.08 -0.02,-0.16 0,-0.24 0.02,-0.14 0.1,-0.27 0.21,-0.36l0 0c0.03,-0.03 0.07,-0.05 0.11,-0.07l0.52 -0.28 0.99 -1.13z"/>
    <path class="fil6" d="M35.86 30.86c-0.1,0.02 -0.21,0.01 -0.32,-0.01l-0.46 -0.1c-0.01,0.01 -0.01,0.01 -0.02,0.02l0 0c-0.03,0.03 -0.07,0.05 -0.1,0.07 -0.21,0.11 -0.44,0.1 -0.64,-0.02l-0.54 -0.34 -0.92 -0.19 0.2 0.1 1.97 0.74c0.28,0.1 0.59,0.06 0.83,-0.11 0.01,-0.05 0.01,-0.09 0,-0.14l0 -0.02z"/>
    <path class="fil6" d="M34.08 22.46c-0.1,-0.01 -0.2,0 -0.29,0.03 0.05,0.02 0.09,0.05 0.13,0.08l0 0 0.15 -0.11c0,0 0.01,0 0.01,0z"/>
    <path class="fil6" d="M35.31 28.79l-0.01 0.8 0.07 0.39 0 0c0,-0.01 0.01,-0.01 0.01,-0.01 0,0 0,0 0,0 0.09,-0.08 0.13,-0.2 0.11,-0.31l-0.18 -0.87z"/>
    <path class="fil6" d="M28.14 27.89l-0.35 -0.18c-0.01,0.13 0.01,0.26 0.05,0.38l0 0 0.13 0.06c0.03,-0.08 0.08,-0.16 0.15,-0.23l0.02 -0.03z"/>
    <polygon class="fil7" points="32.35,30.13 29.97,28.86 29.17,28.69 32.24,30.08 "/>
    <polygon class="fil7" points="31.82,24.08 31.54,24.26 31.3,24.45 "/>
    <path class="fil5" d="M28.8 27.14l-0.59 0.67 0.73 0.39 0.11 -0.12 0 0c-0.02,-0.02 -0.03,-0.04 -0.05,-0.05l0 0 -0.34 -0.13c-0.02,-0.01 -0.04,-0.02 -0.05,-0.03 -0.02,-0.03 -0.04,-0.1 0.02,-0.14l0.24 -0.2c0.01,-0.04 0.02,-0.09 0.05,-0.13 -0.06,-0.08 -0.1,-0.17 -0.12,-0.26z"/>
    <path class="fil5" d="M28.87 28.28l-0.73 -0.39 -0.02 0.03c-0.07,0.07 -0.12,0.15 -0.15,0.23l0 0 0.73 0.33c0.01,-0.01 0.01,-0.02 0.02,-0.03l0.15 -0.17z"/>
    <polygon class="fil7" points="33.78,30.48 31.8,29.25 30.32,28.94 32.86,30.29 "/>
    <polygon class="fil5" points="35.36,26.49 35.33,27.85 35.68,29.59 35.73,29.72 "/>
    <path class="fil5" d="M34.09 22.72c-0.01,-0.01 -0.02,-0.02 -0.04,-0.03l0 0 -0.91 0.57 -2.51 1.8 -0.99 1.13 1.65 -0.88 0.82 -0.7 1.22 -1.39c0,0 0,0 0.01,-0.01l0 0c0.01,-0.01 0.03,-0.02 0.06,-0.02 0.03,0 0.06,0.02 0.08,0.04 0,0.01 0.01,0.02 0.02,0.03l0.04 0.12 0.06 -0.06c0.01,0 0.01,0 0.01,-0.01l0 0c0.11,-0.09 0.24,-0.13 0.38,-0.11 0.15,0.01 0.28,0.08 0.37,0.19 0.02,0.01 0.03,0.03 0.04,0.04l-0.15 -0.42c-0.04,-0.11 -0.09,-0.2 -0.16,-0.29z"/>
    <path class="fil5" d="M35.94 28.66l0.11 2.15 0 0c0,0 0.01,0 0.02,-0.01 0.13,-0.18 0.18,-0.42 0.14,-0.66l-0.27 -1.48z"/>
    <path class="fil5" d="M33.92 22.57c-0.04,-0.03 -0.08,-0.06 -0.13,-0.08l0 0c-0.12,0.03 -0.23,0.09 -0.33,0.17l-1.34 1.12 0.96 -0.6 0.84 -0.61z"/>
    <polygon class="fil5" points="35.46,26.52 35.94,30.68 35.8,27.92 35.63,27.01 "/>
    <path class="fil5" d="M35.77 30.06l0 0c-0.02,0.01 -0.04,0.02 -0.08,0.01l-0.1 -0.02c-0.02,0.03 -0.04,0.05 -0.07,0.07 0,0 0,0.01 -0.01,0.01l0 0c-0.03,0.03 -0.06,0.05 -0.1,0.07l0.01 0.07c0.01,0.05 -0.01,0.08 -0.03,0.09l0 0c-0.02,0.02 -0.05,0.04 -0.1,0.02l-0.01 -0.01c-0.02,0.15 -0.09,0.29 -0.2,0.38l0 0 0.46 0.1c0.11,0.02 0.22,0.03 0.32,0.01l-0.09 -0.8z"/>
    <path class="fil5" d="M30.86 29.57l-2.93 -1.33c0,0.01 0,0.02 0,0.03 0.02,0.03 0.05,0.07 0.08,0.11 0.1,0.12 0.23,0.21 0.38,0.26l2.47 0.93z"/>
    <path class="fil5" d="M34.21 23.52c-0.01,-0.02 -0.03,-0.03 -0.04,-0.04l0.05 0.28 0.07 -0.04 -0.01 -0.05c-0.01,-0.06 -0.04,-0.11 -0.07,-0.15z"/>
    <polygon class="fil5" points="34.93,27.41 34.94,26.94 34.38,24.14 34.3,24.18 34.86,27.2 34.93,27.58 "/>
    <polygon class="fil5" points="34.6,24.02 34.56,24.04 34.96,26 34.98,25.11 "/>
    <path class="fil5" d="M29.88 26.53l-0.57 0.3c-0.01,0.01 -0.03,0.01 -0.04,0.02 -0.05,0.05 -0.06,0.1 -0.07,0.13 -0.01,0.04 0,0.09 0.01,0.12l0.67 -0.57z"/>
    <path class="fil7" d="M33.77 23.45c-0.01,0.01 -0.02,0.01 -0.03,0.02 0,0 0,0 0,0.01l-0.08 0.07 0.11 -0.1z"/>
    <path class="fil5" d="M34.88 30.22l0 0 -1.87 -0.69 1.52 0.94c0.1,0.06 0.19,0.03 0.23,0.01 0.01,-0.01 0.02,-0.01 0.04,-0.03 0.03,-0.03 0.07,-0.08 0.08,-0.16l0 -0.07z"/>
    <polygon class="fil4" points="35.37,25.74 35.38,25.61 35.33,25.38 "/>
    <path class="fil4" d="M35.38 25.61l0.02 -1.39c0.01,-0.16 -0.05,-0.31 -0.15,-0.43 -0.03,-0.04 -0.07,-0.08 -0.11,-0.11l0.19 1.7 0.04 0.36 0.01 -0.13z"/>
    <path class="fil4" d="M34.48 23.62l0 0.01 0.02 0.11 0.1 0.28 0.06 -0.03c0.11,-0.06 0.22,-0.01 0.28,0.06 0.03,0.03 0.05,0.08 0.05,0.15l-0.01 0.91 0.33 0.97 -0.24 -2.14 -0.06 -0.33c-0.17,-0.07 -0.36,-0.07 -0.53,0.01z"/>
    <polygon class="fil4" points="34.93,27.58 35.3,29.59 35.31,28.79 35.18,28.14 34.93,27.41 "/>
    <polygon class="fil8" points="34.93,27.41 34.93,27.58 35.3,29.59 35.31,28.79 35.18,28.14 "/>
    <polygon class="fil4" points="31.18,28.86 31.8,29.25 32.88,29.48 32.36,29.28 "/>
    <path class="fil4" d="M34.32 30.82c0.2,0.12 0.43,0.13 0.64,0.02 0.04,-0.02 0.08,-0.05 0.12,-0.09l-1.3 -0.27 0.54 0.34z"/>
    <path class="fil4" d="M29.12 26.47c-0.17,0.09 -0.29,0.24 -0.32,0.43 -0.02,0.08 -0.02,0.16 0,0.24l0.84 -0.95 -0.52 0.28z"/>
    <polygon class="fil4" points="34.6,24.02 34.5,23.74 34.56,24.04 "/>
    <path class="fil4" d="M34.88 30.22l0 0.07c-0.01,0.12 -0.09,0.17 -0.12,0.19 -0.04,0.02 -0.13,0.05 -0.23,-0.01l-1.52 -0.94 -0.13 -0.05 -1.08 -0.23 1.98 1.23 1.3 0.27c0.11,-0.09 0.18,-0.23 0.2,-0.38l-0.4 -0.15z"/>
    <path class="fil8" d="M35.08 30.75c0.11,-0.09 0.18,-0.23 0.2,-0.38l-0.4 -0.15 0 0.07c-0.01,0.08 -0.05,0.13 -0.08,0.16 -0.02,0.02 -0.03,0.02 -0.04,0.03 -0.04,0.02 -0.13,0.05 -0.23,-0.01l-1.52 -0.94 -0.13 -0.05 -1.08 -0.23 1.98 1.23 0.54 0.34c0.2,0.12 0.43,0.13 0.64,0.02 0.03,-0.02 0.07,-0.04 0.1,-0.07 0.01,-0.01 0.01,-0.01 0.02,-0.02z"/>
    <polygon class="fil4" points="34.98,25.11 34.96,26 35.33,27.85 35.36,26.49 35.31,26.08 "/>
    <path class="fil4" d="M29.03 27.26l0.18 -0.16c-0.01,-0.03 -0.02,-0.08 -0.01,-0.12 0.01,-0.04 0.03,-0.11 0.11,-0.15l0.57 -0.3 1.41 -1.22 -1.65 0.88 -0.84 0.95c0.02,0.09 0.06,0.18 0.12,0.26 0.02,-0.05 0.06,-0.1 0.11,-0.14z"/>
    <path class="fil4" d="M29.03 27.26l0.18 -0.16c-0.01,-0.03 -0.02,-0.08 -0.01,-0.12 0.01,-0.03 0.02,-0.08 0.07,-0.13 0.01,-0.01 0.03,-0.01 0.04,-0.02l0.57 -0.3 1.41 -1.22 -1.65 0.88 -0.52 0.28c-0.04,0.02 -0.08,0.04 -0.11,0.07 -0.11,0.09 -0.19,0.22 -0.21,0.36 -0.02,0.08 -0.02,0.16 0,0.24 0.02,0.09 0.06,0.18 0.12,0.26 0.02,-0.05 0.06,-0.1 0.11,-0.14z"/>
    <polygon class="fil4" points="35.18,28.14 34.94,26.94 34.93,27.41 "/>
    <polygon class="fil8" points="34.94,26.94 34.93,27.41 35.18,28.14 "/>
    <polygon class="fil4" points="34.3,24.18 34.38,24.14 34.29,23.72 34.22,23.76 "/>
    <polygon class="fil8" points="34.29,23.72 34.29,23.72 34.22,23.76 34.3,24.18 34.38,24.14 "/>
    <polygon class="fil4" points="35.36,26.23 35.46,26.52 35.37,25.74 "/>
    <path class="fil4" d="M33.92 22.57c0.02,0.01 0.04,0.03 0.06,0.04l0.23 -0.14c-0.05,-0.01 -0.09,-0.01 -0.13,-0.01 0,0 -0.01,0 -0.01,0l-0.15 0.11z"/>
    <path class="fil8" d="M34.21 22.47c-0.05,-0.01 -0.09,-0.01 -0.13,-0.01l0 0c0,0 -0.01,0 -0.01,0l-0.15 0.11c0.02,0.01 0.04,0.03 0.06,0.04l0 0 0.23 -0.14z"/>
    <path class="fil4" d="M27.97 28.15l-0.13 -0.06c0.02,0.05 0.04,0.1 0.07,0.14l0.02 0.01c0.01,-0.03 0.03,-0.06 0.04,-0.09z"/>
    <path class="fil8" d="M27.97 28.15l0 0 -0.13 -0.06c0.02,0.05 0.04,0.1 0.07,0.14l0.02 0.01c0.01,-0.03 0.03,-0.06 0.04,-0.09z"/>
    <path class="fil4" d="M35.86 30.88c0.01,0.05 0.01,0.09 0,0.14 0.02,-0.01 0.03,-0.03 0.05,-0.04 0.01,-0.01 0.03,-0.02 0.04,-0.04l0 -0.09c-0.03,0 -0.06,0.01 -0.09,0.01l0 0.02z"/>
    <path class="fil8" d="M35.95 30.85c-0.03,0 -0.06,0.01 -0.09,0.01l0 0.02c0.01,0.05 0.01,0.09 0,0.14 0.02,-0.01 0.03,-0.03 0.05,-0.04 0.01,-0.01 0.03,-0.02 0.04,-0.04l0 0 0 -0.09z"/>
    <path class="fil4" d="M35.79 30.04c0.01,-0.02 0.03,-0.05 0.02,-0.1l-0.08 -0.22 0.04 0.34c0.01,-0.01 0.01,-0.01 0.02,-0.02z"/>
    <polygon class="fil4" points="30.8,24.88 30.19,25.38 30.63,25.06 "/>
    <path class="fil4" d="M28.72 28.58c0.02,0.02 0.03,0.03 0.06,0.03l0.39 0.08 -0.47 -0.21c-0.01,0.04 0.01,0.08 0.02,0.1z"/>
    <path class="fil8" d="M29.17 28.69l-0.47 -0.21c-0.01,0.04 0.01,0.08 0.02,0.1 0.02,0.02 0.03,0.03 0.06,0.03l0.39 0.08z"/>
    <path class="fil4" d="M35.46 26.52l-0.1 -0.29 0 0.26 0.37 3.23 0.08 0.22c0.01,0.05 -0.01,0.08 -0.02,0.1 -0.01,0.01 -0.01,0.01 -0.02,0.02l0.09 0.8c0.03,0 0.06,-0.01 0.09,-0.01l-0.01 -0.17 -0.48 -4.16z"/>
    <path class="fil4" d="M28.78 28.61c-0.03,0 -0.04,-0.01 -0.06,-0.03 -0.01,-0.02 -0.03,-0.06 -0.02,-0.1l-0.73 -0.33c-0.01,0.03 -0.03,0.06 -0.04,0.09l2.93 1.33 1.38 0.51 -3.07 -1.39 -0.39 -0.08z"/>
    <path class="fil4" d="M32.24 30.08l-3.07 -1.39 -0.39 -0.08c-0.03,0 -0.04,-0.01 -0.06,-0.03 -0.01,-0.02 -0.03,-0.06 -0.02,-0.1l0 0 -0.73 -0.33c-0.01,0.03 -0.03,0.06 -0.04,0.09l2.93 1.33 1.38 0.51z"/>
    <path class="fil4" d="M33.92 22.57l-0.84 0.61 0.9 -0.57c-0.02,-0.01 -0.04,-0.03 -0.06,-0.04z"/>
    <path class="fil8" d="M33.98 22.61c-0.02,-0.01 -0.04,-0.03 -0.06,-0.04l0 0 -0.84 0.61 0.9 -0.57z"/>
    <polygon class="fil4" points="33.14,23.26 31.82,24.08 31.3,24.45 30.8,24.88 30.63,25.06 "/>
    <polygon class="fil8" points="31.82,24.08 31.3,24.45 30.19,25.38 30.63,25.06 33.14,23.26 "/>
    <polygon class="fil4" points="35.33,25.38 35.07,23.94 35.31,26.08 35.36,26.23 35.37,25.74 "/>
    <polygon class="fil4" points="35.33,25.38 35.07,23.94 35.31,26.08 35.36,26.23 35.37,25.74 "/>
    <polygon class="fil8" points="35.07,23.94 35.31,26.08 35.36,26.23 35.37,25.74 35.33,25.38 "/>
    <polygon class="fil4" points="35.36,26.49 35.36,26.23 35.31,26.08 "/>
    <polygon class="fil4" points="35.36,26.49 35.36,26.23 35.31,26.08 "/>
    <path class="fil8" d="M35.94 30.68l-0.48 -4.16 0.17 0.49 -0.25 -1.4 -0.01 0.13 -0.01 0.49 -0.05 -0.15 -0.33 -0.97 -0.02 0.89 0.37 1.85 0.03 -1.36 0.37 3.23 0.04 0.34 0.09 0.8c0.03,0 0.06,-0.01 0.09,-0.01l-0.01 -0.17z"/>
    <path class="fil6" d="M27.81 27.6l0 0 -0.05 -0.02c-0.06,-0.04 -0.12,-0.08 -0.16,-0.13 -0.03,-0.03 -0.05,-0.06 -0.06,-0.1 -0.02,0.04 -0.04,0.08 -0.05,0.12l0 0c0.01,0.01 0.02,0.03 0.03,0.04 0.06,0.06 0.12,0.12 0.2,0.16l0.07 0.04c0.01,-0.04 0.01,-0.07 0.02,-0.11z"/>
    <path class="fil6" d="M34.43 22.45c-0.06,0 -0.12,0.01 -0.18,0.03 0.03,0.01 0.06,0.02 0.09,0.03l0 0 0.09 -0.06z"/>
    <path class="fil6" d="M35.49 22.33c-0.21,-0.25 -0.57,-0.31 -0.84,-0.14l-0.25 0.16c0.05,0 0.11,0 0.16,0.02l0 0 0.15 -0.09c0.26,-0.17 0.55,-0.07 0.7,0.11 0.08,0.1 0.12,0.21 0.13,0.33l0.24 4.7 0.11 0.34 -0.25 -5.05c-0.01,-0.14 -0.06,-0.27 -0.15,-0.38z"/>
    <path class="fil6" d="M31.33 24.27l0 0 -3.67 2.29c-0.15,0.1 -0.26,0.26 -0.28,0.44 -0.02,0.12 0,0.24 0.05,0.35 0.01,-0.04 0.03,-0.08 0.06,-0.11l0 0c-0.02,-0.07 -0.02,-0.15 -0.01,-0.23 0.02,-0.15 0.1,-0.28 0.24,-0.36l3.38 -2.12 0.23 -0.26z"/>
    <polygon class="fil6" points="35.78,27.42 35.8,27.92 35.94,28.66 35.89,27.76 "/>
    <polygon class="fil7" points="32.67,30.25 32.35,30.13 32.46,30.18 32.53,30.22 "/>
    <path class="fil4" d="M34.25 22.48c0.06,-0.02 0.12,-0.03 0.18,-0.03l0.13 -0.08c-0.05,-0.02 -0.11,-0.02 -0.16,-0.02l-0.19 0.12c0.01,0 0.03,0.01 0.04,0.01z"/>
    <path class="fil8" d="M34.56 22.37c-0.05,-0.02 -0.11,-0.02 -0.16,-0.02l0 0 -0.19 0.12c0.01,0 0.03,0.01 0.04,0.01l0 0c0.06,-0.02 0.12,-0.03 0.18,-0.03l0.13 -0.08z"/>
    <path class="fil4" d="M35.19 31.52c0,0 -0.01,0 -0.02,-0.01l-1.27 -0.68 -1.37 -0.61 -0.02 -0.01 1.34 0.71 1.25 0.57c0.03,0.01 0.06,0.02 0.09,0.03z"/>
    <path class="fil4" d="M35.96 31.02c0,0.01 0,0.02 0,0.03 0,-0.04 0.01,-0.08 0.01,-0.12 -0.01,0 -0.01,0.01 -0.02,0.01l0.01 0.08z"/>
    <path class="fil4" d="M27.54 27.35c-0.02,-0.03 -0.04,-0.07 -0.05,-0.11 -0.03,0.03 -0.05,0.07 -0.06,0.11 0.01,0.04 0.04,0.08 0.06,0.12 0.01,-0.04 0.03,-0.08 0.05,-0.12z"/>
    <path class="fil8" d="M27.49 27.24c-0.03,0.03 -0.05,0.07 -0.06,0.11 0.01,0.04 0.04,0.08 0.06,0.12 0.01,-0.04 0.03,-0.08 0.05,-0.12l0 0c-0.02,-0.03 -0.04,-0.07 -0.05,-0.11z"/>
    <polygon class="fil4" points="32.51,30.21 32.53,30.22 32.46,30.18 "/>
    <polygon class="fil9" points="32.53,30.22 32.46,30.18 32.51,30.21 "/>
    <path class="fil6" d="M36.06 31.02l-0.01 -0.18c-0.03,0.03 -0.06,0.06 -0.08,0.09 -0.01,0 -0.01,0.01 -0.02,0.01l0.01 0.08c0,0.01 0,0.02 0,0.03 0,0.18 -0.09,0.35 -0.25,0.45 -0.16,0.09 -0.35,0.1 -0.52,0.02 0,0 -0.01,0 -0.02,-0.01l-1.27 -0.68 -0.84 -0.44 -0.2 -0.1 -0.19 -0.04 -0.14 -0.03 -0.02 -0.01 1.34 0.71 1.28 0.68c0.2,0.11 0.44,0.1 0.64,-0.02 0.19,-0.12 0.3,-0.33 0.29,-0.56z"/>
    <path class="fil10" d="M28.21 27.81l0 0 -0.4 -0.21c-0.01,0.04 -0.01,0.07 -0.02,0.11l0.35 0.18 0.07 -0.08z"/>
    <polygon class="fil10" points="30.32,28.94 28.94,28.2 28.87,28.28 29.97,28.86 "/>
    <path class="fil11" d="M34.34 22.51c-0.03,-0.01 -0.06,-0.02 -0.09,-0.03l0 0c-0.04,0.02 -0.08,0.04 -0.12,0.07l-0.13 0.09c0.02,0.01 0.04,0.03 0.05,0.05l0 0 0.29 -0.18z"/>
    <polygon class="fil12" points="32.86,30.29 30.32,28.94 29.97,28.86 32.35,30.13 32.67,30.25 "/>
    <polygon class="fil5" points="32.12,23.78 31.33,24.27 31.1,24.53 31.54,24.26 31.82,24.08 33.08,23.18 "/>
    <polygon class="fil10" points="28.94,28.2 28.94,28.2 28.21,27.81 28.14,27.89 28.87,28.28 "/>
    <path class="fil10" d="M34.05 22.69c-0.01,-0.02 -0.03,-0.04 -0.05,-0.05l0 0 -0.86 0.62 0.91 -0.57z"/>
    <path class="fil4" d="M35.96 30.84l-0.01 0.01 0 0.09c0.01,0 0.01,-0.01 0.02,-0.01 -0.01,-0.02 -0.01,-0.04 -0.01,-0.06l0 -0.03z"/>
    <path class="fil5" d="M35.97 30.93c0.02,-0.03 0.05,-0.06 0.08,-0.09 0.01,-0.01 0.01,-0.02 0.02,-0.04 -0.01,0.01 -0.02,0.01 -0.02,0.01 -0.03,0.02 -0.06,0.03 -0.09,0.03l-0.01 0.01 0 0.09c0.01,0 0.01,-0.01 0.02,-0.01z"/>
    <path class="fil4" d="M34.13 22.55c0.04,-0.03 0.08,-0.05 0.12,-0.07 -0.01,0 -0.03,-0.01 -0.04,-0.01l-0.23 0.14c0.01,0.01 0.02,0.02 0.02,0.03l0.13 -0.09z"/>
    <path class="fil13" d="M34.25 22.48c-0.01,0 -0.03,-0.01 -0.04,-0.01l0 0 -0.23 0.14c0.01,0.01 0.02,0.02 0.02,0.03l0 0 0.13 -0.09c0.04,-0.03 0.08,-0.05 0.12,-0.07z"/>
    <path class="fil4" d="M33.14 23.26l0.86 -0.62c0,-0.01 -0.01,-0.02 -0.02,-0.03l-0.9 0.57 -1.26 0.9 1.32 -0.82z"/>
    <path class="fil14" d="M34 22.64c0,-0.01 -0.01,-0.02 -0.02,-0.03l0 0 -0.9 0.57 -1.26 0.9 1.32 -0.82 0.86 -0.62z"/>
    <polygon class="fil4" points="35.95,30.85 35.96,30.84 35.94,30.68 "/>
    <path class="fil10" d="M35.94 28.66l-0.14 -0.74 0.14 2.76 0.01 0.17 0.01 -0.01c0.03,0 0.06,-0.01 0.09,-0.03l-0.11 -2.15z"/>
    <polygon class="fil6" points="34.44,29.81 32.16,29 32.96,29.49 "/>
    <path class="fil15" d="M35.37 29.98l0 0c-0.01,0 -0.02,0.01 -0.03,0.02l0.03 0 0 -0.02z"/>
    <polygon class="fil10" points="33.61,23.59 31.96,24.96 32.11,24.88 33.61,23.59 "/>
    <path class="fil6" d="M31.09 28.81l-0.71 -0.45 -1.1 -0.39c-0.04,-0.01 -0.07,-0.03 -0.09,-0.05l-0.12 0.13 2.02 0.76z"/>
    <path class="fil5" d="M34.12 23.29c-0.02,-0.03 -0.09,-0.06 -0.14,-0.02l-0.21 0.18c0.06,-0.04 0.13,-0.06 0.21,-0.05 0.07,0 0.14,0.03 0.19,0.08l-0.03 -0.15c0,-0.01 -0.01,-0.03 -0.02,-0.04z"/>
    <polygon class="fil7" points="33.66,23.55 33.61,23.59 33.61,23.59 "/>
    <path class="fil10" d="M35.37 30l0 0 -0.03 0 0 0c-0.01,0.01 -0.03,0.02 -0.05,0.02l0 0.22 0 0c0.04,-0.01 0.08,-0.02 0.12,-0.04l-0.04 -0.2z"/>
    <polygon class="fil5" points="34.88,29.96 34.88,29.96 34.44,29.81 32.96,29.49 32.97,29.5 34.88,30.18 "/>
    <path class="fil7" d="M29.07 27.55c-0.04,-0.03 -0.08,-0.06 -0.11,-0.1l-0.09 0.08c-0.04,0.16 -0.01,0.34 0.11,0.47 0,0.01 0.01,0.02 0.02,0.03l0 0 0.07 0.02 0.12 -0.13 0 0c-0.02,-0.01 -0.04,-0.03 -0.06,-0.05 -0.07,-0.08 -0.1,-0.21 -0.06,-0.32l0 0z"/>
    <path class="fil7" d="M30.7 26.09l0 0 -0.29 0.16 -1.14 0.94c0.01,0.01 0.02,0.02 0.04,0.03l0.04 0.03 1.35 -1.16z"/>
    <polygon class="fil4" points="32.11,24.88 31.96,24.96 31.36,25.46 31.11,25.74 "/>
    <polygon class="fil4" points="32.16,29 30.38,28.36 31.09,28.81 32.36,29.28 32.95,29.49 32.96,29.49 "/>
    <polygon class="fil4" points="31.11,25.74 31.36,25.46 30.41,26.25 30.7,26.09 "/>
    <polygon class="fil8" points="31.11,25.74 32.11,24.88 31.96,24.96 30.41,26.25 30.7,26.09 "/>
    <polygon class="fil4" points="32.95,29.49 32.97,29.5 32.96,29.49 "/>
    <polygon class="fil9" points="32.97,29.5 32.96,29.49 32.95,29.49 "/>
    <path class="fil4" d="M29.35 27.25l-0.04 -0.03c-0.02,-0.01 -0.03,-0.02 -0.04,-0.03l-0.31 0.26c0.03,0.04 0.07,0.07 0.11,0.1 0.02,-0.05 0.05,-0.1 0.1,-0.14l0.18 -0.16z"/>
    <path class="fil8" d="M29.35 27.25l-0.04 -0.03c-0.02,-0.01 -0.03,-0.02 -0.04,-0.03l-0.31 0.26c0.03,0.04 0.07,0.07 0.11,0.1 0.02,-0.05 0.05,-0.1 0.1,-0.14l0.18 -0.16z"/>
    <path class="fil4" d="M35.06 30.03l-0.18 -0.07 0 0.22 0.12 0.04c0.09,0.03 0.19,0.04 0.29,0.02l0 -0.22c-0.07,0.03 -0.15,0.03 -0.23,0.01z"/>
    <path class="fil8" d="M35.29 30.02l0 0c-0.07,0.03 -0.15,0.03 -0.23,0.01l-0.18 -0.07 0 0.22 0.12 0.04c0.09,0.03 0.19,0.04 0.29,0.02l0 -0.22z"/>
    <path class="fil10" d="M35.32 28.53l-0.01 0.26 0.18 0.87c0.02,0.11 -0.02,0.23 -0.11,0.31 0,0 0,0 0,0l0 0c0,0 -0.01,0 -0.01,0.01l0 0.02 0.22 0.05c0.09,-0.12 0.13,-0.27 0.1,-0.43l-0.01 -0.03 -0.36 -1.06z"/>
    <path class="fil7" d="M31.18 28.86l-0.09 -0.05 -2.02 -0.76 -0.02 0.03 0 0c0.05,0.03 0.1,0.06 0.16,0.09l1.97 0.69z"/>
    <polygon class="fil10" points="33.54,23.38 32.11,24.61 31.66,25.12 31.96,24.96 33.61,23.59 "/>
    <path class="fil6" d="M34.93 23.21c-0.03,-0.16 -0.1,-0.31 -0.2,-0.43 -0.11,-0.13 -0.24,-0.22 -0.39,-0.27l-0.29 0.18c0.02,0.01 0.03,0.02 0.04,0.03 0.07,0.09 0.12,0.18 0.16,0.29l0.15 0.42 0.06 0.2c0.01,0 0.01,-0.01 0.02,-0.01 0.17,-0.08 0.36,-0.08 0.53,-0.01l-0.08 -0.4z"/>
    <path class="fil12" d="M29.07 28.05l0 0 -0.07 -0.02c0.02,0.01 0.03,0.03 0.05,0.05l0.02 -0.03z"/>
    <path class="fil7" d="M28.92 27.4c-0.03,0.04 -0.04,0.09 -0.05,0.13l0.09 -0.08c-0.01,0 -0.02,-0.01 -0.02,-0.02 -0.01,-0.01 -0.02,-0.02 -0.02,-0.03z"/>
    <polygon class="fil5" points="32.11,24.61 31.29,25.31 31.66,25.12 "/>
    <path class="fil15" d="M30.41 26.25l-0.53 0.28 -0.67 0.57 0 0c0,0 0,0.01 0,0.01 0,0 0,0 0,0 0,0 0,0 0,0 0.01,0.02 0.02,0.04 0.04,0.06 0,0 0,0 0,0 0,0 0,0 0,0 0.01,0.01 0.01,0.02 0.02,0.02 0,0 0,0 0,0 0,0 0,0 0,0l1.14 -0.94z"/>
    <path class="fil15" d="M34.36 23.39c-0.09,-0.11 -0.22,-0.18 -0.37,-0.19 -0.14,-0.02 -0.27,0.02 -0.38,0.11 0,0.01 0,0.01 -0.01,0.01l-0.06 0.06 0.07 0.21 0.05 -0.04 0.08 -0.07c0,-0.01 0,-0.01 0,-0.01l0 0c0.01,-0.01 0.02,-0.01 0.03,-0.02l0.21 -0.18c0.05,-0.04 0.12,-0.01 0.14,0.02 0.01,0.01 0.02,0.03 0.02,0.04l0.03 0.15c0.01,0.01 0.03,0.02 0.04,0.04 0.03,0.04 0.06,0.09 0.07,0.15l0.01 0.05 0.17 -0.09 0 0 -0.06 -0.2 0 0c-0.01,-0.01 -0.02,-0.03 -0.04,-0.04z"/>
    <path class="fil15" d="M35.59 30.05l-0.22 -0.05 0.04 0.2c0.04,-0.02 0.07,-0.04 0.1,-0.07 0.01,0 0.01,-0.01 0.01,-0.01 0.03,-0.02 0.05,-0.04 0.07,-0.07l0 0z"/>
    <polygon class="fil15" points="34.56,24.04 34.56,24.04 34.38,24.14 34.94,26.94 34.96,26 "/>
    <polygon class="fil15" points="35.33,27.85 35.32,28.53 35.68,29.59 "/>
    <path class="fil4" d="M34.5 23.74l-0.02 -0.11 0 -0.01c-0.01,0 -0.01,0.01 -0.02,0.01l0.04 0.11z"/>
    <path class="fil8" d="M35.07 23.94l-0.06 -0.33c-0.17,-0.07 -0.36,-0.07 -0.53,0.01 -0.01,0 -0.01,0.01 -0.02,0.01l0.04 0.11 0.06 0.3 0.04 -0.02 0.06 -0.03c0.11,-0.06 0.22,-0.01 0.28,0.06 0.03,0.03 0.05,0.08 0.05,0.15l-0.01 0.91 0.33 0.97 -0.24 -2.14z"/>
    <polygon class="fil4" points="31.09,28.81 31.18,28.86 32.36,29.28 "/>
    <polygon class="fil8" points="32.96,29.49 32.16,29 30.38,28.36 31.09,28.81 31.18,28.86 31.8,29.25 32.88,29.48 32.36,29.28 32.95,29.49 "/>
    <polygon class="fil4" points="31.66,25.12 31.36,25.46 31.96,24.96 "/>
    <polygon class="fil4" points="35.32,28.53 35.18,28.14 35.31,28.79 "/>
    <polygon class="fil6" points="35.18,28.14 35.31,28.79 35.32,28.53 "/>
    <polygon class="fil4" points="30.41,26.25 31.36,25.46 31.66,25.12 31.29,25.31 29.88,26.53 "/>
    <polygon class="fil14" points="31.66,25.12 31.29,25.31 29.88,26.53 30.41,26.25 31.96,24.96 "/>
    <path class="fil4" d="M28.96 27.45l0.31 -0.26c-0.03,-0.02 -0.05,-0.05 -0.06,-0.09l-0.18 0.16c-0.05,0.04 -0.09,0.09 -0.11,0.14 0,0.01 0.01,0.02 0.02,0.03 0,0.01 0.01,0.02 0.02,0.02z"/>
    <path class="fil14" d="M29.21 27.1l-0.18 0.16c-0.05,0.04 -0.09,0.09 -0.11,0.14 0,0.01 0.01,0.02 0.02,0.03 0,0.01 0.01,0.02 0.02,0.02l0.31 -0.26c0,0 0,0 0,0 0,0 0,0 0,0 -0.01,0 -0.01,-0.01 -0.02,-0.02 0,0 0,0 0,0l0 0c0,0 0,0 0,0 -0.02,-0.02 -0.03,-0.04 -0.04,-0.06 0,0 0,0 0,0 0,0 0,0 0,0 0,0 0,-0.01 0,-0.01z"/>
    <path class="fil16" d="M29.25 27.17c0,0 0,0 0,0l0 0c0,0 0,0 0,0zm0.02 0.02c-0.01,0 -0.01,-0.01 -0.02,-0.02 0.01,0.01 0.01,0.02 0.02,0.02zm0 0c0,0 0,0 0,0 0,0 0,0 0,0l0 0zm-0.06 -0.08c0,0 0,0 0,0 0,0 0,0 0,0zm0 -0.01l0 0c0,0 0,0.01 0,0.01 0,0 0,-0.01 0,-0.01z"/>
    <polygon class="fil4" points="34.46,23.63 34.29,23.72 34.38,24.14 34.56,24.04 34.5,23.74 34.46,23.63 "/>
    <polygon class="fil14" points="34.46,23.63 34.46,23.63 34.46,23.63 34.29,23.72 34.38,24.14 34.56,24.04 34.5,23.74 "/>
    <polygon class="fil4" points="35.18,28.14 35.32,28.53 35.33,27.85 34.96,26 34.94,26.94 "/>
    <polygon class="fil14" points="34.96,26 34.94,26.94 35.18,28.14 35.32,28.53 35.33,27.85 "/>
   </g>
   <path class="fil17" d="M32.65 23.99c0.84,0 1.56,0.3 2.15,0.9 0.59,0.59 0.89,1.31 0.89,2.14 0,0.84 -0.3,1.55 -0.89,2.14 -0.59,0.6 -1.31,0.89 -2.15,0.89 -0.84,0 -1.56,-0.29 -2.15,-0.89 -0.58,-0.59 -0.88,-1.3 -0.88,-2.14 0,-0.84 0.3,-1.56 0.89,-2.15 0.59,-0.59 1.3,-0.89 2.14,-0.89zm0.83 2.13c-0.24,-0.23 -0.51,-0.34 -0.83,-0.34 -0.32,0 -0.59,0.11 -0.83,0.34 -0.23,0.23 -0.35,0.53 -0.35,0.91 0,0.38 0.12,0.68 0.35,0.91 0.24,0.22 0.51,0.34 0.83,0.34 0.32,0 0.59,-0.12 0.83,-0.34 0.23,-0.23 0.35,-0.53 0.35,-0.91 0,-0.38 -0.12,-0.68 -0.35,-0.91z"/>
  </g>
 </g>
</svg>
