<svg width="348" height="348" viewBox="0 0 348 348" fill="none" xmlns="http://www.w3.org/2000/svg">
<path d="M43.6319 165.46C77.311 242.333 163.41 308.75 235.564 313.483C287.721 257.104 302.662 148.993 268.937 71.9876C196.819 67.2466 95.7203 109.203 43.6319 165.46ZM43.6319 165.46C99.0076 203.451 202.754 238.205 274.908 242.938M43.6333 165.459C105.604 155.672 214.715 151.564 286.868 156.297M43.6333 165.459C95.7113 109.19 196.785 67.2536 268.938 71.9863C235.176 -4.98757 165.569 -21.7449 113.413 34.6104M43.6333 165.459C9.96455 88.5992 41.2699 29.8903 113.413 34.6104M43.6333 165.459C71.6 78.0703 153.068 10.8179 225.221 15.5506M43.6333 165.459C40.8375 70.6767 97.2687 -2.59649 169.422 2.13623M43.6333 165.459C9.95416 88.5865 41.2595 29.8777 113.413 34.6104M43.6333 165.459C-8.40912 221.721 7.89631 271.386 80.0292 276.093C46.3047 199.088 61.2449 90.9762 113.413 34.6104M43.6333 165.459C-11.7309 127.482 1.91695 100.425 74.0691 105.157M43.6333 165.459C-18.3363 175.247 -10.043 187.064 62.1091 191.796M43.6333 165.459C-8.40912 221.721 7.89637 271.386 80.0397 276.106M43.6333 165.459C77.3228 242.345 163.422 308.762 235.575 313.494M43.6333 165.459C46.4395 260.255 107.402 341.225 179.535 345.932C251.709 350.69 308.151 277.43 305.355 182.647M43.6333 165.459C77.3228 242.345 163.421 308.761 235.663 313.421C264.422 315.297 286.691 307.111 300.924 291.715C305.497 286.442 311.571 279.395 315.55 273.658C317.917 270.233 320.947 265.558 323.075 261.97C324.934 258.88 327.231 254.6 328.834 251.404C330.165 248.752 331.756 245.311 332.979 242.451C334.202 239.591 335.785 235.753 336.785 232.802C337.662 230.165 338.956 226.672 339.67 224.043C340.384 221.413 341.359 217.995 342.056 215.294C342.754 212.593 343.612 208.931 343.993 206.385C344.374 203.84 345.052 200.37 345.348 197.747C345.941 192.606 346.678 185.711 346.868 180.543C347.217 171.71 346.875 162.863 345.846 154.084C345.618 151.236 345.033 147.622 344.559 144.809C344.084 141.996 343.272 138.337 342.699 135.457C342.126 132.576 341.009 128.83 340.248 125.978C339.411 122.828 337.991 118.611 336.896 115.61C335.801 112.61 334.136 108.66 332.957 105.687C331.574 102.183 329.323 97.6766 327.6 94.3258C326.056 91.2944 323.847 87.3273 322.07 84.4248C317.556 76.9174 312.473 69.7684 306.868 63.041C303.665 59.1533 299.052 54.2471 295.507 50.6641C292.885 47.9947 289.1 44.7376 286.335 42.229C281.313 38.0076 276.071 34.0559 270.632 30.3906C264.396 26.1105 257.849 22.3053 251.046 19.0069C243.012 15.2449 234.779 11.927 226.382 9.06812C218.212 6.58305 209.891 4.62266 201.471 3.19888C196.252 2.28786 190.984 1.68734 185.695 1.40046C176.56 0.777876 167.39 0.881369 158.271 1.70996C150.466 2.80135 140.018 4.61687 132.265 6.25976C127.939 7.25724 123.675 8.51175 119.498 10.0166C107.622 13.9873 96.2292 19.2838 85.5337 25.8064C75.8168 31.7183 66.6948 38.5612 58.2959 46.2392C55.1973 49.1874 51.0094 53.1013 48.1751 56.3189C43.5844 61.5432 37.6158 68.6941 33.5729 74.3777C31.1622 77.7754 28.0772 82.411 26.0376 86.0534C24.5016 88.7905 22.4182 92.4055 21.0031 95.2123C19.4803 98.2994 17.52 102.449 16.1536 105.598C6.58437 127.904 1.79086 151.976 2.083 176.256C2.13205 178.912 2.22152 182.363 2.4063 185.055C2.59108 187.747 3.00676 191.182 3.21397 194.005C3.42118 196.827 4.00926 200.523 4.50108 203.279C5.53616 208.983 7.34937 216.506 8.82395 222.1C9.6485 225.26 11.1484 229.369 12.1864 232.48C14.8024 239.78 17.8996 246.898 21.4574 253.786C23.4652 257.431 26.1636 262.352 28.3515 265.933C30.2116 268.937 32.9107 272.753 34.8945 275.675C37.674 279.743 41.9591 284.688 45.0785 288.475C47.481 291.262 50.9655 294.747 53.5191 297.409C58.0995 302.002 62.9674 306.297 68.0931 310.268M43.6333 165.459C77.3124 242.332 163.411 308.749 235.565 313.482C264.334 315.37 286.603 307.184 300.836 291.788M30.7708 96.2977C57.075 67.8691 92.1919 76.306 109.213 115.143C126.174 154.009 118.636 208.536 92.3315 236.965C66.0273 265.393 30.9093 256.956 13.9005 218.108C-3.12348 179.294 4.42731 124.757 30.7321 96.3281M80.0397 276.106C113.775 353.124 183.47 369.808 235.575 313.494M80.0397 276.106C152.193 280.839 253.225 238.854 305.355 182.647M235.575 313.494C307.729 318.227 339.022 259.529 305.356 182.646M235.575 313.494C287.733 257.116 302.674 149.005 268.949 71.9994M235.575 313.494C307.729 318.227 339.034 259.52 305.355 182.647M43.6341 165.461C15.6778 252.862 51.6147 327.823 123.768 332.556C195.922 337.289 277.376 270.046 305.356 182.646M305.356 182.646C357.423 126.364 341.103 76.7321 268.949 71.9994M305.356 182.646C367.315 172.846 359.032 161.043 286.879 156.31M305.356 182.646C357.454 126.401 341.103 76.7321 268.949 71.9994M305.356 182.646C271.666 105.76 185.565 39.3663 113.424 34.6232C165.579 -21.7322 235.225 -5.00572 268.949 71.9994M305.356 182.646C333.272 95.2985 297.385 20.2957 225.232 15.563M305.356 182.646C249.98 144.655 146.234 109.901 74.0801 105.169M321.971 90.218C351.146 156.765 338.237 250.093 293.215 298.758C248.182 347.41 188.062 332.966 158.95 266.495C129.827 200.011 142.725 106.67 187.758 58.0185C232.791 9.36653 292.911 23.8101 322.023 90.281M274.909 242.937C347.061 247.669 360.761 220.676 305.355 182.647M305.355 182.647C271.666 105.762 185.597 39.4063 113.425 34.6253C61.2563 90.9911 46.3157 199.103 80.0403 276.108C152.194 280.841 253.277 238.917 305.355 182.647ZM305.355 182.647C243.395 192.448 134.261 196.554 62.1203 191.811M169.433 2.14881C241.587 6.88154 302.549 87.8503 305.373 182.589M300.836 291.788C294.788 298.332 288.244 304.397 281.262 309.93C275.625 314.45 269.687 318.579 263.49 322.29C256.047 326.678 248.334 330.59 240.399 334.003M300.836 291.788C322.394 268.522 325.606 228.874 305.303 182.583C325.523 228.773 322.303 268.49 300.784 291.725C303.828 288.377 307.851 283.877 310.538 280.25C312.551 277.5 315.295 273.89 317.2 271.061C319.278 267.98 321.839 263.736 323.764 260.571C325.685 257.38 327.445 254.094 329.037 250.726C331.49 245.425 334.548 238.264 336.644 232.813C339.76 224.22 342.189 215.392 343.909 206.413C345.028 200.724 345.822 194.977 346.288 189.198C346.814 183.432 347.035 177.642 346.951 171.853C346.917 169.164 346.78 165.604 346.607 162.901C346.435 160.199 346.099 156.655 345.8 153.952C345.5 151.249 344.92 147.588 344.493 144.885C343.312 137.927 341.7 131.051 339.665 124.295C338.754 121.312 337.471 117.364 336.38 114.445C334.983 110.719 333.019 105.763 331.333 102.148C329.958 99.0402 327.954 94.988 326.34 92.0779C324.054 87.9407 320.924 82.4436 318.269 78.5269C316.256 75.5437 313.706 71.6255 311.46 68.8991C307.938 64.4693 303.11 58.7635 299.305 54.6322C293.517 48.6674 287.368 43.0661 280.893 37.8603C275.067 33.202 268.91 28.9759 262.471 25.2156C247.042 16.0322 230.271 9.336 212.769 5.3721C203.84 3.43926 194.79 2.11592 185.682 1.41122C176.713 0.872016 167.718 0.983916 158.766 1.74602C150.362 2.64129 142.018 4.02191 133.773 5.88103C125.186 8.00134 116.768 10.7571 108.587 14.1257C101.688 16.9663 94.9908 20.2775 88.543 24.0362C80.6321 28.603 73.0959 33.7931 66.0054 39.5574C59.6948 44.7875 53.7113 50.4021 48.0887 56.3692C44.651 59.9968 41.4189 63.8147 38.4073 67.8049C36.3842 70.5419 33.6402 74.152 31.7359 76.9817C29.6547 80.0853 27.0962 84.3061 25.1694 87.4942C23.2486 90.6798 21.4926 93.9624 19.9084 97.329C17.4456 102.617 14.3871 109.779 12.2915 115.23C9.19853 123.852 6.78264 132.703 5.06593 141.703C3.95306 147.393 3.15883 153.14 2.687 158.918C2.16584 164.684 1.94452 170.474 2.02392 176.263C2.05818 178.952 2.1701 182.533 2.35488 185.225C2.53966 187.917 2.88363 191.497 3.17295 194.187C3.46227 196.878 4.05473 200.528 4.46938 203.242C5.65955 210.195 7.27593 217.068 9.30932 223.821C10.2204 226.804 11.4909 230.763 12.5946 233.671C14.002 237.41 15.9665 242.365 17.6525 245.98C19.0671 249.034 21.0311 253.141 22.6323 256.061C24.9181 260.198 28.0511 265.672 30.6932 269.599C32.729 272.585 35.2688 276.49 37.5252 279.229C41.0474 283.659 45.8644 289.352 49.6806 293.496C55.4641 299.465 61.6139 305.066 68.0931 310.268M300.836 291.788C295.157 297.697 289.176 303.309 282.919 308.6C275.818 314.387 268.264 319.591 260.331 324.163C253.917 327.893 247.258 331.181 240.399 334.003M240.399 334.003C232.739 337.235 224.839 339.858 216.77 341.849C208.173 343.839 199.469 345.333 190.701 346.323C181.575 347.091 172.405 347.206 163.262 346.666M240.399 334.003C232.193 337.341 223.754 340.071 215.15 342.172C206.906 344.038 198.561 345.419 190.157 346.307C181.213 347.083 172.224 347.203 163.262 346.666M163.262 346.666C153.465 346.006 143.74 344.52 134.191 342.225C125.973 340.211 117.894 337.667 110.002 334.611C102.929 331.763 96.0612 328.425 89.4489 324.623C82.0352 320.295 74.9024 315.5 68.0931 310.268M163.262 346.666C154.166 345.975 145.126 344.672 136.203 342.767C118.711 338.781 101.946 332.082 86.5144 322.913C80.0766 319.151 73.9203 314.924 68.0931 310.268M256.645 111.152C282.96 82.7356 318.088 91.0572 335.119 130.034C352.11 168.834 344.521 223.402 318.267 251.789C291.952 280.206 256.834 271.768 239.823 232.943C222.814 194.095 230.34 139.58 256.644 111.15M187.839 57.2937C142.533 106.257 129.544 200.182 158.849 267.067M306.175 182.692C243.815 192.546 134.018 196.67 61.4027 191.917M161.137 290.822C206.466 241.861 219.443 147.946 190.14 81.038M287.586 156.191C214.983 151.427 105.174 155.561 42.8139 165.416C-19.5322 175.26 -11.1993 187.151 61.4022 191.915M161.23 290.086C206.263 241.434 219.161 148.093 190.049 81.622C160.926 15.1384 100.806 0.695149 55.784 49.3598C10.7385 98.0222 -2.14725 191.353 26.9653 257.824C56.0883 324.307 116.208 338.751 161.23 290.086ZM64.655 40.7194C138.097 -20.0993 246.809 -9.70993 307.469 63.9248C368.129 137.559 357.767 246.555 284.324 307.374C210.882 368.193 102.17 357.804 41.5103 284.169C-19.1496 210.534 -8.78739 101.538 64.655 40.7194Z" stroke="#FFF8BB" stroke-miterlimit="10"/>
</svg>
