<svg width="270" height="237" viewBox="0 0 270 237" fill="none" xmlns="http://www.w3.org/2000/svg">
<path d="M135.135 132.568C128.288 132.568 121.804 134.712 116.759 139.716L62.3483 194.404C52.9807 204.054 52.9807 219.425 62.7094 229.075C72.4381 238.367 87.9338 238.367 97.6624 228.717L135.138 191.185L172.613 228.717C181.981 238.367 197.838 238.367 207.205 229.075C216.934 219.425 217.295 204.054 207.566 194.404L153.156 139.716C148.111 134.712 141.625 132.568 135.138 132.568H135.135ZM116.759 8.18186L8.29651 116.486C-1.43217 126.136 -1.43217 141.507 8.29651 151.157C18.0252 160.449 33.5209 160.449 43.2495 150.799L135.135 59.2957L227.021 150.799C236.389 160.449 252.246 160.449 261.974 151.157C271.342 141.507 271.342 126.136 261.974 116.486L153.151 8.18186C148.106 3.17767 141.62 0.675575 135.133 1.03372C128.285 0.675575 121.801 3.17767 116.756 8.18186H116.759Z" fill="white" stroke="#FFF8BB"/>
</svg>
