<?xml version="1.0" encoding="UTF-8"?>
<!DOCTYPE svg PUBLIC "-//W3C//DTD SVG 1.1//EN" "http://www.w3.org/Graphics/SVG/1.1/DTD/svg11.dtd">
<!-- Creator: CorelDRAW 2021 (64-Bit) -->
<svg xmlns="http://www.w3.org/2000/svg" xml:space="preserve" width="1920px" height="456px" version="1.1" style="shape-rendering:geometricPrecision; text-rendering:geometricPrecision; image-rendering:optimizeQuality; fill-rule:evenodd; clip-rule:evenodd"
viewBox="0 0 289.11 68.66"
 xmlns:xlink="http://www.w3.org/1999/xlink"
 xmlns:xodm="http://www.corel.com/coreldraw/odm/2003">
 <defs>
  <style type="text/css">
   <![CDATA[
    .fil13 {fill:url(#id0)}
    .fil5 {fill:url(#id1)}
    .fil10 {fill:url(#id2)}
    .fil0 {fill:url(#id3)}
    .fil7 {fill:url(#id4)}
    .fil8 {fill:url(#id5)}
    .fil11 {fill:url(#id6)}
    .fil14 {fill:url(#id7)}
    .fil6 {fill:url(#id8)}
    .fil3 {fill:url(#id9)}
    .fil9 {fill:url(#id10)}
    .fil12 {fill:url(#id11)}
    .fil2 {fill:url(#id12)}
    .fil4 {fill:url(#id13)}
    .fil1 {fill:url(#id14)}
   ]]>
  </style>
  <linearGradient id="id0" gradientUnits="userSpaceOnUse" x1="275.84" y1="3.77" x2="230.72" y2="47.26">
   <stop offset="0" style="stop-opacity:1; stop-color:#B25692"/>
   <stop offset="1" style="stop-opacity:1; stop-color:#7F3C6E"/>
  </linearGradient>
  <linearGradient id="id1" gradientUnits="userSpaceOnUse" x1="111.24" y1="2.88" x2="95.98" y2="25.88">
   <stop offset="0" style="stop-opacity:1; stop-color:#CB6D00"/>
   <stop offset="1" style="stop-opacity:1; stop-color:#A24E00"/>
  </linearGradient>
  <linearGradient id="id2" gradientUnits="userSpaceOnUse" xlink:href="#id1" x1="188.94" y1="16.41" x2="177.93" y2="40.52">
  </linearGradient>
  <linearGradient id="id3" gradientUnits="userSpaceOnUse" x1="51.17" y1="13.82" x2="-2.79" y2="48.76">
   <stop offset="0" style="stop-opacity:1; stop-color:#007166"/>
   <stop offset="0.658824" style="stop-opacity:1; stop-color:#005F61"/>
   <stop offset="1" style="stop-opacity:1; stop-color:#005540"/>
  </linearGradient>
  <linearGradient id="id4" gradientUnits="userSpaceOnUse" xlink:href="#id1" x1="100.52" y1="40.51" x2="83.99" y2="68.29">
  </linearGradient>
  <linearGradient id="id5" gradientUnits="userSpaceOnUse" x1="65.14" y1="25.84" x2="122.2" y2="84">
   <stop offset="0" style="stop-opacity:1; stop-color:#FDCC69"/>
   <stop offset="0.458824" style="stop-opacity:1; stop-color:#FDBB55"/>
   <stop offset="0.839216" style="stop-opacity:1; stop-color:#DA7900"/>
   <stop offset="1" style="stop-opacity:1; stop-color:#BB6600"/>
  </linearGradient>
  <linearGradient id="id6" gradientUnits="userSpaceOnUse" xlink:href="#id5" x1="155.14" y1="0" x2="230.77" y2="68.66">
  </linearGradient>
  <linearGradient id="id7" gradientUnits="userSpaceOnUse" x1="262.55" y1="-5.55" x2="213.12" y2="37.15">
   <stop offset="0" style="stop-opacity:1; stop-color:#E388B8"/>
   <stop offset="1" style="stop-opacity:1; stop-color:#CE6C8B"/>
  </linearGradient>
  <linearGradient id="id8" gradientUnits="userSpaceOnUse" xlink:href="#id5" x1="125.5" y1="0" x2="51.17" y2="68.66">
  </linearGradient>
  <linearGradient id="id9" gradientUnits="userSpaceOnUse" x1="59.11" y1="7.96" x2="-0.21" y2="39.89">
   <stop offset="0" style="stop-opacity:1; stop-color:#81CBCA"/>
   <stop offset="0.490196" style="stop-opacity:1; stop-color:#00AC9F"/>
   <stop offset="1" style="stop-opacity:1; stop-color:#007166"/>
  </linearGradient>
  <linearGradient id="id10" gradientUnits="userSpaceOnUse" xlink:href="#id5" x1="211.79" y1="-10.09" x2="147.64" y2="45.94">
  </linearGradient>
  <linearGradient id="id11" gradientUnits="userSpaceOnUse" xlink:href="#id0" x1="267.45" y1="25.09" x2="238.56" y2="65.19">
  </linearGradient>
  <linearGradient id="id12" gradientUnits="userSpaceOnUse" xlink:href="#id3" x1="39.35" y1="-4.42" x2="-14.61" y2="30.52">
  </linearGradient>
  <linearGradient id="id13" gradientUnits="userSpaceOnUse" xlink:href="#id5" x1="112.65" y1="-22.74" x2="60.02" y2="65.71">
  </linearGradient>
  <linearGradient id="id14" gradientUnits="userSpaceOnUse" xlink:href="#id3" x1="48.21" y1="9.25" x2="-5.75" y2="44.19">
  </linearGradient>
 </defs>
 <g id="Слой_x0020_1">
  <metadata id="CorelCorpID_0Corel-Layer"/>
  <g id="_2213917722800">
   <path class="fil0" d="M14.34 0l0 18.71 35.63 0 -0.74 -18.71 -34.89 0zm-14.34 50.71l0 17.95 22.81 0c3.44,0 6.23,-2.78 6.23,-6.22l0 -11.73 -29.04 0z"/>
   <polygon class="fil1" points="49.23,0 46.12,0 40.9,18.71 49.97,18.71 "/>
   <polygon class="fil2" points="28.38,0 14.34,0 14.34,18.71 21.81,18.71 "/>
   <path class="fil3" d="M29.04 50.71l24.56 0c6.93,-17.41 12.83,-32.9 18.97,-50.71l-23.34 0 -20.19 50.71zm-29.04 -34.01l0 51.96 27.35 -68.66 -18.47 0 -8.88 16.7z"/>
   <path class="fil4" d="M107.2 0l-23.45 0c-3.99,0 -7.56,2.47 -8.97,6.2l-23.61 62.46 17.84 0 26.84 -50.93 11.35 3.68 0 -21.41z"/>
   <polygon class="fil5" points="107.2,21.41 107.2,0 104.89,0 95.85,17.73 "/>
   <path class="fil6" d="M125.5 0l-20.22 0 -15.33 68.66 19.26 0 6.8 0c5.24,0 9.49,-4.24 9.49,-9.48l0 -7.35 0 -51.83z"/>
   <path class="fil7" d="M61.39 41.63l13.22 16.41 10.58 -20.08 -18.11 -11.39 -5.69 15.06zm31.96 11.8l20.56 15.23 2.1 0c4.04,0 7.48,-2.51 8.85,-6.06l-29.49 -18.22 -2.02 9.05z"/>
   <path class="fil8" d="M61.64 40.96l28.31 27.7 19.26 0 6.8 0c2.38,0 4.55,-0.87 6.22,-2.31l-55.35 -39.25 -5.24 13.86z"/>
   <g>
    <polygon class="fil9" points="136.85,19.06 148.21,47.81 205.14,23.97 191.2,4.31 "/>
    <path class="fil10" d="M191.2 4.31l-4.24 1.64 3.25 24.27 14.93 -6.25 -13.94 -19.66zm-28.32 8.91l1.95 27.63 21.12 -8.85 -8.13 -24.06 -14.94 5.28z"/>
    <path class="fil11" d="M129.87 0l0 59.18c0,5.24 4.25,9.48 9.48,9.48l22.98 0 -4.84 -46.22 6.4 -2.9 10.2 49.12 23 0 -15.44 -57.17 6.11 -2.76 20.45 59.93 22.56 0 -27.2 -68.66 -37.97 0 -9.42 9.91 -1.04 -9.91 -25.27 0z"/>
   </g>
   <path class="fil12" d="M242.94 22.51l3.15 10.02 -7.24 5.77 2.86 30.36 15.96 0c4.66,0 8.6,-3.45 9.2,-8.07l5.32 -40.33 -29.25 2.25z"/>
   <polygon class="fil13" points="272.19,20.26 246.09,32.53 242.94,22.51 "/>
   <polygon class="fil14" points="207.83,0.01 221.43,35.04 285.96,16.25 289.11,0.01 "/>
  </g>
 </g>
</svg>
