<svg xmlns="http://www.w3.org/2000/svg" fill="none" viewBox="0 0 300 331"><defs/><path stroke="#FFC5C5" stroke-linecap="round" stroke-linejoin="round" d="M279 250l-3 5-2 3h0l-10 16-3 5m18-29l4-10 7-15m-11 25l-4 6m-14 23l-7 5m7-5l12-21 2-2m-14 23l-3 3-8 9-7 7-6 5m17-19l13-23m-13 23l-10 5m10-5l-17 19m0 0l-8 4m8-4l-11 7-8 6-7 3m18-12l-2 2-15 9-1 1m18-12l15-18m-15 18l-11 4m-7 8l-8 3M17 184l6-24m-6 24l-3 24m3-24l-9-14m9 14l12 8m-6-32l10-25m-10 25l12 9m-12-9l-9-15m19-10l13-24m-13 24l11 10m-11-10l-8-15m21-9l17-23m-17 23l10 10m-10-10l-7-15m24-8l19-21M63 88l8 10m-8-10l-6-14m25-7l22-16M82 67l-4-11m4 11l7 9m15-25l22-11m-22 11l4 6m-4-6l-3-8m25-3l24-3m-24 3l3 4m-3-4l-1-3m25 0l25 13m-25-13l-17-2-9-2m26 4v1m0-1l-21 7m21-7l24 15m-24-15h-25m25 0l18 18m-18-18l-25-10m25 10l26 11m-26-11l-17-5-9-2m26 7l11-9m-11 9l-15 13m15-13l25 6m-25-6l-18-16m18 16l21 17m-21-17l-21-15m21 15h21m-21 0l-15-17m15 17l18-3m-18 3l-11-17m11 17l15 19m-15-19l-18 10m18-10l24 3m-24-3l-2-15m2 15l2 19m-2-19l-7 17m7-17l7-11m-7 11l-2 18m2-18l2-14m-2 14l-7-17m7 17l26 9m-26-9l-24-13m24 13l-11 15m11-15l15-6m10 19l24 15m-24-15l1-2m-1 2l-1 2m25 13l23 14m-23-14l2-4m-2 4l-3 3m26 11l21 13m-21-13l-4 4m4-4l2-4m19 17l18 14m-18-14l3-5m-3 5l-6 5m24 9l14 15m-14-15l3-5m-3 5l-7 5m21 10l11 18m-11-18l4-6m-4 6l-8 6m19 12l6 20m-6-20l4-7m-4 7l-9 6m15 14l5-7m-5 7l2 22m-2-22l-9 6M76 45l23-9m-23 9L54 59m22-14V33m0 12l2 11m21-20l25-3m-25 3l2 7m-2-7v-8m25 5l1 4m-1-4v-3m26 8l7 19m-7-19l11 19m-4 0l6 20m-6-20h4m-4 0l-5-1m11 21l6 18m-6-18l9-1m-9 1h-9m15 18l6 18m-6-18l-12 1m12-1l13-1m-7 19l5 17m-5-17l16-2m-16 2l-17 1m22 16l4 18m-4-18l18-3m-18 3l-20 2m24 16l2 19m-2-19l21-3m-21 3l-23 2m25 17l2 21m-2-21l23-3m-23 3l-24 2m26 19l1 23m-1-23l24-3m-24 3l-25 3m26 20l-1 24m1-24l24-3m-24 3l-26 3m25 21l-2 24m2-24l24-3m-24 3l-25 3m23 21l-2 23m2-23l23-3m-23 3l-24 3m22 20l-4 21m4-21l21-3m-21 3l-23 3m19 18l-5 16m5-16l18-3m-18 3l-20 2m15 14l-6 10m6-10l16-2m-16 2l-17 2m11 8h-12m12 0l13-2 9-10m-22 12l-6 1m-6-1h-6m6 0l1-8m-7 8l3 1h9m-12-1h-7M28 216l1-24m-1 24l1 23m-1-23l-14-8m14 8l16 3m-15-27l6-23m-6 23l17 4m-11-27l9-24m-9 24l16 4m-7-28l12-24m-12 24l14 6m-2-30l15-23m-15 23l13 7m2-30l18-22M71 98l11 8m7-30l19-19M89 76l8 7m11-26l21-13m-21 13l6 6m15-19l3 3m42 5l22 16m-22-16l-3 2m25 14l22 15m-22-15l-4 3m26 12l19 14m-19-14l-7 3m26 11l17 14m-17-14l-8 4m25 10l13 16m-13-16l-10 5m23 11l10 18m-10-18l-11 5m21 13l6 20m-6-20l-12 5m18 15l3 23m-3-23l-12 6m15 17l8-7m-8 7l-3 24m3-24l-13 6m24-48v5l2 18v5m0 0l-5 7m5-7l-2-22m2 22l-2 25m-3-18l-2 24m0 0l-9 7m9-7l5-6m-5 6l-6 26m-3-19l-6 25m6-25l-12 6m6 19l-12 5m12-5l9-6m-9 6l-10 24m-2-19l-9 25m9-25l6-24m-6 24l-16 6m7 19l-14 4m14-4l11-6m-11 6l-12 22m-2-18l-11 22m11-22l7-23m-7 23l-18 5m7 17l-15 4m15-4l13-4m-13 4l-13 18m-2-14l-11 17m11-17l8-21m-8 21l-18 3m7 14l-14 3m14-3l13-3m-13 3l-12 11-11 2m9-10l7-17m-35 30l9-1m89-238l-13-9m13 9l3 5m-3-5l-12-9-2-2-5-3m19 14l8 8 6 7 4 4m0 0v5m0-5l2 3 8 12 1 2m-11-17l-15-14m15 19l-15-14m15 14l11 17m-34 0l-14 5m14-5l-12-16m12 16l9 18m-23-13l-18 4m18-4l-11-17m11 17l7 19m-25-15l-19 4m19-4l-8-17m8 17l7 19m-26-15l-7-18m7 18l4 19m-48-14l-22 2m22-2l-1-18m1 18l1 19m-23-17l-23 1m23-1l-1 19m1-19l1-19m-24 20l-21 1m21-1l-2 20m2-20l4-19m-25 20l-19-1m19 1l-4 20m4-20l7-20m-26 19l-18-2m18 2l-7 21m7-21l8-21m-26 19l-7 22m7-22l11-23m-44-8l14-24m-14 24l-11 25m11-25l-4-19m18-5l18-22M39 96l-3-18m21-4l21-18M57 74l-3-15m24-3l23-13m0 0l24-6m43 18l18 18m-18-18l3-1m-3 1l-3 1m21 17l17 16m-17-16l6-2m-6 2l-7 2m24 14l15 16m-15-16l-10 3m10-3l8-3m7 19l13 15m-13-15l11-4m-11 4l-13 3m26 12l13-4m-13 4l-15 4m33 32l5 21m-5-21l16-6m-16 6l-18 4m23 17l2 22m-2-22l17-6m-17 6l-19 4m21 18l-2 24m2-24l17-5m-17 5l-20 5m18 19l-5 25m5-25l17-5m-17 5l-19 5m14 20l-18 4m0 0l-22 4m22-4l4-24m-4 24l-7 24m-15-20l3-24m-3 24l-4 23m-43-17l-24 1m24-1l1-24m-1 24l-1 23m-23-22l-24 2m24-2l1 23m-1-23l-1-24m-23 26l-23 1m23-1l2 23m-2-23l-2-24m-21 25H69m22 0l4 22m-4-22l-3-24m-19 24l-18-1m18 1l7 22m-7-22l-3-23m-15 22l-16-4m16 4l7 20m-7-20l-5-23m-11 19l-12-9m12 9l9 19m-9-19l-6-22m-6 13l-6-21m6 21l10 18m-10-18l-9-15-6-20m9 14l-3-23m3 23l12 8m-12-8l-9-14m6-9l-8-14m2-24l-5-21m5 21l-2 24m2-24l6-25m-11 4l7-24m-7 24l-2 24m2-24v-25m7 1l11-24m-11 24l4 20m-4-20v-24m11 0V79m0 22l15-23m-15 1l4-20m-4 20l-11 22m11-22l15-20m-11 0l14-17M25 59L14 79m11-20l8-15m6-2l18-12M39 42l-3 17m3-17l7-14m11 2l21-7m-21 7l-3 14m3-14l6-12m15 5l23-1m-23 1l-2 10m2-10l4-9m19 8l24 5m-24-5l-2 6m2-6l3-6m21 11l-1 3m1-3l1-3m50 24l25 13m-25-13v-2m25 15l23 14m-23-14v-4m23 18l22 12m-22-12v-5m22 17l18 14m-18-14v-4m18 18v-5m26 36l7 20m-7-20v-5m7 25v-6l-6-15-1-4m-19 91l2-24m-38 34l-23 4m23-4l1-24m-24 28l1-24m-50 30l-26 1m26-1v-24m-26 25l-25 2m25-2v-24m-25 26l-24 1m24-1l-1-24m-23 25l-22 1m22-1l-1-24m-21 25l-20-1m20 1l-2-24m-18 23l-17-3m17 3l-2-23m-36-2l-5-21-2-23m7 44l-2-23m-5-21l5 21m-5-21v-25l2-24m0 0l7-23m-7 23l5-23 6-22m-4 22l4-22m22-20l18-15M36 59v19m18-34l22-11M54 44v15m22-26l23-5m0 0l25 2m37-2l11-1m-11 1l4 3m-4-3l-4-2m15 1l10 6m-10-6l-9-6m9 6l7 6m3 0l9 6m-9-6l-9-6-4-3-5-3-7-5-2-1-10-5-1-1m47 30l2 1 10 8m-12-9l-10-5-2-1m24 15l8 6m-8-6l-3-2-14-8m17 10l7 5 2 2 4 2m-5-3l5 3m-5-3l7 6m-7-6l-14-8-3-1-2-1m24 13l8 6v1l13 9m-21-16l6 5 7 5m8 6l5 4m-5-4l-8-6m8 6l6 5m-1-1l3 2 3 3m0 0l-5-4m21 18l-16-12-2-1m51 116l-1 4-5 19-1 3m0 0l-4 6m-11 25l-8 5m8-5l11-25m-83 91l-10 3-10 2h-1m21-5l13-10 2-1m-36 16l-10 2m10-2l-3 1-7 1m-28 0l-13-1m13 1l-2-8m-11 7l-13-2m13 2l-6-7m-7 5l-9-6m9 6l-11-4-12-5m14 3l-14-3m14 3l16 1m-16-1l-7-13m-7 10l-11-12m11 12l-13-5m2-7l-8-17m8 17l18 2m-18-2l-15-4m7-13h19m-19 0l-18-3m6-66l2-23m-2 23l23-1m-23 1H44m22-23l3-22m-3 22l22-1m-22 1H46m23-22h22m-22 0l-18-1m33-41l11-21m-11 21l18 2m-18-2l-15-4m26-17l12-22m-12 22l14 3m-14-3l-13-5m25-17l14-21m-14 21l-10-6m10 6l11 4m3-25l14-18m-14 18l7 4m-7-4l-7-5m21-13l4 2m-4-2l-3-3m43-4l-1-3m1 3l1 3m-1-3l24 10m0 0l5 2 18 10m-23-12l-3-4m3 4l2 4m21 8l2 2 19 11m-21-13l2 5m-2-5l-4-5m25 18l3 5m0 0l-22-13m20 46l-15-15m-13 23l-18 3m18-3l-11-16m-7 19l-7-16m-31 21l-20 1m20-1l-2-18m-18 19l-20 1m20-1l2-18m-22 19h-18m18 0l5-19m-23 19l7-20m-40 14l13-22M36 78l18-19m28-45l7-7m-7 7l-19 4m19-4l22 2M89 7l8-4m-8 4l-18 3m18-3l19 4M97 3l17 5M97 3L82 4m15-1l10-2m7 7l18 13M114 8l-6 3m6-3l7-1m11 14l-3 1m3-1l3-1m36 34l21 17m0 0l19 15m0 0l18 15m36 49l6 21m0 0l2 23m-49 82l-19 3m0 0l-7 21m-37-15l-22 1m22-1l-1 20m-21-19l-23 2m23-2l1 20m-24-18H95m21 0l4 19m-25-19l7 19m-44-22l-14-5m14 5l11 16m-25-21l11 13 1 1m-12-14l-11-10M14 79l9-17 1-3 1-1 8-14m0 0l13-16m0 0l17-10M46 28l10-9 9-5 6-4m-8 8l8-8m0 0l11-6m26 7l21 11m-21-11l-4 5m25 6l-3 2m45 13l1 1 15 4 5 2m-21-7l-3-3m3 3l3 3m18 4l4 5m-4-5l-6-6m10 11l-3-2-19-7m22 9l5 2 17 9m-17-3l-24-11h-1m25 11l1 1 22 12m-45 5l-7 1m7-1l-14-19m14 19l14 17m-21-16l-11-19m11 19l10 18m-28-17l-8-1m8 1l-2-21m2 21l3 19m-11-20l-9-2m9 2l-2 20m2-20l2-21m-11 19l-9-2m9 2l-6 21m6-21l6-20m-15 18l-10 21m10-21l11-20m-25 11L97 83m17-20l18-16m-28-31l22 8m-5-17l14 13M121 7l-14-6m14 6h7m7 13h4m29 14h1l13 3 4 1m-18-4l-3-3m0 25l-4 1m-9-1l-4-1m0 0l-5-1m0 0l-4-2m0-32h4m-4 0L128 7m65 85l12 16m-12-16l-11 2m23 14l-14 3m40 49l4 21m-4-21l-22 4m26 17l1 23m-1-23l-23 4m24 19l-23 4m-53 97l-20 1m20-1l-2 16m-18-15l-20 1m20-1l2 15m-22-14h-18m18 0l5 14m-56-20l9 8 4 3m-13-11l-13-7m-12-75l2-23m0 0l5-23m31-67l15-23m121-23l11 7M82 4l13-2 12-1m0 0h11m10 6l9 2m-9-2l-2-1-8-5m19 8l9 3m-9-3l-6-5m6 5l6 11h0m3-8l2 10m-2-10l-2-3m2 3l8 4m-6 6l4 1m-4-1l-5-2m14 76l1 18m-1-18h-13m14 18l-16 1m20 54l1 22m-1-22l-24 2m25 20v23m0-23l-26 2m26 21l-26 1m21 106h-16m71-113l-1-23m-75 30l-26 2m26-2v-22m-26 24l-24 1m24-1l1-23m-25 24l1-23m-6 117l-11-8h0l-6-4-9-6m0 0l-10-10v-1l-5-4-8-9m85-177l13 2m-13-2l-9 21m22-19l13 1m-13-1l-6 20m19-19l-2 19m40-21l9 17m-5-73l-7-5m-14-2l14 2m-22-7l-5-3m5 3l6-5m-11 2l2-7M118 1l13 3m81 181l-3-21m-72 29l-25 1m25-1l1-22m-26 23l-24 1m24-1l2-21m-26 22l3-21m34 147h17m-28-148l24-2m-24 2l-23 1m34-59h17m-17 0l-16-1m54-93l-9-5M131 4l4 2 9 3"/></svg>