<svg xmlns="http://www.w3.org/2000/svg" fill="none" viewBox="0 0 287 304" style=""><defs></defs><path stroke="#9CFFDB" stroke-linecap="round" stroke-linejoin="round" d="M80 120l13-34 6-21 2-15 1-8 2-4 4-2 4-1 4 1 5 6 3 3 3 2 6 5 17 12M168 186l10 30 4 16 2 11-1 8-2 4v5l1 7v4l-1 2h-3l-5-4-1-2-4-2-6-5h-1M80 120l-2-30 4-16 7-12" class="SzltQSaf_0"></path><path stroke="#9CFFDB" stroke-linecap="round" stroke-linejoin="round" d="M205 240l-11 6-2 1h-1l-8 4h-2l-15 5M133 189l-20 3-13 3-3 4-5 4-7-1-4-1-1-2h-2v-7l-1-5-3-5-7-5-14-2-16-1H2l-1-1M243 141l5 19-7 30v2" class="SzltQSaf_1"></path><path stroke="#9CFFDB" stroke-linecap="round" stroke-linejoin="round" d="M102 223l18-6 19-10 29-21 10-34 4-23 2-21-1-29 16-12 17 5h18l11-2h4l11-3h7l4 1h1l-1-1-1-2-7 1h-1l-10 2h-3l-12 2-17-1-4 3-1 7 9 11 12 13 9 14 5 7v7l-1 14-1 15-13 11v17l2 18 2 7 2 6 1 2 2 5 1 3h1v1l1 3 1 2-1 1v3l-2 1h-1l-6-1-8-1h-4l-6-1-4-1-2-5-1-7 2-8 7-5 8-3 7-2 4 2v2l2 10 1 2 1 4v3l-2 2h-4l-7-9-10-11-13-14-7-15 7-15 15-3 11-5 6-10v-6l2-2 2-2v-1l2-2h0l1-1-1-3-3-1h0l-6-2-1-2-7-3v-1l-10-6h0l-15-12-22-26-2-25V36l1-14v-8l3-3 1-2-1-7-2-1h-1l-4 6-6 10-8 12-10 13-10 7h-11l-2-1-1-1-1-1-3-2-3-3-3-2-2-2-5-4-3-3-2-1h-3l-2 2 1 7 1 11 2 15-1 20 2 16 9 7 11 1 9-5 11-3 9 2 3 8v10l-3 10 9 13 12 9 17-2 18-7 14-3 10-2 6-2 2-3-1-2-3-3h0l-4-2-2-1-4-3h-1v-9h-1l-15-15-31-19-32 4-22 7-21 10-28 20-11 34 8 10-3 18 3 17v1l1 2 1 2 5 7 12 2 14-4 15-9 14 7 4 16v34l1 11 1 7-3 3-2-1-2-4-1-2-1-2-3-7-4-7-3-5-12-14-12-13zm0 0l-22 3H59l-9-11-9-13-3-10-2-2-1-1-3-1-10-5-7-3h-1l-3-2-7-2-3-2v-3h0l5-3 1-1 1-1 8-5 3-1 3 2 13-7 18-12 27-23 28-2 15-3 8-2 4-2 2 2 3 2 4 3-1 7v27l-4 15-14 11-16 7-12 6-8 5-5 3-3-1-2-3v-18l5-6v-18l-4-33-21-18-14-13-12-8-6-6-2-4v-3l2-2h3l8 1 15 2 19-2 17-5 6-5v-1l1-2 2-8 2-4 1-6v-3l2-5 1-1h2l2 1 1 1 3 6 6 10 9 11 13 14 11 13 1 10-4 7-2 4v6l3 2 4 3 7 5 10 5 12 4 16 3 16 1h31l2 1" class="SzltQSaf_2"></path><path stroke="#9CFFDB" stroke-linecap="round" stroke-linejoin="round" d="M37 116l-5-17-7-13-6-9-3-7v-1M38 134l-1-18 4-3 9-4 9-7 5-13 3-13 5-9 1-3 18-6 4-2" class="SzltQSaf_3"></path><path stroke="#9CFFDB" stroke-linecap="round" stroke-linejoin="round" d="M55 124l-5-15-11-15-9-11-7-8-4-6h-3M235 171l-15 6-18 5-34 4-29-19-19-13-18-14-22-20-25 4-9 15-13 11-2 2-11 8h-1l-1 1-8 5-6 4-2 4M78 237l-8-3-6-2H48l-3-4-6-7-5-8-2-8v-4l3-12M133 276l-12 11h-9l-7-3-4-2h-2M155 27l11-10h2l6-9 4-1 3 3 1 4M146 56l14 2M157 246l-5 13-4 10-3 6 1 4" class="SzltQSaf_4"></path><path stroke="#9CFFDB" stroke-linecap="round" stroke-linejoin="round" d="M59 226l-14 2-12 4-6 2-4-1-3-2-1-4 6-9 1-3 5-12 1-2M108 118l9-11 17-9 18-5 14 2 5 12-1 18-4 18-9 12 11 31-11 34-5 21-3 15-2 9-3 3-4 3h-3l-2-1h0l-4-6h0l-5-5v-1l-2-2-1-2-4-3-2-1-9-3-28-21-24-22-3-3 1-9-1-17 1-18-1-14-7-4-9 3-4 4-4 4-3 3-8 6-2 2" class="SzltQSaf_5"></path><path stroke="#9CFFDB" stroke-linecap="round" stroke-linejoin="round" d="M157 155l-14-3-15-11-14-11-6-12M133 189l-8-11-15-12-14-10-12-3M79 239l-1-1-11-4H51l-15 1h0l-11 2-7 1-2-1v-1l4-5 6-8-1-5 7-13 3-11 1-4M214 98l10-8 16-7 13-7 9-5 5-4 3-2M160 58l8-10 5-15 4-13 4-10 2-6 2-2" class="SzltQSaf_6"></path><path stroke="#9CFFDB" stroke-linecap="round" stroke-linejoin="round" d="M26 223l8-10 7-11 1-7M241 149l7 11 1 12 1 17 6 18 6 12-2 4-3 6-4 5-6-1M205 105l12 4 5 5 5 5 3 2v1M102 223l-6-10-5-6-4-3-5-1" class="SzltQSaf_7"></path><path stroke="#9CFFDB" stroke-linecap="round" stroke-linejoin="round" d="M214 98l3 11 5 5 6 5 2 2M109 199H84l-3 2h-2M191 250l-3 11-2 9-1 6h-1l-3-3-4-5-4-6-5-5" class="SzltQSaf_8"></path><path stroke="#9CFFDB" stroke-linecap="round" stroke-linejoin="round" d="M238 238l-10-3-14-4-16-2-16 3-12 8-10 12-6 11-1 1-4 9-3 6h-2l-1 1" class="SzltQSaf_9"></path><path stroke="#9CFFDB" stroke-linecap="round" stroke-linejoin="round" d="M226 238l-11 1-6 2-17 6v1h-1 0-1l-7 3h-2l-12 6h-1l-6 3v0h-1l-3 2M251 120l10 4 11 2 9 2 5 1M135 270l-8 6-10-1-10-4-8-3h-3" class="SzltQSaf_10"></path><path stroke="#9CFFDB" stroke-linecap="round" stroke-linejoin="round" d="M104 294l1-10 2-13-1-14 2-10M93 86l-4-8 2-13 4-8M124 256l-1-2-3-2-2-2-10-8-28-16-25-19-2-2-7-8-3-3-5-3-3-2-3-1M185 2l1 6v1l2 12 2 10 1 5 3 8 2 7 4 5 6 8 2 1M157 130l-5 7-9-1-10-5-7-8-3-8 5-7 6 1 6-4M166 17h0l6-6 2-3 1-1 4-4 3-2M190 248l-3 8-2 8v8l-1 4h-1 0l-1 1-4-4-4-2-4-4-2-2M108 242l6-6 14-5 15-8 14-3 9 8 4 12 1 10-9 7-2 1M109 199l4-7-4-7-9-8-9-5-7-1" class="SzltQSaf_11"></path><path stroke="#9CFFDB" stroke-linecap="round" stroke-linejoin="round" d="M131 264l-8-1-17-6-13-6h-4M157 246l-5-5-9 1-10 4-7 4-3 4M100 195l-7 2-4 2-4 3-3 1-1-1M130 42h0l1-1 1-1 4-5 2-5 3-2 5-1 4 3h0M78 192l1-2v-4l3-4 2-11M16 233l3-6 2-4M250 131l5 3 9-1 9-1h12l1 1M241 190l-6-2-11 5-15 4-12 7-2 13 3 12 2 9 5 2 12-2 3-1" class="SzltQSaf_12"></path><path stroke="#9CFFDB" stroke-linecap="round" stroke-linejoin="round" d="M137 273l-4 3h-6l-9 11-6 9-4 5-2 1h-1l-2-2 1-6-2-4-1-8-2-14-6-17-13-25 4-15v-6M35 189l2-5v-21l-2-8-4-3-5 1" class="SzltQSaf_13"></path><path stroke="#9CFFDB" stroke-linecap="round" stroke-linejoin="round" d="M126 259l-3 4-6 12-5 12-4 9-3 6h0l-1 1-1-2v-1l-2-6v-1l-2-11-3-14-7-17-10-12-1-2 2-11-9-24-2-3-2-22 2-23" class="SzltQSaf_14"></path><path stroke="#9CFFDB" stroke-linecap="round" stroke-linejoin="round" d="M100 195l-3-4-5-5-5-3-5-1M78 193v0l-1-6 2-10-2-13 7-11M227 145l5 1 5-1 4-2h0M266 225l1 5-1 4-4 3h-5l-8-1M278 125l3 3v4l-2 3-6 2-8 4-1 7-3 3M11 178l-1-4 1-5 3-3 8-4M188 261l-3 3-3 3-5 1-5-1-8-6-2-1M67 234l-3-2-5-6M93 197l-4-1-4-3-3-3-1-2 1-6" class="SzltQSaf_15"></path><path stroke="#9CFFDB" stroke-linecap="round" stroke-linejoin="round" d="M247 237h-4l-6-3-10-4-14-6-18-7-17-1-12 12-9 18 3 6v6l-2 3v1l-4 5-5 7-3 5-2 1h-1M272 68l-1 3-1 2-3 5-1 3M16 236v-3l3-6h0l2-4 4-6 1-2M22 183v-21M182 1l1 3 2 7v11l2 14 3 17 9 14M18 66l1 3 6 2 10 5 13 6 16 7 14 1 11-12 6-17h1l2-11 1-3 2-9v-1l2-6v-3" class="SzltQSaf_16"></path><path stroke="#9CFFDB" stroke-linecap="round" stroke-linejoin="round" d="M271 68v3h0l-4 6-7 9-8 13M154 267l-1-3-1-5-3-3-6 1-5 3-5 2-2 2M1 171l3-1 7-1 11-2 15-4 17-6 15-3M32 99l2-2 5-3 6-5 3-7 3-8 2-5v-2M51 234l-3-2-13 2-10 2-6 1-3-1M192 247l-1 3-4 6-6 4-8 2-9-1-2-1M237 70l-3 2 1 4 5 7 7 8 5 8-7 18-4 11M286 129l-1 3-4 4-8 4v1l-1 2M138 109l2 1 2 1 3 2 3 4-1 3 2 6 3 11 5 18M18 66l2-1 7 1h1l10 2M245 138l-2 2-4 1-7 5-10 9-13 12" class="SzltQSaf_17"></path><path stroke="#9CFFDB" stroke-linecap="round" stroke-linejoin="round" d="M251 68l-2 2v2l4 4 4 5 3 5 2 2M149 106v6l-1 5 4 5 5 8M80 199l1-1 4-5 7-7 8-9 10-11 10-12 8-13 5-10 5-9 2-7 2-4 2-2M78 198l-1 1h-8l-15-7-17-8-15-5-11-1M243 220l-2-1-4 2-5 1-5 3v5l1 5v3M256 205v2l-4 7-5 10-2 2M144 279l-2-1-2-7-2-11-5-14-5-15-8-14-10-8-10-4-8-2-5 1-5-1-1-1M251 187l-1 2-5 13-4 8M25 86l1-1 4-2 3-2 2-5 1-5 2-4h16l8-1 11-2" class="SzltQSaf_18"></path><path stroke="#9CFFDB" stroke-linecap="round" stroke-linejoin="round" d="M104 27l1 2 3 7 4 11 5 13 6 16 6 14 5 8 3 5 3 2 6-1 6 1 2 4-1 6-1 7-3 4-6-1-5-3-5-4-2-5 3-4h4l4-2 4-1h3l3-1 5-3 9-7 17-16h32l20-3 14-4 8-2 5 1 4 2 1 4-1 4-4 7-6 14-3 12-2 6v1l4 13 1 14-8 12-7 30v6l4 6 7 12 8 9 7 7 4 3 1 2-1 2h0l-5-3-9-5-10-5-3-2M18 238l1-1 4-4 7-5 9-7 11-6 5-8" class="SzltQSaf_19"></path><path stroke="#9CFFDB" stroke-linecap="round" stroke-linejoin="round" d="M36 235l-1-1-2-2-3-4-4-5M247 132v4l-4 4h0l-2 2-4 3-1 2-6 6-8 2-7-3-18 12-29 22-35 3-8 11-16-1-9 6-9 2-7-2-2-2-1-1h0l-2-1v-1 0l-1-1 1-4 3-5 5-7 4-11 5-16 6-16 12-10 12-7 7-5 4-5 3-3 3-2 3-1 3 1 5 1 6 1 11-3 13 1 16 6 16 9 12 4 10 2M271 67v1l-5 5-9 8-10 10-11 12-6 10M149 274v-1l-1-4-1-4M271 237h0l-4 1h-7l-3-1M137 39l3-2 1-1 4-2 2-2h1l2-2h0l5-3 2 1 11-11h4l5 3 5 2h3l3-1" class="SzltQSaf_20"></path><path stroke="#9CFFDB" stroke-linecap="round" stroke-linejoin="round" d="M126 44l4-2h1v-1l6-2h5l7-5 2-2 6-4 7 1 9 4 8 3h11l6 15 1 2 8 11 1 1 12 4M230 238h-2l-12-2-16 2-16 5-13 7-5 6-4 3h-1l-3 2M255 116l1 1 5 7 3 9 1 8-9 7-1 9v1" class="SzltQSaf_21"></path><path stroke="#9CFFDB" stroke-linecap="round" stroke-linejoin="round" d="M253 114l2 2h1l9 5h1l2 1 5 2 5 1 5 3 3 1v4l-4 3-1 1-8 5-1 1-8 6-3 2-6 6v1l-6 12 2 17 5 18 6 13v1l4 6 2 2 3 6v4l-1 1h-3l-5-1-9-3-4 2h-1M37 142l1-3 5-11 12-4M129 46l12-6 1-1 12 3 14 6 13 6 9-1 6-2 3 2" class="SzltQSaf_22"></path><path stroke="#9CFFDB" stroke-linecap="round" stroke-linejoin="round" d="M33 146l1-4 4-8 5-6-2-15-7-16-8-12-6-10-4-6v-2l2-1 7 2 11 3 15 3 16 2 15-2 9-9M241 144l-2 2-2 4-7 3-6 11-4 13 4 16 6 15 7 13 6 10 4 6v2M133 49l7 3 6 4 4 8 33 15M121 287h0l-5 6-3 3-3 3-2 2-3 1-1 1M256 117l9 4 3 1 4 4 1 6v9l-9 7-4 4-3 3-2 2" class="SzltQSaf_23"></path><path stroke="#9CFFDB" stroke-linecap="round" stroke-linejoin="round" d="M116 293l-1 1-3 2h-4l-4-2M130 42l4-5 2-2 5-1h4M116 293l-3 3-3 3-2 2M143 280l-1-1-2-2-2-3-1-1-1-1-1-2M248 135l-1 1h-4l-4 5h-4l-8 4-12 7M172 11l2-3 2-2 3-3M186 9l1 2 1 10v1l4 14h0M247 239h0l-2 1-7-2-1-4-2-4-8-5-12-9-18-12-29-18M191 248h-1l-1 1-6 4-2 2-12 2M53 201l-9-6-1-1-5-2" class="SzltQSaf_24"></path><style data-made-with="vivus-instant">.SzltQSaf_0{stroke-dasharray:319 321;stroke-dashoffset:320;animation:SzltQSaf_draw 5000ms linear 0ms forwards;}.SzltQSaf_1{stroke-dasharray:249 251;stroke-dashoffset:250;animation:SzltQSaf_draw 5000ms linear 0ms forwards;}.SzltQSaf_2{stroke-dasharray:2688 2690;stroke-dashoffset:2689;animation:SzltQSaf_draw 5000ms linear 0ms forwards;}.SzltQSaf_3{stroke-dasharray:161 163;stroke-dashoffset:162;animation:SzltQSaf_draw 5000ms linear 0ms forwards;}.SzltQSaf_4{stroke-dasharray:557 559;stroke-dashoffset:558;animation:SzltQSaf_draw 5000ms linear 0ms forwards;}.SzltQSaf_5{stroke-dasharray:548 550;stroke-dashoffset:549;animation:SzltQSaf_draw 5000ms linear 0ms forwards;}.SzltQSaf_6{stroke-dasharray:372 374;stroke-dashoffset:373;animation:SzltQSaf_draw 5000ms linear 0ms forwards;}.SzltQSaf_7{stroke-dasharray:193 195;stroke-dashoffset:194;animation:SzltQSaf_draw 5000ms linear 0ms forwards;}.SzltQSaf_8{stroke-dasharray:113 115;stroke-dashoffset:114;animation:SzltQSaf_draw 5000ms linear 0ms forwards;}.SzltQSaf_9{stroke-dasharray:122 124;stroke-dashoffset:123;animation:SzltQSaf_draw 5000ms linear 0ms forwards;}.SzltQSaf_10{stroke-dasharray:153 155;stroke-dashoffset:154;animation:SzltQSaf_draw 5000ms linear 0ms forwards;}.SzltQSaf_11{stroke-dasharray:555 557;stroke-dashoffset:556;animation:SzltQSaf_draw 5000ms linear 0ms forwards;}.SzltQSaf_12{stroke-dasharray:309 311;stroke-dashoffset:310;animation:SzltQSaf_draw 5000ms linear 0ms forwards;}.SzltQSaf_13{stroke-dasharray:194 196;stroke-dashoffset:195;animation:SzltQSaf_draw 5000ms linear 0ms forwards;}.SzltQSaf_14{stroke-dasharray:208 210;stroke-dashoffset:209;animation:SzltQSaf_draw 5000ms linear 0ms forwards;}.SzltQSaf_15{stroke-dasharray:233 235;stroke-dashoffset:234;animation:SzltQSaf_draw 5000ms linear 0ms forwards;}.SzltQSaf_16{stroke-dasharray:416 418;stroke-dashoffset:417;animation:SzltQSaf_draw 5000ms linear 0ms forwards;}.SzltQSaf_17{stroke-dasharray:462 464;stroke-dashoffset:463;animation:SzltQSaf_draw 5000ms linear 0ms forwards;}.SzltQSaf_18{stroke-dasharray:487 489;stroke-dashoffset:488;animation:SzltQSaf_draw 5000ms linear 0ms forwards;}.SzltQSaf_19{stroke-dasharray:557 559;stroke-dashoffset:558;animation:SzltQSaf_draw 5000ms linear 0ms forwards;}.SzltQSaf_20{stroke-dasharray:583 585;stroke-dashoffset:584;animation:SzltQSaf_draw 5000ms linear 0ms forwards;}.SzltQSaf_21{stroke-dasharray:248 250;stroke-dashoffset:249;animation:SzltQSaf_draw 5000ms linear 0ms forwards;}.SzltQSaf_22{stroke-dasharray:295 297;stroke-dashoffset:296;animation:SzltQSaf_draw 5000ms linear 0ms forwards;}.SzltQSaf_23{stroke-dasharray:420 422;stroke-dashoffset:421;animation:SzltQSaf_draw 5000ms linear 0ms forwards;}.SzltQSaf_24{stroke-dasharray:274 276;stroke-dashoffset:275;animation:SzltQSaf_draw 5000ms linear 0ms forwards;}@keyframes SzltQSaf_draw{100%{stroke-dashoffset:0;}}@keyframes SzltQSaf_fade{0%{stroke-opacity:1;}95.65217391304348%{stroke-opacity:1;}100%{stroke-opacity:0;}}</style></svg>