<svg xmlns="http://www.w3.org/2000/svg" fill-rule="evenodd" clip-rule="evenodd" image-rendering="optimizeQuality" shape-rendering="geometricPrecision" text-rendering="geometricPrecision" viewBox="0 0 18.17 18.16"><path fill="none" stroke="#9cffdb" stroke-miterlimit="22.9256" stroke-width=".07" d="M.6 12.28c.08.15.14.3.19.45m-.55-1.66c.51.62.96 1.27 1.1 2.02.04.25.05.5.04.75M.11 10.35c.69.88 1.46 1.74 1.65 2.77.07.42.05.83-.03 1.25M.03 9.49c.69 1.23 1.87 2.32 2.1 3.67.09.53.03 1.07-.09 1.61m.95-12.4c-.01.02-.02.05-.03.07C2.33 4.23.23 5.99.22 7.97c-.01 1.92 1.96 3.4 2.25 5.26.1.62.03 1.26-.12 1.91M3.46 1.97c-.01.27-.06.55-.15.83C2.75 4.55.95 6.22.93 8.12c-.02 1.85 1.61 3.39 1.86 5.19.09.7.02 1.43-.12 2.17M3.8 1.71c.01.51-.04 1.01-.17 1.5-.47 1.7-1.93 3.27-1.96 5.09-.03 1.76 1.21 3.36 1.41 5.1.09.78.04 1.59-.06 2.41M4.14 1.48c0 .74-.04 1.48-.19 2.16-.36 1.64-1.47 3.13-1.52 4.85-.04 1.69.79 3.33.94 5 .07.87.06 1.76.03 2.65M4.51 1.25c-.04.97-.1 1.93-.25 2.84-.25 1.57-1 2.99-1.05 4.59-.09 2.55.31 5.15.56 7.74M4.91 1.03c-.31 2.62-.81 5.23-.93 7.85-.07 1.59-.09 3.22-.07 4.82.02 1.04.19 2.05.37 3.06M5.4.79C5.17 2.18 4.9 3.56 4.89 5c-.02 1.34-.07 2.73-.13 4.07-.09 1.58-.54 3.14-.57 4.72-.02 1.13.29 2.19.6 3.27M5.94.57c-.35 1.61-.8 3.18-.73 4.86.04 1.26.37 2.57.3 3.83-.08 1.6-.94 3.04-1.03 4.63-.07 1.2.4 2.31.85 3.44M6.48.39c-.46 1.8-1.15 3.59-.94 5.43.13 1.19.76 2.4.7 3.61-.07 1.63-1.32 2.94-1.46 4.55-.12 1.25.53 2.41 1.11 3.58M7.04.24c-.55 1.94-1.52 4-1.15 5.92C6.1 7.3 7 8.37 6.95 9.57c-.07 1.67-1.65 2.85-1.85 4.48-.15 1.3.68 2.5 1.38 3.71M7.6.13c-.62 2.03-1.84 4.36-1.34 6.31.28 1.12 1.39 2.03 1.35 3.25-.06 1.73-1.92 2.77-2.16 4.42-.19 1.35.81 2.57 1.61 3.8M8.14.06c-.65 2.08-2.09 4.63-1.49 6.59.34 1.12 1.6 1.85 1.57 3.13-.04 1.77-2.12 2.69-2.38 4.37-.22 1.4.92 2.62 1.79 3.87m1.03-18C8 2.12 6.42 4.82 7.07 6.77c.39 1.14 1.74 1.71 1.71 3.05-.04 1.83-2.23 2.64-2.52 4.36-.23 1.44 1.02 2.65 1.92 3.92M9.15.01c-.66 2.1-2.25 4.82-1.6 6.76.39 1.16 1.76 1.68 1.73 3.05-.04 1.85-2.26 2.62-2.54 4.36-.24 1.48 1.05 2.68 1.96 3.95M9.61.03C8.97 2.1 7.49 4.75 8.1 6.66c.38 1.17 1.75 1.75 1.72 3.12-.04 1.86-2.29 2.65-2.57 4.4-.23 1.47 1.05 2.68 1.95 3.96M10.06.06C9.44 2.09 8.13 4.6 8.7 6.47c.36 1.19 1.73 1.86 1.69 3.24-.05 1.88-2.33 2.69-2.61 4.47-.23 1.46 1.03 2.67 1.91 3.94m.8-18C9.92 2.07 8.83 4.39 9.33 6.2c.35 1.23 1.72 2 1.67 3.39-.07 1.93-2.39 2.76-2.68 4.57-.23 1.45.99 2.65 1.85 3.92M10.92.19c-.5 1.86-1.36 3.96-.91 5.69.33 1.27 1.69 2.16 1.63 3.57-.09 1.97-2.45 2.84-2.75 4.7-.23 1.43.93 2.61 1.75 3.86M11.35.29c-.41 1.73-1.03 3.61-.64 5.22.32 1.32 1.67 2.34 1.59 3.79-.12 2.02-2.52 2.93-2.84 4.84-.23 1.4.85 2.55 1.64 3.78m.69-17.5c-.31 1.57-.72 3.25-.36 4.7.33 1.35 1.64 2.54 1.54 4.01-.15 2.08-2.6 3.03-2.93 5-.23 1.37.76 2.49 1.5 3.67M12.26.58c-.19 1.39-.4 2.84-.1 4.11.33 1.43 1.58 2.73 1.5 4.26-.13 2.13-2.68 3.14-3.03 5.16-.23 1.33.66 2.41 1.35 3.56m.8-16.88c-.07 1.19-.12 2.39.12 3.48.32 1.49 1.55 2.92 1.44 4.5-.15 2.18-2.75 3.25-3.13 5.33-.22 1.27.56 2.31 1.21 3.41m.95-16.43c.03.95.09 1.89.26 2.77.31 1.56 1.51 3.09 1.4 4.74-.15 2.24-2.83 3.36-3.23 5.49-.22 1.21.45 2.21 1.04 3.25M14.06 1.5c.09.66.18 1.31.3 1.94.3 1.63 1.48 3.27 1.35 4.98-.16 2.29-2.91 3.46-3.32 5.65-.22 1.13.34 2.08.87 3.06M14.88 2.1c.06.32.12.64.18.95.29 1.7 1.45 3.44 1.31 5.2-.18 2.35-2.97 3.56-3.41 5.8-.21 1.05.24 1.94.71 2.85m2.12-13.93c.34 1.67 1.37 3.42 1.23 5.14-.21 2.39-3.04 3.64-3.5 5.92-.19.96.16 1.79.55 2.62M17 4.64c.36 1.12.73 2.24.63 3.35-.21 2.43-3.09 3.72-3.56 6.03-.17.85.07 1.61.4 2.35m3.66-7.95c-.55 2.14-3.08 3.43-3.52 5.6-.15.73 0 1.4.25 2.05m3.28-6.49c-.95 1.5-2.66 2.68-3.02 4.44-.12.6-.04 1.16.13 1.7m2.81-5.36c-.95 1.16-2.15 2.22-2.44 3.66-.09.45-.07.89.03 1.31m2.28-4.23c-.78.9-1.56 1.8-1.78 2.92-.06.27-.07.54-.05.8m1.53-2.7c-.41.57-.75 1.16-.9 1.84"/></svg>