<svg xmlns="http://www.w3.org/2000/svg" fill="none" viewBox="0 0 512 487"><mask id="a" width="512" height="487" x="0" y="0" maskUnits="userSpaceOnUse"><path fill="#FFF8E2" d="M0 0h512v487H0z"/></mask><g mask="url(#a)"><path fill="#FFFCF3" d="M0 1.44092h512v485.559H0z"/><g filter="url(#filter0_f)"><path fill="#FFE39C" fill-opacity=".23" d="M-57.6954 610.672c70.4245 0 127.5149-57.091 127.5149-127.515S12.7291 355.643-57.6954 355.643c-70.4246 0-127.5146 57.09-127.5146 127.514 0 70.424 57.09 127.515 127.5146 127.515z"/></g><g filter="url(#filter1_f)"><path fill="#FFE39C" fill-opacity=".23" d="M425.515 141.139c70.425 0 127.515-57.0901 127.515-127.5143 0-70.4242-57.09-127.5147-127.515-127.5147S298-56.7995 298 13.6247c0 70.4242 57.09 127.5143 127.515 127.5143z"/></g><path stroke="#FFEF9C" stroke-miterlimit="10" stroke-opacity=".14" stroke-width="2" d="M492.908 428.991c-6.283 6.82-12.963 13.262-20.007 19.292-11.302 9.781-23.216 18.831-35.67 27.095-13.207 8.153-26.851 15.577-40.871 22.237-12.023 5.514-24.443 10.119-37.156 13.776-10.997 3.266-22.159 5.947-33.44 8.031-6.459.943-15.062 2.43-21.579 3.001-8.774.801-20.521 1.572-29.324 1.572-15.304.086-30.593-1.003-45.73-3.258-5.888-.829-13.691-2.258-19.493-3.544-6.431-1.401-15.005-3.373-21.264-5.402-5.316-1.715-12.49-3.858-17.749-5.716-5.259-1.858-12.519-4.63-17.692-7.003-4.687-2.143-10.975-4.801-15.491-7.231-4.516-2.429-10.347-5.402-14.662-7.888-4.316-2.487-9.832-5.716-13.92-8.575-12.965-8.371-25.2544-17.746-36.7551-28.038-6.7452-6.002-15.2053-14.662-21.4646-21.179-3.2011-3.315-7.1167-8.088-10.1178-11.432-3.001-3.344-6.9738-8.575-9.8319-12.519-2.8582-3.944-6.3737-9.06-9.1175-12.947-2.7438-3.887-6.0021-9.518-8.5744-13.633-2.8581-4.631-6.2593-11.033-8.74587-15.863-2.48658-4.83-5.34471-10.804-7.43115-15.548-2.51516-5.717-5.71626-13.576-7.80268-19.521-2.458-6.86-5.3733-16.149-7.3454-23.151-3.2869-11.747-6.0021-27.781-8.0028-39.814-4.8588-36.327 8.946-75.483 43.5294-112.21C104.002 57.205 289.38 14.8475 430.429 54.8613 289.409 14.8475 104.03 57.205 17.2287 149.323c-34.6119 36.727-48.4167 75.883-43.5579 112.21-2.0664-15.439-2.9359-31.015-2.6009-46.588.2001-12.633 1.2601-25.238 3.1725-37.727 2.3918-14.924 5.7233-29.682 9.9749-44.187 4.1873-13.93 9.46247-27.51 15.77690802-40.6138C6.8995 78.6025 14.591 65.1949 23.0308 52.2604c9.1403-13.1706 19.2073-25.6732 30.1247-37.4129C64.9661 2.35897 77.8063-9.11401 91.5402-19.4501c11.8718-8.8507 24.3018-16.9273 37.2128-24.1798 11.719-6.3793 23.867-11.9375 36.356-16.6344 14.09-5.1932 28.495-9.489 43.129-12.8616 11.059-2.5027 22.267-4.2974 33.554-5.3732 6.431-.4859 15.005-1.3148 21.436-1.4577 8.575 0 20.007-.2858 28.582.4859 6.145.5716 14.29 1.1718 20.407 2.0007 7.259 1.0289 16.891 2.8581 24.037 4.2014 13.237 2.8566 26.271 6.5899 39.013 11.1753 5.345 2.0579 12.547 4.6016 17.72 7.0025 9.175 4.23 21.322 10.1463 30.154 15.0909 4.258 2.4008 9.889 5.7163 13.919 8.5744 4.03 2.8581 9.117 6.1164 12.947 8.8602 3.83 2.7438 8.575 6.4594 12.204 9.3461 33.01 26.6008 60.069 59.8331 79.428 97.5481 2.715 5.3447 6.116 12.6044 8.574 18.0923 2.201 5.03 4.745 11.861 6.717 16.977 2.629 6.802 5.43 16.12 7.317 23.151 3.144 11.775 6.116 27.781 8.031 39.785 1.172 7.403 1.772 17.406 2.287 24.866.972 19.872.015 39.791-2.858 59.478-3.143 21.686-8.713 42.951-16.606 63.393-2.631 7.311-5.695 14.46-9.175 21.407-6.431 12.29-15.634 28.41-22.865 40.157-9.049 13.228-19.132 25.719-30.153 37.356v0z"/><path stroke="#FFEF9C" stroke-miterlimit="10" stroke-opacity=".14" stroke-width="2" d="M430.429 54.8617c-141.02-40.0139-326.398 2.3437-413.1999 94.4613C34.9781 282.398 163.851 422.761 305.1 462.86c86.773-92.06 142.993-275.152 125.329-407.9983zM279.891 41.0857c8.946 67.1093 73.94 137.9053 145.165 158.2263M131.583 75.0115C146.874 189.88 258.141 311.065 380.069 345.677M430.429 54.8616C317.561 87.3585 155.134 188.737 68.332 280.854M430.429 54.8616C374.524 149.38 258.426 301.204 171.625 393.322"/><path stroke="#FFEF9C" stroke-miterlimit="10" stroke-opacity=".14" stroke-width="2" d="M430.429 54.8616C448.121 187.708 391.902 370.742 305.1 462.86c141.249 40.014 241.398-35.298 223.678-168.344 86.773-92.118 42.643-199.6406-98.349-239.6544zM425.056 199.312c71.253 20.207 121.756-17.807 112.81-84.916M380.069 345.677c121.956 34.612 208.415-30.468 193.095-145.336M430.429 54.8616c86.458 134.9034 86.173 319.6254-.629 411.7424M430.429 54.8616C561.131 156.468 596.858 314.094 510.056 406.212"/><path stroke="#FFEF9C" stroke-miterlimit="10" stroke-opacity=".14" stroke-width="2" d="M430.429 54.8618c141.02 40.0139 185.149 147.5372 98.348 239.6542-17.72-133.074-146.594-273.4373-287.843-313.5369 86.745-92.1181 171.774-58.9061 189.495 73.8827zM537.866 114.311c-8.946-67.1093-73.94-137.9339-145.164-158.1123M573.164 200.341C557.873 85.4438 446.606-35.7125 324.678-70.3245M430.429 54.8618c112.839-32.497 134.046 16.0055 47.245 108.1232M430.429 54.8617c55.905-94.5184 30.753-96.462-56.048-4.3443"/><path stroke="#FFEF9C" stroke-miterlimit="10" stroke-opacity=".14" stroke-width="2" d="M430.429 54.8618C412.709-77.927 327.679-111.139 240.907-19.0209 99.6291-59.1205-.519932 16.3913 17.2005 149.323 104.002 57.2055 289.381 14.848 430.429 54.8618zM392.702-43.801c-71.253-20.2356-121.757 17.7776-112.811 84.8866M324.678-70.3245C202.722-104.937 116.263-39.8568 131.583 75.0116M430.429 54.8617C343.942-80.0422 202.979-114.883 116.177-22.7652M430.429 54.8618C299.698-46.7448 122.751-54.4904 36.0066 37.6272M17.1996 149.323c-86.8015 92.117-42.6719 199.612 98.3484 239.654 17.72 132.846 102.721 166.001 189.523 73.883-141.249-40.1-270.1224-180.463-287.8714-313.537zM-27.215 243.499c15.3196 114.868 126.5582 236.053 248.658 270.665M68.332 280.854c-86.8015 92.118-65.73701 140.62 47.216 108.123M171.596 393.322c-86.8013 92.118-111.9243 90.174-56.048-4.344"/><path stroke="#FFEF9C" stroke-miterlimit="10" stroke-opacity=".14" stroke-width="2" d="M305.071 462.86c-86.801 92.118-171.888 58.963-189.523-73.883 141.049 40.014 326.399-2.372 413.201-94.461 17.72 133.046-82.429 208.444-223.678 168.344zM221.299 514.164c121.928 34.612 208.387-30.468 193.096-145.336M429.771 466.604c-86.801 92.118-227.764 57.163-314.223-77.626M510.028 406.212c-86.802 92.118-263.749 84.372-394.423-17.149"/><path stroke="#FFEF9C" stroke-miterlimit="10" stroke-opacity=".14" stroke-width="2" d="M528.748 294.516c-86.887 92.089-272.151 134.475-413.2 94.461C97.8564 256.131 154.104 73.0964 240.906-19.0212 382.155 21.0784 511.028 161.441 528.748 294.516zM414.395 368.828C399.104 253.959 287.837 132.774 165.881 98.1624M477.645 162.985c-86.801 92.117-249.229 193.495-362.097 225.992M374.352 50.5176C287.551 142.607 171.425 294.459 115.548 388.978"/><path stroke="#FFEF9C" stroke-miterlimit="10" stroke-opacity=".14" stroke-width="2" d="M240.906-19.0212C154.104 73.0965 97.999 256.131 115.548 388.977-25.4723 348.963-69.6019 241.441 17.1996 149.323-.520795 16.3911 99.6282-59.1208 240.906-19.0212zM165.88 98.1626C43.9522 63.5506-42.5063 128.63-27.2153 243.499M116.178-22.7654c-86.8019 92.1176-87.0877 276.8104-.629 411.7424M36.0068 37.627c-86.8587 92.118-51.1606 249.744 79.5422 351.35"/><path stroke="#FFEF9C" stroke-miterlimit="10" stroke-opacity=".14" stroke-width="2" d="M492.908 428.991c-6.283 6.82-12.963 13.262-20.007 19.292-11.302 9.781-23.216 18.831-35.67 27.095-13.207 8.153-26.851 15.577-40.871 22.237-12.023 5.514-24.443 10.119-37.156 13.776-10.997 3.266-22.159 5.947-33.44 8.031-6.459.943-15.062 2.43-21.579 3.001-8.774.801-20.521 1.572-29.324 1.572-15.304.086-30.593-1.003-45.73-3.258-5.888-.829-13.691-2.258-19.493-3.544-6.431-1.401-15.005-3.373-21.264-5.402-5.316-1.715-12.49-3.858-17.749-5.716-5.259-1.858-12.519-4.63-17.692-7.003-4.687-2.143-10.975-4.801-15.491-7.231-4.516-2.429-10.347-5.402-14.662-7.888-4.316-2.487-9.832-5.716-13.92-8.575-12.965-8.371-25.2544-17.746-36.7551-28.038-6.7452-6.002-15.2053-14.662-21.4646-21.179-3.2011-3.315-7.1167-8.088-10.1178-11.432-3.001-3.344-6.9738-8.575-9.8319-12.519-2.8582-3.944-6.3737-9.06-9.1175-12.947-2.7438-3.887-6.0021-9.518-8.5744-13.633-2.8581-4.631-6.2593-11.033-8.74587-15.863-2.48658-4.83-5.34471-10.804-7.43115-15.548-2.51516-5.717-5.71626-13.576-7.80268-19.521-2.458-6.86-5.3733-16.149-7.3454-23.151-3.2869-11.747-6.0021-27.781-8.0028-39.814-4.8588-36.327 8.946-75.483 43.5294-112.21C104.002 57.205 289.38 14.8475 430.429 54.8613 289.409 14.8475 104.03 57.205 17.2287 149.323c-34.6119 36.727-48.4167 75.883-43.5579 112.21-2.0664-15.439-2.9359-31.015-2.6009-46.588.2001-12.633 1.2601-25.238 3.1725-37.727 2.3918-14.924 5.7233-29.682 9.9749-44.187 4.1873-13.93 9.46247-27.51 15.77690802-40.6138C6.8995 78.6025 14.591 65.1949 23.0308 52.2604c9.1403-13.1706 19.2073-25.6732 30.1247-37.4129C64.9661 2.35897 77.8063-9.11401 91.5402-19.4501c11.8718-8.8507 24.3018-16.9273 37.2128-24.1798 11.719-6.3793 23.867-11.9375 36.356-16.6344 14.09-5.1932 28.495-9.489 43.129-12.8616 11.059-2.5027 22.267-4.2974 33.554-5.3732 6.431-.4859 15.005-1.3148 21.436-1.4577 8.575 0 20.007-.2858 28.582.4859 6.145.5716 14.29 1.1718 20.407 2.0007 7.259 1.0289 16.891 2.8581 24.037 4.2014 13.237 2.8566 26.271 6.5899 39.013 11.1753 5.345 2.0579 12.547 4.6016 17.72 7.0025 9.175 4.23 21.322 10.1463 30.154 15.0909 4.258 2.4008 9.889 5.7163 13.919 8.5744 4.03 2.8581 9.117 6.1164 12.947 8.8602 3.83 2.7438 8.575 6.4594 12.204 9.3461 33.01 26.6008 60.069 59.8331 79.428 97.5481 2.715 5.3447 6.116 12.6044 8.574 18.0923 2.201 5.03 4.745 11.861 6.717 16.977 2.629 6.802 5.43 16.12 7.317 23.151 3.144 11.775 6.116 27.781 8.031 39.785 1.172 7.403 1.772 17.406 2.287 24.866.972 19.872.015 39.791-2.858 59.478-3.143 21.686-8.713 42.951-16.606 63.393-2.631 7.311-5.695 14.46-9.175 21.407-6.431 12.29-15.634 28.41-22.865 40.157-9.049 13.228-19.132 25.719-30.153 37.356v0z"/><path stroke="#FFEF9C" stroke-miterlimit="10" stroke-opacity=".14" stroke-width="2" d="M572.307 182.162c1.764 14.222 2.652 28.54 2.658 42.872-.145 15.978-1.559 31.919-4.23 47.673-2.128 12.881-5.136 25.601-9.003 38.071-4.585 14.785-10.26 29.211-16.978 43.158-6.688 13.194-14.131 25.991-22.293 38.327-8.953 12.929-18.83 25.194-29.553 36.699-11.102 11.508-22.971 22.251-35.527 32.154-24.845 19.213-52.554 34.403-82.114 45.015-12.239 4.51-24.791 8.12-37.556 10.804-14.226 2.951-28.62 5.023-43.101 6.202-9.803.543-22.865.715-32.754.543-6.173 0-14.29-.915-20.55-1.515-8.231-.771-19.121-2.658-27.238-4.173-5.716-1.057-13.404-2.858-19.121-4.458-6.745-1.744-15.605-4.602-22.179-6.86-5.144-1.772-11.89-4.43-16.92-6.516-11.362-4.767-22.416-10.236-33.097-16.378-4.116-2.429-9.689-5.716-13.662-8.317-3.973-2.601-9.1173-6.087-12.9472-8.86-3.8299-2.772-8.7745-6.545-12.4329-9.489-7.8869-6.322-15.4334-13.058-22.6079-20.178-7.26-7.054-14.1116-14.516-20.5214-22.351-10.1699-12.304-19.3449-25.397-27.438-39.156-5.00176-8.889-11.23249-20.979-15.63401-30.182-2.75886-5.894-5.21996-11.923-7.37399-18.064-2.115-6.116-4.9731-14.29-6.8024-20.521-1.6862-5.716-3.4869-13.433-4.9445-19.207-1.8864-7.659-3.4584-18.092-4.573-25.923 7.2882 54.876 57.1626 103.379 141.8773 127.444-84.9433-24.065-134.732-72.482-142.0202-127.444-1.6236-14.235-2.5108-28.545-2.6581-42.872.1267-16.017 1.5413-31.998 4.23-47.788 2.1282-12.803 5.1266-25.446 8.9746-37.842 4.6533-14.785 10.3849-29.21 17.14877-43.1574C8.04302 76.6727 15.4869 63.875 23.6595 51.545c8.926-12.9341 18.7842-25.1995 29.4959-36.6984C64.2266 3.33931 76.0573-7.41235 88.5677-17.336c24.8643-19.1761 52.5693-34.3544 82.1143-44.987 12.24-4.5057 24.792-8.1165 37.556-10.8037 14.224-2.9616 28.618-5.033 43.1-6.2022 9.832-.543 22.865-.7145 32.755-.543 6.202 0 14.29.9146 20.578 1.4862 8.232.8003 19.092 2.6581 27.21 4.1729 5.716 1.0861 13.433 3.001 19.12 4.4872 6.746 1.7435 15.606 4.6016 22.208 6.8596 5.145 1.7434 11.89 4.4301 16.92 6.5165 11.358 4.7645 22.411 10.2244 33.097 16.3485 4.116 2.458 9.69 5.7163 13.634 8.3172 3.944 2.6009 9.146 6.1164 12.976 8.8602 3.83 2.7438 8.774 6.5737 12.433 9.5176 7.881 6.32915 15.427 13.064409 22.607 20.17842 7.253 7.06128 14.104 14.52318 20.522 22.35058 10.201 12.3229 19.422 25.4245 27.581 39.185 5.002 8.8888 11.232 20.9787 15.605 30.1819 2.766 5.8811 5.227 11.9011 7.374 18.0351 2.144 6.145 4.973 14.29 6.831 20.55 1.686 5.716 3.487 13.433 4.916 19.206 2.014 8.501 3.551 17.108 4.602 25.781v0z"/><path stroke="#FFEF9C" stroke-miterlimit="10" stroke-opacity=".14" stroke-width="2" d="M430.429 54.8617c-141.02-40.0139-326.398 2.3437-413.1999 94.4613C34.9781 282.398 163.851 422.761 305.1 462.86c86.773-92.06 142.993-275.152 125.329-407.9983zM131.583 75.0115C146.874 189.88 258.141 311.065 380.069 345.677M430.429 54.8616C317.561 87.3585 155.134 188.737 68.332 280.854M430.429 54.8616C374.524 149.38 258.426 301.204 171.625 393.322"/><path stroke="#FFEF9C" stroke-miterlimit="10" stroke-opacity=".14" stroke-width="2" d="M430.429 54.8616C448.121 187.708 391.902 370.742 305.1 462.86c141.249 40.014 241.398-35.298 223.678-168.344 86.773-92.118 42.643-199.6406-98.349-239.6544zM380.069 345.677c121.956 34.612 208.415-30.468 193.095-145.336M430.429 54.8616c86.458 134.9034 86.173 319.6254-.629 411.7424M430.429 54.8616C561.131 156.468 596.858 314.094 510.056 406.212"/><path stroke="#FFEF9C" stroke-miterlimit="10" stroke-opacity=".14" stroke-width="2" d="M430.429 54.8618c141.02 40.0139 185.149 147.5372 98.348 239.6542-17.72-133.074-146.594-273.4373-287.843-313.5369 86.745-92.1181 171.774-58.9061 189.495 73.8827zM573.164 200.341C557.873 85.4438 446.606-35.7125 324.678-70.3245M430.429 54.8618c112.839-32.497 134.046 16.0055 47.245 108.1232M430.429 54.8617c55.905-94.5184 30.753-96.462-56.048-4.3443"/><path stroke="#FFEF9C" stroke-miterlimit="10" stroke-opacity=".14" stroke-width="2" d="M430.429 54.8618C412.709-77.927 327.679-111.139 240.907-19.0209 99.6291-59.1205-.519932 16.3913 17.2005 149.323 104.002 57.2055 289.381 14.848 430.429 54.8618zM324.678-70.3245C202.722-104.937 116.263-39.8568 131.583 75.0116M430.429 54.8617C343.942-80.0422 202.979-114.883 116.177-22.7652M430.429 54.8618C299.698-46.7448 122.751-54.4904 36.0066 37.6272M17.1996 149.323c-86.8015 92.117-42.6719 199.612 98.3484 239.654 17.72 132.846 102.721 166.001 189.523 73.883-141.249-40.1-270.1224-180.463-287.8714-313.537zM-27.215 243.499c15.3196 114.868 126.5582 236.053 248.658 270.665M8.08252 329.528C17.0285 396.523 82.0224 467.433 153.19 487.64M68.332 280.854c-86.8015 92.118-65.73701 140.62 47.216 108.123M171.596 393.322c-86.8013 92.118-111.9243 90.174-56.048-4.344"/><path stroke="#FFEF9C" stroke-miterlimit="10" stroke-opacity=".14" stroke-width="2" d="M305.071 462.86c-86.801 92.118-171.888 58.963-189.523-73.883 141.049 40.014 326.399-2.372 413.201-94.461 17.72 133.046-82.429 208.444-223.678 168.344zM221.299 514.164c121.928 34.612 208.387-30.468 193.096-145.336M153.19 487.64c71.453 20.35 121.814-17.806 112.896-84.915M429.771 466.604c-86.801 92.118-227.764 57.163-314.223-77.626M510.028 406.212c-86.802 92.118-263.749 84.372-394.423-17.149"/><path stroke="#FFEF9C" stroke-miterlimit="10" stroke-opacity=".14" stroke-width="2" d="M528.748 294.516c-86.887 92.089-272.151 134.475-413.2 94.461C97.8564 256.131 154.104 73.0964 240.906-19.0212 382.155 21.0784 511.028 161.441 528.748 294.516zM414.395 368.828C399.104 253.959 287.837 132.774 165.881 98.1624M266.086 402.725c-8.946-67.109-73.94-137.876-145.193-158.112M477.645 162.985c-86.801 92.117-249.229 193.495-362.097 225.992M374.352 50.5176C287.551 142.607 171.425 294.459 115.548 388.978"/><path stroke="#FFEF9C" stroke-miterlimit="10" stroke-opacity=".14" stroke-width="2" d="M240.906-19.0212C154.104 73.0965 97.999 256.131 115.548 388.977-25.4723 348.963-69.6019 241.441 17.1996 149.323-.520795 16.3911 99.6282-59.1208 240.906-19.0212zM165.88 98.1626C43.9522 63.5506-42.5063 128.63-27.2153 243.499M120.893 244.613C49.6686 224.406-.834574 262.419 8.0828 329.528M116.178-22.7654c-86.8019 92.1176-87.0877 276.8104-.629 411.7424M36.0068 37.627c-86.8587 92.118-51.1606 249.744 79.5422 351.35M415.281 369.741C399.876 254.159 287.923 132.202 165.223 97.3899M114.576 390.034c56.248-95.119 173.089-247.886 260.433-340.6038M130.696 74.0679C146.073 189.679 258.026 311.607 380.754 346.448M170.967 394.407C258.312 301.718 375.152 148.922 431.4 53.8035M375.01 49.4306c87.345-92.6893 112.639-90.7172 56.391 4.3729M415.281 369.741C399.876 254.159 287.923 132.202 165.223 97.3899M114.576 390.034c56.248-95.119 173.089-247.886 260.433-340.6038M170.967 394.407C258.312 301.718 375.152 148.922 431.4 53.8035M375.01 49.4306c87.345-92.6893 112.639-90.7172 56.391 4.3729"/></g><defs><filter id="filter0_f" width="383.03" height="383.029" x="-249.21" y="291.643" color-interpolation-filters="sRGB" filterUnits="userSpaceOnUse"><feFlood flood-opacity="0" result="BackgroundImageFix"/><feBlend in="SourceGraphic" in2="BackgroundImageFix" result="shape"/><feGaussianBlur result="effect1_foregroundBlur" stdDeviation="32"/></filter><filter id="filter1_f" width="383.03" height="383.029" x="234" y="-177.89" color-interpolation-filters="sRGB" filterUnits="userSpaceOnUse"><feFlood flood-opacity="0" result="BackgroundImageFix"/><feBlend in="SourceGraphic" in2="BackgroundImageFix" result="shape"/><feGaussianBlur result="effect1_foregroundBlur" stdDeviation="32"/></filter></defs></svg>