<svg xmlns="http://www.w3.org/2000/svg" fill="none" viewBox="0 0 456 453"><path stroke="#9CFFDB" stroke-miterlimit="10" stroke-width="2" d="M324.617 138.437c-.882-1.576-1.97-3.026-3.236-4.312 3.368 3.446 6.29 7.302 8.697 11.477 24.007 41.679-2.387 111.677-58.976 156.332-50.764 40.039-108.566 46.112-137.265 16.861.343.324.788.79 1.152 1.094.828.674 1.692 1.303 2.589 1.882 1.83 1.132 3.785 2.049 5.825 2.733 2.055.695 4.157 1.243 6.29 1.639 2.022.385 4.834.628 6.917.83 2.425.132 4.855.132 7.281 0 1.82 0 4.287-.222 6.067-.425 5.417-.607 10.783-1.602 16.059-2.975 6.132-1.581 12.152-3.57 18.02-5.952 2.973-1.214 6.917-2.935 9.829-4.311 2.913-1.377 6.614-3.381 9.425-4.838 2.811-1.458 7.079-4.049 10.112-5.891 3.034-1.842 6.857-4.554 9.809-6.518 2.953-1.963 7.079-5.04 9.931-7.408 2.851-2.369 6.856-5.445 9.606-7.996 2.751-2.551 6.412-5.83 9.081-8.421 2.67-2.591 6.068-6.073 8.515-8.765 2.447-2.692 5.602-6.275 7.908-9.048 2.306-2.773 5.137-6.376 7.24-9.17 4.479-5.985 8.632-12.209 12.439-18.643 1.577-2.733 3.681-6.397 5.137-9.21 1.456-2.814 3.195-6.397 4.47-9.19 1.274-2.794 2.609-6.073 3.62-8.704 1.011-2.632 2.245-6.073 3.054-8.765.708-2.328 1.618-5.425 2.184-7.773.566-2.348 1.315-5.607 1.679-8.097.364-2.49.89-5.79 1.051-8.3.23-3.368.291-6.746.182-10.121-.162-3.136-.602-6.252-1.314-9.311-.389-1.57-.862-3.117-1.416-4.636-.564-1.398-1.219-2.757-1.962-4.068v0z"/><path stroke="#9CFFDB" stroke-miterlimit="10" stroke-width="2" d="M130.236 81.3128c11.387 19.7362 35.556 51.0102 53.879 69.6742 56.63-44.655 121.936-47.064 145.963-5.385-18.344-18.663-11.447-51.071 15.371-72.2242-35.454-61.4759-131.765-57.9132-215.213 7.935zM164.538 129.004c60.25-47.5495 129.843-50.1 155.407-5.729"/><path stroke="#9CFFDB" stroke-miterlimit="10" stroke-width="2" d="M345.449 73.3576c-26.818 21.1532-33.715 53.5614-15.371 72.2244 24.007 41.679-2.387 111.677-58.976 156.331-18.344-18.683-24.007-17.813-12.62 2.025 83.448-65.909 122.299-169.105 86.967-230.5804zM319.945 123.275c25.585 44.391-2.528 118.924-62.697 166.473M357.179 145.805c-28.982 8.299-37.476 30.262-19.153 49.006M325.992 228.495c-23.359-6.377-27.445 3.643-9.121 22.266"/><path stroke="#9CFFDB" stroke-miterlimit="10" stroke-width="2" d="M258.482 303.857c-11.387-19.737-5.724-20.607 12.62-2.025-56.629 44.655-121.935 47.064-145.962 5.385-18.324-18.684-55.0521-16.68-81.85 4.494 35.4137 61.557 131.765 57.994 215.192-7.854zM257.147 289.748c-60.25 47.549-129.843 50.099-155.407 5.728M173.477 348.835c3.701-27.712 21.641-35.08 39.965-16.396M96.2789 351.689c17.3931-28.238 46.5171-36.011 64.7191-17.327M184.115 150.987c18.344 18.683 23.987 17.813 12.621-1.923 83.427-65.8484 179.778-69.411 215.192-7.955-26.798 21.153-63.506 23.177-81.85 4.493-24.027-41.679-89.374-39.27-145.963 5.385z"/><path stroke="#9CFFDB" stroke-miterlimit="10" stroke-width="2" d="M330.078 145.602c18.323 18.684 55.052 16.66 81.85-4.493 35.413 61.455-3.519 164.65-86.967 230.499-11.387-19.737-35.555-51.011-53.879-69.674 56.609-44.655 83.003-114.653 58.996-156.332zM338.026 194.811c18.344 18.684 56.751 27.125 85.652 18.826M316.871 250.822c18.324 18.663 52.241 39.047 75.6 45.424"/><path stroke="#9CFFDB" stroke-miterlimit="10" stroke-width="2" d="M271.102 301.934c18.324 18.663 42.472 49.937 53.879 69.674-83.447 65.848-179.798 69.411-215.212 7.935 26.818-21.154 33.715-53.561 15.371-72.225 24.027 41.679 89.373 39.311 145.962-5.384zM213.441 332.459c18.344 18.663 30.236 56.415 26.535 84.147M161.079 334.362c18.344 18.683 19.093 56.84 1.679 85.017"/><path stroke="#9CFFDB" stroke-miterlimit="10" stroke-width="2" d="M324.617 138.437c-.882-1.576-1.97-3.026-3.236-4.312 3.368 3.446 6.29 7.302 8.697 11.477 24.007 41.679-2.387 111.677-58.976 156.332-50.764 40.039-108.566 46.112-137.265 16.861.343.324.788.79 1.152 1.094.828.674 1.692 1.303 2.589 1.882 1.83 1.132 3.785 2.049 5.825 2.733 2.055.695 4.157 1.243 6.29 1.639 2.022.385 4.834.628 6.917.83 2.425.132 4.855.132 7.281 0 1.82 0 4.287-.222 6.067-.425 5.417-.607 10.783-1.602 16.059-2.975 6.132-1.581 12.152-3.57 18.02-5.952 2.973-1.214 6.917-2.935 9.829-4.311 2.913-1.377 6.614-3.381 9.425-4.838 2.811-1.458 7.079-4.049 10.112-5.891 3.034-1.842 6.857-4.554 9.809-6.518 2.953-1.963 7.079-5.04 9.931-7.408 2.851-2.369 6.856-5.445 9.606-7.996 2.751-2.551 6.412-5.83 9.081-8.421 2.67-2.591 6.068-6.073 8.515-8.765 2.447-2.692 5.602-6.275 7.908-9.048 2.306-2.773 5.137-6.376 7.24-9.17 4.479-5.985 8.632-12.209 12.439-18.643 1.577-2.733 3.681-6.397 5.137-9.21 1.456-2.814 3.195-6.397 4.47-9.19 1.274-2.794 2.609-6.073 3.62-8.704 1.011-2.632 2.245-6.073 3.054-8.765.708-2.328 1.618-5.425 2.184-7.773.566-2.348 1.315-5.607 1.679-8.097.364-2.49.89-5.79 1.051-8.3.23-3.368.291-6.746.182-10.121-.162-3.136-.602-6.252-1.314-9.311-.389-1.57-.862-3.117-1.416-4.636-.564-1.398-1.219-2.757-1.962-4.068v0z"/><path stroke="#9CFFDB" stroke-miterlimit="10" stroke-width="2" d="M321.381 134.084c-18.343-18.683-13.287-53.5404 11.245-77.6895 4.975 5.0879 9.284 10.7879 12.823 16.963 35.414 61.4555-3.519 164.6505-86.967 230.4785-74.832 59.067-160.0589 68.014-202.3895 24.878 24.5327-24.129 59.4205-28.643 77.7445-9.919.687.648 1.618 1.458 2.346 2.025.404.324.971.668 1.395.951 1.142.746 2.354 1.377 3.621 1.883 2.39 1.006 4.877 1.765 7.422 2.267 1.838.416 3.704.7 5.582.85 3.223.25 6.456.338 9.688.263 2.427 0 5.643-.405 8.09-.668s5.582-.83 7.948-1.316c2.366-.486 5.339-1.214 7.605-1.781 5.946-1.627 11.789-3.614 17.494-5.951 2.852-1.195 6.614-2.854 9.384-4.19 2.771-1.336 6.634-3.381 9.445-4.859 2.812-1.477 6.857-3.927 9.708-5.728 2.852-1.802 6.836-4.494 9.688-6.518 2.852-2.024 6.957-4.98 9.789-7.308 2.831-2.328 6.856-5.445 9.586-7.995 2.731-2.551 6.432-5.81 9.081-8.401 2.65-2.591 6.068-6.073 8.515-8.785 2.447-2.713 5.622-6.255 7.928-9.028 2.306-2.773 5.198-6.457 7.321-9.312 4.522-6.069 8.721-12.374 12.58-18.886 1.598-2.732 3.641-6.416 5.097-9.21 1.456-2.793 3.317-6.68 4.611-9.595 1.153-2.571 2.589-6.072 3.58-8.684.991-2.611 2.265-6.497 3.155-9.311.728-2.288 1.557-5.405 2.023-7.733.465-2.328 1.274-6.072 1.678-8.684.731-4.625 1.076-9.304 1.032-13.987-.047-2.478-.236-4.952-.567-7.409-.305-2.28-.785-4.534-1.436-6.74-.665-2.265-1.588-4.445-2.75-6.498-.354-.613-.738-1.208-1.153-1.782-.445-.809-1.193-1.821-1.942-2.591z"/><path stroke="#9CFFDB" stroke-miterlimit="10" stroke-width="2" d="M130.236 81.3128c11.387 19.7362 35.556 51.0102 53.879 69.6742 56.63-44.655 121.936-47.064 145.963-5.385-18.344-18.663-11.447-51.071 15.371-72.2242-35.454-61.4759-131.765-57.9132-215.213 7.935zM145.182 104.004c69.897-55.1598 150.615-58.1355 180.284-6.6593M164.538 129.004c60.25-47.5495 129.843-50.1 155.407-5.729"/><path stroke="#9CFFDB" stroke-miterlimit="10" stroke-width="2" d="M345.449 73.3576c-26.818 21.1532-33.715 53.5614-15.371 72.2244 24.007 41.679-2.387 111.677-58.976 156.331-18.344-18.683-24.007-17.813-12.62 2.025 83.448-65.909 122.299-169.105 86.967-230.5804zM319.945 123.275c25.585 44.391-2.528 118.924-62.697 166.473M357.179 145.805c-28.982 8.299-37.476 30.262-19.153 49.006M325.992 228.495c-23.359-6.377-27.445 3.643-9.121 22.266"/><path stroke="#9CFFDB" stroke-miterlimit="10" stroke-width="2" d="M258.482 303.857c-11.387-19.737-5.724-20.607 12.62-2.025-56.629 44.655-121.935 47.064-145.962 5.385-18.324-18.684-55.0521-16.68-81.85 4.494 35.4137 61.557 131.765 57.994 215.192-7.854zM257.147 289.748c-60.25 47.549-129.843 50.099-155.407 5.728M173.477 348.835c3.701-27.712 21.641-35.08 39.965-16.396M96.2789 351.689c17.3931-28.238 46.5171-36.011 64.7191-17.327M184.115 150.987c18.344 18.683 23.987 17.813 12.621-1.923 83.427-65.8484 179.778-69.411 215.192-7.955-26.798 21.153-63.506 23.177-81.85 4.493-24.027-41.679-89.374-39.27-145.963 5.385z"/><path stroke="#9CFFDB" stroke-miterlimit="10" stroke-width="2" d="M330.078 145.602c18.323 18.684 55.052 16.66 81.85-4.493 35.413 61.455-3.519 164.65-86.967 230.499-11.387-19.737-35.555-51.011-53.879-69.674 56.609-44.655 83.003-114.653 58.996-156.332zM338.026 194.811c18.344 18.684 56.751 27.125 85.652 18.826M316.871 250.822c18.324 18.663 52.241 39.047 75.6 45.424"/><path stroke="#9CFFDB" stroke-miterlimit="10" stroke-width="2" d="M271.102 301.934c18.324 18.663 42.472 49.937 53.879 69.674-83.447 65.848-179.798 69.411-215.212 7.935 26.818-21.154 33.715-53.561 15.371-72.225 24.027 41.679 89.373 39.311 145.962-5.384zM213.441 332.459c18.344 18.663 30.236 56.415 26.535 84.147M161.079 334.362c18.344 18.683 19.093 56.84 1.679 85.017M321.381 134.084c-28.719-29.25-86.501-23.177-137.265 16.862-56.63 44.655-82.922 114.653-58.976 156.332-18.324-18.684-55.0519-16.68-81.8497 4.493C7.87661 250.316 46.8094 147.12 130.257 81.2723c74.832-59.0671 160.059-68.0142 202.39-24.8778-24.553 24.1895-29.609 59.0465-11.266 77.6895z"/><path stroke="#9CFFDB" stroke-miterlimit="10" stroke-width="2" d="M43.2901 311.812c26.7979-21.174 63.5259-23.178 81.8499-4.494-24.007-41.659 2.386-111.677 58.975-156.331-18.323-18.664-42.472-49.938-53.878-69.6742C46.8092 147.161 7.87644 250.356 43.2901 311.812zM72.3531 297.096c-29.6698-51.497 2.9528-137.931 72.8089-193.092M101.679 295.476c-25.5236-44.391 2.589-118.883 62.859-166.472M31.5394 239.344c28.9013-8.299 67.3082.142 85.6526 18.826M62.7463 156.675c23.3597 6.376 57.2767 26.76 75.6007 45.424"/><path stroke="#9CFFDB" stroke-miterlimit="10" stroke-width="2" d="M130.237 81.3128c11.386 19.7362 35.555 51.0102 53.878 69.6742 56.63-44.655 121.936-47.064 145.963-5.385-18.344-18.663-11.447-51.071 15.371-72.2242-35.454-61.4759-131.765-57.9132-215.212 7.935zM145.183 104.004c69.897-55.1598 150.614-58.1355 180.284-6.6593M215.242 36.3344c-3.702 27.732 8.089 65.4836 26.534 84.1476M292.46 33.4802c-17.414 28.3393-16.666 66.3948 1.678 85.0178"/><path stroke="#9CFFDB" stroke-miterlimit="10" stroke-width="2" d="M125.14 307.318c18.344 18.664 11.447 51.071-15.371 72.225-35.4136-61.456 3.519-164.651 86.967-230.479 11.366 19.736 5.723 20.606-12.621 1.923-56.589 44.654-82.982 114.672-58.975 156.331zM117.192 258.19c18.323 18.663 9.748 40.626-19.1532 48.926M138.347 202.099c18.323 18.683 14.157 28.703-9.122 22.266"/><path stroke="#9CFFDB" stroke-miterlimit="10" stroke-width="2" d="M184.115 150.987c18.344 18.683 23.987 17.813 12.621-1.923 83.427-65.8484 179.778-69.411 215.192-7.955-26.798 21.153-63.506 23.177-81.85 4.493-24.027-41.679-89.373-39.27-145.963 5.385zM241.776 120.482c18.324 18.683 36.263 11.315 39.965-16.397M294.139 118.559c18.323 18.683 47.407 10.91 64.719-17.328"/><path stroke="#9CFFDB" stroke-miterlimit="10" stroke-width="2" d="M321.381 134.084c-28.719-29.25-86.501-23.177-137.265 16.862-56.63 44.655-82.922 114.653-58.976 156.332-18.324-18.684-55.0519-16.68-81.8497 4.493C7.87661 250.316 46.8094 147.12 130.257 81.2723c74.832-59.0671 160.059-68.0142 202.39-24.8778-24.553 24.1895-29.609 59.0465-11.266 77.6895z"/><path stroke="#9CFFDB" stroke-miterlimit="10" stroke-width="2" d="M56.0923 328.735c-4.9715-5.071-9.2739-10.758-12.8023-16.923 26.7979-21.174 63.526-23.178 81.85-4.494 2.406 4.176 5.328 8.032 8.697 11.478-18.324-18.725-53.212-14.211-77.7447 9.939z"/><path stroke="#9CFFDB" stroke-miterlimit="10" stroke-width="2" d="M258.482 303.857c-11.387-19.737-5.724-20.607 12.62-2.025-56.629 44.655-121.935 47.064-145.962 5.385-18.324-18.684-55.0521-16.68-81.85 4.494 35.4137 61.556 131.765 57.994 215.192-7.854zM257.147 289.748c-60.25 47.549-129.843 50.099-155.407 5.728"/><path stroke="#9CFFDB" stroke-miterlimit="10" stroke-width="2" d="M271.102 301.934c18.324 18.663 42.472 49.937 53.879 69.674-83.447 65.848-179.798 69.41-215.212 7.935 26.818-21.154 33.715-53.562 15.371-72.225 24.027 41.679 89.373 39.311 145.962-5.384z"/><path stroke="#9CFFDB" stroke-miterlimit="10" stroke-width="2" d="M56.0923 328.735c-4.9715-5.071-9.2739-10.758-12.8023-16.923 26.7979-21.174 63.526-23.178 81.85-4.494 2.406 4.176 5.328 8.032 8.697 11.478-18.324-18.725-53.212-14.211-77.7447 9.939zM130.601 314.484c-1.499-2.618-3.335-5.027-5.461-7.166-24.007-41.659 2.387-111.677 58.976-156.331 50.764-40.039 108.546-46.112 137.265-16.862-.687-.648-1.618-1.457-2.346-2.024-.404-.324-.97-.668-1.395-.952-1.141-.746-2.354-1.377-3.62-1.882-1.254-.486-2.933-1.093-4.227-1.498-.951-.283-2.225-.547-3.196-.79-1.84-.399-3.705-.676-5.582-.829-3.223-.25-6.456-.338-9.688-.264-2.427 0-5.642.405-8.09.668-2.447.264-5.582.83-7.948 1.316-2.366.486-5.339 1.215-7.604 1.781-5.947 1.627-11.789 3.615-17.495 5.952-2.852 1.194-6.613 2.854-9.384 4.19-2.771 1.336-6.634 3.38-9.445 4.858-2.811 1.478-6.856 3.927-9.708 5.729-2.852 1.801-6.877 4.574-9.809 6.538-2.933 1.963-6.958 4.979-9.789 7.307-2.831 2.328-6.856 5.445-9.587 8.097-2.73 2.652-6.431 5.83-9.101 8.421-2.669 2.591-6.067 6.073-8.494 8.765-2.427 2.692-5.623 6.255-7.928 9.028-2.306 2.773-5.198 6.457-7.322 9.311-4.524 6.069-8.723 12.373-12.579 18.886-1.598 2.733-3.641 6.417-5.097 9.211-1.456 2.793-3.317 6.68-4.611 9.595-1.153 2.57-2.589 6.072-3.58 8.684-.991 2.611-2.265 6.497-3.155 9.311-.728 2.287-1.558 5.405-2.023 7.733-.465 2.327-1.274 6.072-1.678 8.684-.727 4.626-1.072 9.304-1.032 13.987 0 1.457 0 3.38.263 4.818.202 1.821.506 4.291.91 6.072.424 1.843.951 3.661 1.578 5.445.589 1.437 1.251 2.842 1.982 4.211v0z"/><path stroke="#9CFFDB" stroke-miterlimit="10" stroke-width="2" d="M43.2901 311.812c26.7979-21.174 63.5259-23.178 81.8499-4.494-24.007-41.659 2.386-111.677 58.975-156.331-18.323-18.664-42.472-49.938-53.878-69.6742C46.8092 147.161 7.87644 250.356 43.2901 311.812zM31.5394 239.344c28.9013-8.299 67.3082.142 85.6526 18.826M62.7463 156.675c23.3597 6.376 57.2767 26.76 75.6007 45.424"/><path stroke="#9CFFDB" stroke-miterlimit="10" stroke-width="2" d="M130.237 81.3128c11.386 19.7362 35.555 51.0102 53.878 69.6742 56.63-44.655 121.936-47.064 145.963-5.385-18.344-18.663-11.447-51.071 15.371-72.2242-35.454-61.4759-131.765-57.9132-215.212 7.935zM215.242 36.3344c-3.702 27.732 8.089 65.4836 26.534 84.1476M292.46 33.4802c-17.414 28.3393-16.666 66.3948 1.678 85.0178"/><path stroke="#9CFFDB" stroke-miterlimit="10" stroke-width="2" d="M125.14 307.318c18.344 18.664 11.447 51.071-15.371 72.225-35.4136-61.456 3.519-164.651 86.967-230.479 11.366 19.736 5.723 20.606-12.621 1.923-56.589 44.654-82.982 114.672-58.975 156.331zM135.273 329.645c-25.504-44.391 2.528-118.923 62.798-166.472M117.192 258.19c18.323 18.663 9.748 40.626-19.1532 48.926M138.347 202.099c18.323 18.683 14.157 28.703-9.122 22.266"/><path stroke="#9CFFDB" stroke-miterlimit="10" stroke-width="2" d="M184.115 150.987c18.344 18.683 23.987 17.813 12.621-1.923 83.427-65.8484 179.778-69.411 215.192-7.955-26.798 21.153-63.506 23.177-81.85 4.493-24.027-41.679-89.373-39.27-145.963 5.385zM198.071 163.173c60.249-47.549 129.843-50.12 155.407-5.729M241.776 120.482c18.324 18.683 36.263 11.315 39.965-16.397M294.139 118.559c18.323 18.683 47.407 10.91 64.719-17.328"/><path stroke="#9CFFDB" stroke-miterlimit="10" stroke-width="2" d="M130.601 314.484c-1.499-2.618-3.335-5.027-5.461-7.166-24.007-41.659 2.387-111.677 58.976-156.331 50.764-40.039 108.546-46.112 137.265-16.862-.687-.648-1.618-1.457-2.346-2.024-.404-.324-.97-.668-1.395-.952-1.141-.746-2.354-1.377-3.62-1.882-1.254-.486-2.933-1.093-4.227-1.498-.951-.283-2.225-.547-3.196-.79-1.84-.399-3.705-.676-5.582-.829-3.223-.25-6.456-.338-9.688-.264-2.427 0-5.642.405-8.09.668-2.447.264-5.582.83-7.948 1.316-2.366.486-5.339 1.215-7.604 1.781-5.947 1.627-11.789 3.615-17.495 5.952-2.852 1.194-6.613 2.854-9.384 4.19-2.771 1.336-6.634 3.38-9.445 4.858-2.811 1.478-6.856 3.927-9.708 5.729-2.852 1.801-6.877 4.574-9.809 6.538-2.933 1.963-6.958 4.979-9.789 7.307-2.831 2.328-6.856 5.445-9.587 8.097-2.73 2.652-6.431 5.83-9.101 8.421-2.669 2.591-6.067 6.073-8.494 8.765-2.427 2.692-5.623 6.255-7.928 9.028-2.306 2.773-5.198 6.457-7.322 9.311-4.524 6.069-8.723 12.373-12.579 18.886-1.598 2.733-3.641 6.417-5.097 9.211-1.456 2.793-3.317 6.68-4.611 9.595-1.153 2.57-2.589 6.072-3.58 8.684-.991 2.611-2.265 6.497-3.155 9.311-.728 2.287-1.558 5.405-2.023 7.733-.465 2.327-1.274 6.072-1.678 8.684-.727 4.626-1.072 9.304-1.032 13.987 0 1.457 0 3.38.263 4.818.202 1.821.506 4.291.91 6.072.424 1.843.951 3.661 1.578 5.445.589 1.437 1.251 2.842 1.982 4.211v0z"/><path stroke="#9CFFDB" stroke-miterlimit="10" stroke-width="2" d="M202.116 164.205c-5.784 4.696-13.328 11.194-18.668 16.396-5.794 5.653-11.289 11.606-16.463 17.834-2.184 2.732-5.117 6.376-7.22 9.17-2.103 2.793-4.813 6.518-6.654 9.453-1.84 2.935-4.207 6.356-5.784 9.19-1.578 2.834-3.681 6.396-5.137 9.21-1.456 2.814-3.155 6.417-4.47 9.19-2.576 5.682-4.805 11.516-6.674 17.469-.789 2.713-1.901 6.295-2.488 9.048-.976 4.379-1.732 8.804-2.265 13.259-.272 2.345-.414 4.704-.425 7.065v4.959c0 1.478.364 4.048.627 5.89.271 1.914.697 3.803 1.274 5.648.243.729.526 1.7.83 2.409.526 1.255 1.294 2.895 1.921 4.048 10.962 19.028 2.811 46.416-20.832 65.059-35.3323-61.415 3.6-164.61 87.048-230.438 74.832-59.0673 160.059-68.0144 202.39-24.878-24.533 24.068-59.421 28.623-77.744 9.898-.344-.323-.789-.789-1.173-1.093-.818-.679-1.675-1.307-2.569-1.882-1.83-1.132-3.785-2.049-5.825-2.733-2.055-.695-4.157-1.243-6.29-1.639-2.022-.385-4.833-.628-6.917-.83-2.425-.132-4.855-.132-7.28 0-1.841 0-4.288.222-6.068.425-5.418.601-10.785 1.595-16.058 2.975-6.133 1.581-12.153 3.57-18.021 5.952-2.973 1.214-6.917 2.935-9.829 4.311-2.912 1.377-6.614 3.381-9.425 4.838-2.811 1.457-7.078 4.049-10.112 5.891-3.034 1.842-6.856 4.554-9.809 6.518-2.953 1.963-6.998 5.04-9.89 7.388z"/><path stroke="#9CFFDB" stroke-miterlimit="10" stroke-width="2" d="M43.2901 311.812c26.7979-21.174 63.5259-23.178 81.8499-4.494-24.007-41.659 2.386-111.677 58.975-156.331-18.323-18.664-42.472-49.938-53.878-69.6742C46.8092 147.161 7.87644 250.356 43.2901 311.812zM31.5396 239.344c28.9012-8.299 67.3081.142 85.6524 18.826M62.7466 156.675c23.3596 6.376 57.2764 26.76 75.6004 45.424"/><path stroke="#9CFFDB" stroke-miterlimit="10" stroke-width="2" d="M130.237 81.3128c11.386 19.7362 35.555 51.0102 53.879 69.6742 56.629-44.655 121.935-47.064 145.962-5.385-18.344-18.663-11.447-51.071 15.371-72.2242-35.454-61.4759-131.765-57.9132-215.212 7.935zM215.242 36.3344c-3.702 27.7319 8.089 65.4836 26.534 84.1476M292.46 33.4802c-17.414 28.3392-16.665 66.3948 1.679 85.0178"/><path stroke="#9CFFDB" stroke-miterlimit="10" stroke-width="2" d="M125.14 307.318c18.344 18.663 11.447 51.071-15.371 72.225-35.4136-61.456 3.519-164.651 86.967-230.479 11.366 19.736 5.723 20.606-12.621 1.923-56.589 44.654-82.982 114.672-58.975 156.331zM135.273 329.645c-25.504-44.391 2.528-118.923 62.798-166.472M117.192 258.19c18.323 18.663 9.748 40.626-19.1532 48.926M138.347 202.099c18.323 18.683 14.157 28.703-9.122 22.266"/><path stroke="#9CFFDB" stroke-miterlimit="10" stroke-width="2" d="M184.116 150.987c18.344 18.683 23.986 17.813 12.62-1.923 83.427-65.8484 179.778-69.4111 215.192-7.955-26.798 21.153-63.506 23.177-81.85 4.493-24.027-41.679-89.373-39.27-145.962 5.385zM198.071 163.173c60.249-47.55 129.843-50.12 155.407-5.729M241.777 120.482c18.323 18.683 36.263 11.315 39.964-16.397M294.139 118.559c18.323 18.683 47.407 10.91 64.719-17.328"/><path stroke="#9CFFDB" stroke-miterlimit="10" stroke-width="2" d="M109.769 379.543c-26.7977 21.153-63.526 23.177-81.8497 4.493-46.8204-81.232 4.6517-217.564 114.9377-304.6058 18.324 18.623 42.492 49.8768 53.879 69.6338-83.448 65.828-122.3805 169.023-86.967 230.479zM98.0387 307.116c-28.881 8.299-67.3082-.142-85.6318-18.826M129.225 224.426c-23.339-6.377-57.256-26.76-75.5999-45.444"/><path stroke="#9CFFDB" stroke-miterlimit="10" stroke-width="2" d="M196.736 149.064c-11.387-19.757-35.555-51.0109-53.879-69.6338C253.143-7.61166 380.499-12.3484 427.299 68.884c18.344 18.6634 11.447 51.071-15.371 72.225-35.414-61.4561-131.765-57.8935-215.192 7.955zM281.68 104.085c3.701-27.7316-8.191-65.4835-26.535-84.1671M358.939 101.231c17.413-28.339 16.645-66.3946-1.679-85.0175"/><path stroke="#9CFFDB" stroke-miterlimit="10" stroke-width="2" d="M321.381 134.084c18.324 18.684 53.212 14.17 77.745-9.938 4.971 5.07 9.273 10.757 12.802 16.922 35.414 61.456-3.519 164.651-86.967 230.499-74.832 59.067-160.059 68.014-202.389 24.878 24.552-24.129 29.669-58.966 11.265-77.65 28.699 29.251 86.501 23.178 137.266-16.861 56.629-44.655 82.921-114.653 58.975-156.332-2.404-4.189-5.326-8.059-8.697-11.518z"/><path stroke="#9CFFDB" stroke-miterlimit="10" stroke-width="2" d="M130.237 81.3128c11.386 19.7362 35.555 51.0102 53.879 69.6742 56.629-44.655 121.935-47.064 145.962-5.385-18.344-18.663-11.447-51.071 15.371-72.2242-35.454-61.4759-131.765-57.9132-215.212 7.935z"/><path stroke="#9CFFDB" stroke-miterlimit="10" stroke-width="2" d="M345.449 73.3576c-26.818 21.1532-33.715 53.5614-15.371 72.2244 24.007 41.679-2.386 111.677-58.975 156.331-18.344-18.683-24.007-17.813-12.621 2.025 83.448-65.909 122.3-169.105 86.967-230.5804zM357.179 145.805c-28.982 8.299-37.476 30.262-19.153 49.006M325.993 228.495c-23.36-6.377-27.445 3.643-9.122 22.266"/><path stroke="#9CFFDB" stroke-miterlimit="10" stroke-width="2" d="M258.482 303.857c-11.386-19.737-5.723-20.607 12.621-2.025-56.63 44.655-121.936 47.064-145.963 5.385-18.324-18.684-55.0518-16.68-81.8497 4.494 35.4136 61.557 131.7647 57.994 215.1917-7.854zM173.477 348.835c3.701-27.712 21.641-35.08 39.965-16.396M96.2793 351.689c17.3937-28.238 46.5167-36.011 64.7197-17.327M184.115 150.987c18.344 18.683 23.987 17.813 12.621-1.923 83.427-65.8484 179.778-69.411 215.192-7.955-26.798 21.153-63.506 23.177-81.85 4.493-24.027-41.679-89.373-39.27-145.963 5.385zM198.071 163.173c60.25-47.549 129.843-50.12 155.407-5.729"/><path stroke="#9CFFDB" stroke-miterlimit="10" stroke-width="2" d="M330.078 145.602c18.324 18.684 55.052 16.66 81.85-4.493 35.414 61.455-3.519 164.65-86.967 230.499-11.386-19.737-35.555-51.011-53.879-69.674 56.61-44.655 83.003-114.653 58.996-156.332zM353.478 157.444c25.584 44.391-2.528 118.903-62.798 166.453M382.804 155.825c29.67 51.496-2.953 137.931-72.809 193.091M338.026 194.811c18.344 18.684 56.751 27.125 85.653 18.826M316.871 250.822c18.324 18.663 52.241 39.047 75.6 45.424"/><path stroke="#9CFFDB" stroke-miterlimit="10" stroke-width="2" d="M271.102 301.934c18.324 18.663 42.472 49.937 53.879 69.674-83.447 65.848-179.798 69.411-215.212 7.935 26.818-21.154 33.715-53.561 15.371-72.225 24.027 41.679 89.373 39.311 145.962-5.384zM290.68 323.897c-60.25 47.569-129.843 50.119-155.407 5.748M309.995 348.916c-69.877 55.16-150.594 58.136-180.264 6.66M213.442 332.459c18.343 18.663 30.236 56.415 26.534 84.147M161.08 334.362c18.343 18.683 19.092 56.84 1.678 85.017"/><path stroke="#9CFFDB" stroke-miterlimit="10" stroke-width="2" d="M411.928 141.109c26.818-21.194 33.715-53.5818 15.371-72.225 46.82 81.232-4.652 217.625-114.938 304.667 18.344 18.663 23.987 17.813 12.62-2.024 83.428-65.768 122.36-168.963 86.947-230.418zM423.678 213.556c28.882-8.3 37.477-30.242 19.133-48.926M392.472 296.246c23.359 6.376 27.445-3.644 9.121-22.267"/><path stroke="#9CFFDB" stroke-miterlimit="10" stroke-width="2" d="M324.981 371.608c11.367 19.756 5.724 20.606-12.62 2.024-110.286 87.042-237.6415 91.718-284.4417 10.485 18.3237 18.684 55.052 16.66 81.8497-4.493 35.414 61.395 131.765 57.832 215.212-8.016zM239.977 416.586c-3.722 27.732-21.641 35.1-39.965 16.417M162.758 419.501c-17.393 28.238-46.517 36.011-64.7193 17.327"/><path stroke="#9CFFDB" stroke-miterlimit="10" stroke-width="2" d="M321.381 134.084c18.324 18.684 53.212 14.17 77.745-9.938 4.971 5.07 9.273 10.757 12.802 16.922 35.414 61.456-3.519 164.651-86.967 230.499-74.832 59.067-160.059 68.014-202.389 24.878 24.552-24.129 29.669-58.966 11.265-77.65 28.699 29.251 86.501 23.178 137.266-16.861 56.629-44.655 82.921-114.653 58.975-156.332-2.404-4.189-5.326-8.059-8.697-11.518z"/><path stroke="#9CFFDB" stroke-miterlimit="10" stroke-width="2" d="M133.837 318.796c-3.369-3.446-6.29-7.302-8.697-11.478 2.126 2.139 3.962 4.548 5.461 7.166.353.613.738 1.208 1.153 1.781.586.79 1.436 1.802 2.083 2.531z"/><path stroke="#9CFFDB" stroke-miterlimit="10" stroke-width="2" d="M258.482 303.857c-11.387-19.737-5.724-20.607 12.62-2.025-56.629 44.655-121.935 47.064-145.962 5.385-18.324-18.684-55.0521-16.68-81.85 4.494 35.4137 61.556 131.765 57.994 215.192-7.854z"/><path stroke="#9CFFDB" stroke-miterlimit="10" stroke-width="2" d="M133.837 318.796c-3.369-3.446-6.29-7.302-8.697-11.478 2.126 2.139 3.962 4.548 5.461 7.166.353.613.738 1.208 1.153 1.781.586.79 1.436 1.802 2.083 2.531z"/><path stroke="#9CFFDB" stroke-miterlimit="10" stroke-width="2" d="M130.601 314.484c.586.911 1.395 2.024 2.022 2.955.378.475.783.928 1.214 1.356 18.344 18.684 13.288 53.521-11.245 77.69-4.974-5.081-9.282-10.774-12.823-16.942 23.643-18.644 31.794-46.031 20.832-65.059z"/><path stroke="#9CFFDB" stroke-miterlimit="10" stroke-width="2" d="M258.482 303.857c-11.386-19.737-5.723-20.607 12.621-2.025-56.63 44.655-121.936 47.064-145.963 5.385-18.324-18.684-55.0518-16.68-81.8497 4.494 35.4136 61.556 131.7647 57.994 215.1917-7.854zM309.995 348.916c-69.877 55.16-150.594 58.136-180.264 6.66"/><path stroke="#9CFFDB" stroke-miterlimit="10" stroke-width="2" d="M324.981 371.608c11.367 19.756 5.724 20.606-12.62 2.024-110.286 87.042-237.6415 91.718-284.4417 10.485 18.3237 18.684 55.052 16.66 81.8497-4.493 35.414 61.394 131.765 57.832 215.212-8.016z"/><path stroke="#9CFFDB" stroke-miterlimit="10" stroke-width="2" d="M130.601 314.484c.586.911 1.395 2.024 2.022 2.955.378.475.783.928 1.214 1.356 18.344 18.684 13.288 53.521-11.245 77.69-4.974-5.081-9.282-10.774-12.823-16.942 23.643-18.644 31.794-46.031 20.832-65.059z"/><path stroke="#9CFFDB" stroke-miterlimit="10" stroke-width="2" d="M432.759 76.0508c3.949 6.7667 7.331 13.8487 10.113 21.1734 2.022 6.0728 4.651 14.0078 6.31 20.1208 1.083 4.182 1.94 8.418 2.568 12.692 1.796 10.869 2.602 21.879 2.407 32.894 0 5.425-.546 12.671-1.052 18.076-.424 4.413-1.173 10.283-2.022 14.635-.971 5.162-2.326 12.146-3.56 17.166-1.112 4.575-2.831 10.627-4.227 15.121-1.537 5-3.842 11.558-5.703 16.437-1.861 4.878-4.227 10.708-6.249 15.222-2.023 4.514-5.097 11.153-7.645 15.748-5.057 9.109-12.135 21.072-17.717 29.898-2.893 4.615-7.2 10.486-10.457 14.838-3.256 4.352-7.685 10.121-11.245 14.169-7.26 8.441-17.413 19.312-25.179 27.287-4.045 4.048-9.729 9.028-13.915 12.894-4.187 3.867-10.113 8.725-14.724 12.287-4.611 3.563-10.84 8.097-15.492 11.559-4.652 3.461-10.739 7.307-15.452 10.263-4.712 2.955-11.305 6.821-16.18 9.534-4.631 2.53-10.881 5.749-15.633 8.097-5.057 2.408-11.913 5.364-17.09 7.51-4.591 1.902-10.821 4.149-15.533 5.708-5.339 1.741-12.539 3.907-18 5.303-4.51 1.154-10.557 2.551-15.128 3.381-5.683 1.012-13.268 2.267-19.012 2.793-4.307.405-10.112.931-14.4 1.033-6.067.141-14.036.162-20.022-.264-11.51-.697-22.924-2.521-34.079-5.445-4.043-1.011-8.033-2.227-11.953-3.643-6.2696-2.409-14.5011-6.073-20.5685-8.846-6.7725-3.378-13.218-7.376-19.254-11.943-2.7911-2.024-6.472-4.96-9.1012-7.267-3.4489-2.866-6.737-5.921-9.8495-9.15-4.7124-5.263-10.6585-12.611-14.8855-18.218-2.1438-2.874-3.8427-7.57-6.3708-10.121-10.9618-19.028-2.8112-46.415 20.8316-65.059 3.5284 6.165 7.8308 11.852 12.8023 16.923 42.3305 43.136 127.5576 34.189 202.3896-24.878 83.448-65.828 122.38-169.023 86.967-230.4787-3.541-6.1681-7.849-11.8612-12.823-16.9428-42.33-43.2578-127.558-34.3107-202.389 24.7563C46.8092 147.162 7.87644 250.357 43.2699 311.813c-23.6226 18.623-31.7732 46.031-20.8114 65.059-3.2966-6.235-7.3416-14.717-10.1124-21.174-1.4359-3.38-2.89213-8.097-4.04494-11.558-1.98634-6.964-3.61989-14.024-4.89441-21.153-.74832-3.786-1.21349-8.947-1.63821-12.773-.68764-6.073-.74832-14.17-.76854-20.121 0-4.17.34382-9.716.66742-13.866.44494-5.688 1.47641-13.218 2.38653-18.846.68764-4.412 2.02248-10.262 2.95282-14.635 1.19326-5.364 3.21573-12.408 4.83373-17.651 1.3955-4.575 3.4989-10.587 5.1776-15.06 1.9011-5.061 4.6719-11.721 6.8966-16.66 2.2247-4.939 5.0967-11.133 7.645-15.748 5.036-9.13 12.1349-21.073 17.7169-29.898 2.8922-4.615 7.3214-10.405 10.4563-14.838 3.1348-4.433 7.7663-10.121 11.2449-14.169 3.4787-4.049 8.4338-9.777 12.1349-13.887 3.7012-4.109 9.0203-9.5135 13.045-13.4203 4.0243-3.9068 9.6073-9.1293 13.8743-12.8741 4.267-3.7448 10.234-8.7244 14.744-12.2871 4.51-3.5626 10.658-8.3398 15.492-11.5583 4.834-3.2186 10.739-7.3075 15.452-10.2629 4.712-2.9554 11.245-6.9633 16.18-9.5341 4.935-2.5708 11.932-6.4371 17.251-8.7649 9.182-4.0485 21.54-9.1293 31.005-12.449 5.319-1.8421 12.56-3.86631 18-5.30352 4.49-1.17405 10.557-2.51004 15.128-3.38046 5.663-1.0526 13.288-2.14569 19.012-2.79344 4.308-.50606 10.112-.93115 14.4-1.03236 6.067-.14169 14.036 0 20.022.26315 4.045.18218 9.364.76921 13.328 1.31575 6.29.89066 14.582 2.65174 20.751 4.04846 3.641.87042 8.414 2.40884 11.953 3.64362 7.002 2.5963 13.867 5.5488 20.569 8.8459 3.215 1.5384 7.22 4.0484 10.314 5.8905 6.333 3.9819 12.363 8.4271 18.041 13.2992 3.094 2.5505 6.876 6.3358 9.667 9.2102 2.468 2.5303 5.542 6.0727 7.787 8.8054 5.023 6.1695 9.58 12.7057 13.631 19.5541v0z"/><path stroke="#9CFFDB" stroke-miterlimit="10" stroke-width="2" d="M109.769 379.543c-26.7977 21.153-63.526 23.177-81.8497 4.493-46.8204-81.232 4.6517-217.564 114.9377-304.6057 18.324 18.6229 42.492 49.8767 53.879 69.6337-83.448 65.828-122.3805 169.023-86.967 230.479zM51.3194 395.878C6.07651 317.358 55.8296 185.48 162.354 101.353M98.0388 307.116c-28.881 8.299-67.3081-.142-85.6318-18.826M129.225 224.426c-23.339-6.376-57.256-26.76-75.5999-45.444M162.354 101.353C269.06 17.2257 392.168 12.6307 437.411 91.2113M281.68 104.085c3.701-27.7316-8.191-65.4835-26.535-84.1671M358.939 101.231c17.414-28.339 16.645-66.3945-1.679-85.0175"/><path stroke="#9CFFDB" stroke-miterlimit="10" stroke-width="2" d="M411.928 141.109c26.818-21.194 33.715-53.5818 15.371-72.225 46.82 81.232-4.652 217.625-114.938 304.667 18.344 18.663 23.987 17.813 12.62-2.024 83.428-65.768 122.36-168.963 86.947-230.418zM423.679 213.556c28.881-8.3 37.476-30.242 19.132-48.926M392.472 296.246c23.359 6.376 27.445-3.644 9.121-22.267"/><path stroke="#9CFFDB" stroke-miterlimit="10" stroke-width="2" d="M324.981 371.608c11.367 19.756 5.724 20.606-12.62 2.024-110.286 87.042-237.6415 91.718-284.4417 10.485 18.3237 18.684 55.052 16.66 81.8497-4.493 35.414 61.394 131.765 57.832 215.212-8.016zM239.977 416.586c-3.722 27.732-21.641 35.1-39.965 16.417M162.758 419.501c-17.393 28.238-46.517 36.011-64.7192 17.327M17.7868 361.709c-45.2429-78.52 4.5101-210.398 111.1152-294.4241M12.4069 288.29c-18.34389-18.582-9.82925-40.626 19.1327-48.946M53.6252 178.982c-18.3236-18.664-14.1573-28.683 9.1214-22.267"/><path stroke="#9CFFDB" stroke-miterlimit="10" stroke-width="2" d="M142.857 79.4302c-18.344-18.6634-23.987-17.8132-12.62 2.0243 83.447-65.9899 179.758-69.5526 215.212-8.0969 26.798-21.1532 63.526-23.1775 81.85-4.4938-46.801-81.2121-174.156-76.47545-284.442 10.5664zM128.902 67.2849c106.625-84.127 229.733-88.6815 275.057-10.1212M255.206 19.9179c-18.324-18.68364-36.223-11.33569-39.965 16.4165M357.26 16.1528c-18.323-18.68363-47.407-10.91059-64.719 17.3274"/><path stroke="#9CFFDB" stroke-miterlimit="10" stroke-width="2" d="M427.299 68.884c-18.324-18.6836-55.052-16.6594-81.85 4.4938 35.414 61.4552-3.519 164.6512-86.967 230.4792 11.387 19.756 35.555 51.01 53.879 69.694 110.286-87.042 161.758-223.435 114.938-304.667zM403.899 57.0423c45.243 78.5197-4.51 210.3987-111.115 294.5257M374.512 58.6616c41.157 71.4144-4.045 191.3704-101.124 267.8864M442.811 164.63c-18.323-18.684-56.751-27.125-85.632-18.825M401.593 273.939c-18.344-18.684-52.261-39.068-75.6-45.444M292.784 351.568c-106.626 84.127-229.7341 88.681-275.0579 10.121M273.428 326.548c-96.917 76.536-208.9624 80.666-250.1199 9.231M200.012 433.002c-18.344-18.683-30.337-56.435-26.535-84.167M97.958 436.768c-18.3236-18.684-19.0922-56.841-1.6786-85.018"/><path stroke="#9CFFDB" stroke-miterlimit="10" stroke-width="2" d="M125.14 307.318c18.344 18.663 11.447 51.071-15.371 72.225-35.4135-61.456 3.519-164.651 86.967-230.479 11.366 19.736 5.723 20.606-12.62 1.923-56.589 44.654-82.983 114.672-58.976 156.331zM117.191 258.19c18.324 18.663 9.749 40.626-19.1524 48.926M138.347 202.099c18.323 18.683 14.157 28.703-9.122 22.266M241.776 120.482c18.324 18.683 36.264 11.315 39.965-16.397M294.138 118.559c18.324 18.683 47.407 10.91 64.72-17.328M338.026 194.811c18.344 18.684 56.751 27.125 85.652 18.826M213.442 332.459c18.343 18.663 30.236 56.415 26.534 84.147M161.079 334.362c18.344 18.683 19.092 56.84 1.679 85.018M80.7059 394.259c-41.1575-71.415 4.045-191.371 101.1241-267.887M51.3194 395.878C6.07651 317.358 55.8296 185.48 162.354 101.353M98.0386 307.116c-28.881 8.299-67.3082-.142-85.6319-18.826M181.79 126.372c97.079-76.536 208.962-80.6654 250.12-9.23M162.354 101.353C269.06 17.2257 392.168 12.6307 437.411 91.2113M281.68 104.085c3.701-27.7316-8.191-65.4835-26.535-84.1671M358.939 101.231c17.413-28.339 16.645-66.3945-1.679-85.0175M423.678 213.556c28.881-8.3 37.477-30.242 19.133-48.926M392.472 296.246c23.359 6.376 27.445-3.644 9.121-22.267M239.976 416.586c-3.721 27.732-21.64 35.1-39.964 16.417M12.4068 288.29c-18.34392-18.582-9.82927-40.626 19.1327-48.946M53.6251 178.982c-18.3237-18.664-14.1574-28.683 9.1214-22.267"/><path stroke="#9CFFDB" stroke-miterlimit="10" stroke-width="2" d="M142.857 79.4302c-18.344-18.6634-23.987-17.8132-12.621 2.0243 83.448-65.9899 179.759-69.5526 215.213-8.0969 26.798-21.1532 63.526-23.1775 81.85-4.4938-46.801-81.2121-174.156-76.47545-284.442 10.5664zM128.902 67.2849c106.625-84.127 229.733-88.6815 275.057-10.1212M255.206 19.9179c-18.324-18.68364-36.223-11.33569-39.965 16.4165M357.26 16.1528c-18.324-18.68363-47.407-10.91058-64.719 17.3274M403.899 57.0423c45.242 78.5197-4.511 210.3987-111.116 294.5257M442.811 164.63c-18.324-18.684-56.751-27.125-85.632-18.825M401.593 273.939c-18.344-18.684-52.261-39.068-75.6-45.444M292.783 351.568c-106.625 84.127-229.7332 88.681-275.057 10.121M200.012 433.003c-18.344-18.684-30.337-56.436-26.535-84.168M97.9579 436.768c-18.3237-18.684-19.0922-56.841-1.6786-85.018M241.837 119.915c-18.202-18.481-29.912-55.8284-26.292-83.277M353.741 156.918c25.686 44.533-2.548 119.429-63.041 167.14"/></svg>